%TF.GenerationSoftware,KiCad,Pcbnew,10.0.3-10.0.3~ubuntu24.04.1*%
%TF.CreationDate,2026-07-06T22:37:54+08:00*%
%TF.ProjectId,sk6812rgbw-5050-rgbw-led,736b3638-3132-4726-9762-772d35303530,rev?*%
%TF.SameCoordinates,Original*%
%TF.FileFunction,AssemblyDrawing,Top*%
%FSLAX46Y46*%
G04 Gerber Fmt 4.6, Leading zero omitted, Abs format (unit mm)*
G04 Created by KiCad (PCBNEW 10.0.3-10.0.3~ubuntu24.04.1) date 2026-07-06 22:37:54*
%MOMM*%
%LPD*%
G01*
G04 APERTURE LIST*
%ADD10C,0.100000*%
%ADD11C,0.080000*%
%ADD12C,0.150000*%
G04 APERTURE END LIST*
D10*
X144110001Y-110452100D02*
X144198572Y-110481623D01*
X144198572Y-110481623D02*
X144346191Y-110481623D01*
X144346191Y-110481623D02*
X144405239Y-110452100D01*
X144405239Y-110452100D02*
X144434763Y-110422576D01*
X144434763Y-110422576D02*
X144464286Y-110363528D01*
X144464286Y-110363528D02*
X144464286Y-110304480D01*
X144464286Y-110304480D02*
X144434763Y-110245433D01*
X144434763Y-110245433D02*
X144405239Y-110215909D01*
X144405239Y-110215909D02*
X144346191Y-110186385D01*
X144346191Y-110186385D02*
X144228096Y-110156861D01*
X144228096Y-110156861D02*
X144169048Y-110127338D01*
X144169048Y-110127338D02*
X144139525Y-110097814D01*
X144139525Y-110097814D02*
X144110001Y-110038766D01*
X144110001Y-110038766D02*
X144110001Y-109979719D01*
X144110001Y-109979719D02*
X144139525Y-109920671D01*
X144139525Y-109920671D02*
X144169048Y-109891147D01*
X144169048Y-109891147D02*
X144228096Y-109861623D01*
X144228096Y-109861623D02*
X144375715Y-109861623D01*
X144375715Y-109861623D02*
X144464286Y-109891147D01*
X144730001Y-110481623D02*
X144730001Y-109861623D01*
X145084286Y-110481623D02*
X144818572Y-110127338D01*
X145084286Y-109861623D02*
X144730001Y-110215909D01*
X145615715Y-109861623D02*
X145497620Y-109861623D01*
X145497620Y-109861623D02*
X145438572Y-109891147D01*
X145438572Y-109891147D02*
X145409048Y-109920671D01*
X145409048Y-109920671D02*
X145350001Y-110009242D01*
X145350001Y-110009242D02*
X145320477Y-110127338D01*
X145320477Y-110127338D02*
X145320477Y-110363528D01*
X145320477Y-110363528D02*
X145350001Y-110422576D01*
X145350001Y-110422576D02*
X145379524Y-110452100D01*
X145379524Y-110452100D02*
X145438572Y-110481623D01*
X145438572Y-110481623D02*
X145556667Y-110481623D01*
X145556667Y-110481623D02*
X145615715Y-110452100D01*
X145615715Y-110452100D02*
X145645239Y-110422576D01*
X145645239Y-110422576D02*
X145674762Y-110363528D01*
X145674762Y-110363528D02*
X145674762Y-110215909D01*
X145674762Y-110215909D02*
X145645239Y-110156861D01*
X145645239Y-110156861D02*
X145615715Y-110127338D01*
X145615715Y-110127338D02*
X145556667Y-110097814D01*
X145556667Y-110097814D02*
X145438572Y-110097814D01*
X145438572Y-110097814D02*
X145379524Y-110127338D01*
X145379524Y-110127338D02*
X145350001Y-110156861D01*
X145350001Y-110156861D02*
X145320477Y-110215909D01*
X146029048Y-110127338D02*
X145970000Y-110097814D01*
X145970000Y-110097814D02*
X145940477Y-110068290D01*
X145940477Y-110068290D02*
X145910953Y-110009242D01*
X145910953Y-110009242D02*
X145910953Y-109979719D01*
X145910953Y-109979719D02*
X145940477Y-109920671D01*
X145940477Y-109920671D02*
X145970000Y-109891147D01*
X145970000Y-109891147D02*
X146029048Y-109861623D01*
X146029048Y-109861623D02*
X146147143Y-109861623D01*
X146147143Y-109861623D02*
X146206191Y-109891147D01*
X146206191Y-109891147D02*
X146235715Y-109920671D01*
X146235715Y-109920671D02*
X146265238Y-109979719D01*
X146265238Y-109979719D02*
X146265238Y-110009242D01*
X146265238Y-110009242D02*
X146235715Y-110068290D01*
X146235715Y-110068290D02*
X146206191Y-110097814D01*
X146206191Y-110097814D02*
X146147143Y-110127338D01*
X146147143Y-110127338D02*
X146029048Y-110127338D01*
X146029048Y-110127338D02*
X145970000Y-110156861D01*
X145970000Y-110156861D02*
X145940477Y-110186385D01*
X145940477Y-110186385D02*
X145910953Y-110245433D01*
X145910953Y-110245433D02*
X145910953Y-110363528D01*
X145910953Y-110363528D02*
X145940477Y-110422576D01*
X145940477Y-110422576D02*
X145970000Y-110452100D01*
X145970000Y-110452100D02*
X146029048Y-110481623D01*
X146029048Y-110481623D02*
X146147143Y-110481623D01*
X146147143Y-110481623D02*
X146206191Y-110452100D01*
X146206191Y-110452100D02*
X146235715Y-110422576D01*
X146235715Y-110422576D02*
X146265238Y-110363528D01*
X146265238Y-110363528D02*
X146265238Y-110245433D01*
X146265238Y-110245433D02*
X146235715Y-110186385D01*
X146235715Y-110186385D02*
X146206191Y-110156861D01*
X146206191Y-110156861D02*
X146147143Y-110127338D01*
X146855714Y-110481623D02*
X146501429Y-110481623D01*
X146678572Y-110481623D02*
X146678572Y-109861623D01*
X146678572Y-109861623D02*
X146619524Y-109950195D01*
X146619524Y-109950195D02*
X146560476Y-110009242D01*
X146560476Y-110009242D02*
X146501429Y-110038766D01*
X147091905Y-109920671D02*
X147121429Y-109891147D01*
X147121429Y-109891147D02*
X147180476Y-109861623D01*
X147180476Y-109861623D02*
X147328095Y-109861623D01*
X147328095Y-109861623D02*
X147387143Y-109891147D01*
X147387143Y-109891147D02*
X147416667Y-109920671D01*
X147416667Y-109920671D02*
X147446190Y-109979719D01*
X147446190Y-109979719D02*
X147446190Y-110038766D01*
X147446190Y-110038766D02*
X147416667Y-110127338D01*
X147416667Y-110127338D02*
X147062381Y-110481623D01*
X147062381Y-110481623D02*
X147446190Y-110481623D01*
X148066190Y-110481623D02*
X147859524Y-110186385D01*
X147711905Y-110481623D02*
X147711905Y-109861623D01*
X147711905Y-109861623D02*
X147948095Y-109861623D01*
X147948095Y-109861623D02*
X148007143Y-109891147D01*
X148007143Y-109891147D02*
X148036666Y-109920671D01*
X148036666Y-109920671D02*
X148066190Y-109979719D01*
X148066190Y-109979719D02*
X148066190Y-110068290D01*
X148066190Y-110068290D02*
X148036666Y-110127338D01*
X148036666Y-110127338D02*
X148007143Y-110156861D01*
X148007143Y-110156861D02*
X147948095Y-110186385D01*
X147948095Y-110186385D02*
X147711905Y-110186385D01*
X148656666Y-109891147D02*
X148597619Y-109861623D01*
X148597619Y-109861623D02*
X148509047Y-109861623D01*
X148509047Y-109861623D02*
X148420476Y-109891147D01*
X148420476Y-109891147D02*
X148361428Y-109950195D01*
X148361428Y-109950195D02*
X148331905Y-110009242D01*
X148331905Y-110009242D02*
X148302381Y-110127338D01*
X148302381Y-110127338D02*
X148302381Y-110215909D01*
X148302381Y-110215909D02*
X148331905Y-110334004D01*
X148331905Y-110334004D02*
X148361428Y-110393052D01*
X148361428Y-110393052D02*
X148420476Y-110452100D01*
X148420476Y-110452100D02*
X148509047Y-110481623D01*
X148509047Y-110481623D02*
X148568095Y-110481623D01*
X148568095Y-110481623D02*
X148656666Y-110452100D01*
X148656666Y-110452100D02*
X148686190Y-110422576D01*
X148686190Y-110422576D02*
X148686190Y-110215909D01*
X148686190Y-110215909D02*
X148568095Y-110215909D01*
X149158571Y-110156861D02*
X149247143Y-110186385D01*
X149247143Y-110186385D02*
X149276666Y-110215909D01*
X149276666Y-110215909D02*
X149306190Y-110274957D01*
X149306190Y-110274957D02*
X149306190Y-110363528D01*
X149306190Y-110363528D02*
X149276666Y-110422576D01*
X149276666Y-110422576D02*
X149247143Y-110452100D01*
X149247143Y-110452100D02*
X149188095Y-110481623D01*
X149188095Y-110481623D02*
X148951905Y-110481623D01*
X148951905Y-110481623D02*
X148951905Y-109861623D01*
X148951905Y-109861623D02*
X149158571Y-109861623D01*
X149158571Y-109861623D02*
X149217619Y-109891147D01*
X149217619Y-109891147D02*
X149247143Y-109920671D01*
X149247143Y-109920671D02*
X149276666Y-109979719D01*
X149276666Y-109979719D02*
X149276666Y-110038766D01*
X149276666Y-110038766D02*
X149247143Y-110097814D01*
X149247143Y-110097814D02*
X149217619Y-110127338D01*
X149217619Y-110127338D02*
X149158571Y-110156861D01*
X149158571Y-110156861D02*
X148951905Y-110156861D01*
X149512857Y-109861623D02*
X149660476Y-110481623D01*
X149660476Y-110481623D02*
X149778571Y-110038766D01*
X149778571Y-110038766D02*
X149896666Y-110481623D01*
X149896666Y-110481623D02*
X150044286Y-109861623D01*
X151048095Y-109861623D02*
X150752857Y-109861623D01*
X150752857Y-109861623D02*
X150723333Y-110156861D01*
X150723333Y-110156861D02*
X150752857Y-110127338D01*
X150752857Y-110127338D02*
X150811904Y-110097814D01*
X150811904Y-110097814D02*
X150959523Y-110097814D01*
X150959523Y-110097814D02*
X151018571Y-110127338D01*
X151018571Y-110127338D02*
X151048095Y-110156861D01*
X151048095Y-110156861D02*
X151077618Y-110215909D01*
X151077618Y-110215909D02*
X151077618Y-110363528D01*
X151077618Y-110363528D02*
X151048095Y-110422576D01*
X151048095Y-110422576D02*
X151018571Y-110452100D01*
X151018571Y-110452100D02*
X150959523Y-110481623D01*
X150959523Y-110481623D02*
X150811904Y-110481623D01*
X150811904Y-110481623D02*
X150752857Y-110452100D01*
X150752857Y-110452100D02*
X150723333Y-110422576D01*
X151461428Y-109861623D02*
X151520475Y-109861623D01*
X151520475Y-109861623D02*
X151579523Y-109891147D01*
X151579523Y-109891147D02*
X151609047Y-109920671D01*
X151609047Y-109920671D02*
X151638571Y-109979719D01*
X151638571Y-109979719D02*
X151668094Y-110097814D01*
X151668094Y-110097814D02*
X151668094Y-110245433D01*
X151668094Y-110245433D02*
X151638571Y-110363528D01*
X151638571Y-110363528D02*
X151609047Y-110422576D01*
X151609047Y-110422576D02*
X151579523Y-110452100D01*
X151579523Y-110452100D02*
X151520475Y-110481623D01*
X151520475Y-110481623D02*
X151461428Y-110481623D01*
X151461428Y-110481623D02*
X151402380Y-110452100D01*
X151402380Y-110452100D02*
X151372856Y-110422576D01*
X151372856Y-110422576D02*
X151343333Y-110363528D01*
X151343333Y-110363528D02*
X151313809Y-110245433D01*
X151313809Y-110245433D02*
X151313809Y-110097814D01*
X151313809Y-110097814D02*
X151343333Y-109979719D01*
X151343333Y-109979719D02*
X151372856Y-109920671D01*
X151372856Y-109920671D02*
X151402380Y-109891147D01*
X151402380Y-109891147D02*
X151461428Y-109861623D01*
X152229047Y-109861623D02*
X151933809Y-109861623D01*
X151933809Y-109861623D02*
X151904285Y-110156861D01*
X151904285Y-110156861D02*
X151933809Y-110127338D01*
X151933809Y-110127338D02*
X151992856Y-110097814D01*
X151992856Y-110097814D02*
X152140475Y-110097814D01*
X152140475Y-110097814D02*
X152199523Y-110127338D01*
X152199523Y-110127338D02*
X152229047Y-110156861D01*
X152229047Y-110156861D02*
X152258570Y-110215909D01*
X152258570Y-110215909D02*
X152258570Y-110363528D01*
X152258570Y-110363528D02*
X152229047Y-110422576D01*
X152229047Y-110422576D02*
X152199523Y-110452100D01*
X152199523Y-110452100D02*
X152140475Y-110481623D01*
X152140475Y-110481623D02*
X151992856Y-110481623D01*
X151992856Y-110481623D02*
X151933809Y-110452100D01*
X151933809Y-110452100D02*
X151904285Y-110422576D01*
X152642380Y-109861623D02*
X152701427Y-109861623D01*
X152701427Y-109861623D02*
X152760475Y-109891147D01*
X152760475Y-109891147D02*
X152789999Y-109920671D01*
X152789999Y-109920671D02*
X152819523Y-109979719D01*
X152819523Y-109979719D02*
X152849046Y-110097814D01*
X152849046Y-110097814D02*
X152849046Y-110245433D01*
X152849046Y-110245433D02*
X152819523Y-110363528D01*
X152819523Y-110363528D02*
X152789999Y-110422576D01*
X152789999Y-110422576D02*
X152760475Y-110452100D01*
X152760475Y-110452100D02*
X152701427Y-110481623D01*
X152701427Y-110481623D02*
X152642380Y-110481623D01*
X152642380Y-110481623D02*
X152583332Y-110452100D01*
X152583332Y-110452100D02*
X152553808Y-110422576D01*
X152553808Y-110422576D02*
X152524285Y-110363528D01*
X152524285Y-110363528D02*
X152494761Y-110245433D01*
X152494761Y-110245433D02*
X152494761Y-110097814D01*
X152494761Y-110097814D02*
X152524285Y-109979719D01*
X152524285Y-109979719D02*
X152553808Y-109920671D01*
X152553808Y-109920671D02*
X152583332Y-109891147D01*
X152583332Y-109891147D02*
X152642380Y-109861623D01*
X153941427Y-110481623D02*
X153734761Y-110186385D01*
X153587142Y-110481623D02*
X153587142Y-109861623D01*
X153587142Y-109861623D02*
X153823332Y-109861623D01*
X153823332Y-109861623D02*
X153882380Y-109891147D01*
X153882380Y-109891147D02*
X153911903Y-109920671D01*
X153911903Y-109920671D02*
X153941427Y-109979719D01*
X153941427Y-109979719D02*
X153941427Y-110068290D01*
X153941427Y-110068290D02*
X153911903Y-110127338D01*
X153911903Y-110127338D02*
X153882380Y-110156861D01*
X153882380Y-110156861D02*
X153823332Y-110186385D01*
X153823332Y-110186385D02*
X153587142Y-110186385D01*
X154531903Y-109891147D02*
X154472856Y-109861623D01*
X154472856Y-109861623D02*
X154384284Y-109861623D01*
X154384284Y-109861623D02*
X154295713Y-109891147D01*
X154295713Y-109891147D02*
X154236665Y-109950195D01*
X154236665Y-109950195D02*
X154207142Y-110009242D01*
X154207142Y-110009242D02*
X154177618Y-110127338D01*
X154177618Y-110127338D02*
X154177618Y-110215909D01*
X154177618Y-110215909D02*
X154207142Y-110334004D01*
X154207142Y-110334004D02*
X154236665Y-110393052D01*
X154236665Y-110393052D02*
X154295713Y-110452100D01*
X154295713Y-110452100D02*
X154384284Y-110481623D01*
X154384284Y-110481623D02*
X154443332Y-110481623D01*
X154443332Y-110481623D02*
X154531903Y-110452100D01*
X154531903Y-110452100D02*
X154561427Y-110422576D01*
X154561427Y-110422576D02*
X154561427Y-110215909D01*
X154561427Y-110215909D02*
X154443332Y-110215909D01*
X155033808Y-110156861D02*
X155122380Y-110186385D01*
X155122380Y-110186385D02*
X155151903Y-110215909D01*
X155151903Y-110215909D02*
X155181427Y-110274957D01*
X155181427Y-110274957D02*
X155181427Y-110363528D01*
X155181427Y-110363528D02*
X155151903Y-110422576D01*
X155151903Y-110422576D02*
X155122380Y-110452100D01*
X155122380Y-110452100D02*
X155063332Y-110481623D01*
X155063332Y-110481623D02*
X154827142Y-110481623D01*
X154827142Y-110481623D02*
X154827142Y-109861623D01*
X154827142Y-109861623D02*
X155033808Y-109861623D01*
X155033808Y-109861623D02*
X155092856Y-109891147D01*
X155092856Y-109891147D02*
X155122380Y-109920671D01*
X155122380Y-109920671D02*
X155151903Y-109979719D01*
X155151903Y-109979719D02*
X155151903Y-110038766D01*
X155151903Y-110038766D02*
X155122380Y-110097814D01*
X155122380Y-110097814D02*
X155092856Y-110127338D01*
X155092856Y-110127338D02*
X155033808Y-110156861D01*
X155033808Y-110156861D02*
X154827142Y-110156861D01*
X155388094Y-109861623D02*
X155535713Y-110481623D01*
X155535713Y-110481623D02*
X155653808Y-110038766D01*
X155653808Y-110038766D02*
X155771903Y-110481623D01*
X155771903Y-110481623D02*
X155919523Y-109861623D01*
D11*
X145988572Y-89516401D02*
X145988572Y-89887830D01*
X145988572Y-89887830D02*
X145963811Y-89962116D01*
X145963811Y-89962116D02*
X145914287Y-90011640D01*
X145914287Y-90011640D02*
X145840001Y-90036401D01*
X145840001Y-90036401D02*
X145790477Y-90036401D01*
X146508572Y-90036401D02*
X146211429Y-90036401D01*
X146360001Y-90036401D02*
X146360001Y-89516401D01*
X146360001Y-89516401D02*
X146310477Y-89590687D01*
X146310477Y-89590687D02*
X146260953Y-89640211D01*
X146260953Y-89640211D02*
X146211429Y-89664973D01*
X146731429Y-89986878D02*
X146756191Y-90011640D01*
X146756191Y-90011640D02*
X146731429Y-90036401D01*
X146731429Y-90036401D02*
X146706667Y-90011640D01*
X146706667Y-90011640D02*
X146731429Y-89986878D01*
X146731429Y-89986878D02*
X146731429Y-90036401D01*
X146731429Y-89714497D02*
X146756191Y-89739259D01*
X146756191Y-89739259D02*
X146731429Y-89764020D01*
X146731429Y-89764020D02*
X146706667Y-89739259D01*
X146706667Y-89739259D02*
X146731429Y-89714497D01*
X146731429Y-89714497D02*
X146731429Y-89764020D01*
X147622857Y-89516401D02*
X147375238Y-89516401D01*
X147375238Y-89516401D02*
X147350476Y-89764020D01*
X147350476Y-89764020D02*
X147375238Y-89739259D01*
X147375238Y-89739259D02*
X147424762Y-89714497D01*
X147424762Y-89714497D02*
X147548571Y-89714497D01*
X147548571Y-89714497D02*
X147598095Y-89739259D01*
X147598095Y-89739259D02*
X147622857Y-89764020D01*
X147622857Y-89764020D02*
X147647619Y-89813544D01*
X147647619Y-89813544D02*
X147647619Y-89937354D01*
X147647619Y-89937354D02*
X147622857Y-89986878D01*
X147622857Y-89986878D02*
X147598095Y-90011640D01*
X147598095Y-90011640D02*
X147548571Y-90036401D01*
X147548571Y-90036401D02*
X147424762Y-90036401D01*
X147424762Y-90036401D02*
X147375238Y-90011640D01*
X147375238Y-90011640D02*
X147350476Y-89986878D01*
X147796190Y-89516401D02*
X147969524Y-90036401D01*
X147969524Y-90036401D02*
X148142857Y-89516401D01*
X148984761Y-89541163D02*
X148935237Y-89516401D01*
X148935237Y-89516401D02*
X148860951Y-89516401D01*
X148860951Y-89516401D02*
X148786666Y-89541163D01*
X148786666Y-89541163D02*
X148737142Y-89590687D01*
X148737142Y-89590687D02*
X148712380Y-89640211D01*
X148712380Y-89640211D02*
X148687618Y-89739259D01*
X148687618Y-89739259D02*
X148687618Y-89813544D01*
X148687618Y-89813544D02*
X148712380Y-89912592D01*
X148712380Y-89912592D02*
X148737142Y-89962116D01*
X148737142Y-89962116D02*
X148786666Y-90011640D01*
X148786666Y-90011640D02*
X148860951Y-90036401D01*
X148860951Y-90036401D02*
X148910475Y-90036401D01*
X148910475Y-90036401D02*
X148984761Y-90011640D01*
X148984761Y-90011640D02*
X149009523Y-89986878D01*
X149009523Y-89986878D02*
X149009523Y-89813544D01*
X149009523Y-89813544D02*
X148910475Y-89813544D01*
X149232380Y-90036401D02*
X149232380Y-89516401D01*
X149232380Y-89516401D02*
X149529523Y-90036401D01*
X149529523Y-90036401D02*
X149529523Y-89516401D01*
X149777142Y-90036401D02*
X149777142Y-89516401D01*
X149777142Y-89516401D02*
X149900952Y-89516401D01*
X149900952Y-89516401D02*
X149975237Y-89541163D01*
X149975237Y-89541163D02*
X150024761Y-89590687D01*
X150024761Y-89590687D02*
X150049523Y-89640211D01*
X150049523Y-89640211D02*
X150074285Y-89739259D01*
X150074285Y-89739259D02*
X150074285Y-89813544D01*
X150074285Y-89813544D02*
X150049523Y-89912592D01*
X150049523Y-89912592D02*
X150024761Y-89962116D01*
X150024761Y-89962116D02*
X149975237Y-90011640D01*
X149975237Y-90011640D02*
X149900952Y-90036401D01*
X149900952Y-90036401D02*
X149777142Y-90036401D01*
X150693332Y-90036401D02*
X150693332Y-89516401D01*
X150693332Y-89516401D02*
X150817142Y-89516401D01*
X150817142Y-89516401D02*
X150891427Y-89541163D01*
X150891427Y-89541163D02*
X150940951Y-89590687D01*
X150940951Y-89590687D02*
X150965713Y-89640211D01*
X150965713Y-89640211D02*
X150990475Y-89739259D01*
X150990475Y-89739259D02*
X150990475Y-89813544D01*
X150990475Y-89813544D02*
X150965713Y-89912592D01*
X150965713Y-89912592D02*
X150940951Y-89962116D01*
X150940951Y-89962116D02*
X150891427Y-90011640D01*
X150891427Y-90011640D02*
X150817142Y-90036401D01*
X150817142Y-90036401D02*
X150693332Y-90036401D01*
X151213332Y-90036401D02*
X151213332Y-89516401D01*
X151460951Y-90036401D02*
X151460951Y-89516401D01*
X151460951Y-89516401D02*
X151758094Y-90036401D01*
X151758094Y-90036401D02*
X151758094Y-89516401D01*
X152401903Y-90036401D02*
X152401903Y-89516401D01*
X152401903Y-89516401D02*
X152525713Y-89516401D01*
X152525713Y-89516401D02*
X152599998Y-89541163D01*
X152599998Y-89541163D02*
X152649522Y-89590687D01*
X152649522Y-89590687D02*
X152674284Y-89640211D01*
X152674284Y-89640211D02*
X152699046Y-89739259D01*
X152699046Y-89739259D02*
X152699046Y-89813544D01*
X152699046Y-89813544D02*
X152674284Y-89912592D01*
X152674284Y-89912592D02*
X152649522Y-89962116D01*
X152649522Y-89962116D02*
X152599998Y-90011640D01*
X152599998Y-90011640D02*
X152525713Y-90036401D01*
X152525713Y-90036401D02*
X152401903Y-90036401D01*
X153020951Y-89516401D02*
X153119998Y-89516401D01*
X153119998Y-89516401D02*
X153169522Y-89541163D01*
X153169522Y-89541163D02*
X153219046Y-89590687D01*
X153219046Y-89590687D02*
X153243808Y-89689735D01*
X153243808Y-89689735D02*
X153243808Y-89863068D01*
X153243808Y-89863068D02*
X153219046Y-89962116D01*
X153219046Y-89962116D02*
X153169522Y-90011640D01*
X153169522Y-90011640D02*
X153119998Y-90036401D01*
X153119998Y-90036401D02*
X153020951Y-90036401D01*
X153020951Y-90036401D02*
X152971427Y-90011640D01*
X152971427Y-90011640D02*
X152921903Y-89962116D01*
X152921903Y-89962116D02*
X152897141Y-89863068D01*
X152897141Y-89863068D02*
X152897141Y-89689735D01*
X152897141Y-89689735D02*
X152921903Y-89590687D01*
X152921903Y-89590687D02*
X152971427Y-89541163D01*
X152971427Y-89541163D02*
X153020951Y-89516401D01*
X153466665Y-89516401D02*
X153466665Y-89937354D01*
X153466665Y-89937354D02*
X153491427Y-89986878D01*
X153491427Y-89986878D02*
X153516189Y-90011640D01*
X153516189Y-90011640D02*
X153565713Y-90036401D01*
X153565713Y-90036401D02*
X153664760Y-90036401D01*
X153664760Y-90036401D02*
X153714284Y-90011640D01*
X153714284Y-90011640D02*
X153739046Y-89986878D01*
X153739046Y-89986878D02*
X153763808Y-89937354D01*
X153763808Y-89937354D02*
X153763808Y-89516401D01*
X153937141Y-89516401D02*
X154234284Y-89516401D01*
X154085713Y-90036401D02*
X154085713Y-89516401D01*
D10*
X156100000Y-99084895D02*
X156100000Y-98284895D01*
X156100000Y-98284895D02*
X156290476Y-98284895D01*
X156290476Y-98284895D02*
X156404762Y-98322990D01*
X156404762Y-98322990D02*
X156480952Y-98399180D01*
X156480952Y-98399180D02*
X156519047Y-98475371D01*
X156519047Y-98475371D02*
X156557143Y-98627752D01*
X156557143Y-98627752D02*
X156557143Y-98742038D01*
X156557143Y-98742038D02*
X156519047Y-98894419D01*
X156519047Y-98894419D02*
X156480952Y-98970609D01*
X156480952Y-98970609D02*
X156404762Y-99046800D01*
X156404762Y-99046800D02*
X156290476Y-99084895D01*
X156290476Y-99084895D02*
X156100000Y-99084895D01*
X156900000Y-99084895D02*
X156900000Y-98284895D01*
D12*
X139214285Y-97654819D02*
X139214285Y-96654819D01*
X139214285Y-96654819D02*
X139547618Y-97369104D01*
X139547618Y-97369104D02*
X139880951Y-96654819D01*
X139880951Y-96654819D02*
X139880951Y-97654819D01*
X140499999Y-97654819D02*
X140404761Y-97607200D01*
X140404761Y-97607200D02*
X140357142Y-97559580D01*
X140357142Y-97559580D02*
X140309523Y-97464342D01*
X140309523Y-97464342D02*
X140309523Y-97178628D01*
X140309523Y-97178628D02*
X140357142Y-97083390D01*
X140357142Y-97083390D02*
X140404761Y-97035771D01*
X140404761Y-97035771D02*
X140499999Y-96988152D01*
X140499999Y-96988152D02*
X140642856Y-96988152D01*
X140642856Y-96988152D02*
X140738094Y-97035771D01*
X140738094Y-97035771D02*
X140785713Y-97083390D01*
X140785713Y-97083390D02*
X140833332Y-97178628D01*
X140833332Y-97178628D02*
X140833332Y-97464342D01*
X140833332Y-97464342D02*
X140785713Y-97559580D01*
X140785713Y-97559580D02*
X140738094Y-97607200D01*
X140738094Y-97607200D02*
X140642856Y-97654819D01*
X140642856Y-97654819D02*
X140499999Y-97654819D01*
X141690475Y-96988152D02*
X141690475Y-97654819D01*
X141261904Y-96988152D02*
X141261904Y-97511961D01*
X141261904Y-97511961D02*
X141309523Y-97607200D01*
X141309523Y-97607200D02*
X141404761Y-97654819D01*
X141404761Y-97654819D02*
X141547618Y-97654819D01*
X141547618Y-97654819D02*
X141642856Y-97607200D01*
X141642856Y-97607200D02*
X141690475Y-97559580D01*
X142166666Y-96988152D02*
X142166666Y-97654819D01*
X142166666Y-97083390D02*
X142214285Y-97035771D01*
X142214285Y-97035771D02*
X142309523Y-96988152D01*
X142309523Y-96988152D02*
X142452380Y-96988152D01*
X142452380Y-96988152D02*
X142547618Y-97035771D01*
X142547618Y-97035771D02*
X142595237Y-97131009D01*
X142595237Y-97131009D02*
X142595237Y-97654819D01*
X142928571Y-96988152D02*
X143309523Y-96988152D01*
X143071428Y-96654819D02*
X143071428Y-97511961D01*
X143071428Y-97511961D02*
X143119047Y-97607200D01*
X143119047Y-97607200D02*
X143214285Y-97654819D01*
X143214285Y-97654819D02*
X143309523Y-97654819D01*
X143642857Y-97654819D02*
X143642857Y-96988152D01*
X143642857Y-96654819D02*
X143595238Y-96702438D01*
X143595238Y-96702438D02*
X143642857Y-96750057D01*
X143642857Y-96750057D02*
X143690476Y-96702438D01*
X143690476Y-96702438D02*
X143642857Y-96654819D01*
X143642857Y-96654819D02*
X143642857Y-96750057D01*
X144119047Y-96988152D02*
X144119047Y-97654819D01*
X144119047Y-97083390D02*
X144166666Y-97035771D01*
X144166666Y-97035771D02*
X144261904Y-96988152D01*
X144261904Y-96988152D02*
X144404761Y-96988152D01*
X144404761Y-96988152D02*
X144499999Y-97035771D01*
X144499999Y-97035771D02*
X144547618Y-97131009D01*
X144547618Y-97131009D02*
X144547618Y-97654819D01*
X145452380Y-96988152D02*
X145452380Y-97797676D01*
X145452380Y-97797676D02*
X145404761Y-97892914D01*
X145404761Y-97892914D02*
X145357142Y-97940533D01*
X145357142Y-97940533D02*
X145261904Y-97988152D01*
X145261904Y-97988152D02*
X145119047Y-97988152D01*
X145119047Y-97988152D02*
X145023809Y-97940533D01*
X145452380Y-97607200D02*
X145357142Y-97654819D01*
X145357142Y-97654819D02*
X145166666Y-97654819D01*
X145166666Y-97654819D02*
X145071428Y-97607200D01*
X145071428Y-97607200D02*
X145023809Y-97559580D01*
X145023809Y-97559580D02*
X144976190Y-97464342D01*
X144976190Y-97464342D02*
X144976190Y-97178628D01*
X144976190Y-97178628D02*
X145023809Y-97083390D01*
X145023809Y-97083390D02*
X145071428Y-97035771D01*
X145071428Y-97035771D02*
X145166666Y-96988152D01*
X145166666Y-96988152D02*
X145357142Y-96988152D01*
X145357142Y-96988152D02*
X145452380Y-97035771D01*
X145928571Y-97654819D02*
X145928571Y-96654819D01*
X145928571Y-97131009D02*
X146499999Y-97131009D01*
X146499999Y-97654819D02*
X146499999Y-96654819D01*
X147119047Y-97654819D02*
X147023809Y-97607200D01*
X147023809Y-97607200D02*
X146976190Y-97559580D01*
X146976190Y-97559580D02*
X146928571Y-97464342D01*
X146928571Y-97464342D02*
X146928571Y-97178628D01*
X146928571Y-97178628D02*
X146976190Y-97083390D01*
X146976190Y-97083390D02*
X147023809Y-97035771D01*
X147023809Y-97035771D02*
X147119047Y-96988152D01*
X147119047Y-96988152D02*
X147261904Y-96988152D01*
X147261904Y-96988152D02*
X147357142Y-97035771D01*
X147357142Y-97035771D02*
X147404761Y-97083390D01*
X147404761Y-97083390D02*
X147452380Y-97178628D01*
X147452380Y-97178628D02*
X147452380Y-97464342D01*
X147452380Y-97464342D02*
X147404761Y-97559580D01*
X147404761Y-97559580D02*
X147357142Y-97607200D01*
X147357142Y-97607200D02*
X147261904Y-97654819D01*
X147261904Y-97654819D02*
X147119047Y-97654819D01*
X148023809Y-97654819D02*
X147928571Y-97607200D01*
X147928571Y-97607200D02*
X147880952Y-97511961D01*
X147880952Y-97511961D02*
X147880952Y-96654819D01*
X148785714Y-97607200D02*
X148690476Y-97654819D01*
X148690476Y-97654819D02*
X148500000Y-97654819D01*
X148500000Y-97654819D02*
X148404762Y-97607200D01*
X148404762Y-97607200D02*
X148357143Y-97511961D01*
X148357143Y-97511961D02*
X148357143Y-97131009D01*
X148357143Y-97131009D02*
X148404762Y-97035771D01*
X148404762Y-97035771D02*
X148500000Y-96988152D01*
X148500000Y-96988152D02*
X148690476Y-96988152D01*
X148690476Y-96988152D02*
X148785714Y-97035771D01*
X148785714Y-97035771D02*
X148833333Y-97131009D01*
X148833333Y-97131009D02*
X148833333Y-97226247D01*
X148833333Y-97226247D02*
X148357143Y-97321485D01*
X151214285Y-97654819D02*
X151214285Y-96654819D01*
X151214285Y-96654819D02*
X151547618Y-97369104D01*
X151547618Y-97369104D02*
X151880951Y-96654819D01*
X151880951Y-96654819D02*
X151880951Y-97654819D01*
X152499999Y-97654819D02*
X152404761Y-97607200D01*
X152404761Y-97607200D02*
X152357142Y-97559580D01*
X152357142Y-97559580D02*
X152309523Y-97464342D01*
X152309523Y-97464342D02*
X152309523Y-97178628D01*
X152309523Y-97178628D02*
X152357142Y-97083390D01*
X152357142Y-97083390D02*
X152404761Y-97035771D01*
X152404761Y-97035771D02*
X152499999Y-96988152D01*
X152499999Y-96988152D02*
X152642856Y-96988152D01*
X152642856Y-96988152D02*
X152738094Y-97035771D01*
X152738094Y-97035771D02*
X152785713Y-97083390D01*
X152785713Y-97083390D02*
X152833332Y-97178628D01*
X152833332Y-97178628D02*
X152833332Y-97464342D01*
X152833332Y-97464342D02*
X152785713Y-97559580D01*
X152785713Y-97559580D02*
X152738094Y-97607200D01*
X152738094Y-97607200D02*
X152642856Y-97654819D01*
X152642856Y-97654819D02*
X152499999Y-97654819D01*
X153690475Y-96988152D02*
X153690475Y-97654819D01*
X153261904Y-96988152D02*
X153261904Y-97511961D01*
X153261904Y-97511961D02*
X153309523Y-97607200D01*
X153309523Y-97607200D02*
X153404761Y-97654819D01*
X153404761Y-97654819D02*
X153547618Y-97654819D01*
X153547618Y-97654819D02*
X153642856Y-97607200D01*
X153642856Y-97607200D02*
X153690475Y-97559580D01*
X154166666Y-96988152D02*
X154166666Y-97654819D01*
X154166666Y-97083390D02*
X154214285Y-97035771D01*
X154214285Y-97035771D02*
X154309523Y-96988152D01*
X154309523Y-96988152D02*
X154452380Y-96988152D01*
X154452380Y-96988152D02*
X154547618Y-97035771D01*
X154547618Y-97035771D02*
X154595237Y-97131009D01*
X154595237Y-97131009D02*
X154595237Y-97654819D01*
X154928571Y-96988152D02*
X155309523Y-96988152D01*
X155071428Y-96654819D02*
X155071428Y-97511961D01*
X155071428Y-97511961D02*
X155119047Y-97607200D01*
X155119047Y-97607200D02*
X155214285Y-97654819D01*
X155214285Y-97654819D02*
X155309523Y-97654819D01*
X155642857Y-97654819D02*
X155642857Y-96988152D01*
X155642857Y-96654819D02*
X155595238Y-96702438D01*
X155595238Y-96702438D02*
X155642857Y-96750057D01*
X155642857Y-96750057D02*
X155690476Y-96702438D01*
X155690476Y-96702438D02*
X155642857Y-96654819D01*
X155642857Y-96654819D02*
X155642857Y-96750057D01*
X156119047Y-96988152D02*
X156119047Y-97654819D01*
X156119047Y-97083390D02*
X156166666Y-97035771D01*
X156166666Y-97035771D02*
X156261904Y-96988152D01*
X156261904Y-96988152D02*
X156404761Y-96988152D01*
X156404761Y-96988152D02*
X156499999Y-97035771D01*
X156499999Y-97035771D02*
X156547618Y-97131009D01*
X156547618Y-97131009D02*
X156547618Y-97654819D01*
X157452380Y-96988152D02*
X157452380Y-97797676D01*
X157452380Y-97797676D02*
X157404761Y-97892914D01*
X157404761Y-97892914D02*
X157357142Y-97940533D01*
X157357142Y-97940533D02*
X157261904Y-97988152D01*
X157261904Y-97988152D02*
X157119047Y-97988152D01*
X157119047Y-97988152D02*
X157023809Y-97940533D01*
X157452380Y-97607200D02*
X157357142Y-97654819D01*
X157357142Y-97654819D02*
X157166666Y-97654819D01*
X157166666Y-97654819D02*
X157071428Y-97607200D01*
X157071428Y-97607200D02*
X157023809Y-97559580D01*
X157023809Y-97559580D02*
X156976190Y-97464342D01*
X156976190Y-97464342D02*
X156976190Y-97178628D01*
X156976190Y-97178628D02*
X157023809Y-97083390D01*
X157023809Y-97083390D02*
X157071428Y-97035771D01*
X157071428Y-97035771D02*
X157166666Y-96988152D01*
X157166666Y-96988152D02*
X157357142Y-96988152D01*
X157357142Y-96988152D02*
X157452380Y-97035771D01*
X157928571Y-97654819D02*
X157928571Y-96654819D01*
X157928571Y-97131009D02*
X158499999Y-97131009D01*
X158499999Y-97654819D02*
X158499999Y-96654819D01*
X159119047Y-97654819D02*
X159023809Y-97607200D01*
X159023809Y-97607200D02*
X158976190Y-97559580D01*
X158976190Y-97559580D02*
X158928571Y-97464342D01*
X158928571Y-97464342D02*
X158928571Y-97178628D01*
X158928571Y-97178628D02*
X158976190Y-97083390D01*
X158976190Y-97083390D02*
X159023809Y-97035771D01*
X159023809Y-97035771D02*
X159119047Y-96988152D01*
X159119047Y-96988152D02*
X159261904Y-96988152D01*
X159261904Y-96988152D02*
X159357142Y-97035771D01*
X159357142Y-97035771D02*
X159404761Y-97083390D01*
X159404761Y-97083390D02*
X159452380Y-97178628D01*
X159452380Y-97178628D02*
X159452380Y-97464342D01*
X159452380Y-97464342D02*
X159404761Y-97559580D01*
X159404761Y-97559580D02*
X159357142Y-97607200D01*
X159357142Y-97607200D02*
X159261904Y-97654819D01*
X159261904Y-97654819D02*
X159119047Y-97654819D01*
X160023809Y-97654819D02*
X159928571Y-97607200D01*
X159928571Y-97607200D02*
X159880952Y-97511961D01*
X159880952Y-97511961D02*
X159880952Y-96654819D01*
X160785714Y-97607200D02*
X160690476Y-97654819D01*
X160690476Y-97654819D02*
X160500000Y-97654819D01*
X160500000Y-97654819D02*
X160404762Y-97607200D01*
X160404762Y-97607200D02*
X160357143Y-97511961D01*
X160357143Y-97511961D02*
X160357143Y-97131009D01*
X160357143Y-97131009D02*
X160404762Y-97035771D01*
X160404762Y-97035771D02*
X160500000Y-96988152D01*
X160500000Y-96988152D02*
X160690476Y-96988152D01*
X160690476Y-96988152D02*
X160785714Y-97035771D01*
X160785714Y-97035771D02*
X160833333Y-97131009D01*
X160833333Y-97131009D02*
X160833333Y-97226247D01*
X160833333Y-97226247D02*
X160357143Y-97321485D01*
X151214285Y-109654819D02*
X151214285Y-108654819D01*
X151214285Y-108654819D02*
X151547618Y-109369104D01*
X151547618Y-109369104D02*
X151880951Y-108654819D01*
X151880951Y-108654819D02*
X151880951Y-109654819D01*
X152499999Y-109654819D02*
X152404761Y-109607200D01*
X152404761Y-109607200D02*
X152357142Y-109559580D01*
X152357142Y-109559580D02*
X152309523Y-109464342D01*
X152309523Y-109464342D02*
X152309523Y-109178628D01*
X152309523Y-109178628D02*
X152357142Y-109083390D01*
X152357142Y-109083390D02*
X152404761Y-109035771D01*
X152404761Y-109035771D02*
X152499999Y-108988152D01*
X152499999Y-108988152D02*
X152642856Y-108988152D01*
X152642856Y-108988152D02*
X152738094Y-109035771D01*
X152738094Y-109035771D02*
X152785713Y-109083390D01*
X152785713Y-109083390D02*
X152833332Y-109178628D01*
X152833332Y-109178628D02*
X152833332Y-109464342D01*
X152833332Y-109464342D02*
X152785713Y-109559580D01*
X152785713Y-109559580D02*
X152738094Y-109607200D01*
X152738094Y-109607200D02*
X152642856Y-109654819D01*
X152642856Y-109654819D02*
X152499999Y-109654819D01*
X153690475Y-108988152D02*
X153690475Y-109654819D01*
X153261904Y-108988152D02*
X153261904Y-109511961D01*
X153261904Y-109511961D02*
X153309523Y-109607200D01*
X153309523Y-109607200D02*
X153404761Y-109654819D01*
X153404761Y-109654819D02*
X153547618Y-109654819D01*
X153547618Y-109654819D02*
X153642856Y-109607200D01*
X153642856Y-109607200D02*
X153690475Y-109559580D01*
X154166666Y-108988152D02*
X154166666Y-109654819D01*
X154166666Y-109083390D02*
X154214285Y-109035771D01*
X154214285Y-109035771D02*
X154309523Y-108988152D01*
X154309523Y-108988152D02*
X154452380Y-108988152D01*
X154452380Y-108988152D02*
X154547618Y-109035771D01*
X154547618Y-109035771D02*
X154595237Y-109131009D01*
X154595237Y-109131009D02*
X154595237Y-109654819D01*
X154928571Y-108988152D02*
X155309523Y-108988152D01*
X155071428Y-108654819D02*
X155071428Y-109511961D01*
X155071428Y-109511961D02*
X155119047Y-109607200D01*
X155119047Y-109607200D02*
X155214285Y-109654819D01*
X155214285Y-109654819D02*
X155309523Y-109654819D01*
X155642857Y-109654819D02*
X155642857Y-108988152D01*
X155642857Y-108654819D02*
X155595238Y-108702438D01*
X155595238Y-108702438D02*
X155642857Y-108750057D01*
X155642857Y-108750057D02*
X155690476Y-108702438D01*
X155690476Y-108702438D02*
X155642857Y-108654819D01*
X155642857Y-108654819D02*
X155642857Y-108750057D01*
X156119047Y-108988152D02*
X156119047Y-109654819D01*
X156119047Y-109083390D02*
X156166666Y-109035771D01*
X156166666Y-109035771D02*
X156261904Y-108988152D01*
X156261904Y-108988152D02*
X156404761Y-108988152D01*
X156404761Y-108988152D02*
X156499999Y-109035771D01*
X156499999Y-109035771D02*
X156547618Y-109131009D01*
X156547618Y-109131009D02*
X156547618Y-109654819D01*
X157452380Y-108988152D02*
X157452380Y-109797676D01*
X157452380Y-109797676D02*
X157404761Y-109892914D01*
X157404761Y-109892914D02*
X157357142Y-109940533D01*
X157357142Y-109940533D02*
X157261904Y-109988152D01*
X157261904Y-109988152D02*
X157119047Y-109988152D01*
X157119047Y-109988152D02*
X157023809Y-109940533D01*
X157452380Y-109607200D02*
X157357142Y-109654819D01*
X157357142Y-109654819D02*
X157166666Y-109654819D01*
X157166666Y-109654819D02*
X157071428Y-109607200D01*
X157071428Y-109607200D02*
X157023809Y-109559580D01*
X157023809Y-109559580D02*
X156976190Y-109464342D01*
X156976190Y-109464342D02*
X156976190Y-109178628D01*
X156976190Y-109178628D02*
X157023809Y-109083390D01*
X157023809Y-109083390D02*
X157071428Y-109035771D01*
X157071428Y-109035771D02*
X157166666Y-108988152D01*
X157166666Y-108988152D02*
X157357142Y-108988152D01*
X157357142Y-108988152D02*
X157452380Y-109035771D01*
X157928571Y-109654819D02*
X157928571Y-108654819D01*
X157928571Y-109131009D02*
X158499999Y-109131009D01*
X158499999Y-109654819D02*
X158499999Y-108654819D01*
X159119047Y-109654819D02*
X159023809Y-109607200D01*
X159023809Y-109607200D02*
X158976190Y-109559580D01*
X158976190Y-109559580D02*
X158928571Y-109464342D01*
X158928571Y-109464342D02*
X158928571Y-109178628D01*
X158928571Y-109178628D02*
X158976190Y-109083390D01*
X158976190Y-109083390D02*
X159023809Y-109035771D01*
X159023809Y-109035771D02*
X159119047Y-108988152D01*
X159119047Y-108988152D02*
X159261904Y-108988152D01*
X159261904Y-108988152D02*
X159357142Y-109035771D01*
X159357142Y-109035771D02*
X159404761Y-109083390D01*
X159404761Y-109083390D02*
X159452380Y-109178628D01*
X159452380Y-109178628D02*
X159452380Y-109464342D01*
X159452380Y-109464342D02*
X159404761Y-109559580D01*
X159404761Y-109559580D02*
X159357142Y-109607200D01*
X159357142Y-109607200D02*
X159261904Y-109654819D01*
X159261904Y-109654819D02*
X159119047Y-109654819D01*
X160023809Y-109654819D02*
X159928571Y-109607200D01*
X159928571Y-109607200D02*
X159880952Y-109511961D01*
X159880952Y-109511961D02*
X159880952Y-108654819D01*
X160785714Y-109607200D02*
X160690476Y-109654819D01*
X160690476Y-109654819D02*
X160500000Y-109654819D01*
X160500000Y-109654819D02*
X160404762Y-109607200D01*
X160404762Y-109607200D02*
X160357143Y-109511961D01*
X160357143Y-109511961D02*
X160357143Y-109131009D01*
X160357143Y-109131009D02*
X160404762Y-109035771D01*
X160404762Y-109035771D02*
X160500000Y-108988152D01*
X160500000Y-108988152D02*
X160690476Y-108988152D01*
X160690476Y-108988152D02*
X160785714Y-109035771D01*
X160785714Y-109035771D02*
X160833333Y-109131009D01*
X160833333Y-109131009D02*
X160833333Y-109226247D01*
X160833333Y-109226247D02*
X160357143Y-109321485D01*
X139214285Y-109654819D02*
X139214285Y-108654819D01*
X139214285Y-108654819D02*
X139547618Y-109369104D01*
X139547618Y-109369104D02*
X139880951Y-108654819D01*
X139880951Y-108654819D02*
X139880951Y-109654819D01*
X140499999Y-109654819D02*
X140404761Y-109607200D01*
X140404761Y-109607200D02*
X140357142Y-109559580D01*
X140357142Y-109559580D02*
X140309523Y-109464342D01*
X140309523Y-109464342D02*
X140309523Y-109178628D01*
X140309523Y-109178628D02*
X140357142Y-109083390D01*
X140357142Y-109083390D02*
X140404761Y-109035771D01*
X140404761Y-109035771D02*
X140499999Y-108988152D01*
X140499999Y-108988152D02*
X140642856Y-108988152D01*
X140642856Y-108988152D02*
X140738094Y-109035771D01*
X140738094Y-109035771D02*
X140785713Y-109083390D01*
X140785713Y-109083390D02*
X140833332Y-109178628D01*
X140833332Y-109178628D02*
X140833332Y-109464342D01*
X140833332Y-109464342D02*
X140785713Y-109559580D01*
X140785713Y-109559580D02*
X140738094Y-109607200D01*
X140738094Y-109607200D02*
X140642856Y-109654819D01*
X140642856Y-109654819D02*
X140499999Y-109654819D01*
X141690475Y-108988152D02*
X141690475Y-109654819D01*
X141261904Y-108988152D02*
X141261904Y-109511961D01*
X141261904Y-109511961D02*
X141309523Y-109607200D01*
X141309523Y-109607200D02*
X141404761Y-109654819D01*
X141404761Y-109654819D02*
X141547618Y-109654819D01*
X141547618Y-109654819D02*
X141642856Y-109607200D01*
X141642856Y-109607200D02*
X141690475Y-109559580D01*
X142166666Y-108988152D02*
X142166666Y-109654819D01*
X142166666Y-109083390D02*
X142214285Y-109035771D01*
X142214285Y-109035771D02*
X142309523Y-108988152D01*
X142309523Y-108988152D02*
X142452380Y-108988152D01*
X142452380Y-108988152D02*
X142547618Y-109035771D01*
X142547618Y-109035771D02*
X142595237Y-109131009D01*
X142595237Y-109131009D02*
X142595237Y-109654819D01*
X142928571Y-108988152D02*
X143309523Y-108988152D01*
X143071428Y-108654819D02*
X143071428Y-109511961D01*
X143071428Y-109511961D02*
X143119047Y-109607200D01*
X143119047Y-109607200D02*
X143214285Y-109654819D01*
X143214285Y-109654819D02*
X143309523Y-109654819D01*
X143642857Y-109654819D02*
X143642857Y-108988152D01*
X143642857Y-108654819D02*
X143595238Y-108702438D01*
X143595238Y-108702438D02*
X143642857Y-108750057D01*
X143642857Y-108750057D02*
X143690476Y-108702438D01*
X143690476Y-108702438D02*
X143642857Y-108654819D01*
X143642857Y-108654819D02*
X143642857Y-108750057D01*
X144119047Y-108988152D02*
X144119047Y-109654819D01*
X144119047Y-109083390D02*
X144166666Y-109035771D01*
X144166666Y-109035771D02*
X144261904Y-108988152D01*
X144261904Y-108988152D02*
X144404761Y-108988152D01*
X144404761Y-108988152D02*
X144499999Y-109035771D01*
X144499999Y-109035771D02*
X144547618Y-109131009D01*
X144547618Y-109131009D02*
X144547618Y-109654819D01*
X145452380Y-108988152D02*
X145452380Y-109797676D01*
X145452380Y-109797676D02*
X145404761Y-109892914D01*
X145404761Y-109892914D02*
X145357142Y-109940533D01*
X145357142Y-109940533D02*
X145261904Y-109988152D01*
X145261904Y-109988152D02*
X145119047Y-109988152D01*
X145119047Y-109988152D02*
X145023809Y-109940533D01*
X145452380Y-109607200D02*
X145357142Y-109654819D01*
X145357142Y-109654819D02*
X145166666Y-109654819D01*
X145166666Y-109654819D02*
X145071428Y-109607200D01*
X145071428Y-109607200D02*
X145023809Y-109559580D01*
X145023809Y-109559580D02*
X144976190Y-109464342D01*
X144976190Y-109464342D02*
X144976190Y-109178628D01*
X144976190Y-109178628D02*
X145023809Y-109083390D01*
X145023809Y-109083390D02*
X145071428Y-109035771D01*
X145071428Y-109035771D02*
X145166666Y-108988152D01*
X145166666Y-108988152D02*
X145357142Y-108988152D01*
X145357142Y-108988152D02*
X145452380Y-109035771D01*
X145928571Y-109654819D02*
X145928571Y-108654819D01*
X145928571Y-109131009D02*
X146499999Y-109131009D01*
X146499999Y-109654819D02*
X146499999Y-108654819D01*
X147119047Y-109654819D02*
X147023809Y-109607200D01*
X147023809Y-109607200D02*
X146976190Y-109559580D01*
X146976190Y-109559580D02*
X146928571Y-109464342D01*
X146928571Y-109464342D02*
X146928571Y-109178628D01*
X146928571Y-109178628D02*
X146976190Y-109083390D01*
X146976190Y-109083390D02*
X147023809Y-109035771D01*
X147023809Y-109035771D02*
X147119047Y-108988152D01*
X147119047Y-108988152D02*
X147261904Y-108988152D01*
X147261904Y-108988152D02*
X147357142Y-109035771D01*
X147357142Y-109035771D02*
X147404761Y-109083390D01*
X147404761Y-109083390D02*
X147452380Y-109178628D01*
X147452380Y-109178628D02*
X147452380Y-109464342D01*
X147452380Y-109464342D02*
X147404761Y-109559580D01*
X147404761Y-109559580D02*
X147357142Y-109607200D01*
X147357142Y-109607200D02*
X147261904Y-109654819D01*
X147261904Y-109654819D02*
X147119047Y-109654819D01*
X148023809Y-109654819D02*
X147928571Y-109607200D01*
X147928571Y-109607200D02*
X147880952Y-109511961D01*
X147880952Y-109511961D02*
X147880952Y-108654819D01*
X148785714Y-109607200D02*
X148690476Y-109654819D01*
X148690476Y-109654819D02*
X148500000Y-109654819D01*
X148500000Y-109654819D02*
X148404762Y-109607200D01*
X148404762Y-109607200D02*
X148357143Y-109511961D01*
X148357143Y-109511961D02*
X148357143Y-109131009D01*
X148357143Y-109131009D02*
X148404762Y-109035771D01*
X148404762Y-109035771D02*
X148500000Y-108988152D01*
X148500000Y-108988152D02*
X148690476Y-108988152D01*
X148690476Y-108988152D02*
X148785714Y-109035771D01*
X148785714Y-109035771D02*
X148833333Y-109131009D01*
X148833333Y-109131009D02*
X148833333Y-109226247D01*
X148833333Y-109226247D02*
X148357143Y-109321485D01*
X142952381Y-104407200D02*
X143095238Y-104454819D01*
X143095238Y-104454819D02*
X143333333Y-104454819D01*
X143333333Y-104454819D02*
X143428571Y-104407200D01*
X143428571Y-104407200D02*
X143476190Y-104359580D01*
X143476190Y-104359580D02*
X143523809Y-104264342D01*
X143523809Y-104264342D02*
X143523809Y-104169104D01*
X143523809Y-104169104D02*
X143476190Y-104073866D01*
X143476190Y-104073866D02*
X143428571Y-104026247D01*
X143428571Y-104026247D02*
X143333333Y-103978628D01*
X143333333Y-103978628D02*
X143142857Y-103931009D01*
X143142857Y-103931009D02*
X143047619Y-103883390D01*
X143047619Y-103883390D02*
X143000000Y-103835771D01*
X143000000Y-103835771D02*
X142952381Y-103740533D01*
X142952381Y-103740533D02*
X142952381Y-103645295D01*
X142952381Y-103645295D02*
X143000000Y-103550057D01*
X143000000Y-103550057D02*
X143047619Y-103502438D01*
X143047619Y-103502438D02*
X143142857Y-103454819D01*
X143142857Y-103454819D02*
X143380952Y-103454819D01*
X143380952Y-103454819D02*
X143523809Y-103502438D01*
X143952381Y-104454819D02*
X143952381Y-103454819D01*
X144523809Y-104454819D02*
X144095238Y-103883390D01*
X144523809Y-103454819D02*
X143952381Y-104026247D01*
X145380952Y-103454819D02*
X145190476Y-103454819D01*
X145190476Y-103454819D02*
X145095238Y-103502438D01*
X145095238Y-103502438D02*
X145047619Y-103550057D01*
X145047619Y-103550057D02*
X144952381Y-103692914D01*
X144952381Y-103692914D02*
X144904762Y-103883390D01*
X144904762Y-103883390D02*
X144904762Y-104264342D01*
X144904762Y-104264342D02*
X144952381Y-104359580D01*
X144952381Y-104359580D02*
X145000000Y-104407200D01*
X145000000Y-104407200D02*
X145095238Y-104454819D01*
X145095238Y-104454819D02*
X145285714Y-104454819D01*
X145285714Y-104454819D02*
X145380952Y-104407200D01*
X145380952Y-104407200D02*
X145428571Y-104359580D01*
X145428571Y-104359580D02*
X145476190Y-104264342D01*
X145476190Y-104264342D02*
X145476190Y-104026247D01*
X145476190Y-104026247D02*
X145428571Y-103931009D01*
X145428571Y-103931009D02*
X145380952Y-103883390D01*
X145380952Y-103883390D02*
X145285714Y-103835771D01*
X145285714Y-103835771D02*
X145095238Y-103835771D01*
X145095238Y-103835771D02*
X145000000Y-103883390D01*
X145000000Y-103883390D02*
X144952381Y-103931009D01*
X144952381Y-103931009D02*
X144904762Y-104026247D01*
X146047619Y-103883390D02*
X145952381Y-103835771D01*
X145952381Y-103835771D02*
X145904762Y-103788152D01*
X145904762Y-103788152D02*
X145857143Y-103692914D01*
X145857143Y-103692914D02*
X145857143Y-103645295D01*
X145857143Y-103645295D02*
X145904762Y-103550057D01*
X145904762Y-103550057D02*
X145952381Y-103502438D01*
X145952381Y-103502438D02*
X146047619Y-103454819D01*
X146047619Y-103454819D02*
X146238095Y-103454819D01*
X146238095Y-103454819D02*
X146333333Y-103502438D01*
X146333333Y-103502438D02*
X146380952Y-103550057D01*
X146380952Y-103550057D02*
X146428571Y-103645295D01*
X146428571Y-103645295D02*
X146428571Y-103692914D01*
X146428571Y-103692914D02*
X146380952Y-103788152D01*
X146380952Y-103788152D02*
X146333333Y-103835771D01*
X146333333Y-103835771D02*
X146238095Y-103883390D01*
X146238095Y-103883390D02*
X146047619Y-103883390D01*
X146047619Y-103883390D02*
X145952381Y-103931009D01*
X145952381Y-103931009D02*
X145904762Y-103978628D01*
X145904762Y-103978628D02*
X145857143Y-104073866D01*
X145857143Y-104073866D02*
X145857143Y-104264342D01*
X145857143Y-104264342D02*
X145904762Y-104359580D01*
X145904762Y-104359580D02*
X145952381Y-104407200D01*
X145952381Y-104407200D02*
X146047619Y-104454819D01*
X146047619Y-104454819D02*
X146238095Y-104454819D01*
X146238095Y-104454819D02*
X146333333Y-104407200D01*
X146333333Y-104407200D02*
X146380952Y-104359580D01*
X146380952Y-104359580D02*
X146428571Y-104264342D01*
X146428571Y-104264342D02*
X146428571Y-104073866D01*
X146428571Y-104073866D02*
X146380952Y-103978628D01*
X146380952Y-103978628D02*
X146333333Y-103931009D01*
X146333333Y-103931009D02*
X146238095Y-103883390D01*
X147380952Y-104454819D02*
X146809524Y-104454819D01*
X147095238Y-104454819D02*
X147095238Y-103454819D01*
X147095238Y-103454819D02*
X147000000Y-103597676D01*
X147000000Y-103597676D02*
X146904762Y-103692914D01*
X146904762Y-103692914D02*
X146809524Y-103740533D01*
X147761905Y-103550057D02*
X147809524Y-103502438D01*
X147809524Y-103502438D02*
X147904762Y-103454819D01*
X147904762Y-103454819D02*
X148142857Y-103454819D01*
X148142857Y-103454819D02*
X148238095Y-103502438D01*
X148238095Y-103502438D02*
X148285714Y-103550057D01*
X148285714Y-103550057D02*
X148333333Y-103645295D01*
X148333333Y-103645295D02*
X148333333Y-103740533D01*
X148333333Y-103740533D02*
X148285714Y-103883390D01*
X148285714Y-103883390D02*
X147714286Y-104454819D01*
X147714286Y-104454819D02*
X148333333Y-104454819D01*
X149333333Y-104454819D02*
X149000000Y-103978628D01*
X148761905Y-104454819D02*
X148761905Y-103454819D01*
X148761905Y-103454819D02*
X149142857Y-103454819D01*
X149142857Y-103454819D02*
X149238095Y-103502438D01*
X149238095Y-103502438D02*
X149285714Y-103550057D01*
X149285714Y-103550057D02*
X149333333Y-103645295D01*
X149333333Y-103645295D02*
X149333333Y-103788152D01*
X149333333Y-103788152D02*
X149285714Y-103883390D01*
X149285714Y-103883390D02*
X149238095Y-103931009D01*
X149238095Y-103931009D02*
X149142857Y-103978628D01*
X149142857Y-103978628D02*
X148761905Y-103978628D01*
X150285714Y-103502438D02*
X150190476Y-103454819D01*
X150190476Y-103454819D02*
X150047619Y-103454819D01*
X150047619Y-103454819D02*
X149904762Y-103502438D01*
X149904762Y-103502438D02*
X149809524Y-103597676D01*
X149809524Y-103597676D02*
X149761905Y-103692914D01*
X149761905Y-103692914D02*
X149714286Y-103883390D01*
X149714286Y-103883390D02*
X149714286Y-104026247D01*
X149714286Y-104026247D02*
X149761905Y-104216723D01*
X149761905Y-104216723D02*
X149809524Y-104311961D01*
X149809524Y-104311961D02*
X149904762Y-104407200D01*
X149904762Y-104407200D02*
X150047619Y-104454819D01*
X150047619Y-104454819D02*
X150142857Y-104454819D01*
X150142857Y-104454819D02*
X150285714Y-104407200D01*
X150285714Y-104407200D02*
X150333333Y-104359580D01*
X150333333Y-104359580D02*
X150333333Y-104026247D01*
X150333333Y-104026247D02*
X150142857Y-104026247D01*
X151095238Y-103931009D02*
X151238095Y-103978628D01*
X151238095Y-103978628D02*
X151285714Y-104026247D01*
X151285714Y-104026247D02*
X151333333Y-104121485D01*
X151333333Y-104121485D02*
X151333333Y-104264342D01*
X151333333Y-104264342D02*
X151285714Y-104359580D01*
X151285714Y-104359580D02*
X151238095Y-104407200D01*
X151238095Y-104407200D02*
X151142857Y-104454819D01*
X151142857Y-104454819D02*
X150761905Y-104454819D01*
X150761905Y-104454819D02*
X150761905Y-103454819D01*
X150761905Y-103454819D02*
X151095238Y-103454819D01*
X151095238Y-103454819D02*
X151190476Y-103502438D01*
X151190476Y-103502438D02*
X151238095Y-103550057D01*
X151238095Y-103550057D02*
X151285714Y-103645295D01*
X151285714Y-103645295D02*
X151285714Y-103740533D01*
X151285714Y-103740533D02*
X151238095Y-103835771D01*
X151238095Y-103835771D02*
X151190476Y-103883390D01*
X151190476Y-103883390D02*
X151095238Y-103931009D01*
X151095238Y-103931009D02*
X150761905Y-103931009D01*
X151666667Y-103454819D02*
X151904762Y-104454819D01*
X151904762Y-104454819D02*
X152095238Y-103740533D01*
X152095238Y-103740533D02*
X152285714Y-104454819D01*
X152285714Y-104454819D02*
X152523810Y-103454819D01*
X152666667Y-104550057D02*
X153428571Y-104550057D01*
X154142857Y-103454819D02*
X153666667Y-103454819D01*
X153666667Y-103454819D02*
X153619048Y-103931009D01*
X153619048Y-103931009D02*
X153666667Y-103883390D01*
X153666667Y-103883390D02*
X153761905Y-103835771D01*
X153761905Y-103835771D02*
X154000000Y-103835771D01*
X154000000Y-103835771D02*
X154095238Y-103883390D01*
X154095238Y-103883390D02*
X154142857Y-103931009D01*
X154142857Y-103931009D02*
X154190476Y-104026247D01*
X154190476Y-104026247D02*
X154190476Y-104264342D01*
X154190476Y-104264342D02*
X154142857Y-104359580D01*
X154142857Y-104359580D02*
X154095238Y-104407200D01*
X154095238Y-104407200D02*
X154000000Y-104454819D01*
X154000000Y-104454819D02*
X153761905Y-104454819D01*
X153761905Y-104454819D02*
X153666667Y-104407200D01*
X153666667Y-104407200D02*
X153619048Y-104359580D01*
X154809524Y-103454819D02*
X154904762Y-103454819D01*
X154904762Y-103454819D02*
X155000000Y-103502438D01*
X155000000Y-103502438D02*
X155047619Y-103550057D01*
X155047619Y-103550057D02*
X155095238Y-103645295D01*
X155095238Y-103645295D02*
X155142857Y-103835771D01*
X155142857Y-103835771D02*
X155142857Y-104073866D01*
X155142857Y-104073866D02*
X155095238Y-104264342D01*
X155095238Y-104264342D02*
X155047619Y-104359580D01*
X155047619Y-104359580D02*
X155000000Y-104407200D01*
X155000000Y-104407200D02*
X154904762Y-104454819D01*
X154904762Y-104454819D02*
X154809524Y-104454819D01*
X154809524Y-104454819D02*
X154714286Y-104407200D01*
X154714286Y-104407200D02*
X154666667Y-104359580D01*
X154666667Y-104359580D02*
X154619048Y-104264342D01*
X154619048Y-104264342D02*
X154571429Y-104073866D01*
X154571429Y-104073866D02*
X154571429Y-103835771D01*
X154571429Y-103835771D02*
X154619048Y-103645295D01*
X154619048Y-103645295D02*
X154666667Y-103550057D01*
X154666667Y-103550057D02*
X154714286Y-103502438D01*
X154714286Y-103502438D02*
X154809524Y-103454819D01*
X156047619Y-103454819D02*
X155571429Y-103454819D01*
X155571429Y-103454819D02*
X155523810Y-103931009D01*
X155523810Y-103931009D02*
X155571429Y-103883390D01*
X155571429Y-103883390D02*
X155666667Y-103835771D01*
X155666667Y-103835771D02*
X155904762Y-103835771D01*
X155904762Y-103835771D02*
X156000000Y-103883390D01*
X156000000Y-103883390D02*
X156047619Y-103931009D01*
X156047619Y-103931009D02*
X156095238Y-104026247D01*
X156095238Y-104026247D02*
X156095238Y-104264342D01*
X156095238Y-104264342D02*
X156047619Y-104359580D01*
X156047619Y-104359580D02*
X156000000Y-104407200D01*
X156000000Y-104407200D02*
X155904762Y-104454819D01*
X155904762Y-104454819D02*
X155666667Y-104454819D01*
X155666667Y-104454819D02*
X155571429Y-104407200D01*
X155571429Y-104407200D02*
X155523810Y-104359580D01*
X156714286Y-103454819D02*
X156809524Y-103454819D01*
X156809524Y-103454819D02*
X156904762Y-103502438D01*
X156904762Y-103502438D02*
X156952381Y-103550057D01*
X156952381Y-103550057D02*
X157000000Y-103645295D01*
X157000000Y-103645295D02*
X157047619Y-103835771D01*
X157047619Y-103835771D02*
X157047619Y-104073866D01*
X157047619Y-104073866D02*
X157000000Y-104264342D01*
X157000000Y-104264342D02*
X156952381Y-104359580D01*
X156952381Y-104359580D02*
X156904762Y-104407200D01*
X156904762Y-104407200D02*
X156809524Y-104454819D01*
X156809524Y-104454819D02*
X156714286Y-104454819D01*
X156714286Y-104454819D02*
X156619048Y-104407200D01*
X156619048Y-104407200D02*
X156571429Y-104359580D01*
X156571429Y-104359580D02*
X156523810Y-104264342D01*
X156523810Y-104264342D02*
X156476191Y-104073866D01*
X156476191Y-104073866D02*
X156476191Y-103835771D01*
X156476191Y-103835771D02*
X156523810Y-103645295D01*
X156523810Y-103645295D02*
X156571429Y-103550057D01*
X156571429Y-103550057D02*
X156619048Y-103502438D01*
X156619048Y-103502438D02*
X156714286Y-103454819D01*
X154514286Y-98904819D02*
X155133333Y-98904819D01*
X155133333Y-98904819D02*
X154800000Y-99285771D01*
X154800000Y-99285771D02*
X154942857Y-99285771D01*
X154942857Y-99285771D02*
X155038095Y-99333390D01*
X155038095Y-99333390D02*
X155085714Y-99381009D01*
X155085714Y-99381009D02*
X155133333Y-99476247D01*
X155133333Y-99476247D02*
X155133333Y-99714342D01*
X155133333Y-99714342D02*
X155085714Y-99809580D01*
X155085714Y-99809580D02*
X155038095Y-99857200D01*
X155038095Y-99857200D02*
X154942857Y-99904819D01*
X154942857Y-99904819D02*
X154657143Y-99904819D01*
X154657143Y-99904819D02*
X154561905Y-99857200D01*
X154561905Y-99857200D02*
X154514286Y-99809580D01*
X155466667Y-98904819D02*
X156085714Y-98904819D01*
X156085714Y-98904819D02*
X155752381Y-99285771D01*
X155752381Y-99285771D02*
X155895238Y-99285771D01*
X155895238Y-99285771D02*
X155990476Y-99333390D01*
X155990476Y-99333390D02*
X156038095Y-99381009D01*
X156038095Y-99381009D02*
X156085714Y-99476247D01*
X156085714Y-99476247D02*
X156085714Y-99714342D01*
X156085714Y-99714342D02*
X156038095Y-99809580D01*
X156038095Y-99809580D02*
X155990476Y-99857200D01*
X155990476Y-99857200D02*
X155895238Y-99904819D01*
X155895238Y-99904819D02*
X155609524Y-99904819D01*
X155609524Y-99904819D02*
X155514286Y-99857200D01*
X155514286Y-99857200D02*
X155466667Y-99809580D01*
X156704762Y-98904819D02*
X156800000Y-98904819D01*
X156800000Y-98904819D02*
X156895238Y-98952438D01*
X156895238Y-98952438D02*
X156942857Y-99000057D01*
X156942857Y-99000057D02*
X156990476Y-99095295D01*
X156990476Y-99095295D02*
X157038095Y-99285771D01*
X157038095Y-99285771D02*
X157038095Y-99523866D01*
X157038095Y-99523866D02*
X156990476Y-99714342D01*
X156990476Y-99714342D02*
X156942857Y-99809580D01*
X156942857Y-99809580D02*
X156895238Y-99857200D01*
X156895238Y-99857200D02*
X156800000Y-99904819D01*
X156800000Y-99904819D02*
X156704762Y-99904819D01*
X156704762Y-99904819D02*
X156609524Y-99857200D01*
X156609524Y-99857200D02*
X156561905Y-99809580D01*
X156561905Y-99809580D02*
X156514286Y-99714342D01*
X156514286Y-99714342D02*
X156466667Y-99523866D01*
X156466667Y-99523866D02*
X156466667Y-99285771D01*
X156466667Y-99285771D02*
X156514286Y-99095295D01*
X156514286Y-99095295D02*
X156561905Y-99000057D01*
X156561905Y-99000057D02*
X156609524Y-98952438D01*
X156609524Y-98952438D02*
X156704762Y-98904819D01*
X158038095Y-99904819D02*
X157704762Y-99428628D01*
X157466667Y-99904819D02*
X157466667Y-98904819D01*
X157466667Y-98904819D02*
X157847619Y-98904819D01*
X157847619Y-98904819D02*
X157942857Y-98952438D01*
X157942857Y-98952438D02*
X157990476Y-99000057D01*
X157990476Y-99000057D02*
X158038095Y-99095295D01*
X158038095Y-99095295D02*
X158038095Y-99238152D01*
X158038095Y-99238152D02*
X157990476Y-99333390D01*
X157990476Y-99333390D02*
X157942857Y-99381009D01*
X157942857Y-99381009D02*
X157847619Y-99428628D01*
X157847619Y-99428628D02*
X157466667Y-99428628D01*
X149357143Y-104554819D02*
X149452381Y-104554819D01*
X149452381Y-104554819D02*
X149547619Y-104602438D01*
X149547619Y-104602438D02*
X149595238Y-104650057D01*
X149595238Y-104650057D02*
X149642857Y-104745295D01*
X149642857Y-104745295D02*
X149690476Y-104935771D01*
X149690476Y-104935771D02*
X149690476Y-105173866D01*
X149690476Y-105173866D02*
X149642857Y-105364342D01*
X149642857Y-105364342D02*
X149595238Y-105459580D01*
X149595238Y-105459580D02*
X149547619Y-105507200D01*
X149547619Y-105507200D02*
X149452381Y-105554819D01*
X149452381Y-105554819D02*
X149357143Y-105554819D01*
X149357143Y-105554819D02*
X149261905Y-105507200D01*
X149261905Y-105507200D02*
X149214286Y-105459580D01*
X149214286Y-105459580D02*
X149166667Y-105364342D01*
X149166667Y-105364342D02*
X149119048Y-105173866D01*
X149119048Y-105173866D02*
X149119048Y-104935771D01*
X149119048Y-104935771D02*
X149166667Y-104745295D01*
X149166667Y-104745295D02*
X149214286Y-104650057D01*
X149214286Y-104650057D02*
X149261905Y-104602438D01*
X149261905Y-104602438D02*
X149357143Y-104554819D01*
X150119048Y-105459580D02*
X150166667Y-105507200D01*
X150166667Y-105507200D02*
X150119048Y-105554819D01*
X150119048Y-105554819D02*
X150071429Y-105507200D01*
X150071429Y-105507200D02*
X150119048Y-105459580D01*
X150119048Y-105459580D02*
X150119048Y-105554819D01*
X151119047Y-105554819D02*
X150547619Y-105554819D01*
X150833333Y-105554819D02*
X150833333Y-104554819D01*
X150833333Y-104554819D02*
X150738095Y-104697676D01*
X150738095Y-104697676D02*
X150642857Y-104792914D01*
X150642857Y-104792914D02*
X150547619Y-104840533D01*
X151976190Y-104888152D02*
X151976190Y-105554819D01*
X151547619Y-104888152D02*
X151547619Y-105411961D01*
X151547619Y-105411961D02*
X151595238Y-105507200D01*
X151595238Y-105507200D02*
X151690476Y-105554819D01*
X151690476Y-105554819D02*
X151833333Y-105554819D01*
X151833333Y-105554819D02*
X151928571Y-105507200D01*
X151928571Y-105507200D02*
X151976190Y-105459580D01*
X152785714Y-105031009D02*
X152452381Y-105031009D01*
X152452381Y-105554819D02*
X152452381Y-104554819D01*
X152452381Y-104554819D02*
X152928571Y-104554819D01*
%TO.C,D1*%
D10*
X147250000Y-97500000D02*
X147250000Y-102500000D01*
X147250000Y-102500000D02*
X152200000Y-102500000D01*
X152200000Y-102500000D02*
X152750000Y-101950000D01*
X152750000Y-101950000D02*
X152750000Y-97500000D01*
X152750000Y-97500000D02*
X147250000Y-97500000D01*
%TO.C,R1*%
X155500000Y-97950000D02*
X157100000Y-97950000D01*
X157100000Y-98750000D01*
X155500000Y-98750000D01*
X155500000Y-97950000D01*
%TO.C,C1*%
X150200000Y-103600000D02*
X151800000Y-103600000D01*
X151800000Y-104400000D01*
X150200000Y-104400000D01*
X150200000Y-103600000D01*
%TD*%
M02*
