<?xml version="1.0" standalone="no"?>
 <!DOCTYPE svg PUBLIC "-//W3C//DTD SVG 1.1//EN"
 "http://www.w3.org/Graphics/SVG/1.1/DTD/svg11.dtd">
<svg
  xmlns:svg="http://www.w3.org/2000/svg"
  xmlns="http://www.w3.org/2000/svg"
  xmlns:xlink="http://www.w3.org/1999/xlink"
  xmlns:inkscape="http://www.inkscape.org/namespaces/inkscape"
  version="1.1"
  width="297.0022mm" height="210.0072mm" viewBox="0.0000 0.0000 297.0022 210.0072">
<title>SVG Image created as hybec-hbl-273-g4-drl_map.svg date 2026-06-08T09:40:54 </title>
  <desc>Image generated by PCBNEW </desc>
<g style="fill:#000000; fill-opacity:1.0000;stroke:#000000; stroke-opacity:1.0000;
stroke-linecap:round; stroke-linejoin:round;"
 transform="translate(0 0) scale(1 1)">
</g>
<g style="fill:none;
stroke:#000000; stroke-width:0.6000; stroke-opacity:1;
stroke-linecap:round; stroke-linejoin:round;">
<circle cx="148.5011" cy="63.0022" r="36.0000" />
</g>
<g style="fill:none;
stroke:#000000; stroke-width:0.3000; stroke-opacity:1;
stroke-linecap:round; stroke-linejoin:round;">
<path d="M177.0011 56.8822
L180.0011 59.8822
" />
<path d="M180.0011 56.8822
L177.0011 59.8822
" />
<path d="M177.0011 64.5022
L180.0011 67.5022
" />
<path d="M180.0011 64.5022
L177.0011 67.5022
" />
</g>
<g style="fill:none;
stroke:#000000; stroke-width:0.3600; stroke-opacity:1;
stroke-linecap:round; stroke-linejoin:round;">
<circle cx="148.5011" cy="57.0022" r="1.8000" />
<circle cx="148.5011" cy="69.0022" r="1.8000" />
</g>
<g style="fill:none;
stroke:#000000; stroke-width:0.6600; stroke-opacity:1;
stroke-linecap:round; stroke-linejoin:round;">
<path d="M130.5011 41.7022
L130.5011 48.3022
" />
<path d="M127.2011 45.0022
L133.8011 45.0022
" />
<path d="M130.5011 77.7022
L130.5011 84.3022
" />
<path d="M127.2011 81.0022
L133.8011 81.0022
" />
<path d="M166.5011 41.7022
L166.5011 48.3022
" />
<path d="M163.2011 45.0022
L169.8011 45.0022
" />
<path d="M166.5011 77.7022
L166.5011 84.3022
" />
<path d="M163.2011 81.0022
L169.8011 81.0022
" />
</g>
<g style="fill:none;
stroke:#000000; stroke-width:0.2000; stroke-opacity:1;
stroke-linecap:round; stroke-linejoin:round;">
<text x="114.2011" y="102.5022"
textLength="14.8667" font-size="2.6667" lengthAdjust="spacingAndGlyphs"
text-anchor="start" opacity="0" stroke-opacity="0">Drill Map:</text>
<g class="stroked-text"><desc>Drill Map:</desc>
<path d="M114.8089 102.4170
L114.8089 100.4170
" />
<path d="M114.8089 100.4170
L115.2851 100.4170
" />
<path d="M115.2851 100.4170
L115.5708 100.5122
" />
<path d="M115.5708 100.5122
L115.7612 100.7027
" />
<path d="M115.7612 100.7027
L115.8565 100.8932
" />
<path d="M115.8565 100.8932
L115.9517 101.2741
" />
<path d="M115.9517 101.2741
L115.9517 101.5599
" />
<path d="M115.9517 101.5599
L115.8565 101.9408
" />
<path d="M115.8565 101.9408
L115.7612 102.1313
" />
<path d="M115.7612 102.1313
L115.5708 102.3218
" />
<path d="M115.5708 102.3218
L115.2851 102.4170
" />
<path d="M115.2851 102.4170
L114.8089 102.4170
" />
<path d="M116.8089 102.4170
L116.8089 101.0837
" />
<path d="M116.8089 101.4646
L116.9041 101.2741
" />
<path d="M116.9041 101.2741
L116.9993 101.1789
" />
<path d="M116.9993 101.1789
L117.1898 101.0837
" />
<path d="M117.1898 101.0837
L117.3803 101.0837
" />
<path d="M118.0470 102.4170
L118.0470 101.0837
" />
<path d="M118.0470 100.4170
L117.9517 100.5122
" />
<path d="M117.9517 100.5122
L118.0470 100.6075
" />
<path d="M118.0470 100.6075
L118.1422 100.5122
" />
<path d="M118.1422 100.5122
L118.0470 100.4170
" />
<path d="M118.0470 100.4170
L118.0470 100.6075
" />
<path d="M119.2851 102.4170
L119.0946 102.3218
" />
<path d="M119.0946 102.3218
L118.9993 102.1313
" />
<path d="M118.9993 102.1313
L118.9993 100.4170
" />
<path d="M120.3327 102.4170
L120.1422 102.3218
" />
<path d="M120.1422 102.3218
L120.0470 102.1313
" />
<path d="M120.0470 102.1313
L120.0470 100.4170
" />
<path d="M122.6184 102.4170
L122.6184 100.4170
" />
<path d="M122.6184 100.4170
L123.2851 101.8456
" />
<path d="M123.2851 101.8456
L123.9517 100.4170
" />
<path d="M123.9517 100.4170
L123.9517 102.4170
" />
<path d="M125.7613 102.4170
L125.7613 101.3694
" />
<path d="M125.7613 101.3694
L125.6660 101.1789
" />
<path d="M125.6660 101.1789
L125.4755 101.0837
" />
<path d="M125.4755 101.0837
L125.0946 101.0837
" />
<path d="M125.0946 101.0837
L124.9041 101.1789
" />
<path d="M125.7613 102.3218
L125.5708 102.4170
" />
<path d="M125.5708 102.4170
L125.0946 102.4170
" />
<path d="M125.0946 102.4170
L124.9041 102.3218
" />
<path d="M124.9041 102.3218
L124.8089 102.1313
" />
<path d="M124.8089 102.1313
L124.8089 101.9408
" />
<path d="M124.8089 101.9408
L124.9041 101.7503
" />
<path d="M124.9041 101.7503
L125.0946 101.6551
" />
<path d="M125.0946 101.6551
L125.5708 101.6551
" />
<path d="M125.5708 101.6551
L125.7613 101.5599
" />
<path d="M126.7136 101.0837
L126.7136 103.0837
" />
<path d="M126.7136 101.1789
L126.9041 101.0837
" />
<path d="M126.9041 101.0837
L127.2851 101.0837
" />
<path d="M127.2851 101.0837
L127.4755 101.1789
" />
<path d="M127.4755 101.1789
L127.5708 101.2741
" />
<path d="M127.5708 101.2741
L127.6660 101.4646
" />
<path d="M127.6660 101.4646
L127.6660 102.0360
" />
<path d="M127.6660 102.0360
L127.5708 102.2265
" />
<path d="M127.5708 102.2265
L127.4755 102.3218
" />
<path d="M127.4755 102.3218
L127.2851 102.4170
" />
<path d="M127.2851 102.4170
L126.9041 102.4170
" />
<path d="M126.9041 102.4170
L126.7136 102.3218
" />
<path d="M128.5232 102.2265
L128.6184 102.3218
" />
<path d="M128.6184 102.3218
L128.5232 102.4170
" />
<path d="M128.5232 102.4170
L128.4279 102.3218
" />
<path d="M128.4279 102.3218
L128.5232 102.2265
" />
<path d="M128.5232 102.2265
L128.5232 102.4170
" />
<path d="M128.5232 101.1789
L128.6184 101.2741
" />
<path d="M128.6184 101.2741
L128.5232 101.3694
" />
<path d="M128.5232 101.3694
L128.4279 101.2741
" />
<path d="M128.4279 101.2741
L128.5232 101.1789
" />
<path d="M128.5232 101.1789
L128.5232 101.3694
" />
</g></g>
<g style="fill:none;
stroke:#000000; stroke-width:0.3000; stroke-opacity:1;
stroke-linecap:round; stroke-linejoin:round;">
<path d="M110.2011 104.7022
L112.2011 106.7022
" />
<path d="M112.2011 104.7022
L110.2011 106.7022
" />
</g>
<g style="fill:none;
stroke:#000000; stroke-width:0.2000; stroke-opacity:1;
stroke-linecap:round; stroke-linejoin:round;">
<text x="114.2011" y="106.7022"
textLength="46.8667" font-size="2.6667" lengthAdjust="spacingAndGlyphs"
text-anchor="start" opacity="0" stroke-opacity="0">1.000mm / 0.0394" (2 holes)</text>
<g class="stroked-text"><desc>1.000mm / 0.0394" (2 holes)</desc>
<path d="M115.8565 106.6170
L114.7136 106.6170
" />
<path d="M115.2851 106.6170
L115.2851 104.6170
" />
<path d="M115.2851 104.6170
L115.0946 104.9027
" />
<path d="M115.0946 104.9027
L114.9041 105.0932
" />
<path d="M114.9041 105.0932
L114.7136 105.1884
" />
<path d="M116.7136 106.4265
L116.8089 106.5218
" />
<path d="M116.8089 106.5218
L116.7136 106.6170
" />
<path d="M116.7136 106.6170
L116.6184 106.5218
" />
<path d="M116.6184 106.5218
L116.7136 106.4265
" />
<path d="M116.7136 106.4265
L116.7136 106.6170
" />
<path d="M118.0470 104.6170
L118.2374 104.6170
" />
<path d="M118.2374 104.6170
L118.4279 104.7122
" />
<path d="M118.4279 104.7122
L118.5232 104.8075
" />
<path d="M118.5232 104.8075
L118.6184 104.9980
" />
<path d="M118.6184 104.9980
L118.7136 105.3789
" />
<path d="M118.7136 105.3789
L118.7136 105.8551
" />
<path d="M118.7136 105.8551
L118.6184 106.2360
" />
<path d="M118.6184 106.2360
L118.5232 106.4265
" />
<path d="M118.5232 106.4265
L118.4279 106.5218
" />
<path d="M118.4279 106.5218
L118.2374 106.6170
" />
<path d="M118.2374 106.6170
L118.0470 106.6170
" />
<path d="M118.0470 106.6170
L117.8565 106.5218
" />
<path d="M117.8565 106.5218
L117.7612 106.4265
" />
<path d="M117.7612 106.4265
L117.6660 106.2360
" />
<path d="M117.6660 106.2360
L117.5708 105.8551
" />
<path d="M117.5708 105.8551
L117.5708 105.3789
" />
<path d="M117.5708 105.3789
L117.6660 104.9980
" />
<path d="M117.6660 104.9980
L117.7612 104.8075
" />
<path d="M117.7612 104.8075
L117.8565 104.7122
" />
<path d="M117.8565 104.7122
L118.0470 104.6170
" />
<path d="M119.9517 104.6170
L120.1422 104.6170
" />
<path d="M120.1422 104.6170
L120.3327 104.7122
" />
<path d="M120.3327 104.7122
L120.4279 104.8075
" />
<path d="M120.4279 104.8075
L120.5232 104.9980
" />
<path d="M120.5232 104.9980
L120.6184 105.3789
" />
<path d="M120.6184 105.3789
L120.6184 105.8551
" />
<path d="M120.6184 105.8551
L120.5232 106.2360
" />
<path d="M120.5232 106.2360
L120.4279 106.4265
" />
<path d="M120.4279 106.4265
L120.3327 106.5218
" />
<path d="M120.3327 106.5218
L120.1422 106.6170
" />
<path d="M120.1422 106.6170
L119.9517 106.6170
" />
<path d="M119.9517 106.6170
L119.7613 106.5218
" />
<path d="M119.7613 106.5218
L119.6660 106.4265
" />
<path d="M119.6660 106.4265
L119.5708 106.2360
" />
<path d="M119.5708 106.2360
L119.4755 105.8551
" />
<path d="M119.4755 105.8551
L119.4755 105.3789
" />
<path d="M119.4755 105.3789
L119.5708 104.9980
" />
<path d="M119.5708 104.9980
L119.6660 104.8075
" />
<path d="M119.6660 104.8075
L119.7613 104.7122
" />
<path d="M119.7613 104.7122
L119.9517 104.6170
" />
<path d="M121.8565 104.6170
L122.0470 104.6170
" />
<path d="M122.0470 104.6170
L122.2374 104.7122
" />
<path d="M122.2374 104.7122
L122.3327 104.8075
" />
<path d="M122.3327 104.8075
L122.4279 104.9980
" />
<path d="M122.4279 104.9980
L122.5232 105.3789
" />
<path d="M122.5232 105.3789
L122.5232 105.8551
" />
<path d="M122.5232 105.8551
L122.4279 106.2360
" />
<path d="M122.4279 106.2360
L122.3327 106.4265
" />
<path d="M122.3327 106.4265
L122.2374 106.5218
" />
<path d="M122.2374 106.5218
L122.0470 106.6170
" />
<path d="M122.0470 106.6170
L121.8565 106.6170
" />
<path d="M121.8565 106.6170
L121.6660 106.5218
" />
<path d="M121.6660 106.5218
L121.5708 106.4265
" />
<path d="M121.5708 106.4265
L121.4755 106.2360
" />
<path d="M121.4755 106.2360
L121.3803 105.8551
" />
<path d="M121.3803 105.8551
L121.3803 105.3789
" />
<path d="M121.3803 105.3789
L121.4755 104.9980
" />
<path d="M121.4755 104.9980
L121.5708 104.8075
" />
<path d="M121.5708 104.8075
L121.6660 104.7122
" />
<path d="M121.6660 104.7122
L121.8565 104.6170
" />
<path d="M123.3803 106.6170
L123.3803 105.2837
" />
<path d="M123.3803 105.4741
L123.4755 105.3789
" />
<path d="M123.4755 105.3789
L123.6660 105.2837
" />
<path d="M123.6660 105.2837
L123.9517 105.2837
" />
<path d="M123.9517 105.2837
L124.1422 105.3789
" />
<path d="M124.1422 105.3789
L124.2374 105.5694
" />
<path d="M124.2374 105.5694
L124.2374 106.6170
" />
<path d="M124.2374 105.5694
L124.3327 105.3789
" />
<path d="M124.3327 105.3789
L124.5232 105.2837
" />
<path d="M124.5232 105.2837
L124.8089 105.2837
" />
<path d="M124.8089 105.2837
L124.9993 105.3789
" />
<path d="M124.9993 105.3789
L125.0946 105.5694
" />
<path d="M125.0946 105.5694
L125.0946 106.6170
" />
<path d="M126.0470 106.6170
L126.0470 105.2837
" />
<path d="M126.0470 105.4741
L126.1422 105.3789
" />
<path d="M126.1422 105.3789
L126.3327 105.2837
" />
<path d="M126.3327 105.2837
L126.6184 105.2837
" />
<path d="M126.6184 105.2837
L126.8089 105.3789
" />
<path d="M126.8089 105.3789
L126.9041 105.5694
" />
<path d="M126.9041 105.5694
L126.9041 106.6170
" />
<path d="M126.9041 105.5694
L126.9993 105.3789
" />
<path d="M126.9993 105.3789
L127.1898 105.2837
" />
<path d="M127.1898 105.2837
L127.4755 105.2837
" />
<path d="M127.4755 105.2837
L127.6660 105.3789
" />
<path d="M127.6660 105.3789
L127.7613 105.5694
" />
<path d="M127.7613 105.5694
L127.7613 106.6170
" />
<path d="M131.6660 104.5218
L129.9517 107.0932
" />
<path d="M134.2374 104.6170
L134.4279 104.6170
" />
<path d="M134.4279 104.6170
L134.6184 104.7122
" />
<path d="M134.6184 104.7122
L134.7136 104.8075
" />
<path d="M134.7136 104.8075
L134.8089 104.9980
" />
<path d="M134.8089 104.9980
L134.9041 105.3789
" />
<path d="M134.9041 105.3789
L134.9041 105.8551
" />
<path d="M134.9041 105.8551
L134.8089 106.2360
" />
<path d="M134.8089 106.2360
L134.7136 106.4265
" />
<path d="M134.7136 106.4265
L134.6184 106.5218
" />
<path d="M134.6184 106.5218
L134.4279 106.6170
" />
<path d="M134.4279 106.6170
L134.2374 106.6170
" />
<path d="M134.2374 106.6170
L134.0470 106.5218
" />
<path d="M134.0470 106.5218
L133.9517 106.4265
" />
<path d="M133.9517 106.4265
L133.8565 106.2360
" />
<path d="M133.8565 106.2360
L133.7613 105.8551
" />
<path d="M133.7613 105.8551
L133.7613 105.3789
" />
<path d="M133.7613 105.3789
L133.8565 104.9980
" />
<path d="M133.8565 104.9980
L133.9517 104.8075
" />
<path d="M133.9517 104.8075
L134.0470 104.7122
" />
<path d="M134.0470 104.7122
L134.2374 104.6170
" />
<path d="M135.7613 106.4265
L135.8565 106.5218
" />
<path d="M135.8565 106.5218
L135.7613 106.6170
" />
<path d="M135.7613 106.6170
L135.6660 106.5218
" />
<path d="M135.6660 106.5218
L135.7613 106.4265
" />
<path d="M135.7613 106.4265
L135.7613 106.6170
" />
<path d="M137.0946 104.6170
L137.2851 104.6170
" />
<path d="M137.2851 104.6170
L137.4755 104.7122
" />
<path d="M137.4755 104.7122
L137.5708 104.8075
" />
<path d="M137.5708 104.8075
L137.6660 104.9980
" />
<path d="M137.6660 104.9980
L137.7613 105.3789
" />
<path d="M137.7613 105.3789
L137.7613 105.8551
" />
<path d="M137.7613 105.8551
L137.6660 106.2360
" />
<path d="M137.6660 106.2360
L137.5708 106.4265
" />
<path d="M137.5708 106.4265
L137.4755 106.5218
" />
<path d="M137.4755 106.5218
L137.2851 106.6170
" />
<path d="M137.2851 106.6170
L137.0946 106.6170
" />
<path d="M137.0946 106.6170
L136.9041 106.5218
" />
<path d="M136.9041 106.5218
L136.8089 106.4265
" />
<path d="M136.8089 106.4265
L136.7136 106.2360
" />
<path d="M136.7136 106.2360
L136.6184 105.8551
" />
<path d="M136.6184 105.8551
L136.6184 105.3789
" />
<path d="M136.6184 105.3789
L136.7136 104.9980
" />
<path d="M136.7136 104.9980
L136.8089 104.8075
" />
<path d="M136.8089 104.8075
L136.9041 104.7122
" />
<path d="M136.9041 104.7122
L137.0946 104.6170
" />
<path d="M138.4279 104.6170
L139.6660 104.6170
" />
<path d="M139.6660 104.6170
L138.9994 105.3789
" />
<path d="M138.9994 105.3789
L139.2851 105.3789
" />
<path d="M139.2851 105.3789
L139.4755 105.4741
" />
<path d="M139.4755 105.4741
L139.5708 105.5694
" />
<path d="M139.5708 105.5694
L139.6660 105.7599
" />
<path d="M139.6660 105.7599
L139.6660 106.2360
" />
<path d="M139.6660 106.2360
L139.5708 106.4265
" />
<path d="M139.5708 106.4265
L139.4755 106.5218
" />
<path d="M139.4755 106.5218
L139.2851 106.6170
" />
<path d="M139.2851 106.6170
L138.7136 106.6170
" />
<path d="M138.7136 106.6170
L138.5232 106.5218
" />
<path d="M138.5232 106.5218
L138.4279 106.4265
" />
<path d="M140.6184 106.6170
L140.9994 106.6170
" />
<path d="M140.9994 106.6170
L141.1898 106.5218
" />
<path d="M141.1898 106.5218
L141.2851 106.4265
" />
<path d="M141.2851 106.4265
L141.4755 106.1408
" />
<path d="M141.4755 106.1408
L141.5708 105.7599
" />
<path d="M141.5708 105.7599
L141.5708 104.9980
" />
<path d="M141.5708 104.9980
L141.4755 104.8075
" />
<path d="M141.4755 104.8075
L141.3803 104.7122
" />
<path d="M141.3803 104.7122
L141.1898 104.6170
" />
<path d="M141.1898 104.6170
L140.8089 104.6170
" />
<path d="M140.8089 104.6170
L140.6184 104.7122
" />
<path d="M140.6184 104.7122
L140.5232 104.8075
" />
<path d="M140.5232 104.8075
L140.4279 104.9980
" />
<path d="M140.4279 104.9980
L140.4279 105.4741
" />
<path d="M140.4279 105.4741
L140.5232 105.6646
" />
<path d="M140.5232 105.6646
L140.6184 105.7599
" />
<path d="M140.6184 105.7599
L140.8089 105.8551
" />
<path d="M140.8089 105.8551
L141.1898 105.8551
" />
<path d="M141.1898 105.8551
L141.3803 105.7599
" />
<path d="M141.3803 105.7599
L141.4755 105.6646
" />
<path d="M141.4755 105.6646
L141.5708 105.4741
" />
<path d="M143.2851 105.2837
L143.2851 106.6170
" />
<path d="M142.8089 104.5218
L142.3327 105.9503
" />
<path d="M142.3327 105.9503
L143.5708 105.9503
" />
<path d="M144.2375 104.6170
L144.2375 104.9980
" />
<path d="M144.9994 104.6170
L144.9994 104.9980
" />
<path d="M147.9517 107.3789
L147.8565 107.2837
" />
<path d="M147.8565 107.2837
L147.6660 106.9980
" />
<path d="M147.6660 106.9980
L147.5708 106.8075
" />
<path d="M147.5708 106.8075
L147.4756 106.5218
" />
<path d="M147.4756 106.5218
L147.3803 106.0456
" />
<path d="M147.3803 106.0456
L147.3803 105.6646
" />
<path d="M147.3803 105.6646
L147.4756 105.1884
" />
<path d="M147.4756 105.1884
L147.5708 104.9027
" />
<path d="M147.5708 104.9027
L147.6660 104.7122
" />
<path d="M147.6660 104.7122
L147.8565 104.4265
" />
<path d="M147.8565 104.4265
L147.9517 104.3313
" />
<path d="M148.6184 104.8075
L148.7136 104.7122
" />
<path d="M148.7136 104.7122
L148.9041 104.6170
" />
<path d="M148.9041 104.6170
L149.3803 104.6170
" />
<path d="M149.3803 104.6170
L149.5708 104.7122
" />
<path d="M149.5708 104.7122
L149.6660 104.8075
" />
<path d="M149.6660 104.8075
L149.7613 104.9980
" />
<path d="M149.7613 104.9980
L149.7613 105.1884
" />
<path d="M149.7613 105.1884
L149.6660 105.4741
" />
<path d="M149.6660 105.4741
L148.5232 106.6170
" />
<path d="M148.5232 106.6170
L149.7613 106.6170
" />
<path d="M152.1422 106.6170
L152.1422 104.6170
" />
<path d="M152.9994 106.6170
L152.9994 105.5694
" />
<path d="M152.9994 105.5694
L152.9041 105.3789
" />
<path d="M152.9041 105.3789
L152.7137 105.2837
" />
<path d="M152.7137 105.2837
L152.4279 105.2837
" />
<path d="M152.4279 105.2837
L152.2375 105.3789
" />
<path d="M152.2375 105.3789
L152.1422 105.4741
" />
<path d="M154.2375 106.6170
L154.0470 106.5218
" />
<path d="M154.0470 106.5218
L153.9517 106.4265
" />
<path d="M153.9517 106.4265
L153.8565 106.2360
" />
<path d="M153.8565 106.2360
L153.8565 105.6646
" />
<path d="M153.8565 105.6646
L153.9517 105.4741
" />
<path d="M153.9517 105.4741
L154.0470 105.3789
" />
<path d="M154.0470 105.3789
L154.2375 105.2837
" />
<path d="M154.2375 105.2837
L154.5232 105.2837
" />
<path d="M154.5232 105.2837
L154.7137 105.3789
" />
<path d="M154.7137 105.3789
L154.8089 105.4741
" />
<path d="M154.8089 105.4741
L154.9041 105.6646
" />
<path d="M154.9041 105.6646
L154.9041 106.2360
" />
<path d="M154.9041 106.2360
L154.8089 106.4265
" />
<path d="M154.8089 106.4265
L154.7137 106.5218
" />
<path d="M154.7137 106.5218
L154.5232 106.6170
" />
<path d="M154.5232 106.6170
L154.2375 106.6170
" />
<path d="M156.0470 106.6170
L155.8565 106.5218
" />
<path d="M155.8565 106.5218
L155.7613 106.3313
" />
<path d="M155.7613 106.3313
L155.7613 104.6170
" />
<path d="M157.5708 106.5218
L157.3803 106.6170
" />
<path d="M157.3803 106.6170
L156.9994 106.6170
" />
<path d="M156.9994 106.6170
L156.8089 106.5218
" />
<path d="M156.8089 106.5218
L156.7137 106.3313
" />
<path d="M156.7137 106.3313
L156.7137 105.5694
" />
<path d="M156.7137 105.5694
L156.8089 105.3789
" />
<path d="M156.8089 105.3789
L156.9994 105.2837
" />
<path d="M156.9994 105.2837
L157.3803 105.2837
" />
<path d="M157.3803 105.2837
L157.5708 105.3789
" />
<path d="M157.5708 105.3789
L157.6660 105.5694
" />
<path d="M157.6660 105.5694
L157.6660 105.7599
" />
<path d="M157.6660 105.7599
L156.7137 105.9503
" />
<path d="M158.4279 106.5218
L158.6184 106.6170
" />
<path d="M158.6184 106.6170
L158.9994 106.6170
" />
<path d="M158.9994 106.6170
L159.1898 106.5218
" />
<path d="M159.1898 106.5218
L159.2851 106.3313
" />
<path d="M159.2851 106.3313
L159.2851 106.2360
" />
<path d="M159.2851 106.2360
L159.1898 106.0456
" />
<path d="M159.1898 106.0456
L158.9994 105.9503
" />
<path d="M158.9994 105.9503
L158.7137 105.9503
" />
<path d="M158.7137 105.9503
L158.5232 105.8551
" />
<path d="M158.5232 105.8551
L158.4279 105.6646
" />
<path d="M158.4279 105.6646
L158.4279 105.5694
" />
<path d="M158.4279 105.5694
L158.5232 105.3789
" />
<path d="M158.5232 105.3789
L158.7137 105.2837
" />
<path d="M158.7137 105.2837
L158.9994 105.2837
" />
<path d="M158.9994 105.2837
L159.1898 105.3789
" />
<path d="M159.9518 107.3789
L160.0470 107.2837
" />
<path d="M160.0470 107.2837
L160.2375 106.9980
" />
<path d="M160.2375 106.9980
L160.3327 106.8075
" />
<path d="M160.3327 106.8075
L160.4279 106.5218
" />
<path d="M160.4279 106.5218
L160.5232 106.0456
" />
<path d="M160.5232 106.0456
L160.5232 105.6646
" />
<path d="M160.5232 105.6646
L160.4279 105.1884
" />
<path d="M160.4279 105.1884
L160.3327 104.9027
" />
<path d="M160.3327 104.9027
L160.2375 104.7122
" />
<path d="M160.2375 104.7122
L160.0470 104.4265
" />
<path d="M160.0470 104.4265
L159.9518 104.3313
" />
</g></g>
<g style="fill:none;
stroke:#000000; stroke-width:0.3000; stroke-opacity:1;
stroke-linecap:round; stroke-linejoin:round;">
<circle cx="111.2011" cy="108.9022" r="1.0000" />
</g>
<g style="fill:none;
stroke:#000000; stroke-width:0.2000; stroke-opacity:1;
stroke-linecap:round; stroke-linejoin:round;">
<text x="114.2011" y="109.9022"
textLength="46.8667" font-size="2.6667" lengthAdjust="spacingAndGlyphs"
text-anchor="start" opacity="0" stroke-opacity="0">1.200mm / 0.0472" (2 holes)</text>
<g class="stroked-text"><desc>1.200mm / 0.0472" (2 holes)</desc>
<path d="M115.8565 109.8170
L114.7136 109.8170
" />
<path d="M115.2851 109.8170
L115.2851 107.8170
" />
<path d="M115.2851 107.8170
L115.0946 108.1027
" />
<path d="M115.0946 108.1027
L114.9041 108.2932
" />
<path d="M114.9041 108.2932
L114.7136 108.3884
" />
<path d="M116.7136 109.6265
L116.8089 109.7218
" />
<path d="M116.8089 109.7218
L116.7136 109.8170
" />
<path d="M116.7136 109.8170
L116.6184 109.7218
" />
<path d="M116.6184 109.7218
L116.7136 109.6265
" />
<path d="M116.7136 109.6265
L116.7136 109.8170
" />
<path d="M117.5708 108.0075
L117.6660 107.9122
" />
<path d="M117.6660 107.9122
L117.8565 107.8170
" />
<path d="M117.8565 107.8170
L118.3327 107.8170
" />
<path d="M118.3327 107.8170
L118.5232 107.9122
" />
<path d="M118.5232 107.9122
L118.6184 108.0075
" />
<path d="M118.6184 108.0075
L118.7136 108.1980
" />
<path d="M118.7136 108.1980
L118.7136 108.3884
" />
<path d="M118.7136 108.3884
L118.6184 108.6741
" />
<path d="M118.6184 108.6741
L117.4755 109.8170
" />
<path d="M117.4755 109.8170
L118.7136 109.8170
" />
<path d="M119.9517 107.8170
L120.1422 107.8170
" />
<path d="M120.1422 107.8170
L120.3327 107.9122
" />
<path d="M120.3327 107.9122
L120.4279 108.0075
" />
<path d="M120.4279 108.0075
L120.5232 108.1980
" />
<path d="M120.5232 108.1980
L120.6184 108.5789
" />
<path d="M120.6184 108.5789
L120.6184 109.0551
" />
<path d="M120.6184 109.0551
L120.5232 109.4360
" />
<path d="M120.5232 109.4360
L120.4279 109.6265
" />
<path d="M120.4279 109.6265
L120.3327 109.7218
" />
<path d="M120.3327 109.7218
L120.1422 109.8170
" />
<path d="M120.1422 109.8170
L119.9517 109.8170
" />
<path d="M119.9517 109.8170
L119.7613 109.7218
" />
<path d="M119.7613 109.7218
L119.6660 109.6265
" />
<path d="M119.6660 109.6265
L119.5708 109.4360
" />
<path d="M119.5708 109.4360
L119.4755 109.0551
" />
<path d="M119.4755 109.0551
L119.4755 108.5789
" />
<path d="M119.4755 108.5789
L119.5708 108.1980
" />
<path d="M119.5708 108.1980
L119.6660 108.0075
" />
<path d="M119.6660 108.0075
L119.7613 107.9122
" />
<path d="M119.7613 107.9122
L119.9517 107.8170
" />
<path d="M121.8565 107.8170
L122.0470 107.8170
" />
<path d="M122.0470 107.8170
L122.2374 107.9122
" />
<path d="M122.2374 107.9122
L122.3327 108.0075
" />
<path d="M122.3327 108.0075
L122.4279 108.1980
" />
<path d="M122.4279 108.1980
L122.5232 108.5789
" />
<path d="M122.5232 108.5789
L122.5232 109.0551
" />
<path d="M122.5232 109.0551
L122.4279 109.4360
" />
<path d="M122.4279 109.4360
L122.3327 109.6265
" />
<path d="M122.3327 109.6265
L122.2374 109.7218
" />
<path d="M122.2374 109.7218
L122.0470 109.8170
" />
<path d="M122.0470 109.8170
L121.8565 109.8170
" />
<path d="M121.8565 109.8170
L121.6660 109.7218
" />
<path d="M121.6660 109.7218
L121.5708 109.6265
" />
<path d="M121.5708 109.6265
L121.4755 109.4360
" />
<path d="M121.4755 109.4360
L121.3803 109.0551
" />
<path d="M121.3803 109.0551
L121.3803 108.5789
" />
<path d="M121.3803 108.5789
L121.4755 108.1980
" />
<path d="M121.4755 108.1980
L121.5708 108.0075
" />
<path d="M121.5708 108.0075
L121.6660 107.9122
" />
<path d="M121.6660 107.9122
L121.8565 107.8170
" />
<path d="M123.3803 109.8170
L123.3803 108.4837
" />
<path d="M123.3803 108.6741
L123.4755 108.5789
" />
<path d="M123.4755 108.5789
L123.6660 108.4837
" />
<path d="M123.6660 108.4837
L123.9517 108.4837
" />
<path d="M123.9517 108.4837
L124.1422 108.5789
" />
<path d="M124.1422 108.5789
L124.2374 108.7694
" />
<path d="M124.2374 108.7694
L124.2374 109.8170
" />
<path d="M124.2374 108.7694
L124.3327 108.5789
" />
<path d="M124.3327 108.5789
L124.5232 108.4837
" />
<path d="M124.5232 108.4837
L124.8089 108.4837
" />
<path d="M124.8089 108.4837
L124.9993 108.5789
" />
<path d="M124.9993 108.5789
L125.0946 108.7694
" />
<path d="M125.0946 108.7694
L125.0946 109.8170
" />
<path d="M126.0470 109.8170
L126.0470 108.4837
" />
<path d="M126.0470 108.6741
L126.1422 108.5789
" />
<path d="M126.1422 108.5789
L126.3327 108.4837
" />
<path d="M126.3327 108.4837
L126.6184 108.4837
" />
<path d="M126.6184 108.4837
L126.8089 108.5789
" />
<path d="M126.8089 108.5789
L126.9041 108.7694
" />
<path d="M126.9041 108.7694
L126.9041 109.8170
" />
<path d="M126.9041 108.7694
L126.9993 108.5789
" />
<path d="M126.9993 108.5789
L127.1898 108.4837
" />
<path d="M127.1898 108.4837
L127.4755 108.4837
" />
<path d="M127.4755 108.4837
L127.6660 108.5789
" />
<path d="M127.6660 108.5789
L127.7613 108.7694
" />
<path d="M127.7613 108.7694
L127.7613 109.8170
" />
<path d="M131.6660 107.7218
L129.9517 110.2932
" />
<path d="M134.2374 107.8170
L134.4279 107.8170
" />
<path d="M134.4279 107.8170
L134.6184 107.9122
" />
<path d="M134.6184 107.9122
L134.7136 108.0075
" />
<path d="M134.7136 108.0075
L134.8089 108.1980
" />
<path d="M134.8089 108.1980
L134.9041 108.5789
" />
<path d="M134.9041 108.5789
L134.9041 109.0551
" />
<path d="M134.9041 109.0551
L134.8089 109.4360
" />
<path d="M134.8089 109.4360
L134.7136 109.6265
" />
<path d="M134.7136 109.6265
L134.6184 109.7218
" />
<path d="M134.6184 109.7218
L134.4279 109.8170
" />
<path d="M134.4279 109.8170
L134.2374 109.8170
" />
<path d="M134.2374 109.8170
L134.0470 109.7218
" />
<path d="M134.0470 109.7218
L133.9517 109.6265
" />
<path d="M133.9517 109.6265
L133.8565 109.4360
" />
<path d="M133.8565 109.4360
L133.7613 109.0551
" />
<path d="M133.7613 109.0551
L133.7613 108.5789
" />
<path d="M133.7613 108.5789
L133.8565 108.1980
" />
<path d="M133.8565 108.1980
L133.9517 108.0075
" />
<path d="M133.9517 108.0075
L134.0470 107.9122
" />
<path d="M134.0470 107.9122
L134.2374 107.8170
" />
<path d="M135.7613 109.6265
L135.8565 109.7218
" />
<path d="M135.8565 109.7218
L135.7613 109.8170
" />
<path d="M135.7613 109.8170
L135.6660 109.7218
" />
<path d="M135.6660 109.7218
L135.7613 109.6265
" />
<path d="M135.7613 109.6265
L135.7613 109.8170
" />
<path d="M137.0946 107.8170
L137.2851 107.8170
" />
<path d="M137.2851 107.8170
L137.4755 107.9122
" />
<path d="M137.4755 107.9122
L137.5708 108.0075
" />
<path d="M137.5708 108.0075
L137.6660 108.1980
" />
<path d="M137.6660 108.1980
L137.7613 108.5789
" />
<path d="M137.7613 108.5789
L137.7613 109.0551
" />
<path d="M137.7613 109.0551
L137.6660 109.4360
" />
<path d="M137.6660 109.4360
L137.5708 109.6265
" />
<path d="M137.5708 109.6265
L137.4755 109.7218
" />
<path d="M137.4755 109.7218
L137.2851 109.8170
" />
<path d="M137.2851 109.8170
L137.0946 109.8170
" />
<path d="M137.0946 109.8170
L136.9041 109.7218
" />
<path d="M136.9041 109.7218
L136.8089 109.6265
" />
<path d="M136.8089 109.6265
L136.7136 109.4360
" />
<path d="M136.7136 109.4360
L136.6184 109.0551
" />
<path d="M136.6184 109.0551
L136.6184 108.5789
" />
<path d="M136.6184 108.5789
L136.7136 108.1980
" />
<path d="M136.7136 108.1980
L136.8089 108.0075
" />
<path d="M136.8089 108.0075
L136.9041 107.9122
" />
<path d="M136.9041 107.9122
L137.0946 107.8170
" />
<path d="M139.4755 108.4837
L139.4755 109.8170
" />
<path d="M138.9994 107.7218
L138.5232 109.1503
" />
<path d="M138.5232 109.1503
L139.7613 109.1503
" />
<path d="M140.3327 107.8170
L141.6660 107.8170
" />
<path d="M141.6660 107.8170
L140.8089 109.8170
" />
<path d="M142.3327 108.0075
L142.4279 107.9122
" />
<path d="M142.4279 107.9122
L142.6184 107.8170
" />
<path d="M142.6184 107.8170
L143.0946 107.8170
" />
<path d="M143.0946 107.8170
L143.2851 107.9122
" />
<path d="M143.2851 107.9122
L143.3803 108.0075
" />
<path d="M143.3803 108.0075
L143.4755 108.1980
" />
<path d="M143.4755 108.1980
L143.4755 108.3884
" />
<path d="M143.4755 108.3884
L143.3803 108.6741
" />
<path d="M143.3803 108.6741
L142.2375 109.8170
" />
<path d="M142.2375 109.8170
L143.4755 109.8170
" />
<path d="M144.2375 107.8170
L144.2375 108.1980
" />
<path d="M144.9994 107.8170
L144.9994 108.1980
" />
<path d="M147.9517 110.5789
L147.8565 110.4837
" />
<path d="M147.8565 110.4837
L147.6660 110.1980
" />
<path d="M147.6660 110.1980
L147.5708 110.0075
" />
<path d="M147.5708 110.0075
L147.4756 109.7218
" />
<path d="M147.4756 109.7218
L147.3803 109.2456
" />
<path d="M147.3803 109.2456
L147.3803 108.8646
" />
<path d="M147.3803 108.8646
L147.4756 108.3884
" />
<path d="M147.4756 108.3884
L147.5708 108.1027
" />
<path d="M147.5708 108.1027
L147.6660 107.9122
" />
<path d="M147.6660 107.9122
L147.8565 107.6265
" />
<path d="M147.8565 107.6265
L147.9517 107.5313
" />
<path d="M148.6184 108.0075
L148.7136 107.9122
" />
<path d="M148.7136 107.9122
L148.9041 107.8170
" />
<path d="M148.9041 107.8170
L149.3803 107.8170
" />
<path d="M149.3803 107.8170
L149.5708 107.9122
" />
<path d="M149.5708 107.9122
L149.6660 108.0075
" />
<path d="M149.6660 108.0075
L149.7613 108.1980
" />
<path d="M149.7613 108.1980
L149.7613 108.3884
" />
<path d="M149.7613 108.3884
L149.6660 108.6741
" />
<path d="M149.6660 108.6741
L148.5232 109.8170
" />
<path d="M148.5232 109.8170
L149.7613 109.8170
" />
<path d="M152.1422 109.8170
L152.1422 107.8170
" />
<path d="M152.9994 109.8170
L152.9994 108.7694
" />
<path d="M152.9994 108.7694
L152.9041 108.5789
" />
<path d="M152.9041 108.5789
L152.7137 108.4837
" />
<path d="M152.7137 108.4837
L152.4279 108.4837
" />
<path d="M152.4279 108.4837
L152.2375 108.5789
" />
<path d="M152.2375 108.5789
L152.1422 108.6741
" />
<path d="M154.2375 109.8170
L154.0470 109.7218
" />
<path d="M154.0470 109.7218
L153.9517 109.6265
" />
<path d="M153.9517 109.6265
L153.8565 109.4360
" />
<path d="M153.8565 109.4360
L153.8565 108.8646
" />
<path d="M153.8565 108.8646
L153.9517 108.6741
" />
<path d="M153.9517 108.6741
L154.0470 108.5789
" />
<path d="M154.0470 108.5789
L154.2375 108.4837
" />
<path d="M154.2375 108.4837
L154.5232 108.4837
" />
<path d="M154.5232 108.4837
L154.7137 108.5789
" />
<path d="M154.7137 108.5789
L154.8089 108.6741
" />
<path d="M154.8089 108.6741
L154.9041 108.8646
" />
<path d="M154.9041 108.8646
L154.9041 109.4360
" />
<path d="M154.9041 109.4360
L154.8089 109.6265
" />
<path d="M154.8089 109.6265
L154.7137 109.7218
" />
<path d="M154.7137 109.7218
L154.5232 109.8170
" />
<path d="M154.5232 109.8170
L154.2375 109.8170
" />
<path d="M156.0470 109.8170
L155.8565 109.7218
" />
<path d="M155.8565 109.7218
L155.7613 109.5313
" />
<path d="M155.7613 109.5313
L155.7613 107.8170
" />
<path d="M157.5708 109.7218
L157.3803 109.8170
" />
<path d="M157.3803 109.8170
L156.9994 109.8170
" />
<path d="M156.9994 109.8170
L156.8089 109.7218
" />
<path d="M156.8089 109.7218
L156.7137 109.5313
" />
<path d="M156.7137 109.5313
L156.7137 108.7694
" />
<path d="M156.7137 108.7694
L156.8089 108.5789
" />
<path d="M156.8089 108.5789
L156.9994 108.4837
" />
<path d="M156.9994 108.4837
L157.3803 108.4837
" />
<path d="M157.3803 108.4837
L157.5708 108.5789
" />
<path d="M157.5708 108.5789
L157.6660 108.7694
" />
<path d="M157.6660 108.7694
L157.6660 108.9599
" />
<path d="M157.6660 108.9599
L156.7137 109.1503
" />
<path d="M158.4279 109.7218
L158.6184 109.8170
" />
<path d="M158.6184 109.8170
L158.9994 109.8170
" />
<path d="M158.9994 109.8170
L159.1898 109.7218
" />
<path d="M159.1898 109.7218
L159.2851 109.5313
" />
<path d="M159.2851 109.5313
L159.2851 109.4360
" />
<path d="M159.2851 109.4360
L159.1898 109.2456
" />
<path d="M159.1898 109.2456
L158.9994 109.1503
" />
<path d="M158.9994 109.1503
L158.7137 109.1503
" />
<path d="M158.7137 109.1503
L158.5232 109.0551
" />
<path d="M158.5232 109.0551
L158.4279 108.8646
" />
<path d="M158.4279 108.8646
L158.4279 108.7694
" />
<path d="M158.4279 108.7694
L158.5232 108.5789
" />
<path d="M158.5232 108.5789
L158.7137 108.4837
" />
<path d="M158.7137 108.4837
L158.9994 108.4837
" />
<path d="M158.9994 108.4837
L159.1898 108.5789
" />
<path d="M159.9518 110.5789
L160.0470 110.4837
" />
<path d="M160.0470 110.4837
L160.2375 110.1980
" />
<path d="M160.2375 110.1980
L160.3327 110.0075
" />
<path d="M160.3327 110.0075
L160.4279 109.7218
" />
<path d="M160.4279 109.7218
L160.5232 109.2456
" />
<path d="M160.5232 109.2456
L160.5232 108.8646
" />
<path d="M160.5232 108.8646
L160.4279 108.3884
" />
<path d="M160.4279 108.3884
L160.3327 108.1027
" />
<path d="M160.3327 108.1027
L160.2375 107.9122
" />
<path d="M160.2375 107.9122
L160.0470 107.6265
" />
<path d="M160.0470 107.6265
L159.9518 107.5313
" />
</g></g>
<g style="fill:none;
stroke:#000000; stroke-width:0.3000; stroke-opacity:1;
stroke-linecap:round; stroke-linejoin:round;">
<path d="M111.2011 111.1022
L111.2011 113.1022
" />
<path d="M110.2011 112.1022
L112.2011 112.1022
" />
</g>
<g style="fill:none;
stroke:#000000; stroke-width:0.2000; stroke-opacity:1;
stroke-linecap:round; stroke-linejoin:round;">
<text x="114.2011" y="113.1022"
textLength="66.6762" font-size="2.6667" lengthAdjust="spacingAndGlyphs"
text-anchor="start" opacity="0" stroke-opacity="0">2.200mm / 0.0866" (4 holes) (not plated)</text>
<g class="stroked-text"><desc>2.200mm / 0.0866" (4 holes) (not plated)</desc>
<path d="M114.7136 111.2075
L114.8089 111.1122
" />
<path d="M114.8089 111.1122
L114.9993 111.0170
" />
<path d="M114.9993 111.0170
L115.4755 111.0170
" />
<path d="M115.4755 111.0170
L115.6660 111.1122
" />
<path d="M115.6660 111.1122
L115.7612 111.2075
" />
<path d="M115.7612 111.2075
L115.8565 111.3980
" />
<path d="M115.8565 111.3980
L115.8565 111.5884
" />
<path d="M115.8565 111.5884
L115.7612 111.8741
" />
<path d="M115.7612 111.8741
L114.6184 113.0170
" />
<path d="M114.6184 113.0170
L115.8565 113.0170
" />
<path d="M116.7136 112.8265
L116.8089 112.9218
" />
<path d="M116.8089 112.9218
L116.7136 113.0170
" />
<path d="M116.7136 113.0170
L116.6184 112.9218
" />
<path d="M116.6184 112.9218
L116.7136 112.8265
" />
<path d="M116.7136 112.8265
L116.7136 113.0170
" />
<path d="M117.5708 111.2075
L117.6660 111.1122
" />
<path d="M117.6660 111.1122
L117.8565 111.0170
" />
<path d="M117.8565 111.0170
L118.3327 111.0170
" />
<path d="M118.3327 111.0170
L118.5232 111.1122
" />
<path d="M118.5232 111.1122
L118.6184 111.2075
" />
<path d="M118.6184 111.2075
L118.7136 111.3980
" />
<path d="M118.7136 111.3980
L118.7136 111.5884
" />
<path d="M118.7136 111.5884
L118.6184 111.8741
" />
<path d="M118.6184 111.8741
L117.4755 113.0170
" />
<path d="M117.4755 113.0170
L118.7136 113.0170
" />
<path d="M119.9517 111.0170
L120.1422 111.0170
" />
<path d="M120.1422 111.0170
L120.3327 111.1122
" />
<path d="M120.3327 111.1122
L120.4279 111.2075
" />
<path d="M120.4279 111.2075
L120.5232 111.3980
" />
<path d="M120.5232 111.3980
L120.6184 111.7789
" />
<path d="M120.6184 111.7789
L120.6184 112.2551
" />
<path d="M120.6184 112.2551
L120.5232 112.6360
" />
<path d="M120.5232 112.6360
L120.4279 112.8265
" />
<path d="M120.4279 112.8265
L120.3327 112.9218
" />
<path d="M120.3327 112.9218
L120.1422 113.0170
" />
<path d="M120.1422 113.0170
L119.9517 113.0170
" />
<path d="M119.9517 113.0170
L119.7613 112.9218
" />
<path d="M119.7613 112.9218
L119.6660 112.8265
" />
<path d="M119.6660 112.8265
L119.5708 112.6360
" />
<path d="M119.5708 112.6360
L119.4755 112.2551
" />
<path d="M119.4755 112.2551
L119.4755 111.7789
" />
<path d="M119.4755 111.7789
L119.5708 111.3980
" />
<path d="M119.5708 111.3980
L119.6660 111.2075
" />
<path d="M119.6660 111.2075
L119.7613 111.1122
" />
<path d="M119.7613 111.1122
L119.9517 111.0170
" />
<path d="M121.8565 111.0170
L122.0470 111.0170
" />
<path d="M122.0470 111.0170
L122.2374 111.1122
" />
<path d="M122.2374 111.1122
L122.3327 111.2075
" />
<path d="M122.3327 111.2075
L122.4279 111.3980
" />
<path d="M122.4279 111.3980
L122.5232 111.7789
" />
<path d="M122.5232 111.7789
L122.5232 112.2551
" />
<path d="M122.5232 112.2551
L122.4279 112.6360
" />
<path d="M122.4279 112.6360
L122.3327 112.8265
" />
<path d="M122.3327 112.8265
L122.2374 112.9218
" />
<path d="M122.2374 112.9218
L122.0470 113.0170
" />
<path d="M122.0470 113.0170
L121.8565 113.0170
" />
<path d="M121.8565 113.0170
L121.6660 112.9218
" />
<path d="M121.6660 112.9218
L121.5708 112.8265
" />
<path d="M121.5708 112.8265
L121.4755 112.6360
" />
<path d="M121.4755 112.6360
L121.3803 112.2551
" />
<path d="M121.3803 112.2551
L121.3803 111.7789
" />
<path d="M121.3803 111.7789
L121.4755 111.3980
" />
<path d="M121.4755 111.3980
L121.5708 111.2075
" />
<path d="M121.5708 111.2075
L121.6660 111.1122
" />
<path d="M121.6660 111.1122
L121.8565 111.0170
" />
<path d="M123.3803 113.0170
L123.3803 111.6837
" />
<path d="M123.3803 111.8741
L123.4755 111.7789
" />
<path d="M123.4755 111.7789
L123.6660 111.6837
" />
<path d="M123.6660 111.6837
L123.9517 111.6837
" />
<path d="M123.9517 111.6837
L124.1422 111.7789
" />
<path d="M124.1422 111.7789
L124.2374 111.9694
" />
<path d="M124.2374 111.9694
L124.2374 113.0170
" />
<path d="M124.2374 111.9694
L124.3327 111.7789
" />
<path d="M124.3327 111.7789
L124.5232 111.6837
" />
<path d="M124.5232 111.6837
L124.8089 111.6837
" />
<path d="M124.8089 111.6837
L124.9993 111.7789
" />
<path d="M124.9993 111.7789
L125.0946 111.9694
" />
<path d="M125.0946 111.9694
L125.0946 113.0170
" />
<path d="M126.0470 113.0170
L126.0470 111.6837
" />
<path d="M126.0470 111.8741
L126.1422 111.7789
" />
<path d="M126.1422 111.7789
L126.3327 111.6837
" />
<path d="M126.3327 111.6837
L126.6184 111.6837
" />
<path d="M126.6184 111.6837
L126.8089 111.7789
" />
<path d="M126.8089 111.7789
L126.9041 111.9694
" />
<path d="M126.9041 111.9694
L126.9041 113.0170
" />
<path d="M126.9041 111.9694
L126.9993 111.7789
" />
<path d="M126.9993 111.7789
L127.1898 111.6837
" />
<path d="M127.1898 111.6837
L127.4755 111.6837
" />
<path d="M127.4755 111.6837
L127.6660 111.7789
" />
<path d="M127.6660 111.7789
L127.7613 111.9694
" />
<path d="M127.7613 111.9694
L127.7613 113.0170
" />
<path d="M131.6660 110.9218
L129.9517 113.4932
" />
<path d="M134.2374 111.0170
L134.4279 111.0170
" />
<path d="M134.4279 111.0170
L134.6184 111.1122
" />
<path d="M134.6184 111.1122
L134.7136 111.2075
" />
<path d="M134.7136 111.2075
L134.8089 111.3980
" />
<path d="M134.8089 111.3980
L134.9041 111.7789
" />
<path d="M134.9041 111.7789
L134.9041 112.2551
" />
<path d="M134.9041 112.2551
L134.8089 112.6360
" />
<path d="M134.8089 112.6360
L134.7136 112.8265
" />
<path d="M134.7136 112.8265
L134.6184 112.9218
" />
<path d="M134.6184 112.9218
L134.4279 113.0170
" />
<path d="M134.4279 113.0170
L134.2374 113.0170
" />
<path d="M134.2374 113.0170
L134.0470 112.9218
" />
<path d="M134.0470 112.9218
L133.9517 112.8265
" />
<path d="M133.9517 112.8265
L133.8565 112.6360
" />
<path d="M133.8565 112.6360
L133.7613 112.2551
" />
<path d="M133.7613 112.2551
L133.7613 111.7789
" />
<path d="M133.7613 111.7789
L133.8565 111.3980
" />
<path d="M133.8565 111.3980
L133.9517 111.2075
" />
<path d="M133.9517 111.2075
L134.0470 111.1122
" />
<path d="M134.0470 111.1122
L134.2374 111.0170
" />
<path d="M135.7613 112.8265
L135.8565 112.9218
" />
<path d="M135.8565 112.9218
L135.7613 113.0170
" />
<path d="M135.7613 113.0170
L135.6660 112.9218
" />
<path d="M135.6660 112.9218
L135.7613 112.8265
" />
<path d="M135.7613 112.8265
L135.7613 113.0170
" />
<path d="M137.0946 111.0170
L137.2851 111.0170
" />
<path d="M137.2851 111.0170
L137.4755 111.1122
" />
<path d="M137.4755 111.1122
L137.5708 111.2075
" />
<path d="M137.5708 111.2075
L137.6660 111.3980
" />
<path d="M137.6660 111.3980
L137.7613 111.7789
" />
<path d="M137.7613 111.7789
L137.7613 112.2551
" />
<path d="M137.7613 112.2551
L137.6660 112.6360
" />
<path d="M137.6660 112.6360
L137.5708 112.8265
" />
<path d="M137.5708 112.8265
L137.4755 112.9218
" />
<path d="M137.4755 112.9218
L137.2851 113.0170
" />
<path d="M137.2851 113.0170
L137.0946 113.0170
" />
<path d="M137.0946 113.0170
L136.9041 112.9218
" />
<path d="M136.9041 112.9218
L136.8089 112.8265
" />
<path d="M136.8089 112.8265
L136.7136 112.6360
" />
<path d="M136.7136 112.6360
L136.6184 112.2551
" />
<path d="M136.6184 112.2551
L136.6184 111.7789
" />
<path d="M136.6184 111.7789
L136.7136 111.3980
" />
<path d="M136.7136 111.3980
L136.8089 111.2075
" />
<path d="M136.8089 111.2075
L136.9041 111.1122
" />
<path d="M136.9041 111.1122
L137.0946 111.0170
" />
<path d="M138.9041 111.8741
L138.7136 111.7789
" />
<path d="M138.7136 111.7789
L138.6184 111.6837
" />
<path d="M138.6184 111.6837
L138.5232 111.4932
" />
<path d="M138.5232 111.4932
L138.5232 111.3980
" />
<path d="M138.5232 111.3980
L138.6184 111.2075
" />
<path d="M138.6184 111.2075
L138.7136 111.1122
" />
<path d="M138.7136 111.1122
L138.9041 111.0170
" />
<path d="M138.9041 111.0170
L139.2851 111.0170
" />
<path d="M139.2851 111.0170
L139.4755 111.1122
" />
<path d="M139.4755 111.1122
L139.5708 111.2075
" />
<path d="M139.5708 111.2075
L139.6660 111.3980
" />
<path d="M139.6660 111.3980
L139.6660 111.4932
" />
<path d="M139.6660 111.4932
L139.5708 111.6837
" />
<path d="M139.5708 111.6837
L139.4755 111.7789
" />
<path d="M139.4755 111.7789
L139.2851 111.8741
" />
<path d="M139.2851 111.8741
L138.9041 111.8741
" />
<path d="M138.9041 111.8741
L138.7136 111.9694
" />
<path d="M138.7136 111.9694
L138.6184 112.0646
" />
<path d="M138.6184 112.0646
L138.5232 112.2551
" />
<path d="M138.5232 112.2551
L138.5232 112.6360
" />
<path d="M138.5232 112.6360
L138.6184 112.8265
" />
<path d="M138.6184 112.8265
L138.7136 112.9218
" />
<path d="M138.7136 112.9218
L138.9041 113.0170
" />
<path d="M138.9041 113.0170
L139.2851 113.0170
" />
<path d="M139.2851 113.0170
L139.4755 112.9218
" />
<path d="M139.4755 112.9218
L139.5708 112.8265
" />
<path d="M139.5708 112.8265
L139.6660 112.6360
" />
<path d="M139.6660 112.6360
L139.6660 112.2551
" />
<path d="M139.6660 112.2551
L139.5708 112.0646
" />
<path d="M139.5708 112.0646
L139.4755 111.9694
" />
<path d="M139.4755 111.9694
L139.2851 111.8741
" />
<path d="M141.3803 111.0170
L140.9994 111.0170
" />
<path d="M140.9994 111.0170
L140.8089 111.1122
" />
<path d="M140.8089 111.1122
L140.7136 111.2075
" />
<path d="M140.7136 111.2075
L140.5232 111.4932
" />
<path d="M140.5232 111.4932
L140.4279 111.8741
" />
<path d="M140.4279 111.8741
L140.4279 112.6360
" />
<path d="M140.4279 112.6360
L140.5232 112.8265
" />
<path d="M140.5232 112.8265
L140.6184 112.9218
" />
<path d="M140.6184 112.9218
L140.8089 113.0170
" />
<path d="M140.8089 113.0170
L141.1898 113.0170
" />
<path d="M141.1898 113.0170
L141.3803 112.9218
" />
<path d="M141.3803 112.9218
L141.4755 112.8265
" />
<path d="M141.4755 112.8265
L141.5708 112.6360
" />
<path d="M141.5708 112.6360
L141.5708 112.1599
" />
<path d="M141.5708 112.1599
L141.4755 111.9694
" />
<path d="M141.4755 111.9694
L141.3803 111.8741
" />
<path d="M141.3803 111.8741
L141.1898 111.7789
" />
<path d="M141.1898 111.7789
L140.8089 111.7789
" />
<path d="M140.8089 111.7789
L140.6184 111.8741
" />
<path d="M140.6184 111.8741
L140.5232 111.9694
" />
<path d="M140.5232 111.9694
L140.4279 112.1599
" />
<path d="M143.2851 111.0170
L142.9041 111.0170
" />
<path d="M142.9041 111.0170
L142.7136 111.1122
" />
<path d="M142.7136 111.1122
L142.6184 111.2075
" />
<path d="M142.6184 111.2075
L142.4279 111.4932
" />
<path d="M142.4279 111.4932
L142.3327 111.8741
" />
<path d="M142.3327 111.8741
L142.3327 112.6360
" />
<path d="M142.3327 112.6360
L142.4279 112.8265
" />
<path d="M142.4279 112.8265
L142.5232 112.9218
" />
<path d="M142.5232 112.9218
L142.7136 113.0170
" />
<path d="M142.7136 113.0170
L143.0946 113.0170
" />
<path d="M143.0946 113.0170
L143.2851 112.9218
" />
<path d="M143.2851 112.9218
L143.3803 112.8265
" />
<path d="M143.3803 112.8265
L143.4755 112.6360
" />
<path d="M143.4755 112.6360
L143.4755 112.1599
" />
<path d="M143.4755 112.1599
L143.3803 111.9694
" />
<path d="M143.3803 111.9694
L143.2851 111.8741
" />
<path d="M143.2851 111.8741
L143.0946 111.7789
" />
<path d="M143.0946 111.7789
L142.7136 111.7789
" />
<path d="M142.7136 111.7789
L142.5232 111.8741
" />
<path d="M142.5232 111.8741
L142.4279 111.9694
" />
<path d="M142.4279 111.9694
L142.3327 112.1599
" />
<path d="M144.2375 111.0170
L144.2375 111.3980
" />
<path d="M144.9994 111.0170
L144.9994 111.3980
" />
<path d="M147.9517 113.7789
L147.8565 113.6837
" />
<path d="M147.8565 113.6837
L147.6660 113.3980
" />
<path d="M147.6660 113.3980
L147.5708 113.2075
" />
<path d="M147.5708 113.2075
L147.4756 112.9218
" />
<path d="M147.4756 112.9218
L147.3803 112.4456
" />
<path d="M147.3803 112.4456
L147.3803 112.0646
" />
<path d="M147.3803 112.0646
L147.4756 111.5884
" />
<path d="M147.4756 111.5884
L147.5708 111.3027
" />
<path d="M147.5708 111.3027
L147.6660 111.1122
" />
<path d="M147.6660 111.1122
L147.8565 110.8265
" />
<path d="M147.8565 110.8265
L147.9517 110.7313
" />
<path d="M149.5708 111.6837
L149.5708 113.0170
" />
<path d="M149.0946 110.9218
L148.6184 112.3503
" />
<path d="M148.6184 112.3503
L149.8565 112.3503
" />
<path d="M152.1422 113.0170
L152.1422 111.0170
" />
<path d="M152.9994 113.0170
L152.9994 111.9694
" />
<path d="M152.9994 111.9694
L152.9041 111.7789
" />
<path d="M152.9041 111.7789
L152.7137 111.6837
" />
<path d="M152.7137 111.6837
L152.4279 111.6837
" />
<path d="M152.4279 111.6837
L152.2375 111.7789
" />
<path d="M152.2375 111.7789
L152.1422 111.8741
" />
<path d="M154.2375 113.0170
L154.0470 112.9218
" />
<path d="M154.0470 112.9218
L153.9517 112.8265
" />
<path d="M153.9517 112.8265
L153.8565 112.6360
" />
<path d="M153.8565 112.6360
L153.8565 112.0646
" />
<path d="M153.8565 112.0646
L153.9517 111.8741
" />
<path d="M153.9517 111.8741
L154.0470 111.7789
" />
<path d="M154.0470 111.7789
L154.2375 111.6837
" />
<path d="M154.2375 111.6837
L154.5232 111.6837
" />
<path d="M154.5232 111.6837
L154.7137 111.7789
" />
<path d="M154.7137 111.7789
L154.8089 111.8741
" />
<path d="M154.8089 111.8741
L154.9041 112.0646
" />
<path d="M154.9041 112.0646
L154.9041 112.6360
" />
<path d="M154.9041 112.6360
L154.8089 112.8265
" />
<path d="M154.8089 112.8265
L154.7137 112.9218
" />
<path d="M154.7137 112.9218
L154.5232 113.0170
" />
<path d="M154.5232 113.0170
L154.2375 113.0170
" />
<path d="M156.0470 113.0170
L155.8565 112.9218
" />
<path d="M155.8565 112.9218
L155.7613 112.7313
" />
<path d="M155.7613 112.7313
L155.7613 111.0170
" />
<path d="M157.5708 112.9218
L157.3803 113.0170
" />
<path d="M157.3803 113.0170
L156.9994 113.0170
" />
<path d="M156.9994 113.0170
L156.8089 112.9218
" />
<path d="M156.8089 112.9218
L156.7137 112.7313
" />
<path d="M156.7137 112.7313
L156.7137 111.9694
" />
<path d="M156.7137 111.9694
L156.8089 111.7789
" />
<path d="M156.8089 111.7789
L156.9994 111.6837
" />
<path d="M156.9994 111.6837
L157.3803 111.6837
" />
<path d="M157.3803 111.6837
L157.5708 111.7789
" />
<path d="M157.5708 111.7789
L157.6660 111.9694
" />
<path d="M157.6660 111.9694
L157.6660 112.1599
" />
<path d="M157.6660 112.1599
L156.7137 112.3503
" />
<path d="M158.4279 112.9218
L158.6184 113.0170
" />
<path d="M158.6184 113.0170
L158.9994 113.0170
" />
<path d="M158.9994 113.0170
L159.1898 112.9218
" />
<path d="M159.1898 112.9218
L159.2851 112.7313
" />
<path d="M159.2851 112.7313
L159.2851 112.6360
" />
<path d="M159.2851 112.6360
L159.1898 112.4456
" />
<path d="M159.1898 112.4456
L158.9994 112.3503
" />
<path d="M158.9994 112.3503
L158.7137 112.3503
" />
<path d="M158.7137 112.3503
L158.5232 112.2551
" />
<path d="M158.5232 112.2551
L158.4279 112.0646
" />
<path d="M158.4279 112.0646
L158.4279 111.9694
" />
<path d="M158.4279 111.9694
L158.5232 111.7789
" />
<path d="M158.5232 111.7789
L158.7137 111.6837
" />
<path d="M158.7137 111.6837
L158.9994 111.6837
" />
<path d="M158.9994 111.6837
L159.1898 111.7789
" />
<path d="M159.9518 113.7789
L160.0470 113.6837
" />
<path d="M160.0470 113.6837
L160.2375 113.3980
" />
<path d="M160.2375 113.3980
L160.3327 113.2075
" />
<path d="M160.3327 113.2075
L160.4279 112.9218
" />
<path d="M160.4279 112.9218
L160.5232 112.4456
" />
<path d="M160.5232 112.4456
L160.5232 112.0646
" />
<path d="M160.5232 112.0646
L160.4279 111.5884
" />
<path d="M160.4279 111.5884
L160.3327 111.3027
" />
<path d="M160.3327 111.3027
L160.2375 111.1122
" />
<path d="M160.2375 111.1122
L160.0470 110.8265
" />
<path d="M160.0470 110.8265
L159.9518 110.7313
" />
<path d="M163.5708 113.7789
L163.4756 113.6837
" />
<path d="M163.4756 113.6837
L163.2851 113.3980
" />
<path d="M163.2851 113.3980
L163.1899 113.2075
" />
<path d="M163.1899 113.2075
L163.0946 112.9218
" />
<path d="M163.0946 112.9218
L162.9994 112.4456
" />
<path d="M162.9994 112.4456
L162.9994 112.0646
" />
<path d="M162.9994 112.0646
L163.0946 111.5884
" />
<path d="M163.0946 111.5884
L163.1899 111.3027
" />
<path d="M163.1899 111.3027
L163.2851 111.1122
" />
<path d="M163.2851 111.1122
L163.4756 110.8265
" />
<path d="M163.4756 110.8265
L163.5708 110.7313
" />
<path d="M164.3327 111.6837
L164.3327 113.0170
" />
<path d="M164.3327 111.8741
L164.4279 111.7789
" />
<path d="M164.4279 111.7789
L164.6184 111.6837
" />
<path d="M164.6184 111.6837
L164.9041 111.6837
" />
<path d="M164.9041 111.6837
L165.0946 111.7789
" />
<path d="M165.0946 111.7789
L165.1899 111.9694
" />
<path d="M165.1899 111.9694
L165.1899 113.0170
" />
<path d="M166.4279 113.0170
L166.2375 112.9218
" />
<path d="M166.2375 112.9218
L166.1422 112.8265
" />
<path d="M166.1422 112.8265
L166.0470 112.6360
" />
<path d="M166.0470 112.6360
L166.0470 112.0646
" />
<path d="M166.0470 112.0646
L166.1422 111.8741
" />
<path d="M166.1422 111.8741
L166.2375 111.7789
" />
<path d="M166.2375 111.7789
L166.4279 111.6837
" />
<path d="M166.4279 111.6837
L166.7137 111.6837
" />
<path d="M166.7137 111.6837
L166.9041 111.7789
" />
<path d="M166.9041 111.7789
L166.9994 111.8741
" />
<path d="M166.9994 111.8741
L167.0946 112.0646
" />
<path d="M167.0946 112.0646
L167.0946 112.6360
" />
<path d="M167.0946 112.6360
L166.9994 112.8265
" />
<path d="M166.9994 112.8265
L166.9041 112.9218
" />
<path d="M166.9041 112.9218
L166.7137 113.0170
" />
<path d="M166.7137 113.0170
L166.4279 113.0170
" />
<path d="M167.6660 111.6837
L168.4279 111.6837
" />
<path d="M167.9518 111.0170
L167.9518 112.7313
" />
<path d="M167.9518 112.7313
L168.0470 112.9218
" />
<path d="M168.0470 112.9218
L168.2375 113.0170
" />
<path d="M168.2375 113.0170
L168.4279 113.0170
" />
<path d="M170.6184 111.6837
L170.6184 113.6837
" />
<path d="M170.6184 111.7789
L170.8089 111.6837
" />
<path d="M170.8089 111.6837
L171.1899 111.6837
" />
<path d="M171.1899 111.6837
L171.3803 111.7789
" />
<path d="M171.3803 111.7789
L171.4756 111.8741
" />
<path d="M171.4756 111.8741
L171.5708 112.0646
" />
<path d="M171.5708 112.0646
L171.5708 112.6360
" />
<path d="M171.5708 112.6360
L171.4756 112.8265
" />
<path d="M171.4756 112.8265
L171.3803 112.9218
" />
<path d="M171.3803 112.9218
L171.1899 113.0170
" />
<path d="M171.1899 113.0170
L170.8089 113.0170
" />
<path d="M170.8089 113.0170
L170.6184 112.9218
" />
<path d="M172.7137 113.0170
L172.5232 112.9218
" />
<path d="M172.5232 112.9218
L172.4280 112.7313
" />
<path d="M172.4280 112.7313
L172.4280 111.0170
" />
<path d="M174.3327 113.0170
L174.3327 111.9694
" />
<path d="M174.3327 111.9694
L174.2375 111.7789
" />
<path d="M174.2375 111.7789
L174.0470 111.6837
" />
<path d="M174.0470 111.6837
L173.6661 111.6837
" />
<path d="M173.6661 111.6837
L173.4756 111.7789
" />
<path d="M174.3327 112.9218
L174.1422 113.0170
" />
<path d="M174.1422 113.0170
L173.6661 113.0170
" />
<path d="M173.6661 113.0170
L173.4756 112.9218
" />
<path d="M173.4756 112.9218
L173.3803 112.7313
" />
<path d="M173.3803 112.7313
L173.3803 112.5408
" />
<path d="M173.3803 112.5408
L173.4756 112.3503
" />
<path d="M173.4756 112.3503
L173.6661 112.2551
" />
<path d="M173.6661 112.2551
L174.1422 112.2551
" />
<path d="M174.1422 112.2551
L174.3327 112.1599
" />
<path d="M174.9994 111.6837
L175.7613 111.6837
" />
<path d="M175.2851 111.0170
L175.2851 112.7313
" />
<path d="M175.2851 112.7313
L175.3803 112.9218
" />
<path d="M175.3803 112.9218
L175.5708 113.0170
" />
<path d="M175.5708 113.0170
L175.7613 113.0170
" />
<path d="M177.1899 112.9218
L176.9994 113.0170
" />
<path d="M176.9994 113.0170
L176.6184 113.0170
" />
<path d="M176.6184 113.0170
L176.4280 112.9218
" />
<path d="M176.4280 112.9218
L176.3327 112.7313
" />
<path d="M176.3327 112.7313
L176.3327 111.9694
" />
<path d="M176.3327 111.9694
L176.4280 111.7789
" />
<path d="M176.4280 111.7789
L176.6184 111.6837
" />
<path d="M176.6184 111.6837
L176.9994 111.6837
" />
<path d="M176.9994 111.6837
L177.1899 111.7789
" />
<path d="M177.1899 111.7789
L177.2851 111.9694
" />
<path d="M177.2851 111.9694
L177.2851 112.1599
" />
<path d="M177.2851 112.1599
L176.3327 112.3503
" />
<path d="M178.9994 113.0170
L178.9994 111.0170
" />
<path d="M178.9994 112.9218
L178.8089 113.0170
" />
<path d="M178.8089 113.0170
L178.4280 113.0170
" />
<path d="M178.4280 113.0170
L178.2375 112.9218
" />
<path d="M178.2375 112.9218
L178.1422 112.8265
" />
<path d="M178.1422 112.8265
L178.0470 112.6360
" />
<path d="M178.0470 112.6360
L178.0470 112.0646
" />
<path d="M178.0470 112.0646
L178.1422 111.8741
" />
<path d="M178.1422 111.8741
L178.2375 111.7789
" />
<path d="M178.2375 111.7789
L178.4280 111.6837
" />
<path d="M178.4280 111.6837
L178.8089 111.6837
" />
<path d="M178.8089 111.6837
L178.9994 111.7789
" />
<path d="M179.7613 113.7789
L179.8565 113.6837
" />
<path d="M179.8565 113.6837
L180.0470 113.3980
" />
<path d="M180.0470 113.3980
L180.1422 113.2075
" />
<path d="M180.1422 113.2075
L180.2375 112.9218
" />
<path d="M180.2375 112.9218
L180.3327 112.4456
" />
<path d="M180.3327 112.4456
L180.3327 112.0646
" />
<path d="M180.3327 112.0646
L180.2375 111.5884
" />
<path d="M180.2375 111.5884
L180.1422 111.3027
" />
<path d="M180.1422 111.3027
L180.0470 111.1122
" />
<path d="M180.0470 111.1122
L179.8565 110.8265
" />
<path d="M179.8565 110.8265
L179.7613 110.7313
" />
</g></g>
</svg>
