%TF.GenerationSoftware,KiCad,Pcbnew,10.0.3-10.0.3~ubuntu24.04.1*%
%TF.CreationDate,2026-06-08T09:40:54+08:00*%
%TF.ProjectId,hybec-hbl-273-g4,68796265-632d-4686-926c-2d3237332d67,rev?*%
%TF.SameCoordinates,Original*%
%TF.FileFunction,AssemblyDrawing,Top*%
%FSLAX46Y46*%
G04 Gerber Fmt 4.6, Leading zero omitted, Abs format (unit mm)*
G04 Created by KiCad (PCBNEW 10.0.3-10.0.3~ubuntu24.04.1) date 2026-06-08 09:40:54*
%MOMM*%
%LPD*%
G01*
G04 APERTURE LIST*
%ADD10C,0.100000*%
%ADD11C,0.150000*%
%ADD12C,0.120000*%
G04 APERTURE END LIST*
D10*
X157200000Y-100000000D02*
G75*
G02*
X142800000Y-100000000I-7200000J0D01*
G01*
X142800000Y-100000000D02*
G75*
G02*
X157200000Y-100000000I7200000J0D01*
G01*
X142795240Y-89556047D02*
X142795240Y-90009380D01*
X142795240Y-89620809D02*
X142827621Y-89588428D01*
X142827621Y-89588428D02*
X142892383Y-89556047D01*
X142892383Y-89556047D02*
X142989526Y-89556047D01*
X142989526Y-89556047D02*
X143054288Y-89588428D01*
X143054288Y-89588428D02*
X143086669Y-89653190D01*
X143086669Y-89653190D02*
X143086669Y-90009380D01*
X143507621Y-90009380D02*
X143442859Y-89977000D01*
X143442859Y-89977000D02*
X143410478Y-89944619D01*
X143410478Y-89944619D02*
X143378097Y-89879857D01*
X143378097Y-89879857D02*
X143378097Y-89685571D01*
X143378097Y-89685571D02*
X143410478Y-89620809D01*
X143410478Y-89620809D02*
X143442859Y-89588428D01*
X143442859Y-89588428D02*
X143507621Y-89556047D01*
X143507621Y-89556047D02*
X143604764Y-89556047D01*
X143604764Y-89556047D02*
X143669526Y-89588428D01*
X143669526Y-89588428D02*
X143701907Y-89620809D01*
X143701907Y-89620809D02*
X143734288Y-89685571D01*
X143734288Y-89685571D02*
X143734288Y-89879857D01*
X143734288Y-89879857D02*
X143701907Y-89944619D01*
X143701907Y-89944619D02*
X143669526Y-89977000D01*
X143669526Y-89977000D02*
X143604764Y-90009380D01*
X143604764Y-90009380D02*
X143507621Y-90009380D01*
X144025716Y-89556047D02*
X144025716Y-90009380D01*
X144025716Y-89620809D02*
X144058097Y-89588428D01*
X144058097Y-89588428D02*
X144122859Y-89556047D01*
X144122859Y-89556047D02*
X144220002Y-89556047D01*
X144220002Y-89556047D02*
X144284764Y-89588428D01*
X144284764Y-89588428D02*
X144317145Y-89653190D01*
X144317145Y-89653190D02*
X144317145Y-90009380D01*
X144640954Y-89750333D02*
X145159050Y-89750333D01*
X145482859Y-89556047D02*
X145482859Y-90236047D01*
X145482859Y-89588428D02*
X145547621Y-89556047D01*
X145547621Y-89556047D02*
X145677145Y-89556047D01*
X145677145Y-89556047D02*
X145741907Y-89588428D01*
X145741907Y-89588428D02*
X145774288Y-89620809D01*
X145774288Y-89620809D02*
X145806669Y-89685571D01*
X145806669Y-89685571D02*
X145806669Y-89879857D01*
X145806669Y-89879857D02*
X145774288Y-89944619D01*
X145774288Y-89944619D02*
X145741907Y-89977000D01*
X145741907Y-89977000D02*
X145677145Y-90009380D01*
X145677145Y-90009380D02*
X145547621Y-90009380D01*
X145547621Y-90009380D02*
X145482859Y-89977000D01*
X146195240Y-90009380D02*
X146130478Y-89977000D01*
X146130478Y-89977000D02*
X146098097Y-89944619D01*
X146098097Y-89944619D02*
X146065716Y-89879857D01*
X146065716Y-89879857D02*
X146065716Y-89685571D01*
X146065716Y-89685571D02*
X146098097Y-89620809D01*
X146098097Y-89620809D02*
X146130478Y-89588428D01*
X146130478Y-89588428D02*
X146195240Y-89556047D01*
X146195240Y-89556047D02*
X146292383Y-89556047D01*
X146292383Y-89556047D02*
X146357145Y-89588428D01*
X146357145Y-89588428D02*
X146389526Y-89620809D01*
X146389526Y-89620809D02*
X146421907Y-89685571D01*
X146421907Y-89685571D02*
X146421907Y-89879857D01*
X146421907Y-89879857D02*
X146389526Y-89944619D01*
X146389526Y-89944619D02*
X146357145Y-89977000D01*
X146357145Y-89977000D02*
X146292383Y-90009380D01*
X146292383Y-90009380D02*
X146195240Y-90009380D01*
X146810478Y-90009380D02*
X146745716Y-89977000D01*
X146745716Y-89977000D02*
X146713335Y-89912238D01*
X146713335Y-89912238D02*
X146713335Y-89329380D01*
X147360954Y-90009380D02*
X147360954Y-89653190D01*
X147360954Y-89653190D02*
X147328573Y-89588428D01*
X147328573Y-89588428D02*
X147263811Y-89556047D01*
X147263811Y-89556047D02*
X147134287Y-89556047D01*
X147134287Y-89556047D02*
X147069525Y-89588428D01*
X147360954Y-89977000D02*
X147296192Y-90009380D01*
X147296192Y-90009380D02*
X147134287Y-90009380D01*
X147134287Y-90009380D02*
X147069525Y-89977000D01*
X147069525Y-89977000D02*
X147037144Y-89912238D01*
X147037144Y-89912238D02*
X147037144Y-89847476D01*
X147037144Y-89847476D02*
X147069525Y-89782714D01*
X147069525Y-89782714D02*
X147134287Y-89750333D01*
X147134287Y-89750333D02*
X147296192Y-89750333D01*
X147296192Y-89750333D02*
X147360954Y-89717952D01*
X147684763Y-90009380D02*
X147684763Y-89556047D01*
X147684763Y-89685571D02*
X147717144Y-89620809D01*
X147717144Y-89620809D02*
X147749525Y-89588428D01*
X147749525Y-89588428D02*
X147814287Y-89556047D01*
X147814287Y-89556047D02*
X147879049Y-89556047D01*
X148526667Y-89556047D02*
X148785715Y-89556047D01*
X148623810Y-89329380D02*
X148623810Y-89912238D01*
X148623810Y-89912238D02*
X148656191Y-89977000D01*
X148656191Y-89977000D02*
X148720953Y-90009380D01*
X148720953Y-90009380D02*
X148785715Y-90009380D01*
X149303810Y-89556047D02*
X149303810Y-90009380D01*
X149012381Y-89556047D02*
X149012381Y-89912238D01*
X149012381Y-89912238D02*
X149044762Y-89977000D01*
X149044762Y-89977000D02*
X149109524Y-90009380D01*
X149109524Y-90009380D02*
X149206667Y-90009380D01*
X149206667Y-90009380D02*
X149271429Y-89977000D01*
X149271429Y-89977000D02*
X149303810Y-89944619D01*
X149627619Y-89556047D02*
X149627619Y-90009380D01*
X149627619Y-89620809D02*
X149660000Y-89588428D01*
X149660000Y-89588428D02*
X149724762Y-89556047D01*
X149724762Y-89556047D02*
X149821905Y-89556047D01*
X149821905Y-89556047D02*
X149886667Y-89588428D01*
X149886667Y-89588428D02*
X149919048Y-89653190D01*
X149919048Y-89653190D02*
X149919048Y-90009380D01*
X150534286Y-89556047D02*
X150534286Y-90106523D01*
X150534286Y-90106523D02*
X150501905Y-90171285D01*
X150501905Y-90171285D02*
X150469524Y-90203666D01*
X150469524Y-90203666D02*
X150404762Y-90236047D01*
X150404762Y-90236047D02*
X150307619Y-90236047D01*
X150307619Y-90236047D02*
X150242857Y-90203666D01*
X150534286Y-89977000D02*
X150469524Y-90009380D01*
X150469524Y-90009380D02*
X150340000Y-90009380D01*
X150340000Y-90009380D02*
X150275238Y-89977000D01*
X150275238Y-89977000D02*
X150242857Y-89944619D01*
X150242857Y-89944619D02*
X150210476Y-89879857D01*
X150210476Y-89879857D02*
X150210476Y-89685571D01*
X150210476Y-89685571D02*
X150242857Y-89620809D01*
X150242857Y-89620809D02*
X150275238Y-89588428D01*
X150275238Y-89588428D02*
X150340000Y-89556047D01*
X150340000Y-89556047D02*
X150469524Y-89556047D01*
X150469524Y-89556047D02*
X150534286Y-89588428D01*
X150825714Y-89977000D02*
X150890476Y-90009380D01*
X150890476Y-90009380D02*
X151020000Y-90009380D01*
X151020000Y-90009380D02*
X151084762Y-89977000D01*
X151084762Y-89977000D02*
X151117143Y-89912238D01*
X151117143Y-89912238D02*
X151117143Y-89879857D01*
X151117143Y-89879857D02*
X151084762Y-89815095D01*
X151084762Y-89815095D02*
X151020000Y-89782714D01*
X151020000Y-89782714D02*
X150922857Y-89782714D01*
X150922857Y-89782714D02*
X150858095Y-89750333D01*
X150858095Y-89750333D02*
X150825714Y-89685571D01*
X150825714Y-89685571D02*
X150825714Y-89653190D01*
X150825714Y-89653190D02*
X150858095Y-89588428D01*
X150858095Y-89588428D02*
X150922857Y-89556047D01*
X150922857Y-89556047D02*
X151020000Y-89556047D01*
X151020000Y-89556047D02*
X151084762Y-89588428D01*
X151311428Y-89556047D02*
X151570476Y-89556047D01*
X151408571Y-89329380D02*
X151408571Y-89912238D01*
X151408571Y-89912238D02*
X151440952Y-89977000D01*
X151440952Y-89977000D02*
X151505714Y-90009380D01*
X151505714Y-90009380D02*
X151570476Y-90009380D01*
X152056190Y-89977000D02*
X151991428Y-90009380D01*
X151991428Y-90009380D02*
X151861904Y-90009380D01*
X151861904Y-90009380D02*
X151797142Y-89977000D01*
X151797142Y-89977000D02*
X151764761Y-89912238D01*
X151764761Y-89912238D02*
X151764761Y-89653190D01*
X151764761Y-89653190D02*
X151797142Y-89588428D01*
X151797142Y-89588428D02*
X151861904Y-89556047D01*
X151861904Y-89556047D02*
X151991428Y-89556047D01*
X151991428Y-89556047D02*
X152056190Y-89588428D01*
X152056190Y-89588428D02*
X152088571Y-89653190D01*
X152088571Y-89653190D02*
X152088571Y-89717952D01*
X152088571Y-89717952D02*
X151764761Y-89782714D01*
X152379999Y-89556047D02*
X152379999Y-90009380D01*
X152379999Y-89620809D02*
X152412380Y-89588428D01*
X152412380Y-89588428D02*
X152477142Y-89556047D01*
X152477142Y-89556047D02*
X152574285Y-89556047D01*
X152574285Y-89556047D02*
X152639047Y-89588428D01*
X152639047Y-89588428D02*
X152671428Y-89653190D01*
X152671428Y-89653190D02*
X152671428Y-90009380D01*
X153513332Y-90009380D02*
X153513332Y-89329380D01*
X153804761Y-90009380D02*
X153804761Y-89653190D01*
X153804761Y-89653190D02*
X153772380Y-89588428D01*
X153772380Y-89588428D02*
X153707618Y-89556047D01*
X153707618Y-89556047D02*
X153610475Y-89556047D01*
X153610475Y-89556047D02*
X153545713Y-89588428D01*
X153545713Y-89588428D02*
X153513332Y-89620809D01*
X154419999Y-90009380D02*
X154419999Y-89653190D01*
X154419999Y-89653190D02*
X154387618Y-89588428D01*
X154387618Y-89588428D02*
X154322856Y-89556047D01*
X154322856Y-89556047D02*
X154193332Y-89556047D01*
X154193332Y-89556047D02*
X154128570Y-89588428D01*
X154419999Y-89977000D02*
X154355237Y-90009380D01*
X154355237Y-90009380D02*
X154193332Y-90009380D01*
X154193332Y-90009380D02*
X154128570Y-89977000D01*
X154128570Y-89977000D02*
X154096189Y-89912238D01*
X154096189Y-89912238D02*
X154096189Y-89847476D01*
X154096189Y-89847476D02*
X154128570Y-89782714D01*
X154128570Y-89782714D02*
X154193332Y-89750333D01*
X154193332Y-89750333D02*
X154355237Y-89750333D01*
X154355237Y-89750333D02*
X154419999Y-89717952D01*
X154840951Y-90009380D02*
X154776189Y-89977000D01*
X154776189Y-89977000D02*
X154743808Y-89912238D01*
X154743808Y-89912238D02*
X154743808Y-89329380D01*
X155197141Y-90009380D02*
X155132379Y-89977000D01*
X155132379Y-89977000D02*
X155099998Y-89944619D01*
X155099998Y-89944619D02*
X155067617Y-89879857D01*
X155067617Y-89879857D02*
X155067617Y-89685571D01*
X155067617Y-89685571D02*
X155099998Y-89620809D01*
X155099998Y-89620809D02*
X155132379Y-89588428D01*
X155132379Y-89588428D02*
X155197141Y-89556047D01*
X155197141Y-89556047D02*
X155294284Y-89556047D01*
X155294284Y-89556047D02*
X155359046Y-89588428D01*
X155359046Y-89588428D02*
X155391427Y-89620809D01*
X155391427Y-89620809D02*
X155423808Y-89685571D01*
X155423808Y-89685571D02*
X155423808Y-89879857D01*
X155423808Y-89879857D02*
X155391427Y-89944619D01*
X155391427Y-89944619D02*
X155359046Y-89977000D01*
X155359046Y-89977000D02*
X155294284Y-90009380D01*
X155294284Y-90009380D02*
X155197141Y-90009380D01*
X156006665Y-89556047D02*
X156006665Y-90106523D01*
X156006665Y-90106523D02*
X155974284Y-90171285D01*
X155974284Y-90171285D02*
X155941903Y-90203666D01*
X155941903Y-90203666D02*
X155877141Y-90236047D01*
X155877141Y-90236047D02*
X155779998Y-90236047D01*
X155779998Y-90236047D02*
X155715236Y-90203666D01*
X156006665Y-89977000D02*
X155941903Y-90009380D01*
X155941903Y-90009380D02*
X155812379Y-90009380D01*
X155812379Y-90009380D02*
X155747617Y-89977000D01*
X155747617Y-89977000D02*
X155715236Y-89944619D01*
X155715236Y-89944619D02*
X155682855Y-89879857D01*
X155682855Y-89879857D02*
X155682855Y-89685571D01*
X155682855Y-89685571D02*
X155715236Y-89620809D01*
X155715236Y-89620809D02*
X155747617Y-89588428D01*
X155747617Y-89588428D02*
X155812379Y-89556047D01*
X155812379Y-89556047D02*
X155941903Y-89556047D01*
X155941903Y-89556047D02*
X156006665Y-89588428D01*
X156589522Y-89977000D02*
X156524760Y-90009380D01*
X156524760Y-90009380D02*
X156395236Y-90009380D01*
X156395236Y-90009380D02*
X156330474Y-89977000D01*
X156330474Y-89977000D02*
X156298093Y-89912238D01*
X156298093Y-89912238D02*
X156298093Y-89653190D01*
X156298093Y-89653190D02*
X156330474Y-89588428D01*
X156330474Y-89588428D02*
X156395236Y-89556047D01*
X156395236Y-89556047D02*
X156524760Y-89556047D01*
X156524760Y-89556047D02*
X156589522Y-89588428D01*
X156589522Y-89588428D02*
X156621903Y-89653190D01*
X156621903Y-89653190D02*
X156621903Y-89717952D01*
X156621903Y-89717952D02*
X156298093Y-89782714D01*
X156913331Y-89556047D02*
X156913331Y-90009380D01*
X156913331Y-89620809D02*
X156945712Y-89588428D01*
X156945712Y-89588428D02*
X157010474Y-89556047D01*
X157010474Y-89556047D02*
X157107617Y-89556047D01*
X157107617Y-89556047D02*
X157172379Y-89588428D01*
X157172379Y-89588428D02*
X157204760Y-89653190D01*
X157204760Y-89653190D02*
X157204760Y-90009380D01*
X139165715Y-110627885D02*
X139165715Y-109907885D01*
X139165715Y-110250742D02*
X139577144Y-110250742D01*
X139577144Y-110627885D02*
X139577144Y-109907885D01*
X140057144Y-110285028D02*
X140057144Y-110627885D01*
X139817144Y-109907885D02*
X140057144Y-110285028D01*
X140057144Y-110285028D02*
X140297144Y-109907885D01*
X140777144Y-110250742D02*
X140880001Y-110285028D01*
X140880001Y-110285028D02*
X140914287Y-110319314D01*
X140914287Y-110319314D02*
X140948573Y-110387885D01*
X140948573Y-110387885D02*
X140948573Y-110490742D01*
X140948573Y-110490742D02*
X140914287Y-110559314D01*
X140914287Y-110559314D02*
X140880001Y-110593600D01*
X140880001Y-110593600D02*
X140811430Y-110627885D01*
X140811430Y-110627885D02*
X140537144Y-110627885D01*
X140537144Y-110627885D02*
X140537144Y-109907885D01*
X140537144Y-109907885D02*
X140777144Y-109907885D01*
X140777144Y-109907885D02*
X140845716Y-109942171D01*
X140845716Y-109942171D02*
X140880001Y-109976457D01*
X140880001Y-109976457D02*
X140914287Y-110045028D01*
X140914287Y-110045028D02*
X140914287Y-110113600D01*
X140914287Y-110113600D02*
X140880001Y-110182171D01*
X140880001Y-110182171D02*
X140845716Y-110216457D01*
X140845716Y-110216457D02*
X140777144Y-110250742D01*
X140777144Y-110250742D02*
X140537144Y-110250742D01*
X141257144Y-110250742D02*
X141497144Y-110250742D01*
X141600001Y-110627885D02*
X141257144Y-110627885D01*
X141257144Y-110627885D02*
X141257144Y-109907885D01*
X141257144Y-109907885D02*
X141600001Y-109907885D01*
X142320002Y-110559314D02*
X142285716Y-110593600D01*
X142285716Y-110593600D02*
X142182859Y-110627885D01*
X142182859Y-110627885D02*
X142114287Y-110627885D01*
X142114287Y-110627885D02*
X142011430Y-110593600D01*
X142011430Y-110593600D02*
X141942859Y-110525028D01*
X141942859Y-110525028D02*
X141908573Y-110456457D01*
X141908573Y-110456457D02*
X141874287Y-110319314D01*
X141874287Y-110319314D02*
X141874287Y-110216457D01*
X141874287Y-110216457D02*
X141908573Y-110079314D01*
X141908573Y-110079314D02*
X141942859Y-110010742D01*
X141942859Y-110010742D02*
X142011430Y-109942171D01*
X142011430Y-109942171D02*
X142114287Y-109907885D01*
X142114287Y-109907885D02*
X142182859Y-109907885D01*
X142182859Y-109907885D02*
X142285716Y-109942171D01*
X142285716Y-109942171D02*
X142320002Y-109976457D01*
X143177144Y-110627885D02*
X143177144Y-109907885D01*
X143177144Y-110250742D02*
X143588573Y-110250742D01*
X143588573Y-110627885D02*
X143588573Y-109907885D01*
X144171430Y-110250742D02*
X144274287Y-110285028D01*
X144274287Y-110285028D02*
X144308573Y-110319314D01*
X144308573Y-110319314D02*
X144342859Y-110387885D01*
X144342859Y-110387885D02*
X144342859Y-110490742D01*
X144342859Y-110490742D02*
X144308573Y-110559314D01*
X144308573Y-110559314D02*
X144274287Y-110593600D01*
X144274287Y-110593600D02*
X144205716Y-110627885D01*
X144205716Y-110627885D02*
X143931430Y-110627885D01*
X143931430Y-110627885D02*
X143931430Y-109907885D01*
X143931430Y-109907885D02*
X144171430Y-109907885D01*
X144171430Y-109907885D02*
X144240002Y-109942171D01*
X144240002Y-109942171D02*
X144274287Y-109976457D01*
X144274287Y-109976457D02*
X144308573Y-110045028D01*
X144308573Y-110045028D02*
X144308573Y-110113600D01*
X144308573Y-110113600D02*
X144274287Y-110182171D01*
X144274287Y-110182171D02*
X144240002Y-110216457D01*
X144240002Y-110216457D02*
X144171430Y-110250742D01*
X144171430Y-110250742D02*
X143931430Y-110250742D01*
X144994287Y-110627885D02*
X144651430Y-110627885D01*
X144651430Y-110627885D02*
X144651430Y-109907885D01*
X145234287Y-110353600D02*
X145782859Y-110353600D01*
X146091430Y-109976457D02*
X146125716Y-109942171D01*
X146125716Y-109942171D02*
X146194288Y-109907885D01*
X146194288Y-109907885D02*
X146365716Y-109907885D01*
X146365716Y-109907885D02*
X146434288Y-109942171D01*
X146434288Y-109942171D02*
X146468573Y-109976457D01*
X146468573Y-109976457D02*
X146502859Y-110045028D01*
X146502859Y-110045028D02*
X146502859Y-110113600D01*
X146502859Y-110113600D02*
X146468573Y-110216457D01*
X146468573Y-110216457D02*
X146057145Y-110627885D01*
X146057145Y-110627885D02*
X146502859Y-110627885D01*
X146742859Y-109907885D02*
X147222859Y-109907885D01*
X147222859Y-109907885D02*
X146914287Y-110627885D01*
X147428573Y-109907885D02*
X147874287Y-109907885D01*
X147874287Y-109907885D02*
X147634287Y-110182171D01*
X147634287Y-110182171D02*
X147737144Y-110182171D01*
X147737144Y-110182171D02*
X147805716Y-110216457D01*
X147805716Y-110216457D02*
X147840001Y-110250742D01*
X147840001Y-110250742D02*
X147874287Y-110319314D01*
X147874287Y-110319314D02*
X147874287Y-110490742D01*
X147874287Y-110490742D02*
X147840001Y-110559314D01*
X147840001Y-110559314D02*
X147805716Y-110593600D01*
X147805716Y-110593600D02*
X147737144Y-110627885D01*
X147737144Y-110627885D02*
X147531430Y-110627885D01*
X147531430Y-110627885D02*
X147462858Y-110593600D01*
X147462858Y-110593600D02*
X147428573Y-110559314D01*
X148697144Y-109873600D02*
X148080001Y-110799314D01*
X148937144Y-110627885D02*
X148937144Y-109907885D01*
X148937144Y-110250742D02*
X149348573Y-110250742D01*
X149348573Y-110627885D02*
X149348573Y-109907885D01*
X149931430Y-110250742D02*
X150034287Y-110285028D01*
X150034287Y-110285028D02*
X150068573Y-110319314D01*
X150068573Y-110319314D02*
X150102859Y-110387885D01*
X150102859Y-110387885D02*
X150102859Y-110490742D01*
X150102859Y-110490742D02*
X150068573Y-110559314D01*
X150068573Y-110559314D02*
X150034287Y-110593600D01*
X150034287Y-110593600D02*
X149965716Y-110627885D01*
X149965716Y-110627885D02*
X149691430Y-110627885D01*
X149691430Y-110627885D02*
X149691430Y-109907885D01*
X149691430Y-109907885D02*
X149931430Y-109907885D01*
X149931430Y-109907885D02*
X150000002Y-109942171D01*
X150000002Y-109942171D02*
X150034287Y-109976457D01*
X150034287Y-109976457D02*
X150068573Y-110045028D01*
X150068573Y-110045028D02*
X150068573Y-110113600D01*
X150068573Y-110113600D02*
X150034287Y-110182171D01*
X150034287Y-110182171D02*
X150000002Y-110216457D01*
X150000002Y-110216457D02*
X149931430Y-110250742D01*
X149931430Y-110250742D02*
X149691430Y-110250742D01*
X150754287Y-110627885D02*
X150411430Y-110627885D01*
X150411430Y-110627885D02*
X150411430Y-109907885D01*
X150994287Y-110353600D02*
X151542859Y-110353600D01*
X152194288Y-109907885D02*
X152057145Y-109907885D01*
X152057145Y-109907885D02*
X151988573Y-109942171D01*
X151988573Y-109942171D02*
X151954288Y-109976457D01*
X151954288Y-109976457D02*
X151885716Y-110079314D01*
X151885716Y-110079314D02*
X151851430Y-110216457D01*
X151851430Y-110216457D02*
X151851430Y-110490742D01*
X151851430Y-110490742D02*
X151885716Y-110559314D01*
X151885716Y-110559314D02*
X151920002Y-110593600D01*
X151920002Y-110593600D02*
X151988573Y-110627885D01*
X151988573Y-110627885D02*
X152125716Y-110627885D01*
X152125716Y-110627885D02*
X152194288Y-110593600D01*
X152194288Y-110593600D02*
X152228573Y-110559314D01*
X152228573Y-110559314D02*
X152262859Y-110490742D01*
X152262859Y-110490742D02*
X152262859Y-110319314D01*
X152262859Y-110319314D02*
X152228573Y-110250742D01*
X152228573Y-110250742D02*
X152194288Y-110216457D01*
X152194288Y-110216457D02*
X152125716Y-110182171D01*
X152125716Y-110182171D02*
X151988573Y-110182171D01*
X151988573Y-110182171D02*
X151920002Y-110216457D01*
X151920002Y-110216457D02*
X151885716Y-110250742D01*
X151885716Y-110250742D02*
X151851430Y-110319314D01*
X152880002Y-109907885D02*
X152742859Y-109907885D01*
X152742859Y-109907885D02*
X152674287Y-109942171D01*
X152674287Y-109942171D02*
X152640002Y-109976457D01*
X152640002Y-109976457D02*
X152571430Y-110079314D01*
X152571430Y-110079314D02*
X152537144Y-110216457D01*
X152537144Y-110216457D02*
X152537144Y-110490742D01*
X152537144Y-110490742D02*
X152571430Y-110559314D01*
X152571430Y-110559314D02*
X152605716Y-110593600D01*
X152605716Y-110593600D02*
X152674287Y-110627885D01*
X152674287Y-110627885D02*
X152811430Y-110627885D01*
X152811430Y-110627885D02*
X152880002Y-110593600D01*
X152880002Y-110593600D02*
X152914287Y-110559314D01*
X152914287Y-110559314D02*
X152948573Y-110490742D01*
X152948573Y-110490742D02*
X152948573Y-110319314D01*
X152948573Y-110319314D02*
X152914287Y-110250742D01*
X152914287Y-110250742D02*
X152880002Y-110216457D01*
X152880002Y-110216457D02*
X152811430Y-110182171D01*
X152811430Y-110182171D02*
X152674287Y-110182171D01*
X152674287Y-110182171D02*
X152605716Y-110216457D01*
X152605716Y-110216457D02*
X152571430Y-110250742D01*
X152571430Y-110250742D02*
X152537144Y-110319314D01*
X153188573Y-109907885D02*
X153668573Y-109907885D01*
X153668573Y-109907885D02*
X153360001Y-110627885D01*
X154868572Y-110627885D02*
X154457143Y-110627885D01*
X154662858Y-110627885D02*
X154662858Y-109907885D01*
X154662858Y-109907885D02*
X154594286Y-110010742D01*
X154594286Y-110010742D02*
X154525715Y-110079314D01*
X154525715Y-110079314D02*
X154457143Y-110113600D01*
X155142857Y-109976457D02*
X155177143Y-109942171D01*
X155177143Y-109942171D02*
X155245715Y-109907885D01*
X155245715Y-109907885D02*
X155417143Y-109907885D01*
X155417143Y-109907885D02*
X155485715Y-109942171D01*
X155485715Y-109942171D02*
X155520000Y-109976457D01*
X155520000Y-109976457D02*
X155554286Y-110045028D01*
X155554286Y-110045028D02*
X155554286Y-110113600D01*
X155554286Y-110113600D02*
X155520000Y-110216457D01*
X155520000Y-110216457D02*
X155108572Y-110627885D01*
X155108572Y-110627885D02*
X155554286Y-110627885D01*
X155760000Y-109907885D02*
X156000000Y-110627885D01*
X156000000Y-110627885D02*
X156240000Y-109907885D01*
X156994285Y-109976457D02*
X157028571Y-109942171D01*
X157028571Y-109942171D02*
X157097143Y-109907885D01*
X157097143Y-109907885D02*
X157268571Y-109907885D01*
X157268571Y-109907885D02*
X157337143Y-109942171D01*
X157337143Y-109942171D02*
X157371428Y-109976457D01*
X157371428Y-109976457D02*
X157405714Y-110045028D01*
X157405714Y-110045028D02*
X157405714Y-110113600D01*
X157405714Y-110113600D02*
X157371428Y-110216457D01*
X157371428Y-110216457D02*
X156960000Y-110627885D01*
X156960000Y-110627885D02*
X157405714Y-110627885D01*
X157851428Y-109907885D02*
X157919999Y-109907885D01*
X157919999Y-109907885D02*
X157988571Y-109942171D01*
X157988571Y-109942171D02*
X158022857Y-109976457D01*
X158022857Y-109976457D02*
X158057142Y-110045028D01*
X158057142Y-110045028D02*
X158091428Y-110182171D01*
X158091428Y-110182171D02*
X158091428Y-110353600D01*
X158091428Y-110353600D02*
X158057142Y-110490742D01*
X158057142Y-110490742D02*
X158022857Y-110559314D01*
X158022857Y-110559314D02*
X157988571Y-110593600D01*
X157988571Y-110593600D02*
X157919999Y-110627885D01*
X157919999Y-110627885D02*
X157851428Y-110627885D01*
X157851428Y-110627885D02*
X157782857Y-110593600D01*
X157782857Y-110593600D02*
X157748571Y-110559314D01*
X157748571Y-110559314D02*
X157714285Y-110490742D01*
X157714285Y-110490742D02*
X157679999Y-110353600D01*
X157679999Y-110353600D02*
X157679999Y-110182171D01*
X157679999Y-110182171D02*
X157714285Y-110045028D01*
X157714285Y-110045028D02*
X157748571Y-109976457D01*
X157748571Y-109976457D02*
X157782857Y-109942171D01*
X157782857Y-109942171D02*
X157851428Y-109907885D01*
X158331428Y-109907885D02*
X158502856Y-110627885D01*
X158502856Y-110627885D02*
X158639999Y-110113600D01*
X158639999Y-110113600D02*
X158777142Y-110627885D01*
X158777142Y-110627885D02*
X158948571Y-109907885D01*
X160148570Y-109942171D02*
X160079999Y-109907885D01*
X160079999Y-109907885D02*
X159977141Y-109907885D01*
X159977141Y-109907885D02*
X159874284Y-109942171D01*
X159874284Y-109942171D02*
X159805713Y-110010742D01*
X159805713Y-110010742D02*
X159771427Y-110079314D01*
X159771427Y-110079314D02*
X159737141Y-110216457D01*
X159737141Y-110216457D02*
X159737141Y-110319314D01*
X159737141Y-110319314D02*
X159771427Y-110456457D01*
X159771427Y-110456457D02*
X159805713Y-110525028D01*
X159805713Y-110525028D02*
X159874284Y-110593600D01*
X159874284Y-110593600D02*
X159977141Y-110627885D01*
X159977141Y-110627885D02*
X160045713Y-110627885D01*
X160045713Y-110627885D02*
X160148570Y-110593600D01*
X160148570Y-110593600D02*
X160182856Y-110559314D01*
X160182856Y-110559314D02*
X160182856Y-110319314D01*
X160182856Y-110319314D02*
X160045713Y-110319314D01*
X160799999Y-110147885D02*
X160799999Y-110627885D01*
X160628570Y-109873600D02*
X160457141Y-110387885D01*
X160457141Y-110387885D02*
X160902856Y-110387885D01*
D11*
X139214285Y-109654819D02*
X139214285Y-108654819D01*
X139214285Y-108654819D02*
X139547618Y-109369104D01*
X139547618Y-109369104D02*
X139880951Y-108654819D01*
X139880951Y-108654819D02*
X139880951Y-109654819D01*
X140499999Y-109654819D02*
X140404761Y-109607200D01*
X140404761Y-109607200D02*
X140357142Y-109559580D01*
X140357142Y-109559580D02*
X140309523Y-109464342D01*
X140309523Y-109464342D02*
X140309523Y-109178628D01*
X140309523Y-109178628D02*
X140357142Y-109083390D01*
X140357142Y-109083390D02*
X140404761Y-109035771D01*
X140404761Y-109035771D02*
X140499999Y-108988152D01*
X140499999Y-108988152D02*
X140642856Y-108988152D01*
X140642856Y-108988152D02*
X140738094Y-109035771D01*
X140738094Y-109035771D02*
X140785713Y-109083390D01*
X140785713Y-109083390D02*
X140833332Y-109178628D01*
X140833332Y-109178628D02*
X140833332Y-109464342D01*
X140833332Y-109464342D02*
X140785713Y-109559580D01*
X140785713Y-109559580D02*
X140738094Y-109607200D01*
X140738094Y-109607200D02*
X140642856Y-109654819D01*
X140642856Y-109654819D02*
X140499999Y-109654819D01*
X141690475Y-108988152D02*
X141690475Y-109654819D01*
X141261904Y-108988152D02*
X141261904Y-109511961D01*
X141261904Y-109511961D02*
X141309523Y-109607200D01*
X141309523Y-109607200D02*
X141404761Y-109654819D01*
X141404761Y-109654819D02*
X141547618Y-109654819D01*
X141547618Y-109654819D02*
X141642856Y-109607200D01*
X141642856Y-109607200D02*
X141690475Y-109559580D01*
X142166666Y-108988152D02*
X142166666Y-109654819D01*
X142166666Y-109083390D02*
X142214285Y-109035771D01*
X142214285Y-109035771D02*
X142309523Y-108988152D01*
X142309523Y-108988152D02*
X142452380Y-108988152D01*
X142452380Y-108988152D02*
X142547618Y-109035771D01*
X142547618Y-109035771D02*
X142595237Y-109131009D01*
X142595237Y-109131009D02*
X142595237Y-109654819D01*
X142928571Y-108988152D02*
X143309523Y-108988152D01*
X143071428Y-108654819D02*
X143071428Y-109511961D01*
X143071428Y-109511961D02*
X143119047Y-109607200D01*
X143119047Y-109607200D02*
X143214285Y-109654819D01*
X143214285Y-109654819D02*
X143309523Y-109654819D01*
X143642857Y-109654819D02*
X143642857Y-108988152D01*
X143642857Y-108654819D02*
X143595238Y-108702438D01*
X143595238Y-108702438D02*
X143642857Y-108750057D01*
X143642857Y-108750057D02*
X143690476Y-108702438D01*
X143690476Y-108702438D02*
X143642857Y-108654819D01*
X143642857Y-108654819D02*
X143642857Y-108750057D01*
X144119047Y-108988152D02*
X144119047Y-109654819D01*
X144119047Y-109083390D02*
X144166666Y-109035771D01*
X144166666Y-109035771D02*
X144261904Y-108988152D01*
X144261904Y-108988152D02*
X144404761Y-108988152D01*
X144404761Y-108988152D02*
X144499999Y-109035771D01*
X144499999Y-109035771D02*
X144547618Y-109131009D01*
X144547618Y-109131009D02*
X144547618Y-109654819D01*
X145452380Y-108988152D02*
X145452380Y-109797676D01*
X145452380Y-109797676D02*
X145404761Y-109892914D01*
X145404761Y-109892914D02*
X145357142Y-109940533D01*
X145357142Y-109940533D02*
X145261904Y-109988152D01*
X145261904Y-109988152D02*
X145119047Y-109988152D01*
X145119047Y-109988152D02*
X145023809Y-109940533D01*
X145452380Y-109607200D02*
X145357142Y-109654819D01*
X145357142Y-109654819D02*
X145166666Y-109654819D01*
X145166666Y-109654819D02*
X145071428Y-109607200D01*
X145071428Y-109607200D02*
X145023809Y-109559580D01*
X145023809Y-109559580D02*
X144976190Y-109464342D01*
X144976190Y-109464342D02*
X144976190Y-109178628D01*
X144976190Y-109178628D02*
X145023809Y-109083390D01*
X145023809Y-109083390D02*
X145071428Y-109035771D01*
X145071428Y-109035771D02*
X145166666Y-108988152D01*
X145166666Y-108988152D02*
X145357142Y-108988152D01*
X145357142Y-108988152D02*
X145452380Y-109035771D01*
X145928571Y-109654819D02*
X145928571Y-108654819D01*
X145928571Y-109131009D02*
X146499999Y-109131009D01*
X146499999Y-109654819D02*
X146499999Y-108654819D01*
X147119047Y-109654819D02*
X147023809Y-109607200D01*
X147023809Y-109607200D02*
X146976190Y-109559580D01*
X146976190Y-109559580D02*
X146928571Y-109464342D01*
X146928571Y-109464342D02*
X146928571Y-109178628D01*
X146928571Y-109178628D02*
X146976190Y-109083390D01*
X146976190Y-109083390D02*
X147023809Y-109035771D01*
X147023809Y-109035771D02*
X147119047Y-108988152D01*
X147119047Y-108988152D02*
X147261904Y-108988152D01*
X147261904Y-108988152D02*
X147357142Y-109035771D01*
X147357142Y-109035771D02*
X147404761Y-109083390D01*
X147404761Y-109083390D02*
X147452380Y-109178628D01*
X147452380Y-109178628D02*
X147452380Y-109464342D01*
X147452380Y-109464342D02*
X147404761Y-109559580D01*
X147404761Y-109559580D02*
X147357142Y-109607200D01*
X147357142Y-109607200D02*
X147261904Y-109654819D01*
X147261904Y-109654819D02*
X147119047Y-109654819D01*
X148023809Y-109654819D02*
X147928571Y-109607200D01*
X147928571Y-109607200D02*
X147880952Y-109511961D01*
X147880952Y-109511961D02*
X147880952Y-108654819D01*
X148785714Y-109607200D02*
X148690476Y-109654819D01*
X148690476Y-109654819D02*
X148500000Y-109654819D01*
X148500000Y-109654819D02*
X148404762Y-109607200D01*
X148404762Y-109607200D02*
X148357143Y-109511961D01*
X148357143Y-109511961D02*
X148357143Y-109131009D01*
X148357143Y-109131009D02*
X148404762Y-109035771D01*
X148404762Y-109035771D02*
X148500000Y-108988152D01*
X148500000Y-108988152D02*
X148690476Y-108988152D01*
X148690476Y-108988152D02*
X148785714Y-109035771D01*
X148785714Y-109035771D02*
X148833333Y-109131009D01*
X148833333Y-109131009D02*
X148833333Y-109226247D01*
X148833333Y-109226247D02*
X148357143Y-109321485D01*
X151214285Y-97654819D02*
X151214285Y-96654819D01*
X151214285Y-96654819D02*
X151547618Y-97369104D01*
X151547618Y-97369104D02*
X151880951Y-96654819D01*
X151880951Y-96654819D02*
X151880951Y-97654819D01*
X152499999Y-97654819D02*
X152404761Y-97607200D01*
X152404761Y-97607200D02*
X152357142Y-97559580D01*
X152357142Y-97559580D02*
X152309523Y-97464342D01*
X152309523Y-97464342D02*
X152309523Y-97178628D01*
X152309523Y-97178628D02*
X152357142Y-97083390D01*
X152357142Y-97083390D02*
X152404761Y-97035771D01*
X152404761Y-97035771D02*
X152499999Y-96988152D01*
X152499999Y-96988152D02*
X152642856Y-96988152D01*
X152642856Y-96988152D02*
X152738094Y-97035771D01*
X152738094Y-97035771D02*
X152785713Y-97083390D01*
X152785713Y-97083390D02*
X152833332Y-97178628D01*
X152833332Y-97178628D02*
X152833332Y-97464342D01*
X152833332Y-97464342D02*
X152785713Y-97559580D01*
X152785713Y-97559580D02*
X152738094Y-97607200D01*
X152738094Y-97607200D02*
X152642856Y-97654819D01*
X152642856Y-97654819D02*
X152499999Y-97654819D01*
X153690475Y-96988152D02*
X153690475Y-97654819D01*
X153261904Y-96988152D02*
X153261904Y-97511961D01*
X153261904Y-97511961D02*
X153309523Y-97607200D01*
X153309523Y-97607200D02*
X153404761Y-97654819D01*
X153404761Y-97654819D02*
X153547618Y-97654819D01*
X153547618Y-97654819D02*
X153642856Y-97607200D01*
X153642856Y-97607200D02*
X153690475Y-97559580D01*
X154166666Y-96988152D02*
X154166666Y-97654819D01*
X154166666Y-97083390D02*
X154214285Y-97035771D01*
X154214285Y-97035771D02*
X154309523Y-96988152D01*
X154309523Y-96988152D02*
X154452380Y-96988152D01*
X154452380Y-96988152D02*
X154547618Y-97035771D01*
X154547618Y-97035771D02*
X154595237Y-97131009D01*
X154595237Y-97131009D02*
X154595237Y-97654819D01*
X154928571Y-96988152D02*
X155309523Y-96988152D01*
X155071428Y-96654819D02*
X155071428Y-97511961D01*
X155071428Y-97511961D02*
X155119047Y-97607200D01*
X155119047Y-97607200D02*
X155214285Y-97654819D01*
X155214285Y-97654819D02*
X155309523Y-97654819D01*
X155642857Y-97654819D02*
X155642857Y-96988152D01*
X155642857Y-96654819D02*
X155595238Y-96702438D01*
X155595238Y-96702438D02*
X155642857Y-96750057D01*
X155642857Y-96750057D02*
X155690476Y-96702438D01*
X155690476Y-96702438D02*
X155642857Y-96654819D01*
X155642857Y-96654819D02*
X155642857Y-96750057D01*
X156119047Y-96988152D02*
X156119047Y-97654819D01*
X156119047Y-97083390D02*
X156166666Y-97035771D01*
X156166666Y-97035771D02*
X156261904Y-96988152D01*
X156261904Y-96988152D02*
X156404761Y-96988152D01*
X156404761Y-96988152D02*
X156499999Y-97035771D01*
X156499999Y-97035771D02*
X156547618Y-97131009D01*
X156547618Y-97131009D02*
X156547618Y-97654819D01*
X157452380Y-96988152D02*
X157452380Y-97797676D01*
X157452380Y-97797676D02*
X157404761Y-97892914D01*
X157404761Y-97892914D02*
X157357142Y-97940533D01*
X157357142Y-97940533D02*
X157261904Y-97988152D01*
X157261904Y-97988152D02*
X157119047Y-97988152D01*
X157119047Y-97988152D02*
X157023809Y-97940533D01*
X157452380Y-97607200D02*
X157357142Y-97654819D01*
X157357142Y-97654819D02*
X157166666Y-97654819D01*
X157166666Y-97654819D02*
X157071428Y-97607200D01*
X157071428Y-97607200D02*
X157023809Y-97559580D01*
X157023809Y-97559580D02*
X156976190Y-97464342D01*
X156976190Y-97464342D02*
X156976190Y-97178628D01*
X156976190Y-97178628D02*
X157023809Y-97083390D01*
X157023809Y-97083390D02*
X157071428Y-97035771D01*
X157071428Y-97035771D02*
X157166666Y-96988152D01*
X157166666Y-96988152D02*
X157357142Y-96988152D01*
X157357142Y-96988152D02*
X157452380Y-97035771D01*
X157928571Y-97654819D02*
X157928571Y-96654819D01*
X157928571Y-97131009D02*
X158499999Y-97131009D01*
X158499999Y-97654819D02*
X158499999Y-96654819D01*
X159119047Y-97654819D02*
X159023809Y-97607200D01*
X159023809Y-97607200D02*
X158976190Y-97559580D01*
X158976190Y-97559580D02*
X158928571Y-97464342D01*
X158928571Y-97464342D02*
X158928571Y-97178628D01*
X158928571Y-97178628D02*
X158976190Y-97083390D01*
X158976190Y-97083390D02*
X159023809Y-97035771D01*
X159023809Y-97035771D02*
X159119047Y-96988152D01*
X159119047Y-96988152D02*
X159261904Y-96988152D01*
X159261904Y-96988152D02*
X159357142Y-97035771D01*
X159357142Y-97035771D02*
X159404761Y-97083390D01*
X159404761Y-97083390D02*
X159452380Y-97178628D01*
X159452380Y-97178628D02*
X159452380Y-97464342D01*
X159452380Y-97464342D02*
X159404761Y-97559580D01*
X159404761Y-97559580D02*
X159357142Y-97607200D01*
X159357142Y-97607200D02*
X159261904Y-97654819D01*
X159261904Y-97654819D02*
X159119047Y-97654819D01*
X160023809Y-97654819D02*
X159928571Y-97607200D01*
X159928571Y-97607200D02*
X159880952Y-97511961D01*
X159880952Y-97511961D02*
X159880952Y-96654819D01*
X160785714Y-97607200D02*
X160690476Y-97654819D01*
X160690476Y-97654819D02*
X160500000Y-97654819D01*
X160500000Y-97654819D02*
X160404762Y-97607200D01*
X160404762Y-97607200D02*
X160357143Y-97511961D01*
X160357143Y-97511961D02*
X160357143Y-97131009D01*
X160357143Y-97131009D02*
X160404762Y-97035771D01*
X160404762Y-97035771D02*
X160500000Y-96988152D01*
X160500000Y-96988152D02*
X160690476Y-96988152D01*
X160690476Y-96988152D02*
X160785714Y-97035771D01*
X160785714Y-97035771D02*
X160833333Y-97131009D01*
X160833333Y-97131009D02*
X160833333Y-97226247D01*
X160833333Y-97226247D02*
X160357143Y-97321485D01*
X151214285Y-109654819D02*
X151214285Y-108654819D01*
X151214285Y-108654819D02*
X151547618Y-109369104D01*
X151547618Y-109369104D02*
X151880951Y-108654819D01*
X151880951Y-108654819D02*
X151880951Y-109654819D01*
X152499999Y-109654819D02*
X152404761Y-109607200D01*
X152404761Y-109607200D02*
X152357142Y-109559580D01*
X152357142Y-109559580D02*
X152309523Y-109464342D01*
X152309523Y-109464342D02*
X152309523Y-109178628D01*
X152309523Y-109178628D02*
X152357142Y-109083390D01*
X152357142Y-109083390D02*
X152404761Y-109035771D01*
X152404761Y-109035771D02*
X152499999Y-108988152D01*
X152499999Y-108988152D02*
X152642856Y-108988152D01*
X152642856Y-108988152D02*
X152738094Y-109035771D01*
X152738094Y-109035771D02*
X152785713Y-109083390D01*
X152785713Y-109083390D02*
X152833332Y-109178628D01*
X152833332Y-109178628D02*
X152833332Y-109464342D01*
X152833332Y-109464342D02*
X152785713Y-109559580D01*
X152785713Y-109559580D02*
X152738094Y-109607200D01*
X152738094Y-109607200D02*
X152642856Y-109654819D01*
X152642856Y-109654819D02*
X152499999Y-109654819D01*
X153690475Y-108988152D02*
X153690475Y-109654819D01*
X153261904Y-108988152D02*
X153261904Y-109511961D01*
X153261904Y-109511961D02*
X153309523Y-109607200D01*
X153309523Y-109607200D02*
X153404761Y-109654819D01*
X153404761Y-109654819D02*
X153547618Y-109654819D01*
X153547618Y-109654819D02*
X153642856Y-109607200D01*
X153642856Y-109607200D02*
X153690475Y-109559580D01*
X154166666Y-108988152D02*
X154166666Y-109654819D01*
X154166666Y-109083390D02*
X154214285Y-109035771D01*
X154214285Y-109035771D02*
X154309523Y-108988152D01*
X154309523Y-108988152D02*
X154452380Y-108988152D01*
X154452380Y-108988152D02*
X154547618Y-109035771D01*
X154547618Y-109035771D02*
X154595237Y-109131009D01*
X154595237Y-109131009D02*
X154595237Y-109654819D01*
X154928571Y-108988152D02*
X155309523Y-108988152D01*
X155071428Y-108654819D02*
X155071428Y-109511961D01*
X155071428Y-109511961D02*
X155119047Y-109607200D01*
X155119047Y-109607200D02*
X155214285Y-109654819D01*
X155214285Y-109654819D02*
X155309523Y-109654819D01*
X155642857Y-109654819D02*
X155642857Y-108988152D01*
X155642857Y-108654819D02*
X155595238Y-108702438D01*
X155595238Y-108702438D02*
X155642857Y-108750057D01*
X155642857Y-108750057D02*
X155690476Y-108702438D01*
X155690476Y-108702438D02*
X155642857Y-108654819D01*
X155642857Y-108654819D02*
X155642857Y-108750057D01*
X156119047Y-108988152D02*
X156119047Y-109654819D01*
X156119047Y-109083390D02*
X156166666Y-109035771D01*
X156166666Y-109035771D02*
X156261904Y-108988152D01*
X156261904Y-108988152D02*
X156404761Y-108988152D01*
X156404761Y-108988152D02*
X156499999Y-109035771D01*
X156499999Y-109035771D02*
X156547618Y-109131009D01*
X156547618Y-109131009D02*
X156547618Y-109654819D01*
X157452380Y-108988152D02*
X157452380Y-109797676D01*
X157452380Y-109797676D02*
X157404761Y-109892914D01*
X157404761Y-109892914D02*
X157357142Y-109940533D01*
X157357142Y-109940533D02*
X157261904Y-109988152D01*
X157261904Y-109988152D02*
X157119047Y-109988152D01*
X157119047Y-109988152D02*
X157023809Y-109940533D01*
X157452380Y-109607200D02*
X157357142Y-109654819D01*
X157357142Y-109654819D02*
X157166666Y-109654819D01*
X157166666Y-109654819D02*
X157071428Y-109607200D01*
X157071428Y-109607200D02*
X157023809Y-109559580D01*
X157023809Y-109559580D02*
X156976190Y-109464342D01*
X156976190Y-109464342D02*
X156976190Y-109178628D01*
X156976190Y-109178628D02*
X157023809Y-109083390D01*
X157023809Y-109083390D02*
X157071428Y-109035771D01*
X157071428Y-109035771D02*
X157166666Y-108988152D01*
X157166666Y-108988152D02*
X157357142Y-108988152D01*
X157357142Y-108988152D02*
X157452380Y-109035771D01*
X157928571Y-109654819D02*
X157928571Y-108654819D01*
X157928571Y-109131009D02*
X158499999Y-109131009D01*
X158499999Y-109654819D02*
X158499999Y-108654819D01*
X159119047Y-109654819D02*
X159023809Y-109607200D01*
X159023809Y-109607200D02*
X158976190Y-109559580D01*
X158976190Y-109559580D02*
X158928571Y-109464342D01*
X158928571Y-109464342D02*
X158928571Y-109178628D01*
X158928571Y-109178628D02*
X158976190Y-109083390D01*
X158976190Y-109083390D02*
X159023809Y-109035771D01*
X159023809Y-109035771D02*
X159119047Y-108988152D01*
X159119047Y-108988152D02*
X159261904Y-108988152D01*
X159261904Y-108988152D02*
X159357142Y-109035771D01*
X159357142Y-109035771D02*
X159404761Y-109083390D01*
X159404761Y-109083390D02*
X159452380Y-109178628D01*
X159452380Y-109178628D02*
X159452380Y-109464342D01*
X159452380Y-109464342D02*
X159404761Y-109559580D01*
X159404761Y-109559580D02*
X159357142Y-109607200D01*
X159357142Y-109607200D02*
X159261904Y-109654819D01*
X159261904Y-109654819D02*
X159119047Y-109654819D01*
X160023809Y-109654819D02*
X159928571Y-109607200D01*
X159928571Y-109607200D02*
X159880952Y-109511961D01*
X159880952Y-109511961D02*
X159880952Y-108654819D01*
X160785714Y-109607200D02*
X160690476Y-109654819D01*
X160690476Y-109654819D02*
X160500000Y-109654819D01*
X160500000Y-109654819D02*
X160404762Y-109607200D01*
X160404762Y-109607200D02*
X160357143Y-109511961D01*
X160357143Y-109511961D02*
X160357143Y-109131009D01*
X160357143Y-109131009D02*
X160404762Y-109035771D01*
X160404762Y-109035771D02*
X160500000Y-108988152D01*
X160500000Y-108988152D02*
X160690476Y-108988152D01*
X160690476Y-108988152D02*
X160785714Y-109035771D01*
X160785714Y-109035771D02*
X160833333Y-109131009D01*
X160833333Y-109131009D02*
X160833333Y-109226247D01*
X160833333Y-109226247D02*
X160357143Y-109321485D01*
X139333333Y-106454819D02*
X139333333Y-105454819D01*
X139333333Y-105931009D02*
X139904761Y-105931009D01*
X139904761Y-106454819D02*
X139904761Y-105454819D01*
X140571428Y-105978628D02*
X140571428Y-106454819D01*
X140238095Y-105454819D02*
X140571428Y-105978628D01*
X140571428Y-105978628D02*
X140904761Y-105454819D01*
X141571428Y-105931009D02*
X141714285Y-105978628D01*
X141714285Y-105978628D02*
X141761904Y-106026247D01*
X141761904Y-106026247D02*
X141809523Y-106121485D01*
X141809523Y-106121485D02*
X141809523Y-106264342D01*
X141809523Y-106264342D02*
X141761904Y-106359580D01*
X141761904Y-106359580D02*
X141714285Y-106407200D01*
X141714285Y-106407200D02*
X141619047Y-106454819D01*
X141619047Y-106454819D02*
X141238095Y-106454819D01*
X141238095Y-106454819D02*
X141238095Y-105454819D01*
X141238095Y-105454819D02*
X141571428Y-105454819D01*
X141571428Y-105454819D02*
X141666666Y-105502438D01*
X141666666Y-105502438D02*
X141714285Y-105550057D01*
X141714285Y-105550057D02*
X141761904Y-105645295D01*
X141761904Y-105645295D02*
X141761904Y-105740533D01*
X141761904Y-105740533D02*
X141714285Y-105835771D01*
X141714285Y-105835771D02*
X141666666Y-105883390D01*
X141666666Y-105883390D02*
X141571428Y-105931009D01*
X141571428Y-105931009D02*
X141238095Y-105931009D01*
X142238095Y-105931009D02*
X142571428Y-105931009D01*
X142714285Y-106454819D02*
X142238095Y-106454819D01*
X142238095Y-106454819D02*
X142238095Y-105454819D01*
X142238095Y-105454819D02*
X142714285Y-105454819D01*
X143714285Y-106359580D02*
X143666666Y-106407200D01*
X143666666Y-106407200D02*
X143523809Y-106454819D01*
X143523809Y-106454819D02*
X143428571Y-106454819D01*
X143428571Y-106454819D02*
X143285714Y-106407200D01*
X143285714Y-106407200D02*
X143190476Y-106311961D01*
X143190476Y-106311961D02*
X143142857Y-106216723D01*
X143142857Y-106216723D02*
X143095238Y-106026247D01*
X143095238Y-106026247D02*
X143095238Y-105883390D01*
X143095238Y-105883390D02*
X143142857Y-105692914D01*
X143142857Y-105692914D02*
X143190476Y-105597676D01*
X143190476Y-105597676D02*
X143285714Y-105502438D01*
X143285714Y-105502438D02*
X143428571Y-105454819D01*
X143428571Y-105454819D02*
X143523809Y-105454819D01*
X143523809Y-105454819D02*
X143666666Y-105502438D01*
X143666666Y-105502438D02*
X143714285Y-105550057D01*
X143904762Y-106550057D02*
X144666666Y-106550057D01*
X144904762Y-106454819D02*
X144904762Y-105454819D01*
X144904762Y-105931009D02*
X145476190Y-105931009D01*
X145476190Y-106454819D02*
X145476190Y-105454819D01*
X146285714Y-105931009D02*
X146428571Y-105978628D01*
X146428571Y-105978628D02*
X146476190Y-106026247D01*
X146476190Y-106026247D02*
X146523809Y-106121485D01*
X146523809Y-106121485D02*
X146523809Y-106264342D01*
X146523809Y-106264342D02*
X146476190Y-106359580D01*
X146476190Y-106359580D02*
X146428571Y-106407200D01*
X146428571Y-106407200D02*
X146333333Y-106454819D01*
X146333333Y-106454819D02*
X145952381Y-106454819D01*
X145952381Y-106454819D02*
X145952381Y-105454819D01*
X145952381Y-105454819D02*
X146285714Y-105454819D01*
X146285714Y-105454819D02*
X146380952Y-105502438D01*
X146380952Y-105502438D02*
X146428571Y-105550057D01*
X146428571Y-105550057D02*
X146476190Y-105645295D01*
X146476190Y-105645295D02*
X146476190Y-105740533D01*
X146476190Y-105740533D02*
X146428571Y-105835771D01*
X146428571Y-105835771D02*
X146380952Y-105883390D01*
X146380952Y-105883390D02*
X146285714Y-105931009D01*
X146285714Y-105931009D02*
X145952381Y-105931009D01*
X147428571Y-106454819D02*
X146952381Y-106454819D01*
X146952381Y-106454819D02*
X146952381Y-105454819D01*
X147761905Y-106073866D02*
X148523810Y-106073866D01*
X148952381Y-105550057D02*
X149000000Y-105502438D01*
X149000000Y-105502438D02*
X149095238Y-105454819D01*
X149095238Y-105454819D02*
X149333333Y-105454819D01*
X149333333Y-105454819D02*
X149428571Y-105502438D01*
X149428571Y-105502438D02*
X149476190Y-105550057D01*
X149476190Y-105550057D02*
X149523809Y-105645295D01*
X149523809Y-105645295D02*
X149523809Y-105740533D01*
X149523809Y-105740533D02*
X149476190Y-105883390D01*
X149476190Y-105883390D02*
X148904762Y-106454819D01*
X148904762Y-106454819D02*
X149523809Y-106454819D01*
X149857143Y-105454819D02*
X150523809Y-105454819D01*
X150523809Y-105454819D02*
X150095238Y-106454819D01*
X150809524Y-105454819D02*
X151428571Y-105454819D01*
X151428571Y-105454819D02*
X151095238Y-105835771D01*
X151095238Y-105835771D02*
X151238095Y-105835771D01*
X151238095Y-105835771D02*
X151333333Y-105883390D01*
X151333333Y-105883390D02*
X151380952Y-105931009D01*
X151380952Y-105931009D02*
X151428571Y-106026247D01*
X151428571Y-106026247D02*
X151428571Y-106264342D01*
X151428571Y-106264342D02*
X151380952Y-106359580D01*
X151380952Y-106359580D02*
X151333333Y-106407200D01*
X151333333Y-106407200D02*
X151238095Y-106454819D01*
X151238095Y-106454819D02*
X150952381Y-106454819D01*
X150952381Y-106454819D02*
X150857143Y-106407200D01*
X150857143Y-106407200D02*
X150809524Y-106359580D01*
X151619048Y-106550057D02*
X152380952Y-106550057D01*
X153142857Y-105502438D02*
X153047619Y-105454819D01*
X153047619Y-105454819D02*
X152904762Y-105454819D01*
X152904762Y-105454819D02*
X152761905Y-105502438D01*
X152761905Y-105502438D02*
X152666667Y-105597676D01*
X152666667Y-105597676D02*
X152619048Y-105692914D01*
X152619048Y-105692914D02*
X152571429Y-105883390D01*
X152571429Y-105883390D02*
X152571429Y-106026247D01*
X152571429Y-106026247D02*
X152619048Y-106216723D01*
X152619048Y-106216723D02*
X152666667Y-106311961D01*
X152666667Y-106311961D02*
X152761905Y-106407200D01*
X152761905Y-106407200D02*
X152904762Y-106454819D01*
X152904762Y-106454819D02*
X153000000Y-106454819D01*
X153000000Y-106454819D02*
X153142857Y-106407200D01*
X153142857Y-106407200D02*
X153190476Y-106359580D01*
X153190476Y-106359580D02*
X153190476Y-106026247D01*
X153190476Y-106026247D02*
X153000000Y-106026247D01*
X154047619Y-105788152D02*
X154047619Y-106454819D01*
X153809524Y-105407200D02*
X153571429Y-106121485D01*
X153571429Y-106121485D02*
X154190476Y-106121485D01*
X154333334Y-106550057D02*
X155095238Y-106550057D01*
X155857143Y-106454819D02*
X155285715Y-106454819D01*
X155571429Y-106454819D02*
X155571429Y-105454819D01*
X155571429Y-105454819D02*
X155476191Y-105597676D01*
X155476191Y-105597676D02*
X155380953Y-105692914D01*
X155380953Y-105692914D02*
X155285715Y-105740533D01*
X156238096Y-105550057D02*
X156285715Y-105502438D01*
X156285715Y-105502438D02*
X156380953Y-105454819D01*
X156380953Y-105454819D02*
X156619048Y-105454819D01*
X156619048Y-105454819D02*
X156714286Y-105502438D01*
X156714286Y-105502438D02*
X156761905Y-105550057D01*
X156761905Y-105550057D02*
X156809524Y-105645295D01*
X156809524Y-105645295D02*
X156809524Y-105740533D01*
X156809524Y-105740533D02*
X156761905Y-105883390D01*
X156761905Y-105883390D02*
X156190477Y-106454819D01*
X156190477Y-106454819D02*
X156809524Y-106454819D01*
X157095239Y-105454819D02*
X157428572Y-106454819D01*
X157428572Y-106454819D02*
X157761905Y-105454819D01*
X158047620Y-105550057D02*
X158095239Y-105502438D01*
X158095239Y-105502438D02*
X158190477Y-105454819D01*
X158190477Y-105454819D02*
X158428572Y-105454819D01*
X158428572Y-105454819D02*
X158523810Y-105502438D01*
X158523810Y-105502438D02*
X158571429Y-105550057D01*
X158571429Y-105550057D02*
X158619048Y-105645295D01*
X158619048Y-105645295D02*
X158619048Y-105740533D01*
X158619048Y-105740533D02*
X158571429Y-105883390D01*
X158571429Y-105883390D02*
X158000001Y-106454819D01*
X158000001Y-106454819D02*
X158619048Y-106454819D01*
X159238096Y-105454819D02*
X159333334Y-105454819D01*
X159333334Y-105454819D02*
X159428572Y-105502438D01*
X159428572Y-105502438D02*
X159476191Y-105550057D01*
X159476191Y-105550057D02*
X159523810Y-105645295D01*
X159523810Y-105645295D02*
X159571429Y-105835771D01*
X159571429Y-105835771D02*
X159571429Y-106073866D01*
X159571429Y-106073866D02*
X159523810Y-106264342D01*
X159523810Y-106264342D02*
X159476191Y-106359580D01*
X159476191Y-106359580D02*
X159428572Y-106407200D01*
X159428572Y-106407200D02*
X159333334Y-106454819D01*
X159333334Y-106454819D02*
X159238096Y-106454819D01*
X159238096Y-106454819D02*
X159142858Y-106407200D01*
X159142858Y-106407200D02*
X159095239Y-106359580D01*
X159095239Y-106359580D02*
X159047620Y-106264342D01*
X159047620Y-106264342D02*
X159000001Y-106073866D01*
X159000001Y-106073866D02*
X159000001Y-105835771D01*
X159000001Y-105835771D02*
X159047620Y-105645295D01*
X159047620Y-105645295D02*
X159095239Y-105550057D01*
X159095239Y-105550057D02*
X159142858Y-105502438D01*
X159142858Y-105502438D02*
X159238096Y-105454819D01*
X159904763Y-105454819D02*
X160142858Y-106454819D01*
X160142858Y-106454819D02*
X160333334Y-105740533D01*
X160333334Y-105740533D02*
X160523810Y-106454819D01*
X160523810Y-106454819D02*
X160761906Y-105454819D01*
D12*
X143999997Y-92540045D02*
X144038093Y-92501950D01*
X144038093Y-92501950D02*
X144114283Y-92463855D01*
X144114283Y-92463855D02*
X144304759Y-92463855D01*
X144304759Y-92463855D02*
X144380950Y-92501950D01*
X144380950Y-92501950D02*
X144419045Y-92540045D01*
X144419045Y-92540045D02*
X144457140Y-92616236D01*
X144457140Y-92616236D02*
X144457140Y-92692426D01*
X144457140Y-92692426D02*
X144419045Y-92806712D01*
X144419045Y-92806712D02*
X143961902Y-93263855D01*
X143961902Y-93263855D02*
X144457140Y-93263855D01*
X144952379Y-92463855D02*
X145028569Y-92463855D01*
X145028569Y-92463855D02*
X145104760Y-92501950D01*
X145104760Y-92501950D02*
X145142855Y-92540045D01*
X145142855Y-92540045D02*
X145180950Y-92616236D01*
X145180950Y-92616236D02*
X145219045Y-92768617D01*
X145219045Y-92768617D02*
X145219045Y-92959093D01*
X145219045Y-92959093D02*
X145180950Y-93111474D01*
X145180950Y-93111474D02*
X145142855Y-93187664D01*
X145142855Y-93187664D02*
X145104760Y-93225760D01*
X145104760Y-93225760D02*
X145028569Y-93263855D01*
X145028569Y-93263855D02*
X144952379Y-93263855D01*
X144952379Y-93263855D02*
X144876188Y-93225760D01*
X144876188Y-93225760D02*
X144838093Y-93187664D01*
X144838093Y-93187664D02*
X144799998Y-93111474D01*
X144799998Y-93111474D02*
X144761902Y-92959093D01*
X144761902Y-92959093D02*
X144761902Y-92768617D01*
X144761902Y-92768617D02*
X144799998Y-92616236D01*
X144799998Y-92616236D02*
X144838093Y-92540045D01*
X144838093Y-92540045D02*
X144876188Y-92501950D01*
X144876188Y-92501950D02*
X144952379Y-92463855D01*
X146095236Y-92463855D02*
X146285712Y-93263855D01*
X146285712Y-93263855D02*
X146438093Y-92692426D01*
X146438093Y-92692426D02*
X146590474Y-93263855D01*
X146590474Y-93263855D02*
X146780951Y-92463855D01*
X147809522Y-93263855D02*
X147733332Y-93225760D01*
X147733332Y-93225760D02*
X147695237Y-93149569D01*
X147695237Y-93149569D02*
X147695237Y-92463855D01*
X148457142Y-93263855D02*
X148457142Y-92844807D01*
X148457142Y-92844807D02*
X148419047Y-92768617D01*
X148419047Y-92768617D02*
X148342856Y-92730521D01*
X148342856Y-92730521D02*
X148190475Y-92730521D01*
X148190475Y-92730521D02*
X148114285Y-92768617D01*
X148457142Y-93225760D02*
X148380951Y-93263855D01*
X148380951Y-93263855D02*
X148190475Y-93263855D01*
X148190475Y-93263855D02*
X148114285Y-93225760D01*
X148114285Y-93225760D02*
X148076189Y-93149569D01*
X148076189Y-93149569D02*
X148076189Y-93073379D01*
X148076189Y-93073379D02*
X148114285Y-92997188D01*
X148114285Y-92997188D02*
X148190475Y-92959093D01*
X148190475Y-92959093D02*
X148380951Y-92959093D01*
X148380951Y-92959093D02*
X148457142Y-92920998D01*
X148838095Y-93263855D02*
X148838095Y-92730521D01*
X148838095Y-92806712D02*
X148876190Y-92768617D01*
X148876190Y-92768617D02*
X148952380Y-92730521D01*
X148952380Y-92730521D02*
X149066666Y-92730521D01*
X149066666Y-92730521D02*
X149142857Y-92768617D01*
X149142857Y-92768617D02*
X149180952Y-92844807D01*
X149180952Y-92844807D02*
X149180952Y-93263855D01*
X149180952Y-92844807D02*
X149219047Y-92768617D01*
X149219047Y-92768617D02*
X149295238Y-92730521D01*
X149295238Y-92730521D02*
X149409523Y-92730521D01*
X149409523Y-92730521D02*
X149485714Y-92768617D01*
X149485714Y-92768617D02*
X149523809Y-92844807D01*
X149523809Y-92844807D02*
X149523809Y-93263855D01*
X149904762Y-92730521D02*
X149904762Y-93530521D01*
X149904762Y-92768617D02*
X149980952Y-92730521D01*
X149980952Y-92730521D02*
X150133333Y-92730521D01*
X150133333Y-92730521D02*
X150209524Y-92768617D01*
X150209524Y-92768617D02*
X150247619Y-92806712D01*
X150247619Y-92806712D02*
X150285714Y-92882902D01*
X150285714Y-92882902D02*
X150285714Y-93111474D01*
X150285714Y-93111474D02*
X150247619Y-93187664D01*
X150247619Y-93187664D02*
X150209524Y-93225760D01*
X150209524Y-93225760D02*
X150133333Y-93263855D01*
X150133333Y-93263855D02*
X149980952Y-93263855D01*
X149980952Y-93263855D02*
X149904762Y-93225760D01*
X151238096Y-93263855D02*
X151238096Y-92730521D01*
X151238096Y-92882902D02*
X151276191Y-92806712D01*
X151276191Y-92806712D02*
X151314286Y-92768617D01*
X151314286Y-92768617D02*
X151390477Y-92730521D01*
X151390477Y-92730521D02*
X151466667Y-92730521D01*
X152076191Y-92730521D02*
X152076191Y-93263855D01*
X151733334Y-92730521D02*
X151733334Y-93149569D01*
X151733334Y-93149569D02*
X151771429Y-93225760D01*
X151771429Y-93225760D02*
X151847619Y-93263855D01*
X151847619Y-93263855D02*
X151961905Y-93263855D01*
X151961905Y-93263855D02*
X152038096Y-93225760D01*
X152038096Y-93225760D02*
X152076191Y-93187664D01*
X152457144Y-92730521D02*
X152457144Y-93263855D01*
X152457144Y-92806712D02*
X152495239Y-92768617D01*
X152495239Y-92768617D02*
X152571429Y-92730521D01*
X152571429Y-92730521D02*
X152685715Y-92730521D01*
X152685715Y-92730521D02*
X152761906Y-92768617D01*
X152761906Y-92768617D02*
X152800001Y-92844807D01*
X152800001Y-92844807D02*
X152800001Y-93263855D01*
X153142858Y-93225760D02*
X153219049Y-93263855D01*
X153219049Y-93263855D02*
X153371430Y-93263855D01*
X153371430Y-93263855D02*
X153447620Y-93225760D01*
X153447620Y-93225760D02*
X153485716Y-93149569D01*
X153485716Y-93149569D02*
X153485716Y-93111474D01*
X153485716Y-93111474D02*
X153447620Y-93035283D01*
X153447620Y-93035283D02*
X153371430Y-92997188D01*
X153371430Y-92997188D02*
X153257144Y-92997188D01*
X153257144Y-92997188D02*
X153180954Y-92959093D01*
X153180954Y-92959093D02*
X153142858Y-92882902D01*
X153142858Y-92882902D02*
X153142858Y-92844807D01*
X153142858Y-92844807D02*
X153180954Y-92768617D01*
X153180954Y-92768617D02*
X153257144Y-92730521D01*
X153257144Y-92730521D02*
X153371430Y-92730521D01*
X153371430Y-92730521D02*
X153447620Y-92768617D01*
X154438097Y-93263855D02*
X154438097Y-92463855D01*
X154780954Y-93263855D02*
X154780954Y-92844807D01*
X154780954Y-92844807D02*
X154742859Y-92768617D01*
X154742859Y-92768617D02*
X154666668Y-92730521D01*
X154666668Y-92730521D02*
X154552382Y-92730521D01*
X154552382Y-92730521D02*
X154476192Y-92768617D01*
X154476192Y-92768617D02*
X154438097Y-92806712D01*
X155276192Y-93263855D02*
X155200002Y-93225760D01*
X155200002Y-93225760D02*
X155161907Y-93187664D01*
X155161907Y-93187664D02*
X155123811Y-93111474D01*
X155123811Y-93111474D02*
X155123811Y-92882902D01*
X155123811Y-92882902D02*
X155161907Y-92806712D01*
X155161907Y-92806712D02*
X155200002Y-92768617D01*
X155200002Y-92768617D02*
X155276192Y-92730521D01*
X155276192Y-92730521D02*
X155390478Y-92730521D01*
X155390478Y-92730521D02*
X155466669Y-92768617D01*
X155466669Y-92768617D02*
X155504764Y-92806712D01*
X155504764Y-92806712D02*
X155542859Y-92882902D01*
X155542859Y-92882902D02*
X155542859Y-93111474D01*
X155542859Y-93111474D02*
X155504764Y-93187664D01*
X155504764Y-93187664D02*
X155466669Y-93225760D01*
X155466669Y-93225760D02*
X155390478Y-93263855D01*
X155390478Y-93263855D02*
X155276192Y-93263855D01*
X155771431Y-92730521D02*
X156076193Y-92730521D01*
X155885717Y-92463855D02*
X155885717Y-93149569D01*
X155885717Y-93149569D02*
X155923812Y-93225760D01*
X155923812Y-93225760D02*
X156000002Y-93263855D01*
X156000002Y-93263855D02*
X156076193Y-93263855D01*
X144952380Y-106930521D02*
X144952380Y-107463855D01*
X144761904Y-106625760D02*
X144571427Y-107197188D01*
X144571427Y-107197188D02*
X145066666Y-107197188D01*
X145371428Y-107387664D02*
X145409523Y-107425760D01*
X145409523Y-107425760D02*
X145371428Y-107463855D01*
X145371428Y-107463855D02*
X145333332Y-107425760D01*
X145333332Y-107425760D02*
X145371428Y-107387664D01*
X145371428Y-107387664D02*
X145371428Y-107463855D01*
X145904761Y-106663855D02*
X145980951Y-106663855D01*
X145980951Y-106663855D02*
X146057142Y-106701950D01*
X146057142Y-106701950D02*
X146095237Y-106740045D01*
X146095237Y-106740045D02*
X146133332Y-106816236D01*
X146133332Y-106816236D02*
X146171427Y-106968617D01*
X146171427Y-106968617D02*
X146171427Y-107159093D01*
X146171427Y-107159093D02*
X146133332Y-107311474D01*
X146133332Y-107311474D02*
X146095237Y-107387664D01*
X146095237Y-107387664D02*
X146057142Y-107425760D01*
X146057142Y-107425760D02*
X145980951Y-107463855D01*
X145980951Y-107463855D02*
X145904761Y-107463855D01*
X145904761Y-107463855D02*
X145828570Y-107425760D01*
X145828570Y-107425760D02*
X145790475Y-107387664D01*
X145790475Y-107387664D02*
X145752380Y-107311474D01*
X145752380Y-107311474D02*
X145714284Y-107159093D01*
X145714284Y-107159093D02*
X145714284Y-106968617D01*
X145714284Y-106968617D02*
X145752380Y-106816236D01*
X145752380Y-106816236D02*
X145790475Y-106740045D01*
X145790475Y-106740045D02*
X145828570Y-106701950D01*
X145828570Y-106701950D02*
X145904761Y-106663855D01*
X146666666Y-106663855D02*
X146742856Y-106663855D01*
X146742856Y-106663855D02*
X146819047Y-106701950D01*
X146819047Y-106701950D02*
X146857142Y-106740045D01*
X146857142Y-106740045D02*
X146895237Y-106816236D01*
X146895237Y-106816236D02*
X146933332Y-106968617D01*
X146933332Y-106968617D02*
X146933332Y-107159093D01*
X146933332Y-107159093D02*
X146895237Y-107311474D01*
X146895237Y-107311474D02*
X146857142Y-107387664D01*
X146857142Y-107387664D02*
X146819047Y-107425760D01*
X146819047Y-107425760D02*
X146742856Y-107463855D01*
X146742856Y-107463855D02*
X146666666Y-107463855D01*
X146666666Y-107463855D02*
X146590475Y-107425760D01*
X146590475Y-107425760D02*
X146552380Y-107387664D01*
X146552380Y-107387664D02*
X146514285Y-107311474D01*
X146514285Y-107311474D02*
X146476189Y-107159093D01*
X146476189Y-107159093D02*
X146476189Y-106968617D01*
X146476189Y-106968617D02*
X146514285Y-106816236D01*
X146514285Y-106816236D02*
X146552380Y-106740045D01*
X146552380Y-106740045D02*
X146590475Y-106701950D01*
X146590475Y-106701950D02*
X146666666Y-106663855D01*
X147885714Y-107463855D02*
X147885714Y-106930521D01*
X147885714Y-107006712D02*
X147923809Y-106968617D01*
X147923809Y-106968617D02*
X147999999Y-106930521D01*
X147999999Y-106930521D02*
X148114285Y-106930521D01*
X148114285Y-106930521D02*
X148190476Y-106968617D01*
X148190476Y-106968617D02*
X148228571Y-107044807D01*
X148228571Y-107044807D02*
X148228571Y-107463855D01*
X148228571Y-107044807D02*
X148266666Y-106968617D01*
X148266666Y-106968617D02*
X148342857Y-106930521D01*
X148342857Y-106930521D02*
X148457142Y-106930521D01*
X148457142Y-106930521D02*
X148533333Y-106968617D01*
X148533333Y-106968617D02*
X148571428Y-107044807D01*
X148571428Y-107044807D02*
X148571428Y-107463855D01*
X148952381Y-107463855D02*
X148952381Y-106930521D01*
X148952381Y-107006712D02*
X148990476Y-106968617D01*
X148990476Y-106968617D02*
X149066666Y-106930521D01*
X149066666Y-106930521D02*
X149180952Y-106930521D01*
X149180952Y-106930521D02*
X149257143Y-106968617D01*
X149257143Y-106968617D02*
X149295238Y-107044807D01*
X149295238Y-107044807D02*
X149295238Y-107463855D01*
X149295238Y-107044807D02*
X149333333Y-106968617D01*
X149333333Y-106968617D02*
X149409524Y-106930521D01*
X149409524Y-106930521D02*
X149523809Y-106930521D01*
X149523809Y-106930521D02*
X149600000Y-106968617D01*
X149600000Y-106968617D02*
X149638095Y-107044807D01*
X149638095Y-107044807D02*
X149638095Y-107463855D01*
X151047619Y-106701950D02*
X150971429Y-106663855D01*
X150971429Y-106663855D02*
X150857143Y-106663855D01*
X150857143Y-106663855D02*
X150742857Y-106701950D01*
X150742857Y-106701950D02*
X150666667Y-106778140D01*
X150666667Y-106778140D02*
X150628572Y-106854331D01*
X150628572Y-106854331D02*
X150590476Y-107006712D01*
X150590476Y-107006712D02*
X150590476Y-107120998D01*
X150590476Y-107120998D02*
X150628572Y-107273379D01*
X150628572Y-107273379D02*
X150666667Y-107349569D01*
X150666667Y-107349569D02*
X150742857Y-107425760D01*
X150742857Y-107425760D02*
X150857143Y-107463855D01*
X150857143Y-107463855D02*
X150933334Y-107463855D01*
X150933334Y-107463855D02*
X151047619Y-107425760D01*
X151047619Y-107425760D02*
X151085715Y-107387664D01*
X151085715Y-107387664D02*
X151085715Y-107120998D01*
X151085715Y-107120998D02*
X150933334Y-107120998D01*
X151771429Y-106930521D02*
X151771429Y-107463855D01*
X151580953Y-106625760D02*
X151390476Y-107197188D01*
X151390476Y-107197188D02*
X151885715Y-107197188D01*
X152800001Y-106930521D02*
X152800001Y-107730521D01*
X152800001Y-106968617D02*
X152876191Y-106930521D01*
X152876191Y-106930521D02*
X153028572Y-106930521D01*
X153028572Y-106930521D02*
X153104763Y-106968617D01*
X153104763Y-106968617D02*
X153142858Y-107006712D01*
X153142858Y-107006712D02*
X153180953Y-107082902D01*
X153180953Y-107082902D02*
X153180953Y-107311474D01*
X153180953Y-107311474D02*
X153142858Y-107387664D01*
X153142858Y-107387664D02*
X153104763Y-107425760D01*
X153104763Y-107425760D02*
X153028572Y-107463855D01*
X153028572Y-107463855D02*
X152876191Y-107463855D01*
X152876191Y-107463855D02*
X152800001Y-107425760D01*
X153523811Y-107463855D02*
X153523811Y-106930521D01*
X153523811Y-106663855D02*
X153485715Y-106701950D01*
X153485715Y-106701950D02*
X153523811Y-106740045D01*
X153523811Y-106740045D02*
X153561906Y-106701950D01*
X153561906Y-106701950D02*
X153523811Y-106663855D01*
X153523811Y-106663855D02*
X153523811Y-106740045D01*
X153790477Y-106930521D02*
X154095239Y-106930521D01*
X153904763Y-106663855D02*
X153904763Y-107349569D01*
X153904763Y-107349569D02*
X153942858Y-107425760D01*
X153942858Y-107425760D02*
X154019048Y-107463855D01*
X154019048Y-107463855D02*
X154095239Y-107463855D01*
X154704763Y-107425760D02*
X154628572Y-107463855D01*
X154628572Y-107463855D02*
X154476191Y-107463855D01*
X154476191Y-107463855D02*
X154400001Y-107425760D01*
X154400001Y-107425760D02*
X154361906Y-107387664D01*
X154361906Y-107387664D02*
X154323810Y-107311474D01*
X154323810Y-107311474D02*
X154323810Y-107082902D01*
X154323810Y-107082902D02*
X154361906Y-107006712D01*
X154361906Y-107006712D02*
X154400001Y-106968617D01*
X154400001Y-106968617D02*
X154476191Y-106930521D01*
X154476191Y-106930521D02*
X154628572Y-106930521D01*
X154628572Y-106930521D02*
X154704763Y-106968617D01*
X155047620Y-107463855D02*
X155047620Y-106663855D01*
X155390477Y-107463855D02*
X155390477Y-107044807D01*
X155390477Y-107044807D02*
X155352382Y-106968617D01*
X155352382Y-106968617D02*
X155276191Y-106930521D01*
X155276191Y-106930521D02*
X155161905Y-106930521D01*
X155161905Y-106930521D02*
X155085715Y-106968617D01*
X155085715Y-106968617D02*
X155047620Y-107006712D01*
D11*
X139214285Y-97654819D02*
X139214285Y-96654819D01*
X139214285Y-96654819D02*
X139547618Y-97369104D01*
X139547618Y-97369104D02*
X139880951Y-96654819D01*
X139880951Y-96654819D02*
X139880951Y-97654819D01*
X140499999Y-97654819D02*
X140404761Y-97607200D01*
X140404761Y-97607200D02*
X140357142Y-97559580D01*
X140357142Y-97559580D02*
X140309523Y-97464342D01*
X140309523Y-97464342D02*
X140309523Y-97178628D01*
X140309523Y-97178628D02*
X140357142Y-97083390D01*
X140357142Y-97083390D02*
X140404761Y-97035771D01*
X140404761Y-97035771D02*
X140499999Y-96988152D01*
X140499999Y-96988152D02*
X140642856Y-96988152D01*
X140642856Y-96988152D02*
X140738094Y-97035771D01*
X140738094Y-97035771D02*
X140785713Y-97083390D01*
X140785713Y-97083390D02*
X140833332Y-97178628D01*
X140833332Y-97178628D02*
X140833332Y-97464342D01*
X140833332Y-97464342D02*
X140785713Y-97559580D01*
X140785713Y-97559580D02*
X140738094Y-97607200D01*
X140738094Y-97607200D02*
X140642856Y-97654819D01*
X140642856Y-97654819D02*
X140499999Y-97654819D01*
X141690475Y-96988152D02*
X141690475Y-97654819D01*
X141261904Y-96988152D02*
X141261904Y-97511961D01*
X141261904Y-97511961D02*
X141309523Y-97607200D01*
X141309523Y-97607200D02*
X141404761Y-97654819D01*
X141404761Y-97654819D02*
X141547618Y-97654819D01*
X141547618Y-97654819D02*
X141642856Y-97607200D01*
X141642856Y-97607200D02*
X141690475Y-97559580D01*
X142166666Y-96988152D02*
X142166666Y-97654819D01*
X142166666Y-97083390D02*
X142214285Y-97035771D01*
X142214285Y-97035771D02*
X142309523Y-96988152D01*
X142309523Y-96988152D02*
X142452380Y-96988152D01*
X142452380Y-96988152D02*
X142547618Y-97035771D01*
X142547618Y-97035771D02*
X142595237Y-97131009D01*
X142595237Y-97131009D02*
X142595237Y-97654819D01*
X142928571Y-96988152D02*
X143309523Y-96988152D01*
X143071428Y-96654819D02*
X143071428Y-97511961D01*
X143071428Y-97511961D02*
X143119047Y-97607200D01*
X143119047Y-97607200D02*
X143214285Y-97654819D01*
X143214285Y-97654819D02*
X143309523Y-97654819D01*
X143642857Y-97654819D02*
X143642857Y-96988152D01*
X143642857Y-96654819D02*
X143595238Y-96702438D01*
X143595238Y-96702438D02*
X143642857Y-96750057D01*
X143642857Y-96750057D02*
X143690476Y-96702438D01*
X143690476Y-96702438D02*
X143642857Y-96654819D01*
X143642857Y-96654819D02*
X143642857Y-96750057D01*
X144119047Y-96988152D02*
X144119047Y-97654819D01*
X144119047Y-97083390D02*
X144166666Y-97035771D01*
X144166666Y-97035771D02*
X144261904Y-96988152D01*
X144261904Y-96988152D02*
X144404761Y-96988152D01*
X144404761Y-96988152D02*
X144499999Y-97035771D01*
X144499999Y-97035771D02*
X144547618Y-97131009D01*
X144547618Y-97131009D02*
X144547618Y-97654819D01*
X145452380Y-96988152D02*
X145452380Y-97797676D01*
X145452380Y-97797676D02*
X145404761Y-97892914D01*
X145404761Y-97892914D02*
X145357142Y-97940533D01*
X145357142Y-97940533D02*
X145261904Y-97988152D01*
X145261904Y-97988152D02*
X145119047Y-97988152D01*
X145119047Y-97988152D02*
X145023809Y-97940533D01*
X145452380Y-97607200D02*
X145357142Y-97654819D01*
X145357142Y-97654819D02*
X145166666Y-97654819D01*
X145166666Y-97654819D02*
X145071428Y-97607200D01*
X145071428Y-97607200D02*
X145023809Y-97559580D01*
X145023809Y-97559580D02*
X144976190Y-97464342D01*
X144976190Y-97464342D02*
X144976190Y-97178628D01*
X144976190Y-97178628D02*
X145023809Y-97083390D01*
X145023809Y-97083390D02*
X145071428Y-97035771D01*
X145071428Y-97035771D02*
X145166666Y-96988152D01*
X145166666Y-96988152D02*
X145357142Y-96988152D01*
X145357142Y-96988152D02*
X145452380Y-97035771D01*
X145928571Y-97654819D02*
X145928571Y-96654819D01*
X145928571Y-97131009D02*
X146499999Y-97131009D01*
X146499999Y-97654819D02*
X146499999Y-96654819D01*
X147119047Y-97654819D02*
X147023809Y-97607200D01*
X147023809Y-97607200D02*
X146976190Y-97559580D01*
X146976190Y-97559580D02*
X146928571Y-97464342D01*
X146928571Y-97464342D02*
X146928571Y-97178628D01*
X146928571Y-97178628D02*
X146976190Y-97083390D01*
X146976190Y-97083390D02*
X147023809Y-97035771D01*
X147023809Y-97035771D02*
X147119047Y-96988152D01*
X147119047Y-96988152D02*
X147261904Y-96988152D01*
X147261904Y-96988152D02*
X147357142Y-97035771D01*
X147357142Y-97035771D02*
X147404761Y-97083390D01*
X147404761Y-97083390D02*
X147452380Y-97178628D01*
X147452380Y-97178628D02*
X147452380Y-97464342D01*
X147452380Y-97464342D02*
X147404761Y-97559580D01*
X147404761Y-97559580D02*
X147357142Y-97607200D01*
X147357142Y-97607200D02*
X147261904Y-97654819D01*
X147261904Y-97654819D02*
X147119047Y-97654819D01*
X148023809Y-97654819D02*
X147928571Y-97607200D01*
X147928571Y-97607200D02*
X147880952Y-97511961D01*
X147880952Y-97511961D02*
X147880952Y-96654819D01*
X148785714Y-97607200D02*
X148690476Y-97654819D01*
X148690476Y-97654819D02*
X148500000Y-97654819D01*
X148500000Y-97654819D02*
X148404762Y-97607200D01*
X148404762Y-97607200D02*
X148357143Y-97511961D01*
X148357143Y-97511961D02*
X148357143Y-97131009D01*
X148357143Y-97131009D02*
X148404762Y-97035771D01*
X148404762Y-97035771D02*
X148500000Y-96988152D01*
X148500000Y-96988152D02*
X148690476Y-96988152D01*
X148690476Y-96988152D02*
X148785714Y-97035771D01*
X148785714Y-97035771D02*
X148833333Y-97131009D01*
X148833333Y-97131009D02*
X148833333Y-97226247D01*
X148833333Y-97226247D02*
X148357143Y-97321485D01*
M02*
