%TF.GenerationSoftware,KiCad,Pcbnew,10.0.3-10.0.3~ubuntu24.04.1*%
%TF.CreationDate,2026-07-07T12:35:03+08:00*%
%TF.ProjectId,ws2812b-5050-rgb-led,77733238-3132-4622-9d35-3035302d7267,rev?*%
%TF.SameCoordinates,Original*%
%TF.FileFunction,Legend,Top*%
%TF.FilePolarity,Positive*%
%FSLAX46Y46*%
G04 Gerber Fmt 4.6, Leading zero omitted, Abs format (unit mm)*
G04 Created by KiCad (PCBNEW 10.0.3-10.0.3~ubuntu24.04.1) date 2026-07-07 12:35:03*
%MOMM*%
%LPD*%
G01*
G04 APERTURE LIST*
%ADD10C,0.110000*%
%ADD11C,0.150000*%
%ADD12C,0.120000*%
%ADD13C,0.100000*%
G04 APERTURE END LIST*
D10*
X142921429Y-101644375D02*
X142921429Y-100844375D01*
X142921429Y-100844375D02*
X143111905Y-100844375D01*
X143111905Y-100844375D02*
X143226191Y-100882470D01*
X143226191Y-100882470D02*
X143302381Y-100958660D01*
X143302381Y-100958660D02*
X143340476Y-101034851D01*
X143340476Y-101034851D02*
X143378572Y-101187232D01*
X143378572Y-101187232D02*
X143378572Y-101301518D01*
X143378572Y-101301518D02*
X143340476Y-101453899D01*
X143340476Y-101453899D02*
X143302381Y-101530089D01*
X143302381Y-101530089D02*
X143226191Y-101606280D01*
X143226191Y-101606280D02*
X143111905Y-101644375D01*
X143111905Y-101644375D02*
X142921429Y-101644375D01*
X143873810Y-100844375D02*
X144026191Y-100844375D01*
X144026191Y-100844375D02*
X144102381Y-100882470D01*
X144102381Y-100882470D02*
X144178572Y-100958660D01*
X144178572Y-100958660D02*
X144216667Y-101111041D01*
X144216667Y-101111041D02*
X144216667Y-101377708D01*
X144216667Y-101377708D02*
X144178572Y-101530089D01*
X144178572Y-101530089D02*
X144102381Y-101606280D01*
X144102381Y-101606280D02*
X144026191Y-101644375D01*
X144026191Y-101644375D02*
X143873810Y-101644375D01*
X143873810Y-101644375D02*
X143797619Y-101606280D01*
X143797619Y-101606280D02*
X143721429Y-101530089D01*
X143721429Y-101530089D02*
X143683333Y-101377708D01*
X143683333Y-101377708D02*
X143683333Y-101111041D01*
X143683333Y-101111041D02*
X143721429Y-100958660D01*
X143721429Y-100958660D02*
X143797619Y-100882470D01*
X143797619Y-100882470D02*
X143873810Y-100844375D01*
X143397619Y-98284375D02*
X143016667Y-98284375D01*
X143016667Y-98284375D02*
X142978571Y-98665327D01*
X142978571Y-98665327D02*
X143016667Y-98627232D01*
X143016667Y-98627232D02*
X143092857Y-98589137D01*
X143092857Y-98589137D02*
X143283333Y-98589137D01*
X143283333Y-98589137D02*
X143359524Y-98627232D01*
X143359524Y-98627232D02*
X143397619Y-98665327D01*
X143397619Y-98665327D02*
X143435714Y-98741518D01*
X143435714Y-98741518D02*
X143435714Y-98931994D01*
X143435714Y-98931994D02*
X143397619Y-99008184D01*
X143397619Y-99008184D02*
X143359524Y-99046280D01*
X143359524Y-99046280D02*
X143283333Y-99084375D01*
X143283333Y-99084375D02*
X143092857Y-99084375D01*
X143092857Y-99084375D02*
X143016667Y-99046280D01*
X143016667Y-99046280D02*
X142978571Y-99008184D01*
X143664286Y-98284375D02*
X143930953Y-99084375D01*
X143930953Y-99084375D02*
X144197619Y-98284375D01*
X156759523Y-100882470D02*
X156683333Y-100844375D01*
X156683333Y-100844375D02*
X156569047Y-100844375D01*
X156569047Y-100844375D02*
X156454761Y-100882470D01*
X156454761Y-100882470D02*
X156378571Y-100958660D01*
X156378571Y-100958660D02*
X156340476Y-101034851D01*
X156340476Y-101034851D02*
X156302380Y-101187232D01*
X156302380Y-101187232D02*
X156302380Y-101301518D01*
X156302380Y-101301518D02*
X156340476Y-101453899D01*
X156340476Y-101453899D02*
X156378571Y-101530089D01*
X156378571Y-101530089D02*
X156454761Y-101606280D01*
X156454761Y-101606280D02*
X156569047Y-101644375D01*
X156569047Y-101644375D02*
X156645238Y-101644375D01*
X156645238Y-101644375D02*
X156759523Y-101606280D01*
X156759523Y-101606280D02*
X156797619Y-101568184D01*
X156797619Y-101568184D02*
X156797619Y-101301518D01*
X156797619Y-101301518D02*
X156645238Y-101301518D01*
X156050000Y-99084375D02*
X156050000Y-98284375D01*
X156050000Y-98284375D02*
X156240476Y-98284375D01*
X156240476Y-98284375D02*
X156354762Y-98322470D01*
X156354762Y-98322470D02*
X156430952Y-98398660D01*
X156430952Y-98398660D02*
X156469047Y-98474851D01*
X156469047Y-98474851D02*
X156507143Y-98627232D01*
X156507143Y-98627232D02*
X156507143Y-98741518D01*
X156507143Y-98741518D02*
X156469047Y-98893899D01*
X156469047Y-98893899D02*
X156430952Y-98970089D01*
X156430952Y-98970089D02*
X156354762Y-99046280D01*
X156354762Y-99046280D02*
X156240476Y-99084375D01*
X156240476Y-99084375D02*
X156050000Y-99084375D01*
X156850000Y-99084375D02*
X156850000Y-98284375D01*
D11*
X149261905Y-104054819D02*
X149261905Y-103054819D01*
X149261905Y-103054819D02*
X149500000Y-103054819D01*
X149500000Y-103054819D02*
X149642857Y-103102438D01*
X149642857Y-103102438D02*
X149738095Y-103197676D01*
X149738095Y-103197676D02*
X149785714Y-103292914D01*
X149785714Y-103292914D02*
X149833333Y-103483390D01*
X149833333Y-103483390D02*
X149833333Y-103626247D01*
X149833333Y-103626247D02*
X149785714Y-103816723D01*
X149785714Y-103816723D02*
X149738095Y-103911961D01*
X149738095Y-103911961D02*
X149642857Y-104007200D01*
X149642857Y-104007200D02*
X149500000Y-104054819D01*
X149500000Y-104054819D02*
X149261905Y-104054819D01*
X150785714Y-104054819D02*
X150214286Y-104054819D01*
X150500000Y-104054819D02*
X150500000Y-103054819D01*
X150500000Y-103054819D02*
X150404762Y-103197676D01*
X150404762Y-103197676D02*
X150309524Y-103292914D01*
X150309524Y-103292914D02*
X150214286Y-103340533D01*
X146228571Y-98762295D02*
X145771428Y-98762295D01*
X146000000Y-98762295D02*
X146000000Y-97962295D01*
X146000000Y-97962295D02*
X145923809Y-98076580D01*
X145923809Y-98076580D02*
X145847619Y-98152771D01*
X145847619Y-98152771D02*
X145771428Y-98190866D01*
%TO.C,D1*%
D12*
X146500000Y-97250000D02*
X146500000Y-102750000D01*
X146500000Y-97250000D02*
X153500000Y-97250000D01*
X146500000Y-102750000D02*
X153050000Y-102750000D01*
X153050000Y-102750000D02*
X153500000Y-102300000D01*
X153500000Y-102300000D02*
X153500000Y-97250000D01*
%TO.C,C1*%
D13*
X149850000Y-95120000D02*
X150150000Y-95120000D01*
X149850000Y-96080000D02*
X150150000Y-96080000D01*
%TD*%
M02*
