%TF.GenerationSoftware,KiCad,Pcbnew,10.0.3-10.0.3~ubuntu24.04.1*%
%TF.CreationDate,2026-07-06T22:30:51+08:00*%
%TF.ProjectId,ws2812b-5050-rgb-led,77733238-3132-4622-9d35-3035302d7267,rev?*%
%TF.SameCoordinates,Original*%
%TF.FileFunction,Legend,Top*%
%TF.FilePolarity,Positive*%
%FSLAX46Y46*%
G04 Gerber Fmt 4.6, Leading zero omitted, Abs format (unit mm)*
G04 Created by KiCad (PCBNEW 10.0.3-10.0.3~ubuntu24.04.1) date 2026-07-06 22:30:51*
%MOMM*%
%LPD*%
G01*
G04 APERTURE LIST*
%ADD10C,0.100000*%
%ADD11C,0.150000*%
%ADD12C,0.120000*%
G04 APERTURE END LIST*
D10*
X156447619Y-103364895D02*
X156066667Y-103364895D01*
X156066667Y-103364895D02*
X156028571Y-103745847D01*
X156028571Y-103745847D02*
X156066667Y-103707752D01*
X156066667Y-103707752D02*
X156142857Y-103669657D01*
X156142857Y-103669657D02*
X156333333Y-103669657D01*
X156333333Y-103669657D02*
X156409524Y-103707752D01*
X156409524Y-103707752D02*
X156447619Y-103745847D01*
X156447619Y-103745847D02*
X156485714Y-103822038D01*
X156485714Y-103822038D02*
X156485714Y-104012514D01*
X156485714Y-104012514D02*
X156447619Y-104088704D01*
X156447619Y-104088704D02*
X156409524Y-104126800D01*
X156409524Y-104126800D02*
X156333333Y-104164895D01*
X156333333Y-104164895D02*
X156142857Y-104164895D01*
X156142857Y-104164895D02*
X156066667Y-104126800D01*
X156066667Y-104126800D02*
X156028571Y-104088704D01*
X156714286Y-103364895D02*
X156980953Y-104164895D01*
X156980953Y-104164895D02*
X157247619Y-103364895D01*
X156909523Y-100852990D02*
X156833333Y-100814895D01*
X156833333Y-100814895D02*
X156719047Y-100814895D01*
X156719047Y-100814895D02*
X156604761Y-100852990D01*
X156604761Y-100852990D02*
X156528571Y-100929180D01*
X156528571Y-100929180D02*
X156490476Y-101005371D01*
X156490476Y-101005371D02*
X156452380Y-101157752D01*
X156452380Y-101157752D02*
X156452380Y-101272038D01*
X156452380Y-101272038D02*
X156490476Y-101424419D01*
X156490476Y-101424419D02*
X156528571Y-101500609D01*
X156528571Y-101500609D02*
X156604761Y-101576800D01*
X156604761Y-101576800D02*
X156719047Y-101614895D01*
X156719047Y-101614895D02*
X156795238Y-101614895D01*
X156795238Y-101614895D02*
X156909523Y-101576800D01*
X156909523Y-101576800D02*
X156947619Y-101538704D01*
X156947619Y-101538704D02*
X156947619Y-101272038D01*
X156947619Y-101272038D02*
X156795238Y-101272038D01*
X155771429Y-96544895D02*
X155771429Y-95744895D01*
X155771429Y-95744895D02*
X155961905Y-95744895D01*
X155961905Y-95744895D02*
X156076191Y-95782990D01*
X156076191Y-95782990D02*
X156152381Y-95859180D01*
X156152381Y-95859180D02*
X156190476Y-95935371D01*
X156190476Y-95935371D02*
X156228572Y-96087752D01*
X156228572Y-96087752D02*
X156228572Y-96202038D01*
X156228572Y-96202038D02*
X156190476Y-96354419D01*
X156190476Y-96354419D02*
X156152381Y-96430609D01*
X156152381Y-96430609D02*
X156076191Y-96506800D01*
X156076191Y-96506800D02*
X155961905Y-96544895D01*
X155961905Y-96544895D02*
X155771429Y-96544895D01*
X156723810Y-95744895D02*
X156876191Y-95744895D01*
X156876191Y-95744895D02*
X156952381Y-95782990D01*
X156952381Y-95782990D02*
X157028572Y-95859180D01*
X157028572Y-95859180D02*
X157066667Y-96011561D01*
X157066667Y-96011561D02*
X157066667Y-96278228D01*
X157066667Y-96278228D02*
X157028572Y-96430609D01*
X157028572Y-96430609D02*
X156952381Y-96506800D01*
X156952381Y-96506800D02*
X156876191Y-96544895D01*
X156876191Y-96544895D02*
X156723810Y-96544895D01*
X156723810Y-96544895D02*
X156647619Y-96506800D01*
X156647619Y-96506800D02*
X156571429Y-96430609D01*
X156571429Y-96430609D02*
X156533333Y-96278228D01*
X156533333Y-96278228D02*
X156533333Y-96011561D01*
X156533333Y-96011561D02*
X156571429Y-95859180D01*
X156571429Y-95859180D02*
X156647619Y-95782990D01*
X156647619Y-95782990D02*
X156723810Y-95744895D01*
D11*
X149261905Y-96954819D02*
X149261905Y-95954819D01*
X149261905Y-95954819D02*
X149500000Y-95954819D01*
X149500000Y-95954819D02*
X149642857Y-96002438D01*
X149642857Y-96002438D02*
X149738095Y-96097676D01*
X149738095Y-96097676D02*
X149785714Y-96192914D01*
X149785714Y-96192914D02*
X149833333Y-96383390D01*
X149833333Y-96383390D02*
X149833333Y-96526247D01*
X149833333Y-96526247D02*
X149785714Y-96716723D01*
X149785714Y-96716723D02*
X149738095Y-96811961D01*
X149738095Y-96811961D02*
X149642857Y-96907200D01*
X149642857Y-96907200D02*
X149500000Y-96954819D01*
X149500000Y-96954819D02*
X149261905Y-96954819D01*
X150785714Y-96954819D02*
X150214286Y-96954819D01*
X150500000Y-96954819D02*
X150500000Y-95954819D01*
X150500000Y-95954819D02*
X150404762Y-96097676D01*
X150404762Y-96097676D02*
X150309524Y-96192914D01*
X150309524Y-96192914D02*
X150214286Y-96240533D01*
X146228571Y-98762295D02*
X145771428Y-98762295D01*
X146000000Y-98762295D02*
X146000000Y-97962295D01*
X146000000Y-97962295D02*
X145923809Y-98076580D01*
X145923809Y-98076580D02*
X145847619Y-98152771D01*
X145847619Y-98152771D02*
X145771428Y-98190866D01*
X156133333Y-97704819D02*
X155800000Y-97228628D01*
X155561905Y-97704819D02*
X155561905Y-96704819D01*
X155561905Y-96704819D02*
X155942857Y-96704819D01*
X155942857Y-96704819D02*
X156038095Y-96752438D01*
X156038095Y-96752438D02*
X156085714Y-96800057D01*
X156085714Y-96800057D02*
X156133333Y-96895295D01*
X156133333Y-96895295D02*
X156133333Y-97038152D01*
X156133333Y-97038152D02*
X156085714Y-97133390D01*
X156085714Y-97133390D02*
X156038095Y-97181009D01*
X156038095Y-97181009D02*
X155942857Y-97228628D01*
X155942857Y-97228628D02*
X155561905Y-97228628D01*
X157085714Y-97704819D02*
X156514286Y-97704819D01*
X156800000Y-97704819D02*
X156800000Y-96704819D01*
X156800000Y-96704819D02*
X156704762Y-96847676D01*
X156704762Y-96847676D02*
X156609524Y-96942914D01*
X156609524Y-96942914D02*
X156514286Y-96990533D01*
%TO.C,D1*%
D12*
X146500000Y-97250000D02*
X146500000Y-102750000D01*
X146500000Y-97250000D02*
X153500000Y-97250000D01*
X146500000Y-102750000D02*
X153050000Y-102750000D01*
X153050000Y-102750000D02*
X153500000Y-102300000D01*
X153500000Y-102300000D02*
X153500000Y-97250000D01*
%TO.C,R1*%
D10*
X156150000Y-97870000D02*
X156450000Y-97870000D01*
X156150000Y-98830000D02*
X156450000Y-98830000D01*
%TO.C,C1*%
X150850000Y-103520000D02*
X151150000Y-103520000D01*
X150850000Y-104480000D02*
X151150000Y-104480000D01*
%TD*%
M02*
