<?xml version="1.0" standalone="no"?>
 <!DOCTYPE svg PUBLIC "-//W3C//DTD SVG 1.1//EN"
 "http://www.w3.org/Graphics/SVG/1.1/DTD/svg11.dtd">
<svg
  xmlns:svg="http://www.w3.org/2000/svg"
  xmlns="http://www.w3.org/2000/svg"
  xmlns:xlink="http://www.w3.org/1999/xlink"
  xmlns:inkscape="http://www.inkscape.org/namespaces/inkscape"
  version="1.1"
  width="23.9776mm" height="23.9776mm" viewBox="0.0000 0.0000 23.9776 23.9776">
<title>SVG Image created as hybec-hbl-273-g4-top.svg date 2026-06-08T09:40:54 </title>
  <desc>Image generated by PCBNEW </desc>
<g style="fill:#000000; fill-opacity:1.0000;stroke:#000000; stroke-opacity:1.0000;
stroke-linecap:round; stroke-linejoin:round;"
 transform="translate(0 0) scale(1 1)">
</g>
<g style="fill:#C83434; fill-opacity:1.0000; stroke:none;">
<circle cx="12.0025" cy="10.0012" r="1.7000" />
<circle cx="12.0025" cy="14.0012" r="1.7000" />
<path style="fill:#C83434; fill-opacity:1.0000; stroke:none;fill-rule:evenodd;"
d="M 21.0025,14.0012
21.0025,12.0012
23.0025,12.0012
23.0025,14.0012
Z" />
<circle cx="22.0025" cy="10.4612" r="1.0000" />
</g>
<g style="fill:none;
stroke:#C83434; stroke-width:1.2000; stroke-opacity:1;
stroke-linecap:round; stroke-linejoin:round;">
<path d="M16.6025 10.4612
L12.0025 10.0012
" />
<path d="M22.0025 10.4612
L16.6025 10.4612
" />
<path d="M22.0025 13.0012
L16.4025 13.0012
" />
<path d="M16.4025 13.0012
L12.0025 14.0012
" />
</g>
<g style="fill:none;
stroke:#F2EDA1; stroke-width:0.1500; stroke-opacity:1;
stroke-linecap:round; stroke-linejoin:round;">
<text x="12.0025" y="6.7012"
textLength="2.0119" font-size="1.3333" lengthAdjust="spacingAndGlyphs"
text-anchor="middle" opacity="0" stroke-opacity="0">L1</text>
<g class="stroked-text"><desc>L1</desc>
<path d="M11.8358 6.6561
L11.3596 6.6561
" />
<path d="M11.3596 6.6561
L11.3596 5.6561
" />
<path d="M12.6930 6.6561
L12.1215 6.6561
" />
<path d="M12.4073 6.6561
L12.4073 5.6561
" />
<path d="M12.4073 5.6561
L12.3120 5.7989
" />
<path d="M12.3120 5.7989
L12.2168 5.8942
" />
<path d="M12.2168 5.8942
L12.1215 5.9418
" />
</g></g>
<g style="fill:none;
stroke:#F2EDA1; stroke-width:0.1200; stroke-opacity:1;
stroke-linecap:round; stroke-linejoin:round;">
<path d="M9.0025 7.2012
L15.0025 7.2012
" />
<path d="M9.0025 16.8012
L9.0025 7.2012
" />
<path d="M15.0025 7.2012
L15.0025 16.8012
" />
<path d="M15.0025 16.8012
L9.0025 16.8012
" />
</g>
<g style="fill:none;
stroke:#AFAFAF; stroke-width:0.1000; stroke-opacity:1;
stroke-linecap:round; stroke-linejoin:round;">
<circle cx="12.0025" cy="12.0012" r="7.2000" />
<text x="12.0025" y="2.0412"
textLength="14.8973" font-size="0.9067" lengthAdjust="spacingAndGlyphs"
text-anchor="middle" opacity="0" stroke-opacity="0">non-polar tungsten halogen</text>
<g class="stroked-text"><desc>non-polar tungsten halogen</desc>
<path d="M4.7977 1.5573
L4.7977 2.0106
" />
<path d="M4.7977 1.6221
L4.8301 1.5897
" />
<path d="M4.8301 1.5897
L4.8949 1.5573
" />
<path d="M4.8949 1.5573
L4.9920 1.5573
" />
<path d="M4.9920 1.5573
L5.0568 1.5897
" />
<path d="M5.0568 1.5897
L5.0892 1.6544
" />
<path d="M5.0892 1.6544
L5.0892 2.0106
" />
<path d="M5.5101 2.0106
L5.4454 1.9782
" />
<path d="M5.4454 1.9782
L5.4130 1.9459
" />
<path d="M5.4130 1.9459
L5.3806 1.8811
" />
<path d="M5.3806 1.8811
L5.3806 1.6868
" />
<path d="M5.3806 1.6868
L5.4130 1.6221
" />
<path d="M5.4130 1.6221
L5.4454 1.5897
" />
<path d="M5.4454 1.5897
L5.5101 1.5573
" />
<path d="M5.5101 1.5573
L5.6073 1.5573
" />
<path d="M5.6073 1.5573
L5.6720 1.5897
" />
<path d="M5.6720 1.5897
L5.7044 1.6221
" />
<path d="M5.7044 1.6221
L5.7368 1.6868
" />
<path d="M5.7368 1.6868
L5.7368 1.8811
" />
<path d="M5.7368 1.8811
L5.7044 1.9459
" />
<path d="M5.7044 1.9459
L5.6720 1.9782
" />
<path d="M5.6720 1.9782
L5.6073 2.0106
" />
<path d="M5.6073 2.0106
L5.5101 2.0106
" />
<path d="M6.0282 1.5573
L6.0282 2.0106
" />
<path d="M6.0282 1.6221
L6.0606 1.5897
" />
<path d="M6.0606 1.5897
L6.1254 1.5573
" />
<path d="M6.1254 1.5573
L6.2225 1.5573
" />
<path d="M6.2225 1.5573
L6.2873 1.5897
" />
<path d="M6.2873 1.5897
L6.3196 1.6544
" />
<path d="M6.3196 1.6544
L6.3196 2.0106
" />
<path d="M6.6434 1.7516
L7.1615 1.7516
" />
<path d="M7.4854 1.5573
L7.4854 2.2373
" />
<path d="M7.4854 1.5897
L7.5501 1.5573
" />
<path d="M7.5501 1.5573
L7.6796 1.5573
" />
<path d="M7.6796 1.5573
L7.7444 1.5897
" />
<path d="M7.7444 1.5897
L7.7768 1.6221
" />
<path d="M7.7768 1.6221
L7.8092 1.6868
" />
<path d="M7.8092 1.6868
L7.8092 1.8811
" />
<path d="M7.8092 1.8811
L7.7768 1.9459
" />
<path d="M7.7768 1.9459
L7.7444 1.9782
" />
<path d="M7.7444 1.9782
L7.6796 2.0106
" />
<path d="M7.6796 2.0106
L7.5501 2.0106
" />
<path d="M7.5501 2.0106
L7.4854 1.9782
" />
<path d="M8.1977 2.0106
L8.1330 1.9782
" />
<path d="M8.1330 1.9782
L8.1006 1.9459
" />
<path d="M8.1006 1.9459
L8.0682 1.8811
" />
<path d="M8.0682 1.8811
L8.0682 1.6868
" />
<path d="M8.0682 1.6868
L8.1006 1.6221
" />
<path d="M8.1006 1.6221
L8.1330 1.5897
" />
<path d="M8.1330 1.5897
L8.1977 1.5573
" />
<path d="M8.1977 1.5573
L8.2949 1.5573
" />
<path d="M8.2949 1.5573
L8.3596 1.5897
" />
<path d="M8.3596 1.5897
L8.3920 1.6221
" />
<path d="M8.3920 1.6221
L8.4244 1.6868
" />
<path d="M8.4244 1.6868
L8.4244 1.8811
" />
<path d="M8.4244 1.8811
L8.3920 1.9459
" />
<path d="M8.3920 1.9459
L8.3596 1.9782
" />
<path d="M8.3596 1.9782
L8.2949 2.0106
" />
<path d="M8.2949 2.0106
L8.1977 2.0106
" />
<path d="M8.8130 2.0106
L8.7482 1.9782
" />
<path d="M8.7482 1.9782
L8.7158 1.9135
" />
<path d="M8.7158 1.9135
L8.7158 1.3306
" />
<path d="M9.3634 2.0106
L9.3634 1.6544
" />
<path d="M9.3634 1.6544
L9.3311 1.5897
" />
<path d="M9.3311 1.5897
L9.2663 1.5573
" />
<path d="M9.2663 1.5573
L9.1368 1.5573
" />
<path d="M9.1368 1.5573
L9.0720 1.5897
" />
<path d="M9.3634 1.9782
L9.2987 2.0106
" />
<path d="M9.2987 2.0106
L9.1368 2.0106
" />
<path d="M9.1368 2.0106
L9.0720 1.9782
" />
<path d="M9.0720 1.9782
L9.0396 1.9135
" />
<path d="M9.0396 1.9135
L9.0396 1.8487
" />
<path d="M9.0396 1.8487
L9.0720 1.7840
" />
<path d="M9.0720 1.7840
L9.1368 1.7516
" />
<path d="M9.1368 1.7516
L9.2987 1.7516
" />
<path d="M9.2987 1.7516
L9.3634 1.7192
" />
<path d="M9.6873 2.0106
L9.6873 1.5573
" />
<path d="M9.6873 1.6868
L9.7196 1.6221
" />
<path d="M9.7196 1.6221
L9.7520 1.5897
" />
<path d="M9.7520 1.5897
L9.8168 1.5573
" />
<path d="M9.8168 1.5573
L9.8815 1.5573
" />
<path d="M10.5292 1.5573
L10.7882 1.5573
" />
<path d="M10.6263 1.3306
L10.6263 1.9135
" />
<path d="M10.6263 1.9135
L10.6587 1.9782
" />
<path d="M10.6587 1.9782
L10.7234 2.0106
" />
<path d="M10.7234 2.0106
L10.7882 2.0106
" />
<path d="M11.3063 1.5573
L11.3063 2.0106
" />
<path d="M11.0149 1.5573
L11.0149 1.9135
" />
<path d="M11.0149 1.9135
L11.0473 1.9782
" />
<path d="M11.0473 1.9782
L11.1120 2.0106
" />
<path d="M11.1120 2.0106
L11.2092 2.0106
" />
<path d="M11.2092 2.0106
L11.2739 1.9782
" />
<path d="M11.2739 1.9782
L11.3063 1.9459
" />
<path d="M11.6301 1.5573
L11.6301 2.0106
" />
<path d="M11.6301 1.6221
L11.6625 1.5897
" />
<path d="M11.6625 1.5897
L11.7273 1.5573
" />
<path d="M11.7273 1.5573
L11.8244 1.5573
" />
<path d="M11.8244 1.5573
L11.8892 1.5897
" />
<path d="M11.8892 1.5897
L11.9215 1.6544
" />
<path d="M11.9215 1.6544
L11.9215 2.0106
" />
<path d="M12.5368 1.5573
L12.5368 2.1078
" />
<path d="M12.5368 2.1078
L12.5044 2.1725
" />
<path d="M12.5044 2.1725
L12.4720 2.2049
" />
<path d="M12.4720 2.2049
L12.4073 2.2373
" />
<path d="M12.4073 2.2373
L12.3101 2.2373
" />
<path d="M12.3101 2.2373
L12.2454 2.2049
" />
<path d="M12.5368 1.9782
L12.4720 2.0106
" />
<path d="M12.4720 2.0106
L12.3425 2.0106
" />
<path d="M12.3425 2.0106
L12.2777 1.9782
" />
<path d="M12.2777 1.9782
L12.2454 1.9459
" />
<path d="M12.2454 1.9459
L12.2130 1.8811
" />
<path d="M12.2130 1.8811
L12.2130 1.6868
" />
<path d="M12.2130 1.6868
L12.2454 1.6221
" />
<path d="M12.2454 1.6221
L12.2777 1.5897
" />
<path d="M12.2777 1.5897
L12.3425 1.5573
" />
<path d="M12.3425 1.5573
L12.4720 1.5573
" />
<path d="M12.4720 1.5573
L12.5368 1.5897
" />
<path d="M12.8282 1.9782
L12.8930 2.0106
" />
<path d="M12.8930 2.0106
L13.0225 2.0106
" />
<path d="M13.0225 2.0106
L13.0873 1.9782
" />
<path d="M13.0873 1.9782
L13.1196 1.9135
" />
<path d="M13.1196 1.9135
L13.1196 1.8811
" />
<path d="M13.1196 1.8811
L13.0873 1.8163
" />
<path d="M13.0873 1.8163
L13.0225 1.7840
" />
<path d="M13.0225 1.7840
L12.9253 1.7840
" />
<path d="M12.9253 1.7840
L12.8606 1.7516
" />
<path d="M12.8606 1.7516
L12.8282 1.6868
" />
<path d="M12.8282 1.6868
L12.8282 1.6544
" />
<path d="M12.8282 1.6544
L12.8606 1.5897
" />
<path d="M12.8606 1.5897
L12.9253 1.5573
" />
<path d="M12.9253 1.5573
L13.0225 1.5573
" />
<path d="M13.0225 1.5573
L13.0873 1.5897
" />
<path d="M13.3139 1.5573
L13.5730 1.5573
" />
<path d="M13.4111 1.3306
L13.4111 1.9135
" />
<path d="M13.4111 1.9135
L13.4434 1.9782
" />
<path d="M13.4434 1.9782
L13.5082 2.0106
" />
<path d="M13.5082 2.0106
L13.5730 2.0106
" />
<path d="M14.0587 1.9782
L13.9939 2.0106
" />
<path d="M13.9939 2.0106
L13.8644 2.0106
" />
<path d="M13.8644 2.0106
L13.7996 1.9782
" />
<path d="M13.7996 1.9782
L13.7673 1.9135
" />
<path d="M13.7673 1.9135
L13.7673 1.6544
" />
<path d="M13.7673 1.6544
L13.7996 1.5897
" />
<path d="M13.7996 1.5897
L13.8644 1.5573
" />
<path d="M13.8644 1.5573
L13.9939 1.5573
" />
<path d="M13.9939 1.5573
L14.0587 1.5897
" />
<path d="M14.0587 1.5897
L14.0911 1.6544
" />
<path d="M14.0911 1.6544
L14.0911 1.7192
" />
<path d="M14.0911 1.7192
L13.7673 1.7840
" />
<path d="M14.3825 1.5573
L14.3825 2.0106
" />
<path d="M14.3825 1.6221
L14.4149 1.5897
" />
<path d="M14.4149 1.5897
L14.4796 1.5573
" />
<path d="M14.4796 1.5573
L14.5768 1.5573
" />
<path d="M14.5768 1.5573
L14.6415 1.5897
" />
<path d="M14.6415 1.5897
L14.6739 1.6544
" />
<path d="M14.6739 1.6544
L14.6739 2.0106
" />
<path d="M15.5158 2.0106
L15.5158 1.3306
" />
<path d="M15.8073 2.0106
L15.8073 1.6544
" />
<path d="M15.8073 1.6544
L15.7749 1.5897
" />
<path d="M15.7749 1.5897
L15.7101 1.5573
" />
<path d="M15.7101 1.5573
L15.6130 1.5573
" />
<path d="M15.6130 1.5573
L15.5482 1.5897
" />
<path d="M15.5482 1.5897
L15.5158 1.6221
" />
<path d="M16.4225 2.0106
L16.4225 1.6544
" />
<path d="M16.4225 1.6544
L16.3901 1.5897
" />
<path d="M16.3901 1.5897
L16.3253 1.5573
" />
<path d="M16.3253 1.5573
L16.1958 1.5573
" />
<path d="M16.1958 1.5573
L16.1311 1.5897
" />
<path d="M16.4225 1.9782
L16.3577 2.0106
" />
<path d="M16.3577 2.0106
L16.1958 2.0106
" />
<path d="M16.1958 2.0106
L16.1311 1.9782
" />
<path d="M16.1311 1.9782
L16.0987 1.9135
" />
<path d="M16.0987 1.9135
L16.0987 1.8487
" />
<path d="M16.0987 1.8487
L16.1311 1.7840
" />
<path d="M16.1311 1.7840
L16.1958 1.7516
" />
<path d="M16.1958 1.7516
L16.3577 1.7516
" />
<path d="M16.3577 1.7516
L16.4225 1.7192
" />
<path d="M16.8434 2.0106
L16.7787 1.9782
" />
<path d="M16.7787 1.9782
L16.7463 1.9135
" />
<path d="M16.7463 1.9135
L16.7463 1.3306
" />
<path d="M17.1996 2.0106
L17.1349 1.9782
" />
<path d="M17.1349 1.9782
L17.1025 1.9459
" />
<path d="M17.1025 1.9459
L17.0701 1.8811
" />
<path d="M17.0701 1.8811
L17.0701 1.6868
" />
<path d="M17.0701 1.6868
L17.1025 1.6221
" />
<path d="M17.1025 1.6221
L17.1349 1.5897
" />
<path d="M17.1349 1.5897
L17.1996 1.5573
" />
<path d="M17.1996 1.5573
L17.2968 1.5573
" />
<path d="M17.2968 1.5573
L17.3615 1.5897
" />
<path d="M17.3615 1.5897
L17.3939 1.6221
" />
<path d="M17.3939 1.6221
L17.4263 1.6868
" />
<path d="M17.4263 1.6868
L17.4263 1.8811
" />
<path d="M17.4263 1.8811
L17.3939 1.9459
" />
<path d="M17.3939 1.9459
L17.3615 1.9782
" />
<path d="M17.3615 1.9782
L17.2968 2.0106
" />
<path d="M17.2968 2.0106
L17.1996 2.0106
" />
<path d="M18.0092 1.5573
L18.0092 2.1078
" />
<path d="M18.0092 2.1078
L17.9768 2.1725
" />
<path d="M17.9768 2.1725
L17.9444 2.2049
" />
<path d="M17.9444 2.2049
L17.8796 2.2373
" />
<path d="M17.8796 2.2373
L17.7825 2.2373
" />
<path d="M17.7825 2.2373
L17.7177 2.2049
" />
<path d="M18.0092 1.9782
L17.9444 2.0106
" />
<path d="M17.9444 2.0106
L17.8149 2.0106
" />
<path d="M17.8149 2.0106
L17.7501 1.9782
" />
<path d="M17.7501 1.9782
L17.7177 1.9459
" />
<path d="M17.7177 1.9459
L17.6853 1.8811
" />
<path d="M17.6853 1.8811
L17.6853 1.6868
" />
<path d="M17.6853 1.6868
L17.7177 1.6221
" />
<path d="M17.7177 1.6221
L17.7501 1.5897
" />
<path d="M17.7501 1.5897
L17.8149 1.5573
" />
<path d="M17.8149 1.5573
L17.9444 1.5573
" />
<path d="M17.9444 1.5573
L18.0092 1.5897
" />
<path d="M18.5920 1.9782
L18.5273 2.0106
" />
<path d="M18.5273 2.0106
L18.3977 2.0106
" />
<path d="M18.3977 2.0106
L18.3330 1.9782
" />
<path d="M18.3330 1.9782
L18.3006 1.9135
" />
<path d="M18.3006 1.9135
L18.3006 1.6544
" />
<path d="M18.3006 1.6544
L18.3330 1.5897
" />
<path d="M18.3330 1.5897
L18.3977 1.5573
" />
<path d="M18.3977 1.5573
L18.5273 1.5573
" />
<path d="M18.5273 1.5573
L18.5920 1.5897
" />
<path d="M18.5920 1.5897
L18.6244 1.6544
" />
<path d="M18.6244 1.6544
L18.6244 1.7192
" />
<path d="M18.6244 1.7192
L18.3006 1.7840
" />
<path d="M18.9158 1.5573
L18.9158 2.0106
" />
<path d="M18.9158 1.6221
L18.9482 1.5897
" />
<path d="M18.9482 1.5897
L19.0130 1.5573
" />
<path d="M19.0130 1.5573
L19.1101 1.5573
" />
<path d="M19.1101 1.5573
L19.1749 1.5897
" />
<path d="M19.1749 1.5897
L19.2073 1.6544
" />
<path d="M19.2073 1.6544
L19.2073 2.0106
" />
</g><text x="12.0025" y="22.6612"
textLength="22.1674" font-size="0.9600" lengthAdjust="spacingAndGlyphs"
text-anchor="middle" opacity="0" stroke-opacity="0">HYBEC HBL-273/HBL-667 12V 20W G4</text>
<g class="stroked-text"><desc>HYBEC HBL-273/HBL-667 12V 20W G4</desc>
<path d="M1.1682 22.6291
L1.1682 21.9091
" />
<path d="M1.1682 22.2520
L1.5796 22.2520
" />
<path d="M1.5796 22.6291
L1.5796 21.9091
" />
<path d="M2.0596 22.2863
L2.0596 22.6291
" />
<path d="M1.8196 21.9091
L2.0596 22.2863
" />
<path d="M2.0596 22.2863
L2.2996 21.9091
" />
<path d="M2.7796 22.2520
L2.8825 22.2863
" />
<path d="M2.8825 22.2863
L2.9168 22.3206
" />
<path d="M2.9168 22.3206
L2.9511 22.3891
" />
<path d="M2.9511 22.3891
L2.9511 22.4920
" />
<path d="M2.9511 22.4920
L2.9168 22.5606
" />
<path d="M2.9168 22.5606
L2.8825 22.5948
" />
<path d="M2.8825 22.5948
L2.8139 22.6291
" />
<path d="M2.8139 22.6291
L2.5396 22.6291
" />
<path d="M2.5396 22.6291
L2.5396 21.9091
" />
<path d="M2.5396 21.9091
L2.7796 21.9091
" />
<path d="M2.7796 21.9091
L2.8482 21.9434
" />
<path d="M2.8482 21.9434
L2.8825 21.9777
" />
<path d="M2.8825 21.9777
L2.9168 22.0463
" />
<path d="M2.9168 22.0463
L2.9168 22.1148
" />
<path d="M2.9168 22.1148
L2.8825 22.1834
" />
<path d="M2.8825 22.1834
L2.8482 22.2177
" />
<path d="M2.8482 22.2177
L2.7796 22.2520
" />
<path d="M2.7796 22.2520
L2.5396 22.2520
" />
<path d="M3.2596 22.2520
L3.4996 22.2520
" />
<path d="M3.6025 22.6291
L3.2596 22.6291
" />
<path d="M3.2596 22.6291
L3.2596 21.9091
" />
<path d="M3.2596 21.9091
L3.6025 21.9091
" />
<path d="M4.3225 22.5606
L4.2882 22.5948
" />
<path d="M4.2882 22.5948
L4.1854 22.6291
" />
<path d="M4.1854 22.6291
L4.1168 22.6291
" />
<path d="M4.1168 22.6291
L4.0139 22.5948
" />
<path d="M4.0139 22.5948
L3.9454 22.5263
" />
<path d="M3.9454 22.5263
L3.9111 22.4577
" />
<path d="M3.9111 22.4577
L3.8768 22.3206
" />
<path d="M3.8768 22.3206
L3.8768 22.2177
" />
<path d="M3.8768 22.2177
L3.9111 22.0806
" />
<path d="M3.9111 22.0806
L3.9454 22.0120
" />
<path d="M3.9454 22.0120
L4.0139 21.9434
" />
<path d="M4.0139 21.9434
L4.1168 21.9091
" />
<path d="M4.1168 21.9091
L4.1854 21.9091
" />
<path d="M4.1854 21.9091
L4.2882 21.9434
" />
<path d="M4.2882 21.9434
L4.3225 21.9777
" />
<path d="M5.1796 22.6291
L5.1796 21.9091
" />
<path d="M5.1796 22.2520
L5.5911 22.2520
" />
<path d="M5.5911 22.6291
L5.5911 21.9091
" />
<path d="M6.1739 22.2520
L6.2768 22.2863
" />
<path d="M6.2768 22.2863
L6.3111 22.3206
" />
<path d="M6.3111 22.3206
L6.3454 22.3891
" />
<path d="M6.3454 22.3891
L6.3454 22.4920
" />
<path d="M6.3454 22.4920
L6.3111 22.5606
" />
<path d="M6.3111 22.5606
L6.2768 22.5948
" />
<path d="M6.2768 22.5948
L6.2082 22.6291
" />
<path d="M6.2082 22.6291
L5.9339 22.6291
" />
<path d="M5.9339 22.6291
L5.9339 21.9091
" />
<path d="M5.9339 21.9091
L6.1739 21.9091
" />
<path d="M6.1739 21.9091
L6.2425 21.9434
" />
<path d="M6.2425 21.9434
L6.2768 21.9777
" />
<path d="M6.2768 21.9777
L6.3111 22.0463
" />
<path d="M6.3111 22.0463
L6.3111 22.1148
" />
<path d="M6.3111 22.1148
L6.2768 22.1834
" />
<path d="M6.2768 22.1834
L6.2425 22.2177
" />
<path d="M6.2425 22.2177
L6.1739 22.2520
" />
<path d="M6.1739 22.2520
L5.9339 22.2520
" />
<path d="M6.9968 22.6291
L6.6539 22.6291
" />
<path d="M6.6539 22.6291
L6.6539 21.9091
" />
<path d="M7.2368 22.3548
L7.7854 22.3548
" />
<path d="M8.0939 21.9777
L8.1282 21.9434
" />
<path d="M8.1282 21.9434
L8.1968 21.9091
" />
<path d="M8.1968 21.9091
L8.3682 21.9091
" />
<path d="M8.3682 21.9091
L8.4368 21.9434
" />
<path d="M8.4368 21.9434
L8.4711 21.9777
" />
<path d="M8.4711 21.9777
L8.5054 22.0463
" />
<path d="M8.5054 22.0463
L8.5054 22.1148
" />
<path d="M8.5054 22.1148
L8.4711 22.2177
" />
<path d="M8.4711 22.2177
L8.0596 22.6291
" />
<path d="M8.0596 22.6291
L8.5054 22.6291
" />
<path d="M8.7454 21.9091
L9.2254 21.9091
" />
<path d="M9.2254 21.9091
L8.9168 22.6291
" />
<path d="M9.4311 21.9091
L9.8768 21.9091
" />
<path d="M9.8768 21.9091
L9.6368 22.1834
" />
<path d="M9.6368 22.1834
L9.7396 22.1834
" />
<path d="M9.7396 22.1834
L9.8082 22.2177
" />
<path d="M9.8082 22.2177
L9.8425 22.2520
" />
<path d="M9.8425 22.2520
L9.8768 22.3206
" />
<path d="M9.8768 22.3206
L9.8768 22.4920
" />
<path d="M9.8768 22.4920
L9.8425 22.5606
" />
<path d="M9.8425 22.5606
L9.8082 22.5948
" />
<path d="M9.8082 22.5948
L9.7396 22.6291
" />
<path d="M9.7396 22.6291
L9.5339 22.6291
" />
<path d="M9.5339 22.6291
L9.4654 22.5948
" />
<path d="M9.4654 22.5948
L9.4311 22.5606
" />
<path d="M10.6996 21.8748
L10.0825 22.8006
" />
<path d="M10.9396 22.6291
L10.9396 21.9091
" />
<path d="M10.9396 22.2520
L11.3511 22.2520
" />
<path d="M11.3511 22.6291
L11.3511 21.9091
" />
<path d="M11.9339 22.2520
L12.0368 22.2863
" />
<path d="M12.0368 22.2863
L12.0711 22.3206
" />
<path d="M12.0711 22.3206
L12.1054 22.3891
" />
<path d="M12.1054 22.3891
L12.1054 22.4920
" />
<path d="M12.1054 22.4920
L12.0711 22.5606
" />
<path d="M12.0711 22.5606
L12.0368 22.5948
" />
<path d="M12.0368 22.5948
L11.9682 22.6291
" />
<path d="M11.9682 22.6291
L11.6939 22.6291
" />
<path d="M11.6939 22.6291
L11.6939 21.9091
" />
<path d="M11.6939 21.9091
L11.9339 21.9091
" />
<path d="M11.9339 21.9091
L12.0025 21.9434
" />
<path d="M12.0025 21.9434
L12.0368 21.9777
" />
<path d="M12.0368 21.9777
L12.0711 22.0463
" />
<path d="M12.0711 22.0463
L12.0711 22.1148
" />
<path d="M12.0711 22.1148
L12.0368 22.1834
" />
<path d="M12.0368 22.1834
L12.0025 22.2177
" />
<path d="M12.0025 22.2177
L11.9339 22.2520
" />
<path d="M11.9339 22.2520
L11.6939 22.2520
" />
<path d="M12.7568 22.6291
L12.4139 22.6291
" />
<path d="M12.4139 22.6291
L12.4139 21.9091
" />
<path d="M12.9968 22.3548
L13.5454 22.3548
" />
<path d="M14.1968 21.9091
L14.0596 21.9091
" />
<path d="M14.0596 21.9091
L13.9911 21.9434
" />
<path d="M13.9911 21.9434
L13.9568 21.9777
" />
<path d="M13.9568 21.9777
L13.8882 22.0806
" />
<path d="M13.8882 22.0806
L13.8539 22.2177
" />
<path d="M13.8539 22.2177
L13.8539 22.4920
" />
<path d="M13.8539 22.4920
L13.8882 22.5606
" />
<path d="M13.8882 22.5606
L13.9225 22.5948
" />
<path d="M13.9225 22.5948
L13.9911 22.6291
" />
<path d="M13.9911 22.6291
L14.1282 22.6291
" />
<path d="M14.1282 22.6291
L14.1968 22.5948
" />
<path d="M14.1968 22.5948
L14.2311 22.5606
" />
<path d="M14.2311 22.5606
L14.2654 22.4920
" />
<path d="M14.2654 22.4920
L14.2654 22.3206
" />
<path d="M14.2654 22.3206
L14.2311 22.2520
" />
<path d="M14.2311 22.2520
L14.1968 22.2177
" />
<path d="M14.1968 22.2177
L14.1282 22.1834
" />
<path d="M14.1282 22.1834
L13.9911 22.1834
" />
<path d="M13.9911 22.1834
L13.9225 22.2177
" />
<path d="M13.9225 22.2177
L13.8882 22.2520
" />
<path d="M13.8882 22.2520
L13.8539 22.3206
" />
<path d="M14.8825 21.9091
L14.7454 21.9091
" />
<path d="M14.7454 21.9091
L14.6768 21.9434
" />
<path d="M14.6768 21.9434
L14.6425 21.9777
" />
<path d="M14.6425 21.9777
L14.5739 22.0806
" />
<path d="M14.5739 22.0806
L14.5396 22.2177
" />
<path d="M14.5396 22.2177
L14.5396 22.4920
" />
<path d="M14.5396 22.4920
L14.5739 22.5606
" />
<path d="M14.5739 22.5606
L14.6082 22.5948
" />
<path d="M14.6082 22.5948
L14.6768 22.6291
" />
<path d="M14.6768 22.6291
L14.8139 22.6291
" />
<path d="M14.8139 22.6291
L14.8825 22.5948
" />
<path d="M14.8825 22.5948
L14.9168 22.5606
" />
<path d="M14.9168 22.5606
L14.9511 22.4920
" />
<path d="M14.9511 22.4920
L14.9511 22.3206
" />
<path d="M14.9511 22.3206
L14.9168 22.2520
" />
<path d="M14.9168 22.2520
L14.8825 22.2177
" />
<path d="M14.8825 22.2177
L14.8139 22.1834
" />
<path d="M14.8139 22.1834
L14.6768 22.1834
" />
<path d="M14.6768 22.1834
L14.6082 22.2177
" />
<path d="M14.6082 22.2177
L14.5739 22.2520
" />
<path d="M14.5739 22.2520
L14.5396 22.3206
" />
<path d="M15.1911 21.9091
L15.6711 21.9091
" />
<path d="M15.6711 21.9091
L15.3625 22.6291
" />
<path d="M16.8711 22.6291
L16.4596 22.6291
" />
<path d="M16.6654 22.6291
L16.6654 21.9091
" />
<path d="M16.6654 21.9091
L16.5968 22.0120
" />
<path d="M16.5968 22.0120
L16.5282 22.0806
" />
<path d="M16.5282 22.0806
L16.4596 22.1148
" />
<path d="M17.1454 21.9777
L17.1796 21.9434
" />
<path d="M17.1796 21.9434
L17.2482 21.9091
" />
<path d="M17.2482 21.9091
L17.4196 21.9091
" />
<path d="M17.4196 21.9091
L17.4882 21.9434
" />
<path d="M17.4882 21.9434
L17.5225 21.9777
" />
<path d="M17.5225 21.9777
L17.5568 22.0463
" />
<path d="M17.5568 22.0463
L17.5568 22.1148
" />
<path d="M17.5568 22.1148
L17.5225 22.2177
" />
<path d="M17.5225 22.2177
L17.1111 22.6291
" />
<path d="M17.1111 22.6291
L17.5568 22.6291
" />
<path d="M17.7625 21.9091
L18.0025 22.6291
" />
<path d="M18.0025 22.6291
L18.2425 21.9091
" />
<path d="M18.9968 21.9777
L19.0311 21.9434
" />
<path d="M19.0311 21.9434
L19.0996 21.9091
" />
<path d="M19.0996 21.9091
L19.2711 21.9091
" />
<path d="M19.2711 21.9091
L19.3396 21.9434
" />
<path d="M19.3396 21.9434
L19.3739 21.9777
" />
<path d="M19.3739 21.9777
L19.4082 22.0463
" />
<path d="M19.4082 22.0463
L19.4082 22.1148
" />
<path d="M19.4082 22.1148
L19.3739 22.2177
" />
<path d="M19.3739 22.2177
L18.9625 22.6291
" />
<path d="M18.9625 22.6291
L19.4082 22.6291
" />
<path d="M19.8539 21.9091
L19.9225 21.9091
" />
<path d="M19.9225 21.9091
L19.9911 21.9434
" />
<path d="M19.9911 21.9434
L20.0253 21.9777
" />
<path d="M20.0253 21.9777
L20.0596 22.0463
" />
<path d="M20.0596 22.0463
L20.0939 22.1834
" />
<path d="M20.0939 22.1834
L20.0939 22.3548
" />
<path d="M20.0939 22.3548
L20.0596 22.4920
" />
<path d="M20.0596 22.4920
L20.0253 22.5606
" />
<path d="M20.0253 22.5606
L19.9911 22.5948
" />
<path d="M19.9911 22.5948
L19.9225 22.6291
" />
<path d="M19.9225 22.6291
L19.8539 22.6291
" />
<path d="M19.8539 22.6291
L19.7853 22.5948
" />
<path d="M19.7853 22.5948
L19.7511 22.5606
" />
<path d="M19.7511 22.5606
L19.7168 22.4920
" />
<path d="M19.7168 22.4920
L19.6825 22.3548
" />
<path d="M19.6825 22.3548
L19.6825 22.1834
" />
<path d="M19.6825 22.1834
L19.7168 22.0463
" />
<path d="M19.7168 22.0463
L19.7511 21.9777
" />
<path d="M19.7511 21.9777
L19.7853 21.9434
" />
<path d="M19.7853 21.9434
L19.8539 21.9091
" />
<path d="M20.3339 21.9091
L20.5053 22.6291
" />
<path d="M20.5053 22.6291
L20.6425 22.1148
" />
<path d="M20.6425 22.1148
L20.7796 22.6291
" />
<path d="M20.7796 22.6291
L20.9511 21.9091
" />
<path d="M22.1511 21.9434
L22.0825 21.9091
" />
<path d="M22.0825 21.9091
L21.9796 21.9091
" />
<path d="M21.9796 21.9091
L21.8768 21.9434
" />
<path d="M21.8768 21.9434
L21.8082 22.0120
" />
<path d="M21.8082 22.0120
L21.7739 22.0806
" />
<path d="M21.7739 22.0806
L21.7396 22.2177
" />
<path d="M21.7396 22.2177
L21.7396 22.3206
" />
<path d="M21.7396 22.3206
L21.7739 22.4577
" />
<path d="M21.7739 22.4577
L21.8082 22.5263
" />
<path d="M21.8082 22.5263
L21.8768 22.5948
" />
<path d="M21.8768 22.5948
L21.9796 22.6291
" />
<path d="M21.9796 22.6291
L22.0482 22.6291
" />
<path d="M22.0482 22.6291
L22.1511 22.5948
" />
<path d="M22.1511 22.5948
L22.1853 22.5606
" />
<path d="M22.1853 22.5606
L22.1853 22.3206
" />
<path d="M22.1853 22.3206
L22.0482 22.3206
" />
<path d="M22.8025 22.1491
L22.8025 22.6291
" />
<path d="M22.6311 21.8748
L22.4596 22.3891
" />
<path d="M22.4596 22.3891
L22.9053 22.3891
" />
</g></g>
<g style="fill:none;
stroke:#AFAFAF; stroke-width:0.1500; stroke-opacity:1;
stroke-linecap:round; stroke-linejoin:round;">
<text x="6.0025" y="21.7012"
textLength="10.2976" font-size="1.3333" lengthAdjust="spacingAndGlyphs"
text-anchor="middle" opacity="0" stroke-opacity="0">MountingHole</text>
<g class="stroked-text"><desc>MountingHole</desc>
<path d="M1.2168 21.6561
L1.2168 20.6561
" />
<path d="M1.2168 20.6561
L1.5501 21.3704
" />
<path d="M1.5501 21.3704
L1.8834 20.6561
" />
<path d="M1.8834 20.6561
L1.8834 21.6561
" />
<path d="M2.5025 21.6561
L2.4073 21.6084
" />
<path d="M2.4073 21.6084
L2.3596 21.5608
" />
<path d="M2.3596 21.5608
L2.3120 21.4656
" />
<path d="M2.3120 21.4656
L2.3120 21.1799
" />
<path d="M2.3120 21.1799
L2.3596 21.0846
" />
<path d="M2.3596 21.0846
L2.4073 21.0370
" />
<path d="M2.4073 21.0370
L2.5025 20.9894
" />
<path d="M2.5025 20.9894
L2.6453 20.9894
" />
<path d="M2.6453 20.9894
L2.7406 21.0370
" />
<path d="M2.7406 21.0370
L2.7882 21.0846
" />
<path d="M2.7882 21.0846
L2.8358 21.1799
" />
<path d="M2.8358 21.1799
L2.8358 21.4656
" />
<path d="M2.8358 21.4656
L2.7882 21.5608
" />
<path d="M2.7882 21.5608
L2.7406 21.6084
" />
<path d="M2.7406 21.6084
L2.6453 21.6561
" />
<path d="M2.6453 21.6561
L2.5025 21.6561
" />
<path d="M3.6930 20.9894
L3.6930 21.6561
" />
<path d="M3.2644 20.9894
L3.2644 21.5132
" />
<path d="M3.2644 21.5132
L3.3120 21.6084
" />
<path d="M3.3120 21.6084
L3.4073 21.6561
" />
<path d="M3.4073 21.6561
L3.5501 21.6561
" />
<path d="M3.5501 21.6561
L3.6453 21.6084
" />
<path d="M3.6453 21.6084
L3.6930 21.5608
" />
<path d="M4.1692 20.9894
L4.1692 21.6561
" />
<path d="M4.1692 21.0846
L4.2168 21.0370
" />
<path d="M4.2168 21.0370
L4.3120 20.9894
" />
<path d="M4.3120 20.9894
L4.4549 20.9894
" />
<path d="M4.4549 20.9894
L4.5501 21.0370
" />
<path d="M4.5501 21.0370
L4.5977 21.1323
" />
<path d="M4.5977 21.1323
L4.5977 21.6561
" />
<path d="M4.9311 20.9894
L5.3120 20.9894
" />
<path d="M5.0739 20.6561
L5.0739 21.5132
" />
<path d="M5.0739 21.5132
L5.1215 21.6084
" />
<path d="M5.1215 21.6084
L5.2168 21.6561
" />
<path d="M5.2168 21.6561
L5.3120 21.6561
" />
<path d="M5.6453 21.6561
L5.6453 20.9894
" />
<path d="M5.6453 20.6561
L5.5977 20.7037
" />
<path d="M5.5977 20.7037
L5.6453 20.7513
" />
<path d="M5.6453 20.7513
L5.6930 20.7037
" />
<path d="M5.6930 20.7037
L5.6453 20.6561
" />
<path d="M5.6453 20.6561
L5.6453 20.7513
" />
<path d="M6.1215 20.9894
L6.1215 21.6561
" />
<path d="M6.1215 21.0846
L6.1692 21.0370
" />
<path d="M6.1692 21.0370
L6.2644 20.9894
" />
<path d="M6.2644 20.9894
L6.4073 20.9894
" />
<path d="M6.4073 20.9894
L6.5025 21.0370
" />
<path d="M6.5025 21.0370
L6.5501 21.1323
" />
<path d="M6.5501 21.1323
L6.5501 21.6561
" />
<path d="M7.4549 20.9894
L7.4549 21.7989
" />
<path d="M7.4549 21.7989
L7.4073 21.8942
" />
<path d="M7.4073 21.8942
L7.3596 21.9418
" />
<path d="M7.3596 21.9418
L7.2644 21.9894
" />
<path d="M7.2644 21.9894
L7.1215 21.9894
" />
<path d="M7.1215 21.9894
L7.0263 21.9418
" />
<path d="M7.4549 21.6084
L7.3596 21.6561
" />
<path d="M7.3596 21.6561
L7.1692 21.6561
" />
<path d="M7.1692 21.6561
L7.0739 21.6084
" />
<path d="M7.0739 21.6084
L7.0263 21.5608
" />
<path d="M7.0263 21.5608
L6.9787 21.4656
" />
<path d="M6.9787 21.4656
L6.9787 21.1799
" />
<path d="M6.9787 21.1799
L7.0263 21.0846
" />
<path d="M7.0263 21.0846
L7.0739 21.0370
" />
<path d="M7.0739 21.0370
L7.1692 20.9894
" />
<path d="M7.1692 20.9894
L7.3596 20.9894
" />
<path d="M7.3596 20.9894
L7.4549 21.0370
" />
<path d="M7.9311 21.6561
L7.9311 20.6561
" />
<path d="M7.9311 21.1323
L8.5025 21.1323
" />
<path d="M8.5025 21.6561
L8.5025 20.6561
" />
<path d="M9.1215 21.6561
L9.0263 21.6084
" />
<path d="M9.0263 21.6084
L8.9787 21.5608
" />
<path d="M8.9787 21.5608
L8.9311 21.4656
" />
<path d="M8.9311 21.4656
L8.9311 21.1799
" />
<path d="M8.9311 21.1799
L8.9787 21.0846
" />
<path d="M8.9787 21.0846
L9.0263 21.0370
" />
<path d="M9.0263 21.0370
L9.1215 20.9894
" />
<path d="M9.1215 20.9894
L9.2644 20.9894
" />
<path d="M9.2644 20.9894
L9.3596 21.0370
" />
<path d="M9.3596 21.0370
L9.4073 21.0846
" />
<path d="M9.4073 21.0846
L9.4549 21.1799
" />
<path d="M9.4549 21.1799
L9.4549 21.4656
" />
<path d="M9.4549 21.4656
L9.4073 21.5608
" />
<path d="M9.4073 21.5608
L9.3596 21.6084
" />
<path d="M9.3596 21.6084
L9.2644 21.6561
" />
<path d="M9.2644 21.6561
L9.1215 21.6561
" />
<path d="M10.0263 21.6561
L9.9311 21.6084
" />
<path d="M9.9311 21.6084
L9.8834 21.5132
" />
<path d="M9.8834 21.5132
L9.8834 20.6561
" />
<path d="M10.7882 21.6084
L10.6930 21.6561
" />
<path d="M10.6930 21.6561
L10.5025 21.6561
" />
<path d="M10.5025 21.6561
L10.4073 21.6084
" />
<path d="M10.4073 21.6084
L10.3596 21.5132
" />
<path d="M10.3596 21.5132
L10.3596 21.1323
" />
<path d="M10.3596 21.1323
L10.4073 21.0370
" />
<path d="M10.4073 21.0370
L10.5025 20.9894
" />
<path d="M10.5025 20.9894
L10.6930 20.9894
" />
<path d="M10.6930 20.9894
L10.7882 21.0370
" />
<path d="M10.7882 21.0370
L10.8358 21.1323
" />
<path d="M10.8358 21.1323
L10.8358 21.2275
" />
<path d="M10.8358 21.2275
L10.3596 21.3227
" />
</g><text x="18.0025" y="9.7012"
textLength="10.2976" font-size="1.3333" lengthAdjust="spacingAndGlyphs"
text-anchor="middle" opacity="0" stroke-opacity="0">MountingHole</text>
<g class="stroked-text"><desc>MountingHole</desc>
<path d="M13.2168 9.6561
L13.2168 8.6561
" />
<path d="M13.2168 8.6561
L13.5501 9.3704
" />
<path d="M13.5501 9.3704
L13.8834 8.6561
" />
<path d="M13.8834 8.6561
L13.8834 9.6561
" />
<path d="M14.5025 9.6561
L14.4073 9.6084
" />
<path d="M14.4073 9.6084
L14.3596 9.5608
" />
<path d="M14.3596 9.5608
L14.3120 9.4656
" />
<path d="M14.3120 9.4656
L14.3120 9.1799
" />
<path d="M14.3120 9.1799
L14.3596 9.0846
" />
<path d="M14.3596 9.0846
L14.4073 9.0370
" />
<path d="M14.4073 9.0370
L14.5025 8.9894
" />
<path d="M14.5025 8.9894
L14.6453 8.9894
" />
<path d="M14.6453 8.9894
L14.7406 9.0370
" />
<path d="M14.7406 9.0370
L14.7882 9.0846
" />
<path d="M14.7882 9.0846
L14.8358 9.1799
" />
<path d="M14.8358 9.1799
L14.8358 9.4656
" />
<path d="M14.8358 9.4656
L14.7882 9.5608
" />
<path d="M14.7882 9.5608
L14.7406 9.6084
" />
<path d="M14.7406 9.6084
L14.6453 9.6561
" />
<path d="M14.6453 9.6561
L14.5025 9.6561
" />
<path d="M15.6930 8.9894
L15.6930 9.6561
" />
<path d="M15.2644 8.9894
L15.2644 9.5132
" />
<path d="M15.2644 9.5132
L15.3120 9.6084
" />
<path d="M15.3120 9.6084
L15.4073 9.6561
" />
<path d="M15.4073 9.6561
L15.5501 9.6561
" />
<path d="M15.5501 9.6561
L15.6453 9.6084
" />
<path d="M15.6453 9.6084
L15.6930 9.5608
" />
<path d="M16.1692 8.9894
L16.1692 9.6561
" />
<path d="M16.1692 9.0846
L16.2168 9.0370
" />
<path d="M16.2168 9.0370
L16.3120 8.9894
" />
<path d="M16.3120 8.9894
L16.4549 8.9894
" />
<path d="M16.4549 8.9894
L16.5501 9.0370
" />
<path d="M16.5501 9.0370
L16.5977 9.1323
" />
<path d="M16.5977 9.1323
L16.5977 9.6561
" />
<path d="M16.9311 8.9894
L17.3120 8.9894
" />
<path d="M17.0739 8.6561
L17.0739 9.5132
" />
<path d="M17.0739 9.5132
L17.1215 9.6084
" />
<path d="M17.1215 9.6084
L17.2168 9.6561
" />
<path d="M17.2168 9.6561
L17.3120 9.6561
" />
<path d="M17.6454 9.6561
L17.6454 8.9894
" />
<path d="M17.6454 8.6561
L17.5977 8.7037
" />
<path d="M17.5977 8.7037
L17.6454 8.7513
" />
<path d="M17.6454 8.7513
L17.6930 8.7037
" />
<path d="M17.6930 8.7037
L17.6454 8.6561
" />
<path d="M17.6454 8.6561
L17.6454 8.7513
" />
<path d="M18.1215 8.9894
L18.1215 9.6561
" />
<path d="M18.1215 9.0846
L18.1692 9.0370
" />
<path d="M18.1692 9.0370
L18.2644 8.9894
" />
<path d="M18.2644 8.9894
L18.4073 8.9894
" />
<path d="M18.4073 8.9894
L18.5025 9.0370
" />
<path d="M18.5025 9.0370
L18.5501 9.1323
" />
<path d="M18.5501 9.1323
L18.5501 9.6561
" />
<path d="M19.4549 8.9894
L19.4549 9.7989
" />
<path d="M19.4549 9.7989
L19.4073 9.8942
" />
<path d="M19.4073 9.8942
L19.3596 9.9418
" />
<path d="M19.3596 9.9418
L19.2644 9.9894
" />
<path d="M19.2644 9.9894
L19.1215 9.9894
" />
<path d="M19.1215 9.9894
L19.0263 9.9418
" />
<path d="M19.4549 9.6084
L19.3596 9.6561
" />
<path d="M19.3596 9.6561
L19.1692 9.6561
" />
<path d="M19.1692 9.6561
L19.0739 9.6084
" />
<path d="M19.0739 9.6084
L19.0263 9.5608
" />
<path d="M19.0263 9.5608
L18.9787 9.4656
" />
<path d="M18.9787 9.4656
L18.9787 9.1799
" />
<path d="M18.9787 9.1799
L19.0263 9.0846
" />
<path d="M19.0263 9.0846
L19.0739 9.0370
" />
<path d="M19.0739 9.0370
L19.1692 8.9894
" />
<path d="M19.1692 8.9894
L19.3596 8.9894
" />
<path d="M19.3596 8.9894
L19.4549 9.0370
" />
<path d="M19.9311 9.6561
L19.9311 8.6561
" />
<path d="M19.9311 9.1323
L20.5025 9.1323
" />
<path d="M20.5025 9.6561
L20.5025 8.6561
" />
<path d="M21.1215 9.6561
L21.0263 9.6084
" />
<path d="M21.0263 9.6084
L20.9787 9.5608
" />
<path d="M20.9787 9.5608
L20.9311 9.4656
" />
<path d="M20.9311 9.4656
L20.9311 9.1799
" />
<path d="M20.9311 9.1799
L20.9787 9.0846
" />
<path d="M20.9787 9.0846
L21.0263 9.0370
" />
<path d="M21.0263 9.0370
L21.1215 8.9894
" />
<path d="M21.1215 8.9894
L21.2644 8.9894
" />
<path d="M21.2644 8.9894
L21.3596 9.0370
" />
<path d="M21.3596 9.0370
L21.4073 9.0846
" />
<path d="M21.4073 9.0846
L21.4549 9.1799
" />
<path d="M21.4549 9.1799
L21.4549 9.4656
" />
<path d="M21.4549 9.4656
L21.4073 9.5608
" />
<path d="M21.4073 9.5608
L21.3596 9.6084
" />
<path d="M21.3596 9.6084
L21.2644 9.6561
" />
<path d="M21.2644 9.6561
L21.1215 9.6561
" />
<path d="M22.0263 9.6561
L21.9311 9.6084
" />
<path d="M21.9311 9.6084
L21.8834 9.5132
" />
<path d="M21.8834 9.5132
L21.8834 8.6561
" />
<path d="M22.7882 9.6084
L22.6930 9.6561
" />
<path d="M22.6930 9.6561
L22.5025 9.6561
" />
<path d="M22.5025 9.6561
L22.4073 9.6084
" />
<path d="M22.4073 9.6084
L22.3596 9.5132
" />
<path d="M22.3596 9.5132
L22.3596 9.1323
" />
<path d="M22.3596 9.1323
L22.4073 9.0370
" />
<path d="M22.4073 9.0370
L22.5025 8.9894
" />
<path d="M22.5025 8.9894
L22.6930 8.9894
" />
<path d="M22.6930 8.9894
L22.7882 9.0370
" />
<path d="M22.7882 9.0370
L22.8358 9.1323
" />
<path d="M22.8358 9.1323
L22.8358 9.2275
" />
<path d="M22.8358 9.2275
L22.3596 9.3227
" />
</g><text x="18.0025" y="21.7012"
textLength="10.2976" font-size="1.3333" lengthAdjust="spacingAndGlyphs"
text-anchor="middle" opacity="0" stroke-opacity="0">MountingHole</text>
<g class="stroked-text"><desc>MountingHole</desc>
<path d="M13.2168 21.6561
L13.2168 20.6561
" />
<path d="M13.2168 20.6561
L13.5501 21.3704
" />
<path d="M13.5501 21.3704
L13.8834 20.6561
" />
<path d="M13.8834 20.6561
L13.8834 21.6561
" />
<path d="M14.5025 21.6561
L14.4073 21.6084
" />
<path d="M14.4073 21.6084
L14.3596 21.5608
" />
<path d="M14.3596 21.5608
L14.3120 21.4656
" />
<path d="M14.3120 21.4656
L14.3120 21.1799
" />
<path d="M14.3120 21.1799
L14.3596 21.0846
" />
<path d="M14.3596 21.0846
L14.4073 21.0370
" />
<path d="M14.4073 21.0370
L14.5025 20.9894
" />
<path d="M14.5025 20.9894
L14.6453 20.9894
" />
<path d="M14.6453 20.9894
L14.7406 21.0370
" />
<path d="M14.7406 21.0370
L14.7882 21.0846
" />
<path d="M14.7882 21.0846
L14.8358 21.1799
" />
<path d="M14.8358 21.1799
L14.8358 21.4656
" />
<path d="M14.8358 21.4656
L14.7882 21.5608
" />
<path d="M14.7882 21.5608
L14.7406 21.6084
" />
<path d="M14.7406 21.6084
L14.6453 21.6561
" />
<path d="M14.6453 21.6561
L14.5025 21.6561
" />
<path d="M15.6930 20.9894
L15.6930 21.6561
" />
<path d="M15.2644 20.9894
L15.2644 21.5132
" />
<path d="M15.2644 21.5132
L15.3120 21.6084
" />
<path d="M15.3120 21.6084
L15.4073 21.6561
" />
<path d="M15.4073 21.6561
L15.5501 21.6561
" />
<path d="M15.5501 21.6561
L15.6453 21.6084
" />
<path d="M15.6453 21.6084
L15.6930 21.5608
" />
<path d="M16.1692 20.9894
L16.1692 21.6561
" />
<path d="M16.1692 21.0846
L16.2168 21.0370
" />
<path d="M16.2168 21.0370
L16.3120 20.9894
" />
<path d="M16.3120 20.9894
L16.4549 20.9894
" />
<path d="M16.4549 20.9894
L16.5501 21.0370
" />
<path d="M16.5501 21.0370
L16.5977 21.1323
" />
<path d="M16.5977 21.1323
L16.5977 21.6561
" />
<path d="M16.9311 20.9894
L17.3120 20.9894
" />
<path d="M17.0739 20.6561
L17.0739 21.5132
" />
<path d="M17.0739 21.5132
L17.1215 21.6084
" />
<path d="M17.1215 21.6084
L17.2168 21.6561
" />
<path d="M17.2168 21.6561
L17.3120 21.6561
" />
<path d="M17.6454 21.6561
L17.6454 20.9894
" />
<path d="M17.6454 20.6561
L17.5977 20.7037
" />
<path d="M17.5977 20.7037
L17.6454 20.7513
" />
<path d="M17.6454 20.7513
L17.6930 20.7037
" />
<path d="M17.6930 20.7037
L17.6454 20.6561
" />
<path d="M17.6454 20.6561
L17.6454 20.7513
" />
<path d="M18.1215 20.9894
L18.1215 21.6561
" />
<path d="M18.1215 21.0846
L18.1692 21.0370
" />
<path d="M18.1692 21.0370
L18.2644 20.9894
" />
<path d="M18.2644 20.9894
L18.4073 20.9894
" />
<path d="M18.4073 20.9894
L18.5025 21.0370
" />
<path d="M18.5025 21.0370
L18.5501 21.1323
" />
<path d="M18.5501 21.1323
L18.5501 21.6561
" />
<path d="M19.4549 20.9894
L19.4549 21.7989
" />
<path d="M19.4549 21.7989
L19.4073 21.8942
" />
<path d="M19.4073 21.8942
L19.3596 21.9418
" />
<path d="M19.3596 21.9418
L19.2644 21.9894
" />
<path d="M19.2644 21.9894
L19.1215 21.9894
" />
<path d="M19.1215 21.9894
L19.0263 21.9418
" />
<path d="M19.4549 21.6084
L19.3596 21.6561
" />
<path d="M19.3596 21.6561
L19.1692 21.6561
" />
<path d="M19.1692 21.6561
L19.0739 21.6084
" />
<path d="M19.0739 21.6084
L19.0263 21.5608
" />
<path d="M19.0263 21.5608
L18.9787 21.4656
" />
<path d="M18.9787 21.4656
L18.9787 21.1799
" />
<path d="M18.9787 21.1799
L19.0263 21.0846
" />
<path d="M19.0263 21.0846
L19.0739 21.0370
" />
<path d="M19.0739 21.0370
L19.1692 20.9894
" />
<path d="M19.1692 20.9894
L19.3596 20.9894
" />
<path d="M19.3596 20.9894
L19.4549 21.0370
" />
<path d="M19.9311 21.6561
L19.9311 20.6561
" />
<path d="M19.9311 21.1323
L20.5025 21.1323
" />
<path d="M20.5025 21.6561
L20.5025 20.6561
" />
<path d="M21.1215 21.6561
L21.0263 21.6084
" />
<path d="M21.0263 21.6084
L20.9787 21.5608
" />
<path d="M20.9787 21.5608
L20.9311 21.4656
" />
<path d="M20.9311 21.4656
L20.9311 21.1799
" />
<path d="M20.9311 21.1799
L20.9787 21.0846
" />
<path d="M20.9787 21.0846
L21.0263 21.0370
" />
<path d="M21.0263 21.0370
L21.1215 20.9894
" />
<path d="M21.1215 20.9894
L21.2644 20.9894
" />
<path d="M21.2644 20.9894
L21.3596 21.0370
" />
<path d="M21.3596 21.0370
L21.4073 21.0846
" />
<path d="M21.4073 21.0846
L21.4549 21.1799
" />
<path d="M21.4549 21.1799
L21.4549 21.4656
" />
<path d="M21.4549 21.4656
L21.4073 21.5608
" />
<path d="M21.4073 21.5608
L21.3596 21.6084
" />
<path d="M21.3596 21.6084
L21.2644 21.6561
" />
<path d="M21.2644 21.6561
L21.1215 21.6561
" />
<path d="M22.0263 21.6561
L21.9311 21.6084
" />
<path d="M21.9311 21.6084
L21.8834 21.5132
" />
<path d="M21.8834 21.5132
L21.8834 20.6561
" />
<path d="M22.7882 21.6084
L22.6930 21.6561
" />
<path d="M22.6930 21.6561
L22.5025 21.6561
" />
<path d="M22.5025 21.6561
L22.4073 21.6084
" />
<path d="M22.4073 21.6084
L22.3596 21.5132
" />
<path d="M22.3596 21.5132
L22.3596 21.1323
" />
<path d="M22.3596 21.1323
L22.4073 21.0370
" />
<path d="M22.4073 21.0370
L22.5025 20.9894
" />
<path d="M22.5025 20.9894
L22.6930 20.9894
" />
<path d="M22.6930 20.9894
L22.7882 21.0370
" />
<path d="M22.7882 21.0370
L22.8358 21.1323
" />
<path d="M22.8358 21.1323
L22.8358 21.2275
" />
<path d="M22.8358 21.2275
L22.3596 21.3227
" />
</g><text x="12.0025" y="18.5012"
textLength="22.0595" font-size="1.3333" lengthAdjust="spacingAndGlyphs"
text-anchor="middle" opacity="0" stroke-opacity="0">HYBEC_HBL-273_G4_12V20W</text>
<g class="stroked-text"><desc>HYBEC_HBL-273_G4_12V20W</desc>
<path d="M1.3358 18.4561
L1.3358 17.4561
" />
<path d="M1.3358 17.9323
L1.9073 17.9323
" />
<path d="M1.9073 18.4561
L1.9073 17.4561
" />
<path d="M2.5739 17.9799
L2.5739 18.4561
" />
<path d="M2.2406 17.4561
L2.5739 17.9799
" />
<path d="M2.5739 17.9799
L2.9073 17.4561
" />
<path d="M3.5739 17.9323
L3.7168 17.9799
" />
<path d="M3.7168 17.9799
L3.7644 18.0275
" />
<path d="M3.7644 18.0275
L3.8120 18.1227
" />
<path d="M3.8120 18.1227
L3.8120 18.2656
" />
<path d="M3.8120 18.2656
L3.7644 18.3608
" />
<path d="M3.7644 18.3608
L3.7168 18.4084
" />
<path d="M3.7168 18.4084
L3.6215 18.4561
" />
<path d="M3.6215 18.4561
L3.2406 18.4561
" />
<path d="M3.2406 18.4561
L3.2406 17.4561
" />
<path d="M3.2406 17.4561
L3.5739 17.4561
" />
<path d="M3.5739 17.4561
L3.6692 17.5037
" />
<path d="M3.6692 17.5037
L3.7168 17.5513
" />
<path d="M3.7168 17.5513
L3.7644 17.6465
" />
<path d="M3.7644 17.6465
L3.7644 17.7418
" />
<path d="M3.7644 17.7418
L3.7168 17.8370
" />
<path d="M3.7168 17.8370
L3.6692 17.8846
" />
<path d="M3.6692 17.8846
L3.5739 17.9323
" />
<path d="M3.5739 17.9323
L3.2406 17.9323
" />
<path d="M4.2406 17.9323
L4.5739 17.9323
" />
<path d="M4.7168 18.4561
L4.2406 18.4561
" />
<path d="M4.2406 18.4561
L4.2406 17.4561
" />
<path d="M4.2406 17.4561
L4.7168 17.4561
" />
<path d="M5.7168 18.3608
L5.6692 18.4084
" />
<path d="M5.6692 18.4084
L5.5263 18.4561
" />
<path d="M5.5263 18.4561
L5.4311 18.4561
" />
<path d="M5.4311 18.4561
L5.2882 18.4084
" />
<path d="M5.2882 18.4084
L5.1930 18.3132
" />
<path d="M5.1930 18.3132
L5.1453 18.2180
" />
<path d="M5.1453 18.2180
L5.0977 18.0275
" />
<path d="M5.0977 18.0275
L5.0977 17.8846
" />
<path d="M5.0977 17.8846
L5.1453 17.6942
" />
<path d="M5.1453 17.6942
L5.1930 17.5989
" />
<path d="M5.1930 17.5989
L5.2882 17.5037
" />
<path d="M5.2882 17.5037
L5.4311 17.4561
" />
<path d="M5.4311 17.4561
L5.5263 17.4561
" />
<path d="M5.5263 17.4561
L5.6692 17.5037
" />
<path d="M5.6692 17.5037
L5.7168 17.5513
" />
<path d="M5.9073 18.5513
L6.6692 18.5513
" />
<path d="M6.9073 18.4561
L6.9073 17.4561
" />
<path d="M6.9073 17.9323
L7.4787 17.9323
" />
<path d="M7.4787 18.4561
L7.4787 17.4561
" />
<path d="M8.2882 17.9323
L8.4311 17.9799
" />
<path d="M8.4311 17.9799
L8.4787 18.0275
" />
<path d="M8.4787 18.0275
L8.5263 18.1227
" />
<path d="M8.5263 18.1227
L8.5263 18.2656
" />
<path d="M8.5263 18.2656
L8.4787 18.3608
" />
<path d="M8.4787 18.3608
L8.4311 18.4084
" />
<path d="M8.4311 18.4084
L8.3358 18.4561
" />
<path d="M8.3358 18.4561
L7.9549 18.4561
" />
<path d="M7.9549 18.4561
L7.9549 17.4561
" />
<path d="M7.9549 17.4561
L8.2882 17.4561
" />
<path d="M8.2882 17.4561
L8.3834 17.5037
" />
<path d="M8.3834 17.5037
L8.4311 17.5513
" />
<path d="M8.4311 17.5513
L8.4787 17.6465
" />
<path d="M8.4787 17.6465
L8.4787 17.7418
" />
<path d="M8.4787 17.7418
L8.4311 17.8370
" />
<path d="M8.4311 17.8370
L8.3834 17.8846
" />
<path d="M8.3834 17.8846
L8.2882 17.9323
" />
<path d="M8.2882 17.9323
L7.9549 17.9323
" />
<path d="M9.4311 18.4561
L8.9549 18.4561
" />
<path d="M8.9549 18.4561
L8.9549 17.4561
" />
<path d="M9.7644 18.0751
L10.5263 18.0751
" />
<path d="M10.9549 17.5513
L11.0025 17.5037
" />
<path d="M11.0025 17.5037
L11.0977 17.4561
" />
<path d="M11.0977 17.4561
L11.3358 17.4561
" />
<path d="M11.3358 17.4561
L11.4311 17.5037
" />
<path d="M11.4311 17.5037
L11.4787 17.5513
" />
<path d="M11.4787 17.5513
L11.5263 17.6465
" />
<path d="M11.5263 17.6465
L11.5263 17.7418
" />
<path d="M11.5263 17.7418
L11.4787 17.8846
" />
<path d="M11.4787 17.8846
L10.9073 18.4561
" />
<path d="M10.9073 18.4561
L11.5263 18.4561
" />
<path d="M11.8596 17.4561
L12.5263 17.4561
" />
<path d="M12.5263 17.4561
L12.0977 18.4561
" />
<path d="M12.8120 17.4561
L13.4311 17.4561
" />
<path d="M13.4311 17.4561
L13.0977 17.8370
" />
<path d="M13.0977 17.8370
L13.2406 17.8370
" />
<path d="M13.2406 17.8370
L13.3358 17.8846
" />
<path d="M13.3358 17.8846
L13.3834 17.9323
" />
<path d="M13.3834 17.9323
L13.4311 18.0275
" />
<path d="M13.4311 18.0275
L13.4311 18.2656
" />
<path d="M13.4311 18.2656
L13.3834 18.3608
" />
<path d="M13.3834 18.3608
L13.3358 18.4084
" />
<path d="M13.3358 18.4084
L13.2406 18.4561
" />
<path d="M13.2406 18.4561
L12.9549 18.4561
" />
<path d="M12.9549 18.4561
L12.8596 18.4084
" />
<path d="M12.8596 18.4084
L12.8120 18.3608
" />
<path d="M13.6215 18.5513
L14.3834 18.5513
" />
<path d="M15.1453 17.5037
L15.0501 17.4561
" />
<path d="M15.0501 17.4561
L14.9073 17.4561
" />
<path d="M14.9073 17.4561
L14.7644 17.5037
" />
<path d="M14.7644 17.5037
L14.6692 17.5989
" />
<path d="M14.6692 17.5989
L14.6215 17.6942
" />
<path d="M14.6215 17.6942
L14.5739 17.8846
" />
<path d="M14.5739 17.8846
L14.5739 18.0275
" />
<path d="M14.5739 18.0275
L14.6215 18.2180
" />
<path d="M14.6215 18.2180
L14.6692 18.3132
" />
<path d="M14.6692 18.3132
L14.7644 18.4084
" />
<path d="M14.7644 18.4084
L14.9073 18.4561
" />
<path d="M14.9073 18.4561
L15.0025 18.4561
" />
<path d="M15.0025 18.4561
L15.1453 18.4084
" />
<path d="M15.1453 18.4084
L15.1930 18.3608
" />
<path d="M15.1930 18.3608
L15.1930 18.0275
" />
<path d="M15.1930 18.0275
L15.0025 18.0275
" />
<path d="M16.0501 17.7894
L16.0501 18.4561
" />
<path d="M15.8120 17.4084
L15.5739 18.1227
" />
<path d="M15.5739 18.1227
L16.1930 18.1227
" />
<path d="M16.3358 18.5513
L17.0977 18.5513
" />
<path d="M17.8596 18.4561
L17.2882 18.4561
" />
<path d="M17.5739 18.4561
L17.5739 17.4561
" />
<path d="M17.5739 17.4561
L17.4787 17.5989
" />
<path d="M17.4787 17.5989
L17.3834 17.6942
" />
<path d="M17.3834 17.6942
L17.2882 17.7418
" />
<path d="M18.2406 17.5513
L18.2882 17.5037
" />
<path d="M18.2882 17.5037
L18.3834 17.4561
" />
<path d="M18.3834 17.4561
L18.6215 17.4561
" />
<path d="M18.6215 17.4561
L18.7168 17.5037
" />
<path d="M18.7168 17.5037
L18.7644 17.5513
" />
<path d="M18.7644 17.5513
L18.8120 17.6465
" />
<path d="M18.8120 17.6465
L18.8120 17.7418
" />
<path d="M18.8120 17.7418
L18.7644 17.8846
" />
<path d="M18.7644 17.8846
L18.1930 18.4561
" />
<path d="M18.1930 18.4561
L18.8120 18.4561
" />
<path d="M19.0977 17.4561
L19.4311 18.4561
" />
<path d="M19.4311 18.4561
L19.7644 17.4561
" />
<path d="M20.0501 17.5513
L20.0977 17.5037
" />
<path d="M20.0977 17.5037
L20.1930 17.4561
" />
<path d="M20.1930 17.4561
L20.4311 17.4561
" />
<path d="M20.4311 17.4561
L20.5263 17.5037
" />
<path d="M20.5263 17.5037
L20.5739 17.5513
" />
<path d="M20.5739 17.5513
L20.6215 17.6465
" />
<path d="M20.6215 17.6465
L20.6215 17.7418
" />
<path d="M20.6215 17.7418
L20.5739 17.8846
" />
<path d="M20.5739 17.8846
L20.0025 18.4561
" />
<path d="M20.0025 18.4561
L20.6215 18.4561
" />
<path d="M21.2406 17.4561
L21.3358 17.4561
" />
<path d="M21.3358 17.4561
L21.4311 17.5037
" />
<path d="M21.4311 17.5037
L21.4787 17.5513
" />
<path d="M21.4787 17.5513
L21.5263 17.6465
" />
<path d="M21.5263 17.6465
L21.5739 17.8370
" />
<path d="M21.5739 17.8370
L21.5739 18.0751
" />
<path d="M21.5739 18.0751
L21.5263 18.2656
" />
<path d="M21.5263 18.2656
L21.4787 18.3608
" />
<path d="M21.4787 18.3608
L21.4311 18.4084
" />
<path d="M21.4311 18.4084
L21.3358 18.4561
" />
<path d="M21.3358 18.4561
L21.2406 18.4561
" />
<path d="M21.2406 18.4561
L21.1454 18.4084
" />
<path d="M21.1454 18.4084
L21.0977 18.3608
" />
<path d="M21.0977 18.3608
L21.0501 18.2656
" />
<path d="M21.0501 18.2656
L21.0025 18.0751
" />
<path d="M21.0025 18.0751
L21.0025 17.8370
" />
<path d="M21.0025 17.8370
L21.0501 17.6465
" />
<path d="M21.0501 17.6465
L21.0977 17.5513
" />
<path d="M21.0977 17.5513
L21.1454 17.5037
" />
<path d="M21.1454 17.5037
L21.2406 17.4561
" />
<path d="M21.9073 17.4561
L22.1454 18.4561
" />
<path d="M22.1454 18.4561
L22.3358 17.7418
" />
<path d="M22.3358 17.7418
L22.5263 18.4561
" />
<path d="M22.5263 18.4561
L22.7644 17.4561
" />
</g></g>
<g style="fill:none;
stroke:#AFAFAF; stroke-width:0.1200; stroke-opacity:1;
stroke-linecap:round; stroke-linejoin:round;">
<text x="12.0025" y="5.3012"
textLength="12.5048" font-size="1.0667" lengthAdjust="spacingAndGlyphs"
text-anchor="middle" opacity="0" stroke-opacity="0">20 W lamp runs hot</text>
<g class="stroked-text"><desc>20 W lamp runs hot</desc>
<path d="M6.0025 4.5413
L6.0406 4.5032
" />
<path d="M6.0406 4.5032
L6.1168 4.4651
" />
<path d="M6.1168 4.4651
L6.3073 4.4651
" />
<path d="M6.3073 4.4651
L6.3834 4.5032
" />
<path d="M6.3834 4.5032
L6.4215 4.5413
" />
<path d="M6.4215 4.5413
L6.4596 4.6175
" />
<path d="M6.4596 4.6175
L6.4596 4.6937
" />
<path d="M6.4596 4.6937
L6.4215 4.8080
" />
<path d="M6.4215 4.8080
L5.9644 5.2651
" />
<path d="M5.9644 5.2651
L6.4596 5.2651
" />
<path d="M6.9549 4.4651
L7.0311 4.4651
" />
<path d="M7.0311 4.4651
L7.1073 4.5032
" />
<path d="M7.1073 4.5032
L7.1453 4.5413
" />
<path d="M7.1453 4.5413
L7.1834 4.6175
" />
<path d="M7.1834 4.6175
L7.2215 4.7699
" />
<path d="M7.2215 4.7699
L7.2215 4.9603
" />
<path d="M7.2215 4.9603
L7.1834 5.1127
" />
<path d="M7.1834 5.1127
L7.1453 5.1889
" />
<path d="M7.1453 5.1889
L7.1073 5.2270
" />
<path d="M7.1073 5.2270
L7.0311 5.2651
" />
<path d="M7.0311 5.2651
L6.9549 5.2651
" />
<path d="M6.9549 5.2651
L6.8787 5.2270
" />
<path d="M6.8787 5.2270
L6.8406 5.1889
" />
<path d="M6.8406 5.1889
L6.8025 5.1127
" />
<path d="M6.8025 5.1127
L6.7644 4.9603
" />
<path d="M6.7644 4.9603
L6.7644 4.7699
" />
<path d="M6.7644 4.7699
L6.8025 4.6175
" />
<path d="M6.8025 4.6175
L6.8406 4.5413
" />
<path d="M6.8406 4.5413
L6.8787 4.5032
" />
<path d="M6.8787 4.5032
L6.9549 4.4651
" />
<path d="M8.0977 4.4651
L8.2882 5.2651
" />
<path d="M8.2882 5.2651
L8.4406 4.6937
" />
<path d="M8.4406 4.6937
L8.5930 5.2651
" />
<path d="M8.5930 5.2651
L8.7834 4.4651
" />
<path d="M9.8120 5.2651
L9.7358 5.2270
" />
<path d="M9.7358 5.2270
L9.6977 5.1508
" />
<path d="M9.6977 5.1508
L9.6977 4.4651
" />
<path d="M10.4596 5.2651
L10.4596 4.8461
" />
<path d="M10.4596 4.8461
L10.4215 4.7699
" />
<path d="M10.4215 4.7699
L10.3453 4.7318
" />
<path d="M10.3453 4.7318
L10.1930 4.7318
" />
<path d="M10.1930 4.7318
L10.1168 4.7699
" />
<path d="M10.4596 5.2270
L10.3834 5.2651
" />
<path d="M10.3834 5.2651
L10.1930 5.2651
" />
<path d="M10.1930 5.2651
L10.1168 5.2270
" />
<path d="M10.1168 5.2270
L10.0787 5.1508
" />
<path d="M10.0787 5.1508
L10.0787 5.0746
" />
<path d="M10.0787 5.0746
L10.1168 4.9984
" />
<path d="M10.1168 4.9984
L10.1930 4.9603
" />
<path d="M10.1930 4.9603
L10.3834 4.9603
" />
<path d="M10.3834 4.9603
L10.4596 4.9222
" />
<path d="M10.8406 5.2651
L10.8406 4.7318
" />
<path d="M10.8406 4.8080
L10.8787 4.7699
" />
<path d="M10.8787 4.7699
L10.9549 4.7318
" />
<path d="M10.9549 4.7318
L11.0692 4.7318
" />
<path d="M11.0692 4.7318
L11.1453 4.7699
" />
<path d="M11.1453 4.7699
L11.1834 4.8461
" />
<path d="M11.1834 4.8461
L11.1834 5.2651
" />
<path d="M11.1834 4.8461
L11.2215 4.7699
" />
<path d="M11.2215 4.7699
L11.2977 4.7318
" />
<path d="M11.2977 4.7318
L11.4120 4.7318
" />
<path d="M11.4120 4.7318
L11.4882 4.7699
" />
<path d="M11.4882 4.7699
L11.5263 4.8461
" />
<path d="M11.5263 4.8461
L11.5263 5.2651
" />
<path d="M11.9073 4.7318
L11.9073 5.5318
" />
<path d="M11.9073 4.7699
L11.9834 4.7318
" />
<path d="M11.9834 4.7318
L12.1358 4.7318
" />
<path d="M12.1358 4.7318
L12.2120 4.7699
" />
<path d="M12.2120 4.7699
L12.2501 4.8080
" />
<path d="M12.2501 4.8080
L12.2882 4.8841
" />
<path d="M12.2882 4.8841
L12.2882 5.1127
" />
<path d="M12.2882 5.1127
L12.2501 5.1889
" />
<path d="M12.2501 5.1889
L12.2120 5.2270
" />
<path d="M12.2120 5.2270
L12.1358 5.2651
" />
<path d="M12.1358 5.2651
L11.9834 5.2651
" />
<path d="M11.9834 5.2651
L11.9073 5.2270
" />
<path d="M13.2406 5.2651
L13.2406 4.7318
" />
<path d="M13.2406 4.8841
L13.2787 4.8080
" />
<path d="M13.2787 4.8080
L13.3168 4.7699
" />
<path d="M13.3168 4.7699
L13.3930 4.7318
" />
<path d="M13.3930 4.7318
L13.4692 4.7318
" />
<path d="M14.0787 4.7318
L14.0787 5.2651
" />
<path d="M13.7358 4.7318
L13.7358 5.1508
" />
<path d="M13.7358 5.1508
L13.7739 5.2270
" />
<path d="M13.7739 5.2270
L13.8501 5.2651
" />
<path d="M13.8501 5.2651
L13.9644 5.2651
" />
<path d="M13.9644 5.2651
L14.0406 5.2270
" />
<path d="M14.0406 5.2270
L14.0787 5.1889
" />
<path d="M14.4596 4.7318
L14.4596 5.2651
" />
<path d="M14.4596 4.8080
L14.4977 4.7699
" />
<path d="M14.4977 4.7699
L14.5739 4.7318
" />
<path d="M14.5739 4.7318
L14.6882 4.7318
" />
<path d="M14.6882 4.7318
L14.7644 4.7699
" />
<path d="M14.7644 4.7699
L14.8025 4.8461
" />
<path d="M14.8025 4.8461
L14.8025 5.2651
" />
<path d="M15.1454 5.2270
L15.2215 5.2651
" />
<path d="M15.2215 5.2651
L15.3739 5.2651
" />
<path d="M15.3739 5.2651
L15.4501 5.2270
" />
<path d="M15.4501 5.2270
L15.4882 5.1508
" />
<path d="M15.4882 5.1508
L15.4882 5.1127
" />
<path d="M15.4882 5.1127
L15.4501 5.0365
" />
<path d="M15.4501 5.0365
L15.3739 4.9984
" />
<path d="M15.3739 4.9984
L15.2596 4.9984
" />
<path d="M15.2596 4.9984
L15.1834 4.9603
" />
<path d="M15.1834 4.9603
L15.1454 4.8841
" />
<path d="M15.1454 4.8841
L15.1454 4.8461
" />
<path d="M15.1454 4.8461
L15.1834 4.7699
" />
<path d="M15.1834 4.7699
L15.2596 4.7318
" />
<path d="M15.2596 4.7318
L15.3739 4.7318
" />
<path d="M15.3739 4.7318
L15.4501 4.7699
" />
<path d="M16.4406 5.2651
L16.4406 4.4651
" />
<path d="M16.7834 5.2651
L16.7834 4.8461
" />
<path d="M16.7834 4.8461
L16.7454 4.7699
" />
<path d="M16.7454 4.7699
L16.6692 4.7318
" />
<path d="M16.6692 4.7318
L16.5549 4.7318
" />
<path d="M16.5549 4.7318
L16.4787 4.7699
" />
<path d="M16.4787 4.7699
L16.4406 4.8080
" />
<path d="M17.2787 5.2651
L17.2025 5.2270
" />
<path d="M17.2025 5.2270
L17.1644 5.1889
" />
<path d="M17.1644 5.1889
L17.1263 5.1127
" />
<path d="M17.1263 5.1127
L17.1263 4.8841
" />
<path d="M17.1263 4.8841
L17.1644 4.8080
" />
<path d="M17.1644 4.8080
L17.2025 4.7699
" />
<path d="M17.2025 4.7699
L17.2787 4.7318
" />
<path d="M17.2787 4.7318
L17.3930 4.7318
" />
<path d="M17.3930 4.7318
L17.4692 4.7699
" />
<path d="M17.4692 4.7699
L17.5073 4.8080
" />
<path d="M17.5073 4.8080
L17.5454 4.8841
" />
<path d="M17.5454 4.8841
L17.5454 5.1127
" />
<path d="M17.5454 5.1127
L17.5073 5.1889
" />
<path d="M17.5073 5.1889
L17.4692 5.2270
" />
<path d="M17.4692 5.2270
L17.3930 5.2651
" />
<path d="M17.3930 5.2651
L17.2787 5.2651
" />
<path d="M17.7739 4.7318
L18.0787 4.7318
" />
<path d="M17.8882 4.4651
L17.8882 5.1508
" />
<path d="M17.8882 5.1508
L17.9263 5.2270
" />
<path d="M17.9263 5.2270
L18.0025 5.2651
" />
<path d="M18.0025 5.2651
L18.0787 5.2651
" />
</g><text x="12.0025" y="19.5012"
textLength="11.3619" font-size="1.0667" lengthAdjust="spacingAndGlyphs"
text-anchor="middle" opacity="0" stroke-opacity="0">4.00 mm G4 pitch</text>
<g class="stroked-text"><desc>4.00 mm G4 pitch</desc>
<path d="M6.9549 18.9318
L6.9549 19.4651
" />
<path d="M6.7644 18.6270
L6.5739 19.1984
" />
<path d="M6.5739 19.1984
L7.0692 19.1984
" />
<path d="M7.3739 19.3889
L7.4120 19.4270
" />
<path d="M7.4120 19.4270
L7.3739 19.4651
" />
<path d="M7.3739 19.4651
L7.3358 19.4270
" />
<path d="M7.3358 19.4270
L7.3739 19.3889
" />
<path d="M7.3739 19.3889
L7.3739 19.4651
" />
<path d="M7.9073 18.6651
L7.9834 18.6651
" />
<path d="M7.9834 18.6651
L8.0596 18.7032
" />
<path d="M8.0596 18.7032
L8.0977 18.7413
" />
<path d="M8.0977 18.7413
L8.1358 18.8175
" />
<path d="M8.1358 18.8175
L8.1739 18.9699
" />
<path d="M8.1739 18.9699
L8.1739 19.1603
" />
<path d="M8.1739 19.1603
L8.1358 19.3127
" />
<path d="M8.1358 19.3127
L8.0977 19.3889
" />
<path d="M8.0977 19.3889
L8.0596 19.4270
" />
<path d="M8.0596 19.4270
L7.9834 19.4651
" />
<path d="M7.9834 19.4651
L7.9073 19.4651
" />
<path d="M7.9073 19.4651
L7.8311 19.4270
" />
<path d="M7.8311 19.4270
L7.7930 19.3889
" />
<path d="M7.7930 19.3889
L7.7549 19.3127
" />
<path d="M7.7549 19.3127
L7.7168 19.1603
" />
<path d="M7.7168 19.1603
L7.7168 18.9699
" />
<path d="M7.7168 18.9699
L7.7549 18.8175
" />
<path d="M7.7549 18.8175
L7.7930 18.7413
" />
<path d="M7.7930 18.7413
L7.8311 18.7032
" />
<path d="M7.8311 18.7032
L7.9073 18.6651
" />
<path d="M8.6692 18.6651
L8.7453 18.6651
" />
<path d="M8.7453 18.6651
L8.8215 18.7032
" />
<path d="M8.8215 18.7032
L8.8596 18.7413
" />
<path d="M8.8596 18.7413
L8.8977 18.8175
" />
<path d="M8.8977 18.8175
L8.9358 18.9699
" />
<path d="M8.9358 18.9699
L8.9358 19.1603
" />
<path d="M8.9358 19.1603
L8.8977 19.3127
" />
<path d="M8.8977 19.3127
L8.8596 19.3889
" />
<path d="M8.8596 19.3889
L8.8215 19.4270
" />
<path d="M8.8215 19.4270
L8.7453 19.4651
" />
<path d="M8.7453 19.4651
L8.6692 19.4651
" />
<path d="M8.6692 19.4651
L8.5930 19.4270
" />
<path d="M8.5930 19.4270
L8.5549 19.3889
" />
<path d="M8.5549 19.3889
L8.5168 19.3127
" />
<path d="M8.5168 19.3127
L8.4787 19.1603
" />
<path d="M8.4787 19.1603
L8.4787 18.9699
" />
<path d="M8.4787 18.9699
L8.5168 18.8175
" />
<path d="M8.5168 18.8175
L8.5549 18.7413
" />
<path d="M8.5549 18.7413
L8.5930 18.7032
" />
<path d="M8.5930 18.7032
L8.6692 18.6651
" />
<path d="M9.8882 19.4651
L9.8882 18.9318
" />
<path d="M9.8882 19.0080
L9.9263 18.9699
" />
<path d="M9.9263 18.9699
L10.0025 18.9318
" />
<path d="M10.0025 18.9318
L10.1168 18.9318
" />
<path d="M10.1168 18.9318
L10.1930 18.9699
" />
<path d="M10.1930 18.9699
L10.2311 19.0461
" />
<path d="M10.2311 19.0461
L10.2311 19.4651
" />
<path d="M10.2311 19.0461
L10.2692 18.9699
" />
<path d="M10.2692 18.9699
L10.3453 18.9318
" />
<path d="M10.3453 18.9318
L10.4596 18.9318
" />
<path d="M10.4596 18.9318
L10.5358 18.9699
" />
<path d="M10.5358 18.9699
L10.5739 19.0461
" />
<path d="M10.5739 19.0461
L10.5739 19.4651
" />
<path d="M10.9549 19.4651
L10.9549 18.9318
" />
<path d="M10.9549 19.0080
L10.9930 18.9699
" />
<path d="M10.9930 18.9699
L11.0692 18.9318
" />
<path d="M11.0692 18.9318
L11.1834 18.9318
" />
<path d="M11.1834 18.9318
L11.2596 18.9699
" />
<path d="M11.2596 18.9699
L11.2977 19.0461
" />
<path d="M11.2977 19.0461
L11.2977 19.4651
" />
<path d="M11.2977 19.0461
L11.3358 18.9699
" />
<path d="M11.3358 18.9699
L11.4120 18.9318
" />
<path d="M11.4120 18.9318
L11.5263 18.9318
" />
<path d="M11.5263 18.9318
L11.6025 18.9699
" />
<path d="M11.6025 18.9699
L11.6406 19.0461
" />
<path d="M11.6406 19.0461
L11.6406 19.4651
" />
<path d="M13.0501 18.7032
L12.9739 18.6651
" />
<path d="M12.9739 18.6651
L12.8596 18.6651
" />
<path d="M12.8596 18.6651
L12.7454 18.7032
" />
<path d="M12.7454 18.7032
L12.6692 18.7794
" />
<path d="M12.6692 18.7794
L12.6311 18.8556
" />
<path d="M12.6311 18.8556
L12.5930 19.0080
" />
<path d="M12.5930 19.0080
L12.5930 19.1222
" />
<path d="M12.5930 19.1222
L12.6311 19.2746
" />
<path d="M12.6311 19.2746
L12.6692 19.3508
" />
<path d="M12.6692 19.3508
L12.7454 19.4270
" />
<path d="M12.7454 19.4270
L12.8596 19.4651
" />
<path d="M12.8596 19.4651
L12.9358 19.4651
" />
<path d="M12.9358 19.4651
L13.0501 19.4270
" />
<path d="M13.0501 19.4270
L13.0882 19.3889
" />
<path d="M13.0882 19.3889
L13.0882 19.1222
" />
<path d="M13.0882 19.1222
L12.9358 19.1222
" />
<path d="M13.7739 18.9318
L13.7739 19.4651
" />
<path d="M13.5834 18.6270
L13.3930 19.1984
" />
<path d="M13.3930 19.1984
L13.8882 19.1984
" />
<path d="M14.8025 18.9318
L14.8025 19.7318
" />
<path d="M14.8025 18.9699
L14.8787 18.9318
" />
<path d="M14.8787 18.9318
L15.0311 18.9318
" />
<path d="M15.0311 18.9318
L15.1073 18.9699
" />
<path d="M15.1073 18.9699
L15.1454 19.0080
" />
<path d="M15.1454 19.0080
L15.1834 19.0841
" />
<path d="M15.1834 19.0841
L15.1834 19.3127
" />
<path d="M15.1834 19.3127
L15.1454 19.3889
" />
<path d="M15.1454 19.3889
L15.1073 19.4270
" />
<path d="M15.1073 19.4270
L15.0311 19.4651
" />
<path d="M15.0311 19.4651
L14.8787 19.4651
" />
<path d="M14.8787 19.4651
L14.8025 19.4270
" />
<path d="M15.5263 19.4651
L15.5263 18.9318
" />
<path d="M15.5263 18.6651
L15.4882 18.7032
" />
<path d="M15.4882 18.7032
L15.5263 18.7413
" />
<path d="M15.5263 18.7413
L15.5644 18.7032
" />
<path d="M15.5644 18.7032
L15.5263 18.6651
" />
<path d="M15.5263 18.6651
L15.5263 18.7413
" />
<path d="M15.7930 18.9318
L16.0977 18.9318
" />
<path d="M15.9073 18.6651
L15.9073 19.3508
" />
<path d="M15.9073 19.3508
L15.9454 19.4270
" />
<path d="M15.9454 19.4270
L16.0215 19.4651
" />
<path d="M16.0215 19.4651
L16.0977 19.4651
" />
<path d="M16.7073 19.4270
L16.6311 19.4651
" />
<path d="M16.6311 19.4651
L16.4787 19.4651
" />
<path d="M16.4787 19.4651
L16.4025 19.4270
" />
<path d="M16.4025 19.4270
L16.3644 19.3889
" />
<path d="M16.3644 19.3889
L16.3263 19.3127
" />
<path d="M16.3263 19.3127
L16.3263 19.0841
" />
<path d="M16.3263 19.0841
L16.3644 19.0080
" />
<path d="M16.3644 19.0080
L16.4025 18.9699
" />
<path d="M16.4025 18.9699
L16.4787 18.9318
" />
<path d="M16.4787 18.9318
L16.6311 18.9318
" />
<path d="M16.6311 18.9318
L16.7073 18.9699
" />
<path d="M17.0501 19.4651
L17.0501 18.6651
" />
<path d="M17.3930 19.4651
L17.3930 19.0461
" />
<path d="M17.3930 19.0461
L17.3549 18.9699
" />
<path d="M17.3549 18.9699
L17.2787 18.9318
" />
<path d="M17.2787 18.9318
L17.1644 18.9318
" />
<path d="M17.1644 18.9318
L17.0882 18.9699
" />
<path d="M17.0882 18.9699
L17.0501 19.0080
" />
</g></g>
<g style="fill:none;
stroke:#AFAFAF; stroke-width:0.1500; stroke-opacity:1;
stroke-linecap:round; stroke-linejoin:round;">
<text x="6.0025" y="9.7012"
textLength="10.2976" font-size="1.3333" lengthAdjust="spacingAndGlyphs"
text-anchor="middle" opacity="0" stroke-opacity="0">MountingHole</text>
<g class="stroked-text"><desc>MountingHole</desc>
<path d="M1.2168 9.6561
L1.2168 8.6561
" />
<path d="M1.2168 8.6561
L1.5501 9.3704
" />
<path d="M1.5501 9.3704
L1.8834 8.6561
" />
<path d="M1.8834 8.6561
L1.8834 9.6561
" />
<path d="M2.5025 9.6561
L2.4073 9.6084
" />
<path d="M2.4073 9.6084
L2.3596 9.5608
" />
<path d="M2.3596 9.5608
L2.3120 9.4656
" />
<path d="M2.3120 9.4656
L2.3120 9.1799
" />
<path d="M2.3120 9.1799
L2.3596 9.0846
" />
<path d="M2.3596 9.0846
L2.4073 9.0370
" />
<path d="M2.4073 9.0370
L2.5025 8.9894
" />
<path d="M2.5025 8.9894
L2.6453 8.9894
" />
<path d="M2.6453 8.9894
L2.7406 9.0370
" />
<path d="M2.7406 9.0370
L2.7882 9.0846
" />
<path d="M2.7882 9.0846
L2.8358 9.1799
" />
<path d="M2.8358 9.1799
L2.8358 9.4656
" />
<path d="M2.8358 9.4656
L2.7882 9.5608
" />
<path d="M2.7882 9.5608
L2.7406 9.6084
" />
<path d="M2.7406 9.6084
L2.6453 9.6561
" />
<path d="M2.6453 9.6561
L2.5025 9.6561
" />
<path d="M3.6930 8.9894
L3.6930 9.6561
" />
<path d="M3.2644 8.9894
L3.2644 9.5132
" />
<path d="M3.2644 9.5132
L3.3120 9.6084
" />
<path d="M3.3120 9.6084
L3.4073 9.6561
" />
<path d="M3.4073 9.6561
L3.5501 9.6561
" />
<path d="M3.5501 9.6561
L3.6453 9.6084
" />
<path d="M3.6453 9.6084
L3.6930 9.5608
" />
<path d="M4.1692 8.9894
L4.1692 9.6561
" />
<path d="M4.1692 9.0846
L4.2168 9.0370
" />
<path d="M4.2168 9.0370
L4.3120 8.9894
" />
<path d="M4.3120 8.9894
L4.4549 8.9894
" />
<path d="M4.4549 8.9894
L4.5501 9.0370
" />
<path d="M4.5501 9.0370
L4.5977 9.1323
" />
<path d="M4.5977 9.1323
L4.5977 9.6561
" />
<path d="M4.9311 8.9894
L5.3120 8.9894
" />
<path d="M5.0739 8.6561
L5.0739 9.5132
" />
<path d="M5.0739 9.5132
L5.1215 9.6084
" />
<path d="M5.1215 9.6084
L5.2168 9.6561
" />
<path d="M5.2168 9.6561
L5.3120 9.6561
" />
<path d="M5.6453 9.6561
L5.6453 8.9894
" />
<path d="M5.6453 8.6561
L5.5977 8.7037
" />
<path d="M5.5977 8.7037
L5.6453 8.7513
" />
<path d="M5.6453 8.7513
L5.6930 8.7037
" />
<path d="M5.6930 8.7037
L5.6453 8.6561
" />
<path d="M5.6453 8.6561
L5.6453 8.7513
" />
<path d="M6.1215 8.9894
L6.1215 9.6561
" />
<path d="M6.1215 9.0846
L6.1692 9.0370
" />
<path d="M6.1692 9.0370
L6.2644 8.9894
" />
<path d="M6.2644 8.9894
L6.4073 8.9894
" />
<path d="M6.4073 8.9894
L6.5025 9.0370
" />
<path d="M6.5025 9.0370
L6.5501 9.1323
" />
<path d="M6.5501 9.1323
L6.5501 9.6561
" />
<path d="M7.4549 8.9894
L7.4549 9.7989
" />
<path d="M7.4549 9.7989
L7.4073 9.8942
" />
<path d="M7.4073 9.8942
L7.3596 9.9418
" />
<path d="M7.3596 9.9418
L7.2644 9.9894
" />
<path d="M7.2644 9.9894
L7.1215 9.9894
" />
<path d="M7.1215 9.9894
L7.0263 9.9418
" />
<path d="M7.4549 9.6084
L7.3596 9.6561
" />
<path d="M7.3596 9.6561
L7.1692 9.6561
" />
<path d="M7.1692 9.6561
L7.0739 9.6084
" />
<path d="M7.0739 9.6084
L7.0263 9.5608
" />
<path d="M7.0263 9.5608
L6.9787 9.4656
" />
<path d="M6.9787 9.4656
L6.9787 9.1799
" />
<path d="M6.9787 9.1799
L7.0263 9.0846
" />
<path d="M7.0263 9.0846
L7.0739 9.0370
" />
<path d="M7.0739 9.0370
L7.1692 8.9894
" />
<path d="M7.1692 8.9894
L7.3596 8.9894
" />
<path d="M7.3596 8.9894
L7.4549 9.0370
" />
<path d="M7.9311 9.6561
L7.9311 8.6561
" />
<path d="M7.9311 9.1323
L8.5025 9.1323
" />
<path d="M8.5025 9.6561
L8.5025 8.6561
" />
<path d="M9.1215 9.6561
L9.0263 9.6084
" />
<path d="M9.0263 9.6084
L8.9787 9.5608
" />
<path d="M8.9787 9.5608
L8.9311 9.4656
" />
<path d="M8.9311 9.4656
L8.9311 9.1799
" />
<path d="M8.9311 9.1799
L8.9787 9.0846
" />
<path d="M8.9787 9.0846
L9.0263 9.0370
" />
<path d="M9.0263 9.0370
L9.1215 8.9894
" />
<path d="M9.1215 8.9894
L9.2644 8.9894
" />
<path d="M9.2644 8.9894
L9.3596 9.0370
" />
<path d="M9.3596 9.0370
L9.4073 9.0846
" />
<path d="M9.4073 9.0846
L9.4549 9.1799
" />
<path d="M9.4549 9.1799
L9.4549 9.4656
" />
<path d="M9.4549 9.4656
L9.4073 9.5608
" />
<path d="M9.4073 9.5608
L9.3596 9.6084
" />
<path d="M9.3596 9.6084
L9.2644 9.6561
" />
<path d="M9.2644 9.6561
L9.1215 9.6561
" />
<path d="M10.0263 9.6561
L9.9311 9.6084
" />
<path d="M9.9311 9.6084
L9.8834 9.5132
" />
<path d="M9.8834 9.5132
L9.8834 8.6561
" />
<path d="M10.7882 9.6084
L10.6930 9.6561
" />
<path d="M10.6930 9.6561
L10.5025 9.6561
" />
<path d="M10.5025 9.6561
L10.4073 9.6084
" />
<path d="M10.4073 9.6084
L10.3596 9.5132
" />
<path d="M10.3596 9.5132
L10.3596 9.1323
" />
<path d="M10.3596 9.1323
L10.4073 9.0370
" />
<path d="M10.4073 9.0370
L10.5025 8.9894
" />
<path d="M10.5025 8.9894
L10.6930 8.9894
" />
<path d="M10.6930 8.9894
L10.7882 9.0370
" />
<path d="M10.7882 9.0370
L10.8358 9.1323
" />
<path d="M10.8358 9.1323
L10.8358 9.2275
" />
<path d="M10.8358 9.2275
L10.3596 9.3227
" />
</g></g>
<g style="fill:none;
stroke:#D0D2CD; stroke-width:0.2000; stroke-opacity:1;
stroke-linecap:round; stroke-linejoin:round;">
<circle cx="12.0025" cy="12.0012" r="12.0000" />
</g>
<g style="fill:#000000; fill-opacity:1.0000; stroke:none;">
<circle cx="6.0025" cy="18.0012" r="1.1000" />
<circle cx="18.0025" cy="6.0012" r="1.1000" />
<circle cx="18.0025" cy="18.0012" r="1.1000" />
</g>
<g style="fill:#FFFFFF; fill-opacity:1.0000; stroke:none;">
<circle cx="12.0025" cy="10.0012" r="0.6000" />
</g>
<g style="fill:#FFFFFF; fill-opacity:1.0000; stroke:none;">
<circle cx="12.0025" cy="14.0012" r="0.6000" />
</g>
<g style="fill:#000000; fill-opacity:1.0000; stroke:none;">
<circle cx="6.0025" cy="6.0012" r="1.1000" />
</g>
<g style="fill:#FFFFFF; fill-opacity:1.0000; stroke:none;">
<circle cx="22.0025" cy="13.0012" r="0.5000" />
</g>
<g style="fill:#FFFFFF; fill-opacity:1.0000; stroke:none;">
<circle cx="22.0025" cy="10.4612" r="0.5000" />
</g>
</svg>
