<?xml version="1.0" standalone="no"?>
 <!DOCTYPE svg PUBLIC "-//W3C//DTD SVG 1.1//EN" 
 "http://www.w3.org/Graphics/SVG/1.1/DTD/svg11.dtd"> 
<svg
  xmlns:svg="http://www.w3.org/2000/svg"
  xmlns="http://www.w3.org/2000/svg"
  xmlns:xlink="http://www.w3.org/1999/xlink"
  xmlns:inkscape="http://www.inkscape.org/namespaces/inkscape"
  version="1.1"
  width="297.0022mm" height="210.0072mm" viewBox="0.0000 0.0000 297.0022 210.0072">
<title>SVG Image created as tungsten-5v-400ma-3mm-drl_map.svg date 2026-06-26T14:50:27 </title>
  <desc>Image generated by PCBNEW </desc>
<g style="fill:#000000; fill-opacity:1.0000;stroke:#000000; stroke-opacity:1.0000;
stroke-linecap:round; stroke-linejoin:round;"
 transform="translate(0 0) scale(1 1)">
</g>
<g style="fill:none; 
stroke:#000000; stroke-width:0.6000; stroke-opacity:1; 
stroke-linecap:round; stroke-linejoin:round;">
<circle cx="148.5011" cy="63.0022" r="36.0000" /> 
</g>
<g style="fill:none; 
stroke:#000000; stroke-width:0.3000; stroke-opacity:1; 
stroke-linecap:round; stroke-linejoin:round;">
<path d="M147.8261 60.8272
L149.1761 62.1772
" />
<path d="M149.1761 60.8272
L147.8261 62.1772
" />
<path d="M147.8261 63.8272
L149.1761 65.1772
" />
<path d="M149.1761 63.8272
L147.8261 65.1772
" />
<circle cx="178.5011" cy="58.3822" r="1.5000" /> 
<circle cx="178.5011" cy="66.0022" r="1.5000" /> 
</g>
<g style="fill:none; 
stroke:#000000; stroke-width:0.6600; stroke-opacity:1; 
stroke-linecap:round; stroke-linejoin:round;">
<path d="M130.5011 41.7022
L130.5011 48.3022
" />
<path d="M127.2011 45.0022
L133.8011 45.0022
" />
<path d="M130.5011 77.7022
L130.5011 84.3022
" />
<path d="M127.2011 81.0022
L133.8011 81.0022
" />
<path d="M166.5011 41.7022
L166.5011 48.3022
" />
<path d="M163.2011 45.0022
L169.8011 45.0022
" />
<path d="M166.5011 77.7022
L166.5011 84.3022
" />
<path d="M163.2011 81.0022
L169.8011 81.0022
" />
</g>
<g style="fill:none; 
stroke:#000000; stroke-width:0.2000; stroke-opacity:1; 
stroke-linecap:round; stroke-linejoin:round;">
<text x="114.2011" y="102.5022"
textLength="14.8667" font-size="2.6667" lengthAdjust="spacingAndGlyphs"
text-anchor="start" opacity="0" stroke-opacity="0">Drill Map:</text>
<g class="stroked-text"><desc>Drill Map:</desc>
<path d="M114.8089 102.4170
L114.8089 100.4170
" />
<path d="M114.8089 100.4170
L115.2851 100.4170
" />
<path d="M115.2851 100.4170
L115.5708 100.5122
" />
<path d="M115.5708 100.5122
L115.7612 100.7027
" />
<path d="M115.7612 100.7027
L115.8565 100.8932
" />
<path d="M115.8565 100.8932
L115.9517 101.2741
" />
<path d="M115.9517 101.2741
L115.9517 101.5599
" />
<path d="M115.9517 101.5599
L115.8565 101.9408
" />
<path d="M115.8565 101.9408
L115.7612 102.1313
" />
<path d="M115.7612 102.1313
L115.5708 102.3218
" />
<path d="M115.5708 102.3218
L115.2851 102.4170
" />
<path d="M115.2851 102.4170
L114.8089 102.4170
" />
<path d="M116.8089 102.4170
L116.8089 101.0837
" />
<path d="M116.8089 101.4646
L116.9041 101.2741
" />
<path d="M116.9041 101.2741
L116.9993 101.1789
" />
<path d="M116.9993 101.1789
L117.1898 101.0837
" />
<path d="M117.1898 101.0837
L117.3803 101.0837
" />
<path d="M118.0470 102.4170
L118.0470 101.0837
" />
<path d="M118.0470 100.4170
L117.9517 100.5122
" />
<path d="M117.9517 100.5122
L118.0470 100.6075
" />
<path d="M118.0470 100.6075
L118.1422 100.5122
" />
<path d="M118.1422 100.5122
L118.0470 100.4170
" />
<path d="M118.0470 100.4170
L118.0470 100.6075
" />
<path d="M119.2851 102.4170
L119.0946 102.3218
" />
<path d="M119.0946 102.3218
L118.9993 102.1313
" />
<path d="M118.9993 102.1313
L118.9993 100.4170
" />
<path d="M120.3327 102.4170
L120.1422 102.3218
" />
<path d="M120.1422 102.3218
L120.0470 102.1313
" />
<path d="M120.0470 102.1313
L120.0470 100.4170
" />
<path d="M122.6184 102.4170
L122.6184 100.4170
" />
<path d="M122.6184 100.4170
L123.2851 101.8456
" />
<path d="M123.2851 101.8456
L123.9517 100.4170
" />
<path d="M123.9517 100.4170
L123.9517 102.4170
" />
<path d="M125.7613 102.4170
L125.7613 101.3694
" />
<path d="M125.7613 101.3694
L125.6660 101.1789
" />
<path d="M125.6660 101.1789
L125.4755 101.0837
" />
<path d="M125.4755 101.0837
L125.0946 101.0837
" />
<path d="M125.0946 101.0837
L124.9041 101.1789
" />
<path d="M125.7613 102.3218
L125.5708 102.4170
" />
<path d="M125.5708 102.4170
L125.0946 102.4170
" />
<path d="M125.0946 102.4170
L124.9041 102.3218
" />
<path d="M124.9041 102.3218
L124.8089 102.1313
" />
<path d="M124.8089 102.1313
L124.8089 101.9408
" />
<path d="M124.8089 101.9408
L124.9041 101.7503
" />
<path d="M124.9041 101.7503
L125.0946 101.6551
" />
<path d="M125.0946 101.6551
L125.5708 101.6551
" />
<path d="M125.5708 101.6551
L125.7613 101.5599
" />
<path d="M126.7136 101.0837
L126.7136 103.0837
" />
<path d="M126.7136 101.1789
L126.9041 101.0837
" />
<path d="M126.9041 101.0837
L127.2851 101.0837
" />
<path d="M127.2851 101.0837
L127.4755 101.1789
" />
<path d="M127.4755 101.1789
L127.5708 101.2741
" />
<path d="M127.5708 101.2741
L127.6660 101.4646
" />
<path d="M127.6660 101.4646
L127.6660 102.0360
" />
<path d="M127.6660 102.0360
L127.5708 102.2265
" />
<path d="M127.5708 102.2265
L127.4755 102.3218
" />
<path d="M127.4755 102.3218
L127.2851 102.4170
" />
<path d="M127.2851 102.4170
L126.9041 102.4170
" />
<path d="M126.9041 102.4170
L126.7136 102.3218
" />
<path d="M128.5232 102.2265
L128.6184 102.3218
" />
<path d="M128.6184 102.3218
L128.5232 102.4170
" />
<path d="M128.5232 102.4170
L128.4279 102.3218
" />
<path d="M128.4279 102.3218
L128.5232 102.2265
" />
<path d="M128.5232 102.2265
L128.5232 102.4170
" />
<path d="M128.5232 101.1789
L128.6184 101.2741
" />
<path d="M128.6184 101.2741
L128.5232 101.3694
" />
<path d="M128.5232 101.3694
L128.4279 101.2741
" />
<path d="M128.4279 101.2741
L128.5232 101.1789
" />
<path d="M128.5232 101.1789
L128.5232 101.3694
" />
</g></g>
<g style="fill:none; 
stroke:#000000; stroke-width:0.3000; stroke-opacity:1; 
stroke-linecap:round; stroke-linejoin:round;">
<path d="M110.8511 105.0272
L112.2011 106.3772
" />
<path d="M112.2011 105.0272
L110.8511 106.3772
" />
</g>
<g style="fill:none; 
stroke:#000000; stroke-width:0.2000; stroke-opacity:1; 
stroke-linecap:round; stroke-linejoin:round;">
<text x="114.2011" y="106.7022"
textLength="46.8667" font-size="2.6667" lengthAdjust="spacingAndGlyphs"
text-anchor="start" opacity="0" stroke-opacity="0">0.450mm / 0.0177" (2 holes)</text>
<g class="stroked-text"><desc>0.450mm / 0.0177" (2 holes)</desc>
<path d="M115.1898 104.6170
L115.3803 104.6170
" />
<path d="M115.3803 104.6170
L115.5708 104.7122
" />
<path d="M115.5708 104.7122
L115.6660 104.8075
" />
<path d="M115.6660 104.8075
L115.7612 104.9980
" />
<path d="M115.7612 104.9980
L115.8565 105.3789
" />
<path d="M115.8565 105.3789
L115.8565 105.8551
" />
<path d="M115.8565 105.8551
L115.7612 106.2360
" />
<path d="M115.7612 106.2360
L115.6660 106.4265
" />
<path d="M115.6660 106.4265
L115.5708 106.5218
" />
<path d="M115.5708 106.5218
L115.3803 106.6170
" />
<path d="M115.3803 106.6170
L115.1898 106.6170
" />
<path d="M115.1898 106.6170
L114.9993 106.5218
" />
<path d="M114.9993 106.5218
L114.9041 106.4265
" />
<path d="M114.9041 106.4265
L114.8089 106.2360
" />
<path d="M114.8089 106.2360
L114.7136 105.8551
" />
<path d="M114.7136 105.8551
L114.7136 105.3789
" />
<path d="M114.7136 105.3789
L114.8089 104.9980
" />
<path d="M114.8089 104.9980
L114.9041 104.8075
" />
<path d="M114.9041 104.8075
L114.9993 104.7122
" />
<path d="M114.9993 104.7122
L115.1898 104.6170
" />
<path d="M116.7136 106.4265
L116.8089 106.5218
" />
<path d="M116.8089 106.5218
L116.7136 106.6170
" />
<path d="M116.7136 106.6170
L116.6184 106.5218
" />
<path d="M116.6184 106.5218
L116.7136 106.4265
" />
<path d="M116.7136 106.4265
L116.7136 106.6170
" />
<path d="M118.5232 105.2837
L118.5232 106.6170
" />
<path d="M118.0470 104.5218
L117.5708 105.9503
" />
<path d="M117.5708 105.9503
L118.8089 105.9503
" />
<path d="M120.5232 104.6170
L119.5708 104.6170
" />
<path d="M119.5708 104.6170
L119.4755 105.5694
" />
<path d="M119.4755 105.5694
L119.5708 105.4741
" />
<path d="M119.5708 105.4741
L119.7613 105.3789
" />
<path d="M119.7613 105.3789
L120.2374 105.3789
" />
<path d="M120.2374 105.3789
L120.4279 105.4741
" />
<path d="M120.4279 105.4741
L120.5232 105.5694
" />
<path d="M120.5232 105.5694
L120.6184 105.7599
" />
<path d="M120.6184 105.7599
L120.6184 106.2360
" />
<path d="M120.6184 106.2360
L120.5232 106.4265
" />
<path d="M120.5232 106.4265
L120.4279 106.5218
" />
<path d="M120.4279 106.5218
L120.2374 106.6170
" />
<path d="M120.2374 106.6170
L119.7613 106.6170
" />
<path d="M119.7613 106.6170
L119.5708 106.5218
" />
<path d="M119.5708 106.5218
L119.4755 106.4265
" />
<path d="M121.8565 104.6170
L122.0470 104.6170
" />
<path d="M122.0470 104.6170
L122.2374 104.7122
" />
<path d="M122.2374 104.7122
L122.3327 104.8075
" />
<path d="M122.3327 104.8075
L122.4279 104.9980
" />
<path d="M122.4279 104.9980
L122.5232 105.3789
" />
<path d="M122.5232 105.3789
L122.5232 105.8551
" />
<path d="M122.5232 105.8551
L122.4279 106.2360
" />
<path d="M122.4279 106.2360
L122.3327 106.4265
" />
<path d="M122.3327 106.4265
L122.2374 106.5218
" />
<path d="M122.2374 106.5218
L122.0470 106.6170
" />
<path d="M122.0470 106.6170
L121.8565 106.6170
" />
<path d="M121.8565 106.6170
L121.6660 106.5218
" />
<path d="M121.6660 106.5218
L121.5708 106.4265
" />
<path d="M121.5708 106.4265
L121.4755 106.2360
" />
<path d="M121.4755 106.2360
L121.3803 105.8551
" />
<path d="M121.3803 105.8551
L121.3803 105.3789
" />
<path d="M121.3803 105.3789
L121.4755 104.9980
" />
<path d="M121.4755 104.9980
L121.5708 104.8075
" />
<path d="M121.5708 104.8075
L121.6660 104.7122
" />
<path d="M121.6660 104.7122
L121.8565 104.6170
" />
<path d="M123.3803 106.6170
L123.3803 105.2837
" />
<path d="M123.3803 105.4741
L123.4755 105.3789
" />
<path d="M123.4755 105.3789
L123.6660 105.2837
" />
<path d="M123.6660 105.2837
L123.9517 105.2837
" />
<path d="M123.9517 105.2837
L124.1422 105.3789
" />
<path d="M124.1422 105.3789
L124.2374 105.5694
" />
<path d="M124.2374 105.5694
L124.2374 106.6170
" />
<path d="M124.2374 105.5694
L124.3327 105.3789
" />
<path d="M124.3327 105.3789
L124.5232 105.2837
" />
<path d="M124.5232 105.2837
L124.8089 105.2837
" />
<path d="M124.8089 105.2837
L124.9993 105.3789
" />
<path d="M124.9993 105.3789
L125.0946 105.5694
" />
<path d="M125.0946 105.5694
L125.0946 106.6170
" />
<path d="M126.0470 106.6170
L126.0470 105.2837
" />
<path d="M126.0470 105.4741
L126.1422 105.3789
" />
<path d="M126.1422 105.3789
L126.3327 105.2837
" />
<path d="M126.3327 105.2837
L126.6184 105.2837
" />
<path d="M126.6184 105.2837
L126.8089 105.3789
" />
<path d="M126.8089 105.3789
L126.9041 105.5694
" />
<path d="M126.9041 105.5694
L126.9041 106.6170
" />
<path d="M126.9041 105.5694
L126.9993 105.3789
" />
<path d="M126.9993 105.3789
L127.1898 105.2837
" />
<path d="M127.1898 105.2837
L127.4755 105.2837
" />
<path d="M127.4755 105.2837
L127.6660 105.3789
" />
<path d="M127.6660 105.3789
L127.7613 105.5694
" />
<path d="M127.7613 105.5694
L127.7613 106.6170
" />
<path d="M131.6660 104.5218
L129.9517 107.0932
" />
<path d="M134.2374 104.6170
L134.4279 104.6170
" />
<path d="M134.4279 104.6170
L134.6184 104.7122
" />
<path d="M134.6184 104.7122
L134.7136 104.8075
" />
<path d="M134.7136 104.8075
L134.8089 104.9980
" />
<path d="M134.8089 104.9980
L134.9041 105.3789
" />
<path d="M134.9041 105.3789
L134.9041 105.8551
" />
<path d="M134.9041 105.8551
L134.8089 106.2360
" />
<path d="M134.8089 106.2360
L134.7136 106.4265
" />
<path d="M134.7136 106.4265
L134.6184 106.5218
" />
<path d="M134.6184 106.5218
L134.4279 106.6170
" />
<path d="M134.4279 106.6170
L134.2374 106.6170
" />
<path d="M134.2374 106.6170
L134.0470 106.5218
" />
<path d="M134.0470 106.5218
L133.9517 106.4265
" />
<path d="M133.9517 106.4265
L133.8565 106.2360
" />
<path d="M133.8565 106.2360
L133.7613 105.8551
" />
<path d="M133.7613 105.8551
L133.7613 105.3789
" />
<path d="M133.7613 105.3789
L133.8565 104.9980
" />
<path d="M133.8565 104.9980
L133.9517 104.8075
" />
<path d="M133.9517 104.8075
L134.0470 104.7122
" />
<path d="M134.0470 104.7122
L134.2374 104.6170
" />
<path d="M135.7613 106.4265
L135.8565 106.5218
" />
<path d="M135.8565 106.5218
L135.7613 106.6170
" />
<path d="M135.7613 106.6170
L135.6660 106.5218
" />
<path d="M135.6660 106.5218
L135.7613 106.4265
" />
<path d="M135.7613 106.4265
L135.7613 106.6170
" />
<path d="M137.0946 104.6170
L137.2851 104.6170
" />
<path d="M137.2851 104.6170
L137.4755 104.7122
" />
<path d="M137.4755 104.7122
L137.5708 104.8075
" />
<path d="M137.5708 104.8075
L137.6660 104.9980
" />
<path d="M137.6660 104.9980
L137.7613 105.3789
" />
<path d="M137.7613 105.3789
L137.7613 105.8551
" />
<path d="M137.7613 105.8551
L137.6660 106.2360
" />
<path d="M137.6660 106.2360
L137.5708 106.4265
" />
<path d="M137.5708 106.4265
L137.4755 106.5218
" />
<path d="M137.4755 106.5218
L137.2851 106.6170
" />
<path d="M137.2851 106.6170
L137.0946 106.6170
" />
<path d="M137.0946 106.6170
L136.9041 106.5218
" />
<path d="M136.9041 106.5218
L136.8089 106.4265
" />
<path d="M136.8089 106.4265
L136.7136 106.2360
" />
<path d="M136.7136 106.2360
L136.6184 105.8551
" />
<path d="M136.6184 105.8551
L136.6184 105.3789
" />
<path d="M136.6184 105.3789
L136.7136 104.9980
" />
<path d="M136.7136 104.9980
L136.8089 104.8075
" />
<path d="M136.8089 104.8075
L136.9041 104.7122
" />
<path d="M136.9041 104.7122
L137.0946 104.6170
" />
<path d="M139.6660 106.6170
L138.5232 106.6170
" />
<path d="M139.0946 106.6170
L139.0946 104.6170
" />
<path d="M139.0946 104.6170
L138.9041 104.9027
" />
<path d="M138.9041 104.9027
L138.7136 105.0932
" />
<path d="M138.7136 105.0932
L138.5232 105.1884
" />
<path d="M140.3327 104.6170
L141.6660 104.6170
" />
<path d="M141.6660 104.6170
L140.8089 106.6170
" />
<path d="M142.2375 104.6170
L143.5708 104.6170
" />
<path d="M143.5708 104.6170
L142.7136 106.6170
" />
<path d="M144.2375 104.6170
L144.2375 104.9980
" />
<path d="M144.9994 104.6170
L144.9994 104.9980
" />
<path d="M147.9517 107.3789
L147.8565 107.2837
" />
<path d="M147.8565 107.2837
L147.6660 106.9980
" />
<path d="M147.6660 106.9980
L147.5708 106.8075
" />
<path d="M147.5708 106.8075
L147.4756 106.5218
" />
<path d="M147.4756 106.5218
L147.3803 106.0456
" />
<path d="M147.3803 106.0456
L147.3803 105.6646
" />
<path d="M147.3803 105.6646
L147.4756 105.1884
" />
<path d="M147.4756 105.1884
L147.5708 104.9027
" />
<path d="M147.5708 104.9027
L147.6660 104.7122
" />
<path d="M147.6660 104.7122
L147.8565 104.4265
" />
<path d="M147.8565 104.4265
L147.9517 104.3313
" />
<path d="M148.6184 104.8075
L148.7136 104.7122
" />
<path d="M148.7136 104.7122
L148.9041 104.6170
" />
<path d="M148.9041 104.6170
L149.3803 104.6170
" />
<path d="M149.3803 104.6170
L149.5708 104.7122
" />
<path d="M149.5708 104.7122
L149.6660 104.8075
" />
<path d="M149.6660 104.8075
L149.7613 104.9980
" />
<path d="M149.7613 104.9980
L149.7613 105.1884
" />
<path d="M149.7613 105.1884
L149.6660 105.4741
" />
<path d="M149.6660 105.4741
L148.5232 106.6170
" />
<path d="M148.5232 106.6170
L149.7613 106.6170
" />
<path d="M152.1422 106.6170
L152.1422 104.6170
" />
<path d="M152.9994 106.6170
L152.9994 105.5694
" />
<path d="M152.9994 105.5694
L152.9041 105.3789
" />
<path d="M152.9041 105.3789
L152.7137 105.2837
" />
<path d="M152.7137 105.2837
L152.4279 105.2837
" />
<path d="M152.4279 105.2837
L152.2375 105.3789
" />
<path d="M152.2375 105.3789
L152.1422 105.4741
" />
<path d="M154.2375 106.6170
L154.0470 106.5218
" />
<path d="M154.0470 106.5218
L153.9517 106.4265
" />
<path d="M153.9517 106.4265
L153.8565 106.2360
" />
<path d="M153.8565 106.2360
L153.8565 105.6646
" />
<path d="M153.8565 105.6646
L153.9517 105.4741
" />
<path d="M153.9517 105.4741
L154.0470 105.3789
" />
<path d="M154.0470 105.3789
L154.2375 105.2837
" />
<path d="M154.2375 105.2837
L154.5232 105.2837
" />
<path d="M154.5232 105.2837
L154.7137 105.3789
" />
<path d="M154.7137 105.3789
L154.8089 105.4741
" />
<path d="M154.8089 105.4741
L154.9041 105.6646
" />
<path d="M154.9041 105.6646
L154.9041 106.2360
" />
<path d="M154.9041 106.2360
L154.8089 106.4265
" />
<path d="M154.8089 106.4265
L154.7137 106.5218
" />
<path d="M154.7137 106.5218
L154.5232 106.6170
" />
<path d="M154.5232 106.6170
L154.2375 106.6170
" />
<path d="M156.0470 106.6170
L155.8565 106.5218
" />
<path d="M155.8565 106.5218
L155.7613 106.3313
" />
<path d="M155.7613 106.3313
L155.7613 104.6170
" />
<path d="M157.5708 106.5218
L157.3803 106.6170
" />
<path d="M157.3803 106.6170
L156.9994 106.6170
" />
<path d="M156.9994 106.6170
L156.8089 106.5218
" />
<path d="M156.8089 106.5218
L156.7137 106.3313
" />
<path d="M156.7137 106.3313
L156.7137 105.5694
" />
<path d="M156.7137 105.5694
L156.8089 105.3789
" />
<path d="M156.8089 105.3789
L156.9994 105.2837
" />
<path d="M156.9994 105.2837
L157.3803 105.2837
" />
<path d="M157.3803 105.2837
L157.5708 105.3789
" />
<path d="M157.5708 105.3789
L157.6660 105.5694
" />
<path d="M157.6660 105.5694
L157.6660 105.7599
" />
<path d="M157.6660 105.7599
L156.7137 105.9503
" />
<path d="M158.4279 106.5218
L158.6184 106.6170
" />
<path d="M158.6184 106.6170
L158.9994 106.6170
" />
<path d="M158.9994 106.6170
L159.1898 106.5218
" />
<path d="M159.1898 106.5218
L159.2851 106.3313
" />
<path d="M159.2851 106.3313
L159.2851 106.2360
" />
<path d="M159.2851 106.2360
L159.1898 106.0456
" />
<path d="M159.1898 106.0456
L158.9994 105.9503
" />
<path d="M158.9994 105.9503
L158.7137 105.9503
" />
<path d="M158.7137 105.9503
L158.5232 105.8551
" />
<path d="M158.5232 105.8551
L158.4279 105.6646
" />
<path d="M158.4279 105.6646
L158.4279 105.5694
" />
<path d="M158.4279 105.5694
L158.5232 105.3789
" />
<path d="M158.5232 105.3789
L158.7137 105.2837
" />
<path d="M158.7137 105.2837
L158.9994 105.2837
" />
<path d="M158.9994 105.2837
L159.1898 105.3789
" />
<path d="M159.9518 107.3789
L160.0470 107.2837
" />
<path d="M160.0470 107.2837
L160.2375 106.9980
" />
<path d="M160.2375 106.9980
L160.3327 106.8075
" />
<path d="M160.3327 106.8075
L160.4279 106.5218
" />
<path d="M160.4279 106.5218
L160.5232 106.0456
" />
<path d="M160.5232 106.0456
L160.5232 105.6646
" />
<path d="M160.5232 105.6646
L160.4279 105.1884
" />
<path d="M160.4279 105.1884
L160.3327 104.9027
" />
<path d="M160.3327 104.9027
L160.2375 104.7122
" />
<path d="M160.2375 104.7122
L160.0470 104.4265
" />
<path d="M160.0470 104.4265
L159.9518 104.3313
" />
</g></g>
<g style="fill:none; 
stroke:#000000; stroke-width:0.3000; stroke-opacity:1; 
stroke-linecap:round; stroke-linejoin:round;">
<circle cx="111.2011" cy="108.3422" r="1.0000" /> 
</g>
<g style="fill:none; 
stroke:#000000; stroke-width:0.2000; stroke-opacity:1; 
stroke-linecap:round; stroke-linejoin:round;">
<text x="114.2011" y="109.3422"
textLength="46.8667" font-size="2.6667" lengthAdjust="spacingAndGlyphs"
text-anchor="start" opacity="0" stroke-opacity="0">1.000mm / 0.0394" (2 holes)</text>
<g class="stroked-text"><desc>1.000mm / 0.0394" (2 holes)</desc>
<path d="M115.8565 109.2570
L114.7136 109.2570
" />
<path d="M115.2851 109.2570
L115.2851 107.2570
" />
<path d="M115.2851 107.2570
L115.0946 107.5427
" />
<path d="M115.0946 107.5427
L114.9041 107.7332
" />
<path d="M114.9041 107.7332
L114.7136 107.8284
" />
<path d="M116.7136 109.0665
L116.8089 109.1618
" />
<path d="M116.8089 109.1618
L116.7136 109.2570
" />
<path d="M116.7136 109.2570
L116.6184 109.1618
" />
<path d="M116.6184 109.1618
L116.7136 109.0665
" />
<path d="M116.7136 109.0665
L116.7136 109.2570
" />
<path d="M118.0470 107.2570
L118.2374 107.2570
" />
<path d="M118.2374 107.2570
L118.4279 107.3522
" />
<path d="M118.4279 107.3522
L118.5232 107.4475
" />
<path d="M118.5232 107.4475
L118.6184 107.6380
" />
<path d="M118.6184 107.6380
L118.7136 108.0189
" />
<path d="M118.7136 108.0189
L118.7136 108.4951
" />
<path d="M118.7136 108.4951
L118.6184 108.8760
" />
<path d="M118.6184 108.8760
L118.5232 109.0665
" />
<path d="M118.5232 109.0665
L118.4279 109.1618
" />
<path d="M118.4279 109.1618
L118.2374 109.2570
" />
<path d="M118.2374 109.2570
L118.0470 109.2570
" />
<path d="M118.0470 109.2570
L117.8565 109.1618
" />
<path d="M117.8565 109.1618
L117.7612 109.0665
" />
<path d="M117.7612 109.0665
L117.6660 108.8760
" />
<path d="M117.6660 108.8760
L117.5708 108.4951
" />
<path d="M117.5708 108.4951
L117.5708 108.0189
" />
<path d="M117.5708 108.0189
L117.6660 107.6380
" />
<path d="M117.6660 107.6380
L117.7612 107.4475
" />
<path d="M117.7612 107.4475
L117.8565 107.3522
" />
<path d="M117.8565 107.3522
L118.0470 107.2570
" />
<path d="M119.9517 107.2570
L120.1422 107.2570
" />
<path d="M120.1422 107.2570
L120.3327 107.3522
" />
<path d="M120.3327 107.3522
L120.4279 107.4475
" />
<path d="M120.4279 107.4475
L120.5232 107.6380
" />
<path d="M120.5232 107.6380
L120.6184 108.0189
" />
<path d="M120.6184 108.0189
L120.6184 108.4951
" />
<path d="M120.6184 108.4951
L120.5232 108.8760
" />
<path d="M120.5232 108.8760
L120.4279 109.0665
" />
<path d="M120.4279 109.0665
L120.3327 109.1618
" />
<path d="M120.3327 109.1618
L120.1422 109.2570
" />
<path d="M120.1422 109.2570
L119.9517 109.2570
" />
<path d="M119.9517 109.2570
L119.7613 109.1618
" />
<path d="M119.7613 109.1618
L119.6660 109.0665
" />
<path d="M119.6660 109.0665
L119.5708 108.8760
" />
<path d="M119.5708 108.8760
L119.4755 108.4951
" />
<path d="M119.4755 108.4951
L119.4755 108.0189
" />
<path d="M119.4755 108.0189
L119.5708 107.6380
" />
<path d="M119.5708 107.6380
L119.6660 107.4475
" />
<path d="M119.6660 107.4475
L119.7613 107.3522
" />
<path d="M119.7613 107.3522
L119.9517 107.2570
" />
<path d="M121.8565 107.2570
L122.0470 107.2570
" />
<path d="M122.0470 107.2570
L122.2374 107.3522
" />
<path d="M122.2374 107.3522
L122.3327 107.4475
" />
<path d="M122.3327 107.4475
L122.4279 107.6380
" />
<path d="M122.4279 107.6380
L122.5232 108.0189
" />
<path d="M122.5232 108.0189
L122.5232 108.4951
" />
<path d="M122.5232 108.4951
L122.4279 108.8760
" />
<path d="M122.4279 108.8760
L122.3327 109.0665
" />
<path d="M122.3327 109.0665
L122.2374 109.1618
" />
<path d="M122.2374 109.1618
L122.0470 109.2570
" />
<path d="M122.0470 109.2570
L121.8565 109.2570
" />
<path d="M121.8565 109.2570
L121.6660 109.1618
" />
<path d="M121.6660 109.1618
L121.5708 109.0665
" />
<path d="M121.5708 109.0665
L121.4755 108.8760
" />
<path d="M121.4755 108.8760
L121.3803 108.4951
" />
<path d="M121.3803 108.4951
L121.3803 108.0189
" />
<path d="M121.3803 108.0189
L121.4755 107.6380
" />
<path d="M121.4755 107.6380
L121.5708 107.4475
" />
<path d="M121.5708 107.4475
L121.6660 107.3522
" />
<path d="M121.6660 107.3522
L121.8565 107.2570
" />
<path d="M123.3803 109.2570
L123.3803 107.9237
" />
<path d="M123.3803 108.1141
L123.4755 108.0189
" />
<path d="M123.4755 108.0189
L123.6660 107.9237
" />
<path d="M123.6660 107.9237
L123.9517 107.9237
" />
<path d="M123.9517 107.9237
L124.1422 108.0189
" />
<path d="M124.1422 108.0189
L124.2374 108.2094
" />
<path d="M124.2374 108.2094
L124.2374 109.2570
" />
<path d="M124.2374 108.2094
L124.3327 108.0189
" />
<path d="M124.3327 108.0189
L124.5232 107.9237
" />
<path d="M124.5232 107.9237
L124.8089 107.9237
" />
<path d="M124.8089 107.9237
L124.9993 108.0189
" />
<path d="M124.9993 108.0189
L125.0946 108.2094
" />
<path d="M125.0946 108.2094
L125.0946 109.2570
" />
<path d="M126.0470 109.2570
L126.0470 107.9237
" />
<path d="M126.0470 108.1141
L126.1422 108.0189
" />
<path d="M126.1422 108.0189
L126.3327 107.9237
" />
<path d="M126.3327 107.9237
L126.6184 107.9237
" />
<path d="M126.6184 107.9237
L126.8089 108.0189
" />
<path d="M126.8089 108.0189
L126.9041 108.2094
" />
<path d="M126.9041 108.2094
L126.9041 109.2570
" />
<path d="M126.9041 108.2094
L126.9993 108.0189
" />
<path d="M126.9993 108.0189
L127.1898 107.9237
" />
<path d="M127.1898 107.9237
L127.4755 107.9237
" />
<path d="M127.4755 107.9237
L127.6660 108.0189
" />
<path d="M127.6660 108.0189
L127.7613 108.2094
" />
<path d="M127.7613 108.2094
L127.7613 109.2570
" />
<path d="M131.6660 107.1618
L129.9517 109.7332
" />
<path d="M134.2374 107.2570
L134.4279 107.2570
" />
<path d="M134.4279 107.2570
L134.6184 107.3522
" />
<path d="M134.6184 107.3522
L134.7136 107.4475
" />
<path d="M134.7136 107.4475
L134.8089 107.6380
" />
<path d="M134.8089 107.6380
L134.9041 108.0189
" />
<path d="M134.9041 108.0189
L134.9041 108.4951
" />
<path d="M134.9041 108.4951
L134.8089 108.8760
" />
<path d="M134.8089 108.8760
L134.7136 109.0665
" />
<path d="M134.7136 109.0665
L134.6184 109.1618
" />
<path d="M134.6184 109.1618
L134.4279 109.2570
" />
<path d="M134.4279 109.2570
L134.2374 109.2570
" />
<path d="M134.2374 109.2570
L134.0470 109.1618
" />
<path d="M134.0470 109.1618
L133.9517 109.0665
" />
<path d="M133.9517 109.0665
L133.8565 108.8760
" />
<path d="M133.8565 108.8760
L133.7613 108.4951
" />
<path d="M133.7613 108.4951
L133.7613 108.0189
" />
<path d="M133.7613 108.0189
L133.8565 107.6380
" />
<path d="M133.8565 107.6380
L133.9517 107.4475
" />
<path d="M133.9517 107.4475
L134.0470 107.3522
" />
<path d="M134.0470 107.3522
L134.2374 107.2570
" />
<path d="M135.7613 109.0665
L135.8565 109.1618
" />
<path d="M135.8565 109.1618
L135.7613 109.2570
" />
<path d="M135.7613 109.2570
L135.6660 109.1618
" />
<path d="M135.6660 109.1618
L135.7613 109.0665
" />
<path d="M135.7613 109.0665
L135.7613 109.2570
" />
<path d="M137.0946 107.2570
L137.2851 107.2570
" />
<path d="M137.2851 107.2570
L137.4755 107.3522
" />
<path d="M137.4755 107.3522
L137.5708 107.4475
" />
<path d="M137.5708 107.4475
L137.6660 107.6380
" />
<path d="M137.6660 107.6380
L137.7613 108.0189
" />
<path d="M137.7613 108.0189
L137.7613 108.4951
" />
<path d="M137.7613 108.4951
L137.6660 108.8760
" />
<path d="M137.6660 108.8760
L137.5708 109.0665
" />
<path d="M137.5708 109.0665
L137.4755 109.1618
" />
<path d="M137.4755 109.1618
L137.2851 109.2570
" />
<path d="M137.2851 109.2570
L137.0946 109.2570
" />
<path d="M137.0946 109.2570
L136.9041 109.1618
" />
<path d="M136.9041 109.1618
L136.8089 109.0665
" />
<path d="M136.8089 109.0665
L136.7136 108.8760
" />
<path d="M136.7136 108.8760
L136.6184 108.4951
" />
<path d="M136.6184 108.4951
L136.6184 108.0189
" />
<path d="M136.6184 108.0189
L136.7136 107.6380
" />
<path d="M136.7136 107.6380
L136.8089 107.4475
" />
<path d="M136.8089 107.4475
L136.9041 107.3522
" />
<path d="M136.9041 107.3522
L137.0946 107.2570
" />
<path d="M138.4279 107.2570
L139.6660 107.2570
" />
<path d="M139.6660 107.2570
L138.9994 108.0189
" />
<path d="M138.9994 108.0189
L139.2851 108.0189
" />
<path d="M139.2851 108.0189
L139.4755 108.1141
" />
<path d="M139.4755 108.1141
L139.5708 108.2094
" />
<path d="M139.5708 108.2094
L139.6660 108.3999
" />
<path d="M139.6660 108.3999
L139.6660 108.8760
" />
<path d="M139.6660 108.8760
L139.5708 109.0665
" />
<path d="M139.5708 109.0665
L139.4755 109.1618
" />
<path d="M139.4755 109.1618
L139.2851 109.2570
" />
<path d="M139.2851 109.2570
L138.7136 109.2570
" />
<path d="M138.7136 109.2570
L138.5232 109.1618
" />
<path d="M138.5232 109.1618
L138.4279 109.0665
" />
<path d="M140.6184 109.2570
L140.9994 109.2570
" />
<path d="M140.9994 109.2570
L141.1898 109.1618
" />
<path d="M141.1898 109.1618
L141.2851 109.0665
" />
<path d="M141.2851 109.0665
L141.4755 108.7808
" />
<path d="M141.4755 108.7808
L141.5708 108.3999
" />
<path d="M141.5708 108.3999
L141.5708 107.6380
" />
<path d="M141.5708 107.6380
L141.4755 107.4475
" />
<path d="M141.4755 107.4475
L141.3803 107.3522
" />
<path d="M141.3803 107.3522
L141.1898 107.2570
" />
<path d="M141.1898 107.2570
L140.8089 107.2570
" />
<path d="M140.8089 107.2570
L140.6184 107.3522
" />
<path d="M140.6184 107.3522
L140.5232 107.4475
" />
<path d="M140.5232 107.4475
L140.4279 107.6380
" />
<path d="M140.4279 107.6380
L140.4279 108.1141
" />
<path d="M140.4279 108.1141
L140.5232 108.3046
" />
<path d="M140.5232 108.3046
L140.6184 108.3999
" />
<path d="M140.6184 108.3999
L140.8089 108.4951
" />
<path d="M140.8089 108.4951
L141.1898 108.4951
" />
<path d="M141.1898 108.4951
L141.3803 108.3999
" />
<path d="M141.3803 108.3999
L141.4755 108.3046
" />
<path d="M141.4755 108.3046
L141.5708 108.1141
" />
<path d="M143.2851 107.9237
L143.2851 109.2570
" />
<path d="M142.8089 107.1618
L142.3327 108.5903
" />
<path d="M142.3327 108.5903
L143.5708 108.5903
" />
<path d="M144.2375 107.2570
L144.2375 107.6380
" />
<path d="M144.9994 107.2570
L144.9994 107.6380
" />
<path d="M147.9517 110.0189
L147.8565 109.9237
" />
<path d="M147.8565 109.9237
L147.6660 109.6380
" />
<path d="M147.6660 109.6380
L147.5708 109.4475
" />
<path d="M147.5708 109.4475
L147.4756 109.1618
" />
<path d="M147.4756 109.1618
L147.3803 108.6856
" />
<path d="M147.3803 108.6856
L147.3803 108.3046
" />
<path d="M147.3803 108.3046
L147.4756 107.8284
" />
<path d="M147.4756 107.8284
L147.5708 107.5427
" />
<path d="M147.5708 107.5427
L147.6660 107.3522
" />
<path d="M147.6660 107.3522
L147.8565 107.0665
" />
<path d="M147.8565 107.0665
L147.9517 106.9713
" />
<path d="M148.6184 107.4475
L148.7136 107.3522
" />
<path d="M148.7136 107.3522
L148.9041 107.2570
" />
<path d="M148.9041 107.2570
L149.3803 107.2570
" />
<path d="M149.3803 107.2570
L149.5708 107.3522
" />
<path d="M149.5708 107.3522
L149.6660 107.4475
" />
<path d="M149.6660 107.4475
L149.7613 107.6380
" />
<path d="M149.7613 107.6380
L149.7613 107.8284
" />
<path d="M149.7613 107.8284
L149.6660 108.1141
" />
<path d="M149.6660 108.1141
L148.5232 109.2570
" />
<path d="M148.5232 109.2570
L149.7613 109.2570
" />
<path d="M152.1422 109.2570
L152.1422 107.2570
" />
<path d="M152.9994 109.2570
L152.9994 108.2094
" />
<path d="M152.9994 108.2094
L152.9041 108.0189
" />
<path d="M152.9041 108.0189
L152.7137 107.9237
" />
<path d="M152.7137 107.9237
L152.4279 107.9237
" />
<path d="M152.4279 107.9237
L152.2375 108.0189
" />
<path d="M152.2375 108.0189
L152.1422 108.1141
" />
<path d="M154.2375 109.2570
L154.0470 109.1618
" />
<path d="M154.0470 109.1618
L153.9517 109.0665
" />
<path d="M153.9517 109.0665
L153.8565 108.8760
" />
<path d="M153.8565 108.8760
L153.8565 108.3046
" />
<path d="M153.8565 108.3046
L153.9517 108.1141
" />
<path d="M153.9517 108.1141
L154.0470 108.0189
" />
<path d="M154.0470 108.0189
L154.2375 107.9237
" />
<path d="M154.2375 107.9237
L154.5232 107.9237
" />
<path d="M154.5232 107.9237
L154.7137 108.0189
" />
<path d="M154.7137 108.0189
L154.8089 108.1141
" />
<path d="M154.8089 108.1141
L154.9041 108.3046
" />
<path d="M154.9041 108.3046
L154.9041 108.8760
" />
<path d="M154.9041 108.8760
L154.8089 109.0665
" />
<path d="M154.8089 109.0665
L154.7137 109.1618
" />
<path d="M154.7137 109.1618
L154.5232 109.2570
" />
<path d="M154.5232 109.2570
L154.2375 109.2570
" />
<path d="M156.0470 109.2570
L155.8565 109.1618
" />
<path d="M155.8565 109.1618
L155.7613 108.9713
" />
<path d="M155.7613 108.9713
L155.7613 107.2570
" />
<path d="M157.5708 109.1618
L157.3803 109.2570
" />
<path d="M157.3803 109.2570
L156.9994 109.2570
" />
<path d="M156.9994 109.2570
L156.8089 109.1618
" />
<path d="M156.8089 109.1618
L156.7137 108.9713
" />
<path d="M156.7137 108.9713
L156.7137 108.2094
" />
<path d="M156.7137 108.2094
L156.8089 108.0189
" />
<path d="M156.8089 108.0189
L156.9994 107.9237
" />
<path d="M156.9994 107.9237
L157.3803 107.9237
" />
<path d="M157.3803 107.9237
L157.5708 108.0189
" />
<path d="M157.5708 108.0189
L157.6660 108.2094
" />
<path d="M157.6660 108.2094
L157.6660 108.3999
" />
<path d="M157.6660 108.3999
L156.7137 108.5903
" />
<path d="M158.4279 109.1618
L158.6184 109.2570
" />
<path d="M158.6184 109.2570
L158.9994 109.2570
" />
<path d="M158.9994 109.2570
L159.1898 109.1618
" />
<path d="M159.1898 109.1618
L159.2851 108.9713
" />
<path d="M159.2851 108.9713
L159.2851 108.8760
" />
<path d="M159.2851 108.8760
L159.1898 108.6856
" />
<path d="M159.1898 108.6856
L158.9994 108.5903
" />
<path d="M158.9994 108.5903
L158.7137 108.5903
" />
<path d="M158.7137 108.5903
L158.5232 108.4951
" />
<path d="M158.5232 108.4951
L158.4279 108.3046
" />
<path d="M158.4279 108.3046
L158.4279 108.2094
" />
<path d="M158.4279 108.2094
L158.5232 108.0189
" />
<path d="M158.5232 108.0189
L158.7137 107.9237
" />
<path d="M158.7137 107.9237
L158.9994 107.9237
" />
<path d="M158.9994 107.9237
L159.1898 108.0189
" />
<path d="M159.9518 110.0189
L160.0470 109.9237
" />
<path d="M160.0470 109.9237
L160.2375 109.6380
" />
<path d="M160.2375 109.6380
L160.3327 109.4475
" />
<path d="M160.3327 109.4475
L160.4279 109.1618
" />
<path d="M160.4279 109.1618
L160.5232 108.6856
" />
<path d="M160.5232 108.6856
L160.5232 108.3046
" />
<path d="M160.5232 108.3046
L160.4279 107.8284
" />
<path d="M160.4279 107.8284
L160.3327 107.5427
" />
<path d="M160.3327 107.5427
L160.2375 107.3522
" />
<path d="M160.2375 107.3522
L160.0470 107.0665
" />
<path d="M160.0470 107.0665
L159.9518 106.9713
" />
</g></g>
<g style="fill:none; 
stroke:#000000; stroke-width:0.3000; stroke-opacity:1; 
stroke-linecap:round; stroke-linejoin:round;">
<path d="M111.2011 110.5422
L111.2011 112.5422
" />
<path d="M110.2011 111.5422
L112.2011 111.5422
" />
</g>
<g style="fill:none; 
stroke:#000000; stroke-width:0.2000; stroke-opacity:1; 
stroke-linecap:round; stroke-linejoin:round;">
<text x="114.2011" y="112.5422"
textLength="66.6762" font-size="2.6667" lengthAdjust="spacingAndGlyphs"
text-anchor="start" opacity="0" stroke-opacity="0">2.200mm / 0.0866" (4 holes) (not plated)</text>
<g class="stroked-text"><desc>2.200mm / 0.0866" (4 holes) (not plated)</desc>
<path d="M114.7136 110.6475
L114.8089 110.5522
" />
<path d="M114.8089 110.5522
L114.9993 110.4570
" />
<path d="M114.9993 110.4570
L115.4755 110.4570
" />
<path d="M115.4755 110.4570
L115.6660 110.5522
" />
<path d="M115.6660 110.5522
L115.7612 110.6475
" />
<path d="M115.7612 110.6475
L115.8565 110.8380
" />
<path d="M115.8565 110.8380
L115.8565 111.0284
" />
<path d="M115.8565 111.0284
L115.7612 111.3141
" />
<path d="M115.7612 111.3141
L114.6184 112.4570
" />
<path d="M114.6184 112.4570
L115.8565 112.4570
" />
<path d="M116.7136 112.2665
L116.8089 112.3618
" />
<path d="M116.8089 112.3618
L116.7136 112.4570
" />
<path d="M116.7136 112.4570
L116.6184 112.3618
" />
<path d="M116.6184 112.3618
L116.7136 112.2665
" />
<path d="M116.7136 112.2665
L116.7136 112.4570
" />
<path d="M117.5708 110.6475
L117.6660 110.5522
" />
<path d="M117.6660 110.5522
L117.8565 110.4570
" />
<path d="M117.8565 110.4570
L118.3327 110.4570
" />
<path d="M118.3327 110.4570
L118.5232 110.5522
" />
<path d="M118.5232 110.5522
L118.6184 110.6475
" />
<path d="M118.6184 110.6475
L118.7136 110.8380
" />
<path d="M118.7136 110.8380
L118.7136 111.0284
" />
<path d="M118.7136 111.0284
L118.6184 111.3141
" />
<path d="M118.6184 111.3141
L117.4755 112.4570
" />
<path d="M117.4755 112.4570
L118.7136 112.4570
" />
<path d="M119.9517 110.4570
L120.1422 110.4570
" />
<path d="M120.1422 110.4570
L120.3327 110.5522
" />
<path d="M120.3327 110.5522
L120.4279 110.6475
" />
<path d="M120.4279 110.6475
L120.5232 110.8380
" />
<path d="M120.5232 110.8380
L120.6184 111.2189
" />
<path d="M120.6184 111.2189
L120.6184 111.6951
" />
<path d="M120.6184 111.6951
L120.5232 112.0760
" />
<path d="M120.5232 112.0760
L120.4279 112.2665
" />
<path d="M120.4279 112.2665
L120.3327 112.3618
" />
<path d="M120.3327 112.3618
L120.1422 112.4570
" />
<path d="M120.1422 112.4570
L119.9517 112.4570
" />
<path d="M119.9517 112.4570
L119.7613 112.3618
" />
<path d="M119.7613 112.3618
L119.6660 112.2665
" />
<path d="M119.6660 112.2665
L119.5708 112.0760
" />
<path d="M119.5708 112.0760
L119.4755 111.6951
" />
<path d="M119.4755 111.6951
L119.4755 111.2189
" />
<path d="M119.4755 111.2189
L119.5708 110.8380
" />
<path d="M119.5708 110.8380
L119.6660 110.6475
" />
<path d="M119.6660 110.6475
L119.7613 110.5522
" />
<path d="M119.7613 110.5522
L119.9517 110.4570
" />
<path d="M121.8565 110.4570
L122.0470 110.4570
" />
<path d="M122.0470 110.4570
L122.2374 110.5522
" />
<path d="M122.2374 110.5522
L122.3327 110.6475
" />
<path d="M122.3327 110.6475
L122.4279 110.8380
" />
<path d="M122.4279 110.8380
L122.5232 111.2189
" />
<path d="M122.5232 111.2189
L122.5232 111.6951
" />
<path d="M122.5232 111.6951
L122.4279 112.0760
" />
<path d="M122.4279 112.0760
L122.3327 112.2665
" />
<path d="M122.3327 112.2665
L122.2374 112.3618
" />
<path d="M122.2374 112.3618
L122.0470 112.4570
" />
<path d="M122.0470 112.4570
L121.8565 112.4570
" />
<path d="M121.8565 112.4570
L121.6660 112.3618
" />
<path d="M121.6660 112.3618
L121.5708 112.2665
" />
<path d="M121.5708 112.2665
L121.4755 112.0760
" />
<path d="M121.4755 112.0760
L121.3803 111.6951
" />
<path d="M121.3803 111.6951
L121.3803 111.2189
" />
<path d="M121.3803 111.2189
L121.4755 110.8380
" />
<path d="M121.4755 110.8380
L121.5708 110.6475
" />
<path d="M121.5708 110.6475
L121.6660 110.5522
" />
<path d="M121.6660 110.5522
L121.8565 110.4570
" />
<path d="M123.3803 112.4570
L123.3803 111.1237
" />
<path d="M123.3803 111.3141
L123.4755 111.2189
" />
<path d="M123.4755 111.2189
L123.6660 111.1237
" />
<path d="M123.6660 111.1237
L123.9517 111.1237
" />
<path d="M123.9517 111.1237
L124.1422 111.2189
" />
<path d="M124.1422 111.2189
L124.2374 111.4094
" />
<path d="M124.2374 111.4094
L124.2374 112.4570
" />
<path d="M124.2374 111.4094
L124.3327 111.2189
" />
<path d="M124.3327 111.2189
L124.5232 111.1237
" />
<path d="M124.5232 111.1237
L124.8089 111.1237
" />
<path d="M124.8089 111.1237
L124.9993 111.2189
" />
<path d="M124.9993 111.2189
L125.0946 111.4094
" />
<path d="M125.0946 111.4094
L125.0946 112.4570
" />
<path d="M126.0470 112.4570
L126.0470 111.1237
" />
<path d="M126.0470 111.3141
L126.1422 111.2189
" />
<path d="M126.1422 111.2189
L126.3327 111.1237
" />
<path d="M126.3327 111.1237
L126.6184 111.1237
" />
<path d="M126.6184 111.1237
L126.8089 111.2189
" />
<path d="M126.8089 111.2189
L126.9041 111.4094
" />
<path d="M126.9041 111.4094
L126.9041 112.4570
" />
<path d="M126.9041 111.4094
L126.9993 111.2189
" />
<path d="M126.9993 111.2189
L127.1898 111.1237
" />
<path d="M127.1898 111.1237
L127.4755 111.1237
" />
<path d="M127.4755 111.1237
L127.6660 111.2189
" />
<path d="M127.6660 111.2189
L127.7613 111.4094
" />
<path d="M127.7613 111.4094
L127.7613 112.4570
" />
<path d="M131.6660 110.3618
L129.9517 112.9332
" />
<path d="M134.2374 110.4570
L134.4279 110.4570
" />
<path d="M134.4279 110.4570
L134.6184 110.5522
" />
<path d="M134.6184 110.5522
L134.7136 110.6475
" />
<path d="M134.7136 110.6475
L134.8089 110.8380
" />
<path d="M134.8089 110.8380
L134.9041 111.2189
" />
<path d="M134.9041 111.2189
L134.9041 111.6951
" />
<path d="M134.9041 111.6951
L134.8089 112.0760
" />
<path d="M134.8089 112.0760
L134.7136 112.2665
" />
<path d="M134.7136 112.2665
L134.6184 112.3618
" />
<path d="M134.6184 112.3618
L134.4279 112.4570
" />
<path d="M134.4279 112.4570
L134.2374 112.4570
" />
<path d="M134.2374 112.4570
L134.0470 112.3618
" />
<path d="M134.0470 112.3618
L133.9517 112.2665
" />
<path d="M133.9517 112.2665
L133.8565 112.0760
" />
<path d="M133.8565 112.0760
L133.7613 111.6951
" />
<path d="M133.7613 111.6951
L133.7613 111.2189
" />
<path d="M133.7613 111.2189
L133.8565 110.8380
" />
<path d="M133.8565 110.8380
L133.9517 110.6475
" />
<path d="M133.9517 110.6475
L134.0470 110.5522
" />
<path d="M134.0470 110.5522
L134.2374 110.4570
" />
<path d="M135.7613 112.2665
L135.8565 112.3618
" />
<path d="M135.8565 112.3618
L135.7613 112.4570
" />
<path d="M135.7613 112.4570
L135.6660 112.3618
" />
<path d="M135.6660 112.3618
L135.7613 112.2665
" />
<path d="M135.7613 112.2665
L135.7613 112.4570
" />
<path d="M137.0946 110.4570
L137.2851 110.4570
" />
<path d="M137.2851 110.4570
L137.4755 110.5522
" />
<path d="M137.4755 110.5522
L137.5708 110.6475
" />
<path d="M137.5708 110.6475
L137.6660 110.8380
" />
<path d="M137.6660 110.8380
L137.7613 111.2189
" />
<path d="M137.7613 111.2189
L137.7613 111.6951
" />
<path d="M137.7613 111.6951
L137.6660 112.0760
" />
<path d="M137.6660 112.0760
L137.5708 112.2665
" />
<path d="M137.5708 112.2665
L137.4755 112.3618
" />
<path d="M137.4755 112.3618
L137.2851 112.4570
" />
<path d="M137.2851 112.4570
L137.0946 112.4570
" />
<path d="M137.0946 112.4570
L136.9041 112.3618
" />
<path d="M136.9041 112.3618
L136.8089 112.2665
" />
<path d="M136.8089 112.2665
L136.7136 112.0760
" />
<path d="M136.7136 112.0760
L136.6184 111.6951
" />
<path d="M136.6184 111.6951
L136.6184 111.2189
" />
<path d="M136.6184 111.2189
L136.7136 110.8380
" />
<path d="M136.7136 110.8380
L136.8089 110.6475
" />
<path d="M136.8089 110.6475
L136.9041 110.5522
" />
<path d="M136.9041 110.5522
L137.0946 110.4570
" />
<path d="M138.9041 111.3141
L138.7136 111.2189
" />
<path d="M138.7136 111.2189
L138.6184 111.1237
" />
<path d="M138.6184 111.1237
L138.5232 110.9332
" />
<path d="M138.5232 110.9332
L138.5232 110.8380
" />
<path d="M138.5232 110.8380
L138.6184 110.6475
" />
<path d="M138.6184 110.6475
L138.7136 110.5522
" />
<path d="M138.7136 110.5522
L138.9041 110.4570
" />
<path d="M138.9041 110.4570
L139.2851 110.4570
" />
<path d="M139.2851 110.4570
L139.4755 110.5522
" />
<path d="M139.4755 110.5522
L139.5708 110.6475
" />
<path d="M139.5708 110.6475
L139.6660 110.8380
" />
<path d="M139.6660 110.8380
L139.6660 110.9332
" />
<path d="M139.6660 110.9332
L139.5708 111.1237
" />
<path d="M139.5708 111.1237
L139.4755 111.2189
" />
<path d="M139.4755 111.2189
L139.2851 111.3141
" />
<path d="M139.2851 111.3141
L138.9041 111.3141
" />
<path d="M138.9041 111.3141
L138.7136 111.4094
" />
<path d="M138.7136 111.4094
L138.6184 111.5046
" />
<path d="M138.6184 111.5046
L138.5232 111.6951
" />
<path d="M138.5232 111.6951
L138.5232 112.0760
" />
<path d="M138.5232 112.0760
L138.6184 112.2665
" />
<path d="M138.6184 112.2665
L138.7136 112.3618
" />
<path d="M138.7136 112.3618
L138.9041 112.4570
" />
<path d="M138.9041 112.4570
L139.2851 112.4570
" />
<path d="M139.2851 112.4570
L139.4755 112.3618
" />
<path d="M139.4755 112.3618
L139.5708 112.2665
" />
<path d="M139.5708 112.2665
L139.6660 112.0760
" />
<path d="M139.6660 112.0760
L139.6660 111.6951
" />
<path d="M139.6660 111.6951
L139.5708 111.5046
" />
<path d="M139.5708 111.5046
L139.4755 111.4094
" />
<path d="M139.4755 111.4094
L139.2851 111.3141
" />
<path d="M141.3803 110.4570
L140.9994 110.4570
" />
<path d="M140.9994 110.4570
L140.8089 110.5522
" />
<path d="M140.8089 110.5522
L140.7136 110.6475
" />
<path d="M140.7136 110.6475
L140.5232 110.9332
" />
<path d="M140.5232 110.9332
L140.4279 111.3141
" />
<path d="M140.4279 111.3141
L140.4279 112.0760
" />
<path d="M140.4279 112.0760
L140.5232 112.2665
" />
<path d="M140.5232 112.2665
L140.6184 112.3618
" />
<path d="M140.6184 112.3618
L140.8089 112.4570
" />
<path d="M140.8089 112.4570
L141.1898 112.4570
" />
<path d="M141.1898 112.4570
L141.3803 112.3618
" />
<path d="M141.3803 112.3618
L141.4755 112.2665
" />
<path d="M141.4755 112.2665
L141.5708 112.0760
" />
<path d="M141.5708 112.0760
L141.5708 111.5999
" />
<path d="M141.5708 111.5999
L141.4755 111.4094
" />
<path d="M141.4755 111.4094
L141.3803 111.3141
" />
<path d="M141.3803 111.3141
L141.1898 111.2189
" />
<path d="M141.1898 111.2189
L140.8089 111.2189
" />
<path d="M140.8089 111.2189
L140.6184 111.3141
" />
<path d="M140.6184 111.3141
L140.5232 111.4094
" />
<path d="M140.5232 111.4094
L140.4279 111.5999
" />
<path d="M143.2851 110.4570
L142.9041 110.4570
" />
<path d="M142.9041 110.4570
L142.7136 110.5522
" />
<path d="M142.7136 110.5522
L142.6184 110.6475
" />
<path d="M142.6184 110.6475
L142.4279 110.9332
" />
<path d="M142.4279 110.9332
L142.3327 111.3141
" />
<path d="M142.3327 111.3141
L142.3327 112.0760
" />
<path d="M142.3327 112.0760
L142.4279 112.2665
" />
<path d="M142.4279 112.2665
L142.5232 112.3618
" />
<path d="M142.5232 112.3618
L142.7136 112.4570
" />
<path d="M142.7136 112.4570
L143.0946 112.4570
" />
<path d="M143.0946 112.4570
L143.2851 112.3618
" />
<path d="M143.2851 112.3618
L143.3803 112.2665
" />
<path d="M143.3803 112.2665
L143.4755 112.0760
" />
<path d="M143.4755 112.0760
L143.4755 111.5999
" />
<path d="M143.4755 111.5999
L143.3803 111.4094
" />
<path d="M143.3803 111.4094
L143.2851 111.3141
" />
<path d="M143.2851 111.3141
L143.0946 111.2189
" />
<path d="M143.0946 111.2189
L142.7136 111.2189
" />
<path d="M142.7136 111.2189
L142.5232 111.3141
" />
<path d="M142.5232 111.3141
L142.4279 111.4094
" />
<path d="M142.4279 111.4094
L142.3327 111.5999
" />
<path d="M144.2375 110.4570
L144.2375 110.8380
" />
<path d="M144.9994 110.4570
L144.9994 110.8380
" />
<path d="M147.9517 113.2189
L147.8565 113.1237
" />
<path d="M147.8565 113.1237
L147.6660 112.8380
" />
<path d="M147.6660 112.8380
L147.5708 112.6475
" />
<path d="M147.5708 112.6475
L147.4756 112.3618
" />
<path d="M147.4756 112.3618
L147.3803 111.8856
" />
<path d="M147.3803 111.8856
L147.3803 111.5046
" />
<path d="M147.3803 111.5046
L147.4756 111.0284
" />
<path d="M147.4756 111.0284
L147.5708 110.7427
" />
<path d="M147.5708 110.7427
L147.6660 110.5522
" />
<path d="M147.6660 110.5522
L147.8565 110.2665
" />
<path d="M147.8565 110.2665
L147.9517 110.1713
" />
<path d="M149.5708 111.1237
L149.5708 112.4570
" />
<path d="M149.0946 110.3618
L148.6184 111.7903
" />
<path d="M148.6184 111.7903
L149.8565 111.7903
" />
<path d="M152.1422 112.4570
L152.1422 110.4570
" />
<path d="M152.9994 112.4570
L152.9994 111.4094
" />
<path d="M152.9994 111.4094
L152.9041 111.2189
" />
<path d="M152.9041 111.2189
L152.7137 111.1237
" />
<path d="M152.7137 111.1237
L152.4279 111.1237
" />
<path d="M152.4279 111.1237
L152.2375 111.2189
" />
<path d="M152.2375 111.2189
L152.1422 111.3141
" />
<path d="M154.2375 112.4570
L154.0470 112.3618
" />
<path d="M154.0470 112.3618
L153.9517 112.2665
" />
<path d="M153.9517 112.2665
L153.8565 112.0760
" />
<path d="M153.8565 112.0760
L153.8565 111.5046
" />
<path d="M153.8565 111.5046
L153.9517 111.3141
" />
<path d="M153.9517 111.3141
L154.0470 111.2189
" />
<path d="M154.0470 111.2189
L154.2375 111.1237
" />
<path d="M154.2375 111.1237
L154.5232 111.1237
" />
<path d="M154.5232 111.1237
L154.7137 111.2189
" />
<path d="M154.7137 111.2189
L154.8089 111.3141
" />
<path d="M154.8089 111.3141
L154.9041 111.5046
" />
<path d="M154.9041 111.5046
L154.9041 112.0760
" />
<path d="M154.9041 112.0760
L154.8089 112.2665
" />
<path d="M154.8089 112.2665
L154.7137 112.3618
" />
<path d="M154.7137 112.3618
L154.5232 112.4570
" />
<path d="M154.5232 112.4570
L154.2375 112.4570
" />
<path d="M156.0470 112.4570
L155.8565 112.3618
" />
<path d="M155.8565 112.3618
L155.7613 112.1713
" />
<path d="M155.7613 112.1713
L155.7613 110.4570
" />
<path d="M157.5708 112.3618
L157.3803 112.4570
" />
<path d="M157.3803 112.4570
L156.9994 112.4570
" />
<path d="M156.9994 112.4570
L156.8089 112.3618
" />
<path d="M156.8089 112.3618
L156.7137 112.1713
" />
<path d="M156.7137 112.1713
L156.7137 111.4094
" />
<path d="M156.7137 111.4094
L156.8089 111.2189
" />
<path d="M156.8089 111.2189
L156.9994 111.1237
" />
<path d="M156.9994 111.1237
L157.3803 111.1237
" />
<path d="M157.3803 111.1237
L157.5708 111.2189
" />
<path d="M157.5708 111.2189
L157.6660 111.4094
" />
<path d="M157.6660 111.4094
L157.6660 111.5999
" />
<path d="M157.6660 111.5999
L156.7137 111.7903
" />
<path d="M158.4279 112.3618
L158.6184 112.4570
" />
<path d="M158.6184 112.4570
L158.9994 112.4570
" />
<path d="M158.9994 112.4570
L159.1898 112.3618
" />
<path d="M159.1898 112.3618
L159.2851 112.1713
" />
<path d="M159.2851 112.1713
L159.2851 112.0760
" />
<path d="M159.2851 112.0760
L159.1898 111.8856
" />
<path d="M159.1898 111.8856
L158.9994 111.7903
" />
<path d="M158.9994 111.7903
L158.7137 111.7903
" />
<path d="M158.7137 111.7903
L158.5232 111.6951
" />
<path d="M158.5232 111.6951
L158.4279 111.5046
" />
<path d="M158.4279 111.5046
L158.4279 111.4094
" />
<path d="M158.4279 111.4094
L158.5232 111.2189
" />
<path d="M158.5232 111.2189
L158.7137 111.1237
" />
<path d="M158.7137 111.1237
L158.9994 111.1237
" />
<path d="M158.9994 111.1237
L159.1898 111.2189
" />
<path d="M159.9518 113.2189
L160.0470 113.1237
" />
<path d="M160.0470 113.1237
L160.2375 112.8380
" />
<path d="M160.2375 112.8380
L160.3327 112.6475
" />
<path d="M160.3327 112.6475
L160.4279 112.3618
" />
<path d="M160.4279 112.3618
L160.5232 111.8856
" />
<path d="M160.5232 111.8856
L160.5232 111.5046
" />
<path d="M160.5232 111.5046
L160.4279 111.0284
" />
<path d="M160.4279 111.0284
L160.3327 110.7427
" />
<path d="M160.3327 110.7427
L160.2375 110.5522
" />
<path d="M160.2375 110.5522
L160.0470 110.2665
" />
<path d="M160.0470 110.2665
L159.9518 110.1713
" />
<path d="M163.5708 113.2189
L163.4756 113.1237
" />
<path d="M163.4756 113.1237
L163.2851 112.8380
" />
<path d="M163.2851 112.8380
L163.1899 112.6475
" />
<path d="M163.1899 112.6475
L163.0946 112.3618
" />
<path d="M163.0946 112.3618
L162.9994 111.8856
" />
<path d="M162.9994 111.8856
L162.9994 111.5046
" />
<path d="M162.9994 111.5046
L163.0946 111.0284
" />
<path d="M163.0946 111.0284
L163.1899 110.7427
" />
<path d="M163.1899 110.7427
L163.2851 110.5522
" />
<path d="M163.2851 110.5522
L163.4756 110.2665
" />
<path d="M163.4756 110.2665
L163.5708 110.1713
" />
<path d="M164.3327 111.1237
L164.3327 112.4570
" />
<path d="M164.3327 111.3141
L164.4279 111.2189
" />
<path d="M164.4279 111.2189
L164.6184 111.1237
" />
<path d="M164.6184 111.1237
L164.9041 111.1237
" />
<path d="M164.9041 111.1237
L165.0946 111.2189
" />
<path d="M165.0946 111.2189
L165.1899 111.4094
" />
<path d="M165.1899 111.4094
L165.1899 112.4570
" />
<path d="M166.4279 112.4570
L166.2375 112.3618
" />
<path d="M166.2375 112.3618
L166.1422 112.2665
" />
<path d="M166.1422 112.2665
L166.0470 112.0760
" />
<path d="M166.0470 112.0760
L166.0470 111.5046
" />
<path d="M166.0470 111.5046
L166.1422 111.3141
" />
<path d="M166.1422 111.3141
L166.2375 111.2189
" />
<path d="M166.2375 111.2189
L166.4279 111.1237
" />
<path d="M166.4279 111.1237
L166.7137 111.1237
" />
<path d="M166.7137 111.1237
L166.9041 111.2189
" />
<path d="M166.9041 111.2189
L166.9994 111.3141
" />
<path d="M166.9994 111.3141
L167.0946 111.5046
" />
<path d="M167.0946 111.5046
L167.0946 112.0760
" />
<path d="M167.0946 112.0760
L166.9994 112.2665
" />
<path d="M166.9994 112.2665
L166.9041 112.3618
" />
<path d="M166.9041 112.3618
L166.7137 112.4570
" />
<path d="M166.7137 112.4570
L166.4279 112.4570
" />
<path d="M167.6660 111.1237
L168.4279 111.1237
" />
<path d="M167.9518 110.4570
L167.9518 112.1713
" />
<path d="M167.9518 112.1713
L168.0470 112.3618
" />
<path d="M168.0470 112.3618
L168.2375 112.4570
" />
<path d="M168.2375 112.4570
L168.4279 112.4570
" />
<path d="M170.6184 111.1237
L170.6184 113.1237
" />
<path d="M170.6184 111.2189
L170.8089 111.1237
" />
<path d="M170.8089 111.1237
L171.1899 111.1237
" />
<path d="M171.1899 111.1237
L171.3803 111.2189
" />
<path d="M171.3803 111.2189
L171.4756 111.3141
" />
<path d="M171.4756 111.3141
L171.5708 111.5046
" />
<path d="M171.5708 111.5046
L171.5708 112.0760
" />
<path d="M171.5708 112.0760
L171.4756 112.2665
" />
<path d="M171.4756 112.2665
L171.3803 112.3618
" />
<path d="M171.3803 112.3618
L171.1899 112.4570
" />
<path d="M171.1899 112.4570
L170.8089 112.4570
" />
<path d="M170.8089 112.4570
L170.6184 112.3618
" />
<path d="M172.7137 112.4570
L172.5232 112.3618
" />
<path d="M172.5232 112.3618
L172.4280 112.1713
" />
<path d="M172.4280 112.1713
L172.4280 110.4570
" />
<path d="M174.3327 112.4570
L174.3327 111.4094
" />
<path d="M174.3327 111.4094
L174.2375 111.2189
" />
<path d="M174.2375 111.2189
L174.0470 111.1237
" />
<path d="M174.0470 111.1237
L173.6661 111.1237
" />
<path d="M173.6661 111.1237
L173.4756 111.2189
" />
<path d="M174.3327 112.3618
L174.1422 112.4570
" />
<path d="M174.1422 112.4570
L173.6661 112.4570
" />
<path d="M173.6661 112.4570
L173.4756 112.3618
" />
<path d="M173.4756 112.3618
L173.3803 112.1713
" />
<path d="M173.3803 112.1713
L173.3803 111.9808
" />
<path d="M173.3803 111.9808
L173.4756 111.7903
" />
<path d="M173.4756 111.7903
L173.6661 111.6951
" />
<path d="M173.6661 111.6951
L174.1422 111.6951
" />
<path d="M174.1422 111.6951
L174.3327 111.5999
" />
<path d="M174.9994 111.1237
L175.7613 111.1237
" />
<path d="M175.2851 110.4570
L175.2851 112.1713
" />
<path d="M175.2851 112.1713
L175.3803 112.3618
" />
<path d="M175.3803 112.3618
L175.5708 112.4570
" />
<path d="M175.5708 112.4570
L175.7613 112.4570
" />
<path d="M177.1899 112.3618
L176.9994 112.4570
" />
<path d="M176.9994 112.4570
L176.6184 112.4570
" />
<path d="M176.6184 112.4570
L176.4280 112.3618
" />
<path d="M176.4280 112.3618
L176.3327 112.1713
" />
<path d="M176.3327 112.1713
L176.3327 111.4094
" />
<path d="M176.3327 111.4094
L176.4280 111.2189
" />
<path d="M176.4280 111.2189
L176.6184 111.1237
" />
<path d="M176.6184 111.1237
L176.9994 111.1237
" />
<path d="M176.9994 111.1237
L177.1899 111.2189
" />
<path d="M177.1899 111.2189
L177.2851 111.4094
" />
<path d="M177.2851 111.4094
L177.2851 111.5999
" />
<path d="M177.2851 111.5999
L176.3327 111.7903
" />
<path d="M178.9994 112.4570
L178.9994 110.4570
" />
<path d="M178.9994 112.3618
L178.8089 112.4570
" />
<path d="M178.8089 112.4570
L178.4280 112.4570
" />
<path d="M178.4280 112.4570
L178.2375 112.3618
" />
<path d="M178.2375 112.3618
L178.1422 112.2665
" />
<path d="M178.1422 112.2665
L178.0470 112.0760
" />
<path d="M178.0470 112.0760
L178.0470 111.5046
" />
<path d="M178.0470 111.5046
L178.1422 111.3141
" />
<path d="M178.1422 111.3141
L178.2375 111.2189
" />
<path d="M178.2375 111.2189
L178.4280 111.1237
" />
<path d="M178.4280 111.1237
L178.8089 111.1237
" />
<path d="M178.8089 111.1237
L178.9994 111.2189
" />
<path d="M179.7613 113.2189
L179.8565 113.1237
" />
<path d="M179.8565 113.1237
L180.0470 112.8380
" />
<path d="M180.0470 112.8380
L180.1422 112.6475
" />
<path d="M180.1422 112.6475
L180.2375 112.3618
" />
<path d="M180.2375 112.3618
L180.3327 111.8856
" />
<path d="M180.3327 111.8856
L180.3327 111.5046
" />
<path d="M180.3327 111.5046
L180.2375 111.0284
" />
<path d="M180.2375 111.0284
L180.1422 110.7427
" />
<path d="M180.1422 110.7427
L180.0470 110.5522
" />
<path d="M180.0470 110.5522
L179.8565 110.2665
" />
<path d="M179.8565 110.2665
L179.7613 110.1713
" />
</g></g> 
</svg>
