%TF.GenerationSoftware,KiCad,Pcbnew,10.0.3-10.0.3~ubuntu24.04.1*%
%TF.CreationDate,2026-06-26T14:50:27+08:00*%
%TF.ProjectId,tungsten-5v-400ma-3mm,74756e67-7374-4656-9e2d-35762d343030,rev?*%
%TF.SameCoordinates,Original*%
%TF.FileFunction,Legend,Bot*%
%TF.FilePolarity,Positive*%
%FSLAX46Y46*%
G04 Gerber Fmt 4.6, Leading zero omitted, Abs format (unit mm)*
G04 Created by KiCad (PCBNEW 10.0.3-10.0.3~ubuntu24.04.1) date 2026-06-26 14:50:27*
%MOMM*%
%LPD*%
G01*
G04 APERTURE LIST*
%ADD10C,0.100000*%
G04 APERTURE END LIST*
D10*
X153695238Y-108764895D02*
X153695238Y-109336323D01*
X153695238Y-109336323D02*
X153733333Y-109450609D01*
X153733333Y-109450609D02*
X153809524Y-109526800D01*
X153809524Y-109526800D02*
X153923809Y-109564895D01*
X153923809Y-109564895D02*
X154000000Y-109564895D01*
X152933333Y-109564895D02*
X153314285Y-109564895D01*
X153314285Y-109564895D02*
X153314285Y-108764895D01*
X152209523Y-109488704D02*
X152247619Y-109526800D01*
X152247619Y-109526800D02*
X152361904Y-109564895D01*
X152361904Y-109564895D02*
X152438095Y-109564895D01*
X152438095Y-109564895D02*
X152552381Y-109526800D01*
X152552381Y-109526800D02*
X152628571Y-109450609D01*
X152628571Y-109450609D02*
X152666666Y-109374419D01*
X152666666Y-109374419D02*
X152704762Y-109222038D01*
X152704762Y-109222038D02*
X152704762Y-109107752D01*
X152704762Y-109107752D02*
X152666666Y-108955371D01*
X152666666Y-108955371D02*
X152628571Y-108879180D01*
X152628571Y-108879180D02*
X152552381Y-108802990D01*
X152552381Y-108802990D02*
X152438095Y-108764895D01*
X152438095Y-108764895D02*
X152361904Y-108764895D01*
X152361904Y-108764895D02*
X152247619Y-108802990D01*
X152247619Y-108802990D02*
X152209523Y-108841085D01*
X151638095Y-108764895D02*
X151638095Y-109336323D01*
X151638095Y-109336323D02*
X151676190Y-109450609D01*
X151676190Y-109450609D02*
X151752381Y-109526800D01*
X151752381Y-109526800D02*
X151866666Y-109564895D01*
X151866666Y-109564895D02*
X151942857Y-109564895D01*
X150876190Y-109564895D02*
X151257142Y-109564895D01*
X151257142Y-109564895D02*
X151257142Y-108764895D01*
X150152380Y-109488704D02*
X150190476Y-109526800D01*
X150190476Y-109526800D02*
X150304761Y-109564895D01*
X150304761Y-109564895D02*
X150380952Y-109564895D01*
X150380952Y-109564895D02*
X150495238Y-109526800D01*
X150495238Y-109526800D02*
X150571428Y-109450609D01*
X150571428Y-109450609D02*
X150609523Y-109374419D01*
X150609523Y-109374419D02*
X150647619Y-109222038D01*
X150647619Y-109222038D02*
X150647619Y-109107752D01*
X150647619Y-109107752D02*
X150609523Y-108955371D01*
X150609523Y-108955371D02*
X150571428Y-108879180D01*
X150571428Y-108879180D02*
X150495238Y-108802990D01*
X150495238Y-108802990D02*
X150380952Y-108764895D01*
X150380952Y-108764895D02*
X150304761Y-108764895D01*
X150304761Y-108764895D02*
X150190476Y-108802990D01*
X150190476Y-108802990D02*
X150152380Y-108841085D01*
X149580952Y-108764895D02*
X149580952Y-109336323D01*
X149580952Y-109336323D02*
X149619047Y-109450609D01*
X149619047Y-109450609D02*
X149695238Y-109526800D01*
X149695238Y-109526800D02*
X149809523Y-109564895D01*
X149809523Y-109564895D02*
X149885714Y-109564895D01*
X148819047Y-109564895D02*
X149199999Y-109564895D01*
X149199999Y-109564895D02*
X149199999Y-108764895D01*
X148095237Y-109488704D02*
X148133333Y-109526800D01*
X148133333Y-109526800D02*
X148247618Y-109564895D01*
X148247618Y-109564895D02*
X148323809Y-109564895D01*
X148323809Y-109564895D02*
X148438095Y-109526800D01*
X148438095Y-109526800D02*
X148514285Y-109450609D01*
X148514285Y-109450609D02*
X148552380Y-109374419D01*
X148552380Y-109374419D02*
X148590476Y-109222038D01*
X148590476Y-109222038D02*
X148590476Y-109107752D01*
X148590476Y-109107752D02*
X148552380Y-108955371D01*
X148552380Y-108955371D02*
X148514285Y-108879180D01*
X148514285Y-108879180D02*
X148438095Y-108802990D01*
X148438095Y-108802990D02*
X148323809Y-108764895D01*
X148323809Y-108764895D02*
X148247618Y-108764895D01*
X148247618Y-108764895D02*
X148133333Y-108802990D01*
X148133333Y-108802990D02*
X148095237Y-108841085D01*
X147523809Y-108764895D02*
X147523809Y-109336323D01*
X147523809Y-109336323D02*
X147561904Y-109450609D01*
X147561904Y-109450609D02*
X147638095Y-109526800D01*
X147638095Y-109526800D02*
X147752380Y-109564895D01*
X147752380Y-109564895D02*
X147828571Y-109564895D01*
X146761904Y-109564895D02*
X147142856Y-109564895D01*
X147142856Y-109564895D02*
X147142856Y-108764895D01*
X146038094Y-109488704D02*
X146076190Y-109526800D01*
X146076190Y-109526800D02*
X146190475Y-109564895D01*
X146190475Y-109564895D02*
X146266666Y-109564895D01*
X146266666Y-109564895D02*
X146380952Y-109526800D01*
X146380952Y-109526800D02*
X146457142Y-109450609D01*
X146457142Y-109450609D02*
X146495237Y-109374419D01*
X146495237Y-109374419D02*
X146533333Y-109222038D01*
X146533333Y-109222038D02*
X146533333Y-109107752D01*
X146533333Y-109107752D02*
X146495237Y-108955371D01*
X146495237Y-108955371D02*
X146457142Y-108879180D01*
X146457142Y-108879180D02*
X146380952Y-108802990D01*
X146380952Y-108802990D02*
X146266666Y-108764895D01*
X146266666Y-108764895D02*
X146190475Y-108764895D01*
X146190475Y-108764895D02*
X146076190Y-108802990D01*
X146076190Y-108802990D02*
X146038094Y-108841085D01*
M02*
