%TF.GenerationSoftware,KiCad,Pcbnew,10.0.3-10.0.3~ubuntu24.04.1*%
%TF.CreationDate,2026-06-15T14:30:12+08:00*%
%TF.ProjectId,lumileds-no-resistor,6c756d69-6c65-4647-932d-6e6f2d726573,rev?*%
%TF.SameCoordinates,Original*%
%TF.FileFunction,Copper,L1,Top*%
%TF.FilePolarity,Positive*%
%FSLAX46Y46*%
G04 Gerber Fmt 4.6, Leading zero omitted, Abs format (unit mm)*
G04 Created by KiCad (PCBNEW 10.0.3-10.0.3~ubuntu24.04.1) date 2026-06-15 14:30:12*
%MOMM*%
%LPD*%
G01*
G04 APERTURE LIST*
%TA.AperFunction,NonConductor*%
%ADD10C,0.200000*%
%TD*%
%ADD11C,0.200000*%
%TA.AperFunction,SMDPad,CuDef*%
%ADD12R,3.000000X2.000000*%
%TD*%
%TA.AperFunction,SMDPad,CuDef*%
%ADD13R,3.000000X1.000000*%
%TD*%
%TA.AperFunction,ComponentPad*%
%ADD14R,1.700000X1.700000*%
%TD*%
%TA.AperFunction,ComponentPad*%
%ADD15O,1.700000X1.700000*%
%TD*%
%TA.AperFunction,Conductor*%
%ADD16C,0.250000*%
%TD*%
G04 APERTURE END LIST*
D10*
D11*
X207798035Y-99060000D02*
X207798035Y-99060000D01*
X207798035Y-99060000D01*
X207798035Y-99060000D01*
X207798035Y-99060000D01*
X207798035Y-99060000D01*
X207798035Y-99060001D01*
X207798035Y-99060001D01*
X207798035Y-99060001D01*
X207798035Y-99060001D01*
X207798035Y-99060001D01*
X207798035Y-99060001D01*
X207798035Y-99060001D01*
X207798034Y-99060001D01*
X207798034Y-99060001D01*
X207798034Y-99060001D01*
X207798034Y-99060001D01*
X207798034Y-99060001D01*
X207798034Y-99060001D01*
X207798034Y-99060001D01*
X207798034Y-99060001D01*
X207798034Y-99060001D01*
X207798034Y-99060001D01*
X207798034Y-99060001D01*
X207798034Y-99060001D01*
X207798033Y-99060001D01*
X207798033Y-99060001D01*
X207798033Y-99060001D01*
X207798033Y-99060001D01*
X207798033Y-99060001D01*
X207798033Y-99060001D01*
X207798033Y-99060000D01*
X207798033Y-99060000D01*
X207798033Y-99060000D01*
X207798033Y-99060000D01*
X207798033Y-99060000D01*
X207798033Y-99060000D01*
X207798033Y-99060000D02*
X207798033Y-99060000D01*
X207798033Y-99060000D01*
X207798033Y-99060000D01*
X207798033Y-99060000D01*
X207798033Y-99060000D01*
X207798033Y-99060000D01*
X207798033Y-99059999D01*
X207798033Y-99059999D01*
X207798033Y-99059999D01*
X207798033Y-99059999D01*
X207798033Y-99059999D01*
X207798034Y-99059999D01*
X207798034Y-99059999D01*
X207798034Y-99059999D01*
X207798034Y-99059999D01*
X207798034Y-99059999D01*
X207798034Y-99059999D01*
X207798034Y-99059999D01*
X207798034Y-99059999D01*
X207798034Y-99059999D01*
X207798034Y-99059999D01*
X207798034Y-99059999D01*
X207798034Y-99059999D01*
X207798035Y-99059999D01*
X207798035Y-99059999D01*
X207798035Y-99059999D01*
X207798035Y-99059999D01*
X207798035Y-99059999D01*
X207798035Y-99059999D01*
X207798035Y-99060000D01*
X207798035Y-99060000D01*
X207798035Y-99060000D01*
X207798035Y-99060000D01*
X207798035Y-99060000D01*
X207798035Y-99060000D01*
X207798035Y-99060000D01*
D12*
%TO.P,U1,1,GND*%
%TO.N,Net-(J1-Pin_1)*%
X150000000Y-101250000D03*
D13*
%TO.P,U1,2,VCC*%
%TO.N,Net-(J1-Pin_2)*%
X150000000Y-98250000D03*
%TD*%
D14*
%TO.P,J1,1,Pin_1*%
%TO.N,Net-(J1-Pin_1)*%
X160000000Y-101000000D03*
D15*
%TO.P,J1,2,Pin_2*%
%TO.N,Net-(J1-Pin_2)*%
X160000000Y-98460000D03*
%TD*%
%TO.N,Net-(J1-Pin_1)*%
D16*
X160000000Y-101000000D02*
X150250000Y-101000000D01*
X150250000Y-101000000D02*
X150000000Y-101250000D01*
%TO.N,Net-(J1-Pin_2)*%
X160000000Y-98460000D02*
X153810000Y-98250000D01*
X153810000Y-98250000D02*
X150000000Y-98250000D01*
%TD*%
M02*
