%TF.GenerationSoftware,KiCad,Pcbnew,10.0.3-10.0.3~ubuntu24.04.1*%
%TF.CreationDate,2026-06-15T14:30:12+08:00*%
%TF.ProjectId,lumileds-no-resistor,6c756d69-6c65-4647-932d-6e6f2d726573,rev?*%
%TF.SameCoordinates,Original*%
%TF.FileFunction,AssemblyDrawing,Bot*%
%FSLAX46Y46*%
G04 Gerber Fmt 4.6, Leading zero omitted, Abs format (unit mm)*
G04 Created by KiCad (PCBNEW 10.0.3-10.0.3~ubuntu24.04.1) date 2026-06-15 14:30:12*
%MOMM*%
%LPD*%
G01*
G04 APERTURE LIST*
%ADD10C,0.150000*%
%ADD11C,0.100000*%
G04 APERTURE END LIST*
D10*
X169694524Y-96549580D02*
X169742143Y-96597200D01*
X169742143Y-96597200D02*
X169885000Y-96644819D01*
X169885000Y-96644819D02*
X169980238Y-96644819D01*
X169980238Y-96644819D02*
X170123095Y-96597200D01*
X170123095Y-96597200D02*
X170218333Y-96501961D01*
X170218333Y-96501961D02*
X170265952Y-96406723D01*
X170265952Y-96406723D02*
X170313571Y-96216247D01*
X170313571Y-96216247D02*
X170313571Y-96073390D01*
X170313571Y-96073390D02*
X170265952Y-95882914D01*
X170265952Y-95882914D02*
X170218333Y-95787676D01*
X170218333Y-95787676D02*
X170123095Y-95692438D01*
X170123095Y-95692438D02*
X169980238Y-95644819D01*
X169980238Y-95644819D02*
X169885000Y-95644819D01*
X169885000Y-95644819D02*
X169742143Y-95692438D01*
X169742143Y-95692438D02*
X169694524Y-95740057D01*
X169123095Y-96644819D02*
X169218333Y-96597200D01*
X169218333Y-96597200D02*
X169265952Y-96549580D01*
X169265952Y-96549580D02*
X169313571Y-96454342D01*
X169313571Y-96454342D02*
X169313571Y-96168628D01*
X169313571Y-96168628D02*
X169265952Y-96073390D01*
X169265952Y-96073390D02*
X169218333Y-96025771D01*
X169218333Y-96025771D02*
X169123095Y-95978152D01*
X169123095Y-95978152D02*
X168980238Y-95978152D01*
X168980238Y-95978152D02*
X168885000Y-96025771D01*
X168885000Y-96025771D02*
X168837381Y-96073390D01*
X168837381Y-96073390D02*
X168789762Y-96168628D01*
X168789762Y-96168628D02*
X168789762Y-96454342D01*
X168789762Y-96454342D02*
X168837381Y-96549580D01*
X168837381Y-96549580D02*
X168885000Y-96597200D01*
X168885000Y-96597200D02*
X168980238Y-96644819D01*
X168980238Y-96644819D02*
X169123095Y-96644819D01*
X168361190Y-95978152D02*
X168361190Y-96644819D01*
X168361190Y-96073390D02*
X168313571Y-96025771D01*
X168313571Y-96025771D02*
X168218333Y-95978152D01*
X168218333Y-95978152D02*
X168075476Y-95978152D01*
X168075476Y-95978152D02*
X167980238Y-96025771D01*
X167980238Y-96025771D02*
X167932619Y-96121009D01*
X167932619Y-96121009D02*
X167932619Y-96644819D01*
X167456428Y-95978152D02*
X167456428Y-96644819D01*
X167456428Y-96073390D02*
X167408809Y-96025771D01*
X167408809Y-96025771D02*
X167313571Y-95978152D01*
X167313571Y-95978152D02*
X167170714Y-95978152D01*
X167170714Y-95978152D02*
X167075476Y-96025771D01*
X167075476Y-96025771D02*
X167027857Y-96121009D01*
X167027857Y-96121009D02*
X167027857Y-96644819D01*
X166789762Y-96740057D02*
X166027857Y-96740057D01*
X165599285Y-95644819D02*
X165504047Y-95644819D01*
X165504047Y-95644819D02*
X165408809Y-95692438D01*
X165408809Y-95692438D02*
X165361190Y-95740057D01*
X165361190Y-95740057D02*
X165313571Y-95835295D01*
X165313571Y-95835295D02*
X165265952Y-96025771D01*
X165265952Y-96025771D02*
X165265952Y-96263866D01*
X165265952Y-96263866D02*
X165313571Y-96454342D01*
X165313571Y-96454342D02*
X165361190Y-96549580D01*
X165361190Y-96549580D02*
X165408809Y-96597200D01*
X165408809Y-96597200D02*
X165504047Y-96644819D01*
X165504047Y-96644819D02*
X165599285Y-96644819D01*
X165599285Y-96644819D02*
X165694523Y-96597200D01*
X165694523Y-96597200D02*
X165742142Y-96549580D01*
X165742142Y-96549580D02*
X165789761Y-96454342D01*
X165789761Y-96454342D02*
X165837380Y-96263866D01*
X165837380Y-96263866D02*
X165837380Y-96025771D01*
X165837380Y-96025771D02*
X165789761Y-95835295D01*
X165789761Y-95835295D02*
X165742142Y-95740057D01*
X165742142Y-95740057D02*
X165694523Y-95692438D01*
X165694523Y-95692438D02*
X165599285Y-95644819D01*
X164313571Y-96644819D02*
X164884999Y-96644819D01*
X164599285Y-96644819D02*
X164599285Y-95644819D01*
X164599285Y-95644819D02*
X164694523Y-95787676D01*
X164694523Y-95787676D02*
X164789761Y-95882914D01*
X164789761Y-95882914D02*
X164884999Y-95930533D01*
X163980237Y-96644819D02*
X163456428Y-95978152D01*
X163980237Y-95978152D02*
X163456428Y-96644819D01*
X162884999Y-95644819D02*
X162789761Y-95644819D01*
X162789761Y-95644819D02*
X162694523Y-95692438D01*
X162694523Y-95692438D02*
X162646904Y-95740057D01*
X162646904Y-95740057D02*
X162599285Y-95835295D01*
X162599285Y-95835295D02*
X162551666Y-96025771D01*
X162551666Y-96025771D02*
X162551666Y-96263866D01*
X162551666Y-96263866D02*
X162599285Y-96454342D01*
X162599285Y-96454342D02*
X162646904Y-96549580D01*
X162646904Y-96549580D02*
X162694523Y-96597200D01*
X162694523Y-96597200D02*
X162789761Y-96644819D01*
X162789761Y-96644819D02*
X162884999Y-96644819D01*
X162884999Y-96644819D02*
X162980237Y-96597200D01*
X162980237Y-96597200D02*
X163027856Y-96549580D01*
X163027856Y-96549580D02*
X163075475Y-96454342D01*
X163075475Y-96454342D02*
X163123094Y-96263866D01*
X163123094Y-96263866D02*
X163123094Y-96025771D01*
X163123094Y-96025771D02*
X163075475Y-95835295D01*
X163075475Y-95835295D02*
X163027856Y-95740057D01*
X163027856Y-95740057D02*
X162980237Y-95692438D01*
X162980237Y-95692438D02*
X162884999Y-95644819D01*
X162170713Y-95740057D02*
X162123094Y-95692438D01*
X162123094Y-95692438D02*
X162027856Y-95644819D01*
X162027856Y-95644819D02*
X161789761Y-95644819D01*
X161789761Y-95644819D02*
X161694523Y-95692438D01*
X161694523Y-95692438D02*
X161646904Y-95740057D01*
X161646904Y-95740057D02*
X161599285Y-95835295D01*
X161599285Y-95835295D02*
X161599285Y-95930533D01*
X161599285Y-95930533D02*
X161646904Y-96073390D01*
X161646904Y-96073390D02*
X162218332Y-96644819D01*
X162218332Y-96644819D02*
X161599285Y-96644819D01*
X161408809Y-96740057D02*
X160646904Y-96740057D01*
X160408808Y-96644819D02*
X160408808Y-95644819D01*
X160408808Y-95644819D02*
X160027856Y-95644819D01*
X160027856Y-95644819D02*
X159932618Y-95692438D01*
X159932618Y-95692438D02*
X159884999Y-95740057D01*
X159884999Y-95740057D02*
X159837380Y-95835295D01*
X159837380Y-95835295D02*
X159837380Y-95978152D01*
X159837380Y-95978152D02*
X159884999Y-96073390D01*
X159884999Y-96073390D02*
X159932618Y-96121009D01*
X159932618Y-96121009D02*
X160027856Y-96168628D01*
X160027856Y-96168628D02*
X160408808Y-96168628D01*
X159408808Y-96644819D02*
X159408808Y-95978152D01*
X159408808Y-95644819D02*
X159456427Y-95692438D01*
X159456427Y-95692438D02*
X159408808Y-95740057D01*
X159408808Y-95740057D02*
X159361189Y-95692438D01*
X159361189Y-95692438D02*
X159408808Y-95644819D01*
X159408808Y-95644819D02*
X159408808Y-95740057D01*
X158932618Y-95978152D02*
X158932618Y-96644819D01*
X158932618Y-96073390D02*
X158884999Y-96025771D01*
X158884999Y-96025771D02*
X158789761Y-95978152D01*
X158789761Y-95978152D02*
X158646904Y-95978152D01*
X158646904Y-95978152D02*
X158551666Y-96025771D01*
X158551666Y-96025771D02*
X158504047Y-96121009D01*
X158504047Y-96121009D02*
X158504047Y-96644819D01*
X162224819Y-99396666D02*
X162939104Y-99396666D01*
X162939104Y-99396666D02*
X163081961Y-99349047D01*
X163081961Y-99349047D02*
X163177200Y-99253809D01*
X163177200Y-99253809D02*
X163224819Y-99110952D01*
X163224819Y-99110952D02*
X163224819Y-99015714D01*
X163224819Y-100396666D02*
X163224819Y-99825238D01*
X163224819Y-100110952D02*
X162224819Y-100110952D01*
X162224819Y-100110952D02*
X162367676Y-100015714D01*
X162367676Y-100015714D02*
X162462914Y-99920476D01*
X162462914Y-99920476D02*
X162510533Y-99825238D01*
%TO.C,J1*%
D11*
X159680000Y-98140000D02*
X161500000Y-98140000D01*
X159680000Y-98780000D02*
X159680000Y-98140000D01*
X159680000Y-98780000D02*
X161500000Y-98780000D01*
X159680000Y-100680000D02*
X161500000Y-100680000D01*
X159680000Y-101320000D02*
X159680000Y-100680000D01*
X159680000Y-101320000D02*
X161500000Y-101320000D01*
X161500000Y-97190000D02*
X161500000Y-101635000D01*
X161500000Y-101635000D02*
X162135000Y-102270000D01*
X162135000Y-102270000D02*
X164040000Y-102270000D01*
X164040000Y-97190000D02*
X161500000Y-97190000D01*
X164040000Y-98140000D02*
X170040000Y-98140000D01*
X164040000Y-98780000D02*
X170040000Y-98780000D01*
X164040000Y-100680000D02*
X170040000Y-100680000D01*
X164040000Y-101320000D02*
X170040000Y-101320000D01*
X164040000Y-102270000D02*
X164040000Y-97190000D01*
X170040000Y-98780000D02*
X170040000Y-98140000D01*
X170040000Y-101320000D02*
X170040000Y-100680000D01*
%TD*%
M02*
