%TF.GenerationSoftware,KiCad,Pcbnew,10.0.3-10.0.3~ubuntu24.04.1*%
%TF.CreationDate,2026-06-15T14:30:12+08:00*%
%TF.ProjectId,lumileds-no-resistor,6c756d69-6c65-4647-932d-6e6f2d726573,rev?*%
%TF.SameCoordinates,Original*%
%TF.FileFunction,AssemblyDrawing,Top*%
%FSLAX46Y46*%
G04 Gerber Fmt 4.6, Leading zero omitted, Abs format (unit mm)*
G04 Created by KiCad (PCBNEW 10.0.3-10.0.3~ubuntu24.04.1) date 2026-06-15 14:30:12*
%MOMM*%
%LPD*%
G01*
G04 APERTURE LIST*
%ADD10C,0.150000*%
%ADD11C,0.100000*%
G04 APERTURE END LIST*
D10*
X151214285Y-109654819D02*
X151214285Y-108654819D01*
X151214285Y-108654819D02*
X151547618Y-109369104D01*
X151547618Y-109369104D02*
X151880951Y-108654819D01*
X151880951Y-108654819D02*
X151880951Y-109654819D01*
X152499999Y-109654819D02*
X152404761Y-109607200D01*
X152404761Y-109607200D02*
X152357142Y-109559580D01*
X152357142Y-109559580D02*
X152309523Y-109464342D01*
X152309523Y-109464342D02*
X152309523Y-109178628D01*
X152309523Y-109178628D02*
X152357142Y-109083390D01*
X152357142Y-109083390D02*
X152404761Y-109035771D01*
X152404761Y-109035771D02*
X152499999Y-108988152D01*
X152499999Y-108988152D02*
X152642856Y-108988152D01*
X152642856Y-108988152D02*
X152738094Y-109035771D01*
X152738094Y-109035771D02*
X152785713Y-109083390D01*
X152785713Y-109083390D02*
X152833332Y-109178628D01*
X152833332Y-109178628D02*
X152833332Y-109464342D01*
X152833332Y-109464342D02*
X152785713Y-109559580D01*
X152785713Y-109559580D02*
X152738094Y-109607200D01*
X152738094Y-109607200D02*
X152642856Y-109654819D01*
X152642856Y-109654819D02*
X152499999Y-109654819D01*
X153690475Y-108988152D02*
X153690475Y-109654819D01*
X153261904Y-108988152D02*
X153261904Y-109511961D01*
X153261904Y-109511961D02*
X153309523Y-109607200D01*
X153309523Y-109607200D02*
X153404761Y-109654819D01*
X153404761Y-109654819D02*
X153547618Y-109654819D01*
X153547618Y-109654819D02*
X153642856Y-109607200D01*
X153642856Y-109607200D02*
X153690475Y-109559580D01*
X154166666Y-108988152D02*
X154166666Y-109654819D01*
X154166666Y-109083390D02*
X154214285Y-109035771D01*
X154214285Y-109035771D02*
X154309523Y-108988152D01*
X154309523Y-108988152D02*
X154452380Y-108988152D01*
X154452380Y-108988152D02*
X154547618Y-109035771D01*
X154547618Y-109035771D02*
X154595237Y-109131009D01*
X154595237Y-109131009D02*
X154595237Y-109654819D01*
X154928571Y-108988152D02*
X155309523Y-108988152D01*
X155071428Y-108654819D02*
X155071428Y-109511961D01*
X155071428Y-109511961D02*
X155119047Y-109607200D01*
X155119047Y-109607200D02*
X155214285Y-109654819D01*
X155214285Y-109654819D02*
X155309523Y-109654819D01*
X155642857Y-109654819D02*
X155642857Y-108988152D01*
X155642857Y-108654819D02*
X155595238Y-108702438D01*
X155595238Y-108702438D02*
X155642857Y-108750057D01*
X155642857Y-108750057D02*
X155690476Y-108702438D01*
X155690476Y-108702438D02*
X155642857Y-108654819D01*
X155642857Y-108654819D02*
X155642857Y-108750057D01*
X156119047Y-108988152D02*
X156119047Y-109654819D01*
X156119047Y-109083390D02*
X156166666Y-109035771D01*
X156166666Y-109035771D02*
X156261904Y-108988152D01*
X156261904Y-108988152D02*
X156404761Y-108988152D01*
X156404761Y-108988152D02*
X156499999Y-109035771D01*
X156499999Y-109035771D02*
X156547618Y-109131009D01*
X156547618Y-109131009D02*
X156547618Y-109654819D01*
X157452380Y-108988152D02*
X157452380Y-109797676D01*
X157452380Y-109797676D02*
X157404761Y-109892914D01*
X157404761Y-109892914D02*
X157357142Y-109940533D01*
X157357142Y-109940533D02*
X157261904Y-109988152D01*
X157261904Y-109988152D02*
X157119047Y-109988152D01*
X157119047Y-109988152D02*
X157023809Y-109940533D01*
X157452380Y-109607200D02*
X157357142Y-109654819D01*
X157357142Y-109654819D02*
X157166666Y-109654819D01*
X157166666Y-109654819D02*
X157071428Y-109607200D01*
X157071428Y-109607200D02*
X157023809Y-109559580D01*
X157023809Y-109559580D02*
X156976190Y-109464342D01*
X156976190Y-109464342D02*
X156976190Y-109178628D01*
X156976190Y-109178628D02*
X157023809Y-109083390D01*
X157023809Y-109083390D02*
X157071428Y-109035771D01*
X157071428Y-109035771D02*
X157166666Y-108988152D01*
X157166666Y-108988152D02*
X157357142Y-108988152D01*
X157357142Y-108988152D02*
X157452380Y-109035771D01*
X157928571Y-109654819D02*
X157928571Y-108654819D01*
X157928571Y-109131009D02*
X158499999Y-109131009D01*
X158499999Y-109654819D02*
X158499999Y-108654819D01*
X159119047Y-109654819D02*
X159023809Y-109607200D01*
X159023809Y-109607200D02*
X158976190Y-109559580D01*
X158976190Y-109559580D02*
X158928571Y-109464342D01*
X158928571Y-109464342D02*
X158928571Y-109178628D01*
X158928571Y-109178628D02*
X158976190Y-109083390D01*
X158976190Y-109083390D02*
X159023809Y-109035771D01*
X159023809Y-109035771D02*
X159119047Y-108988152D01*
X159119047Y-108988152D02*
X159261904Y-108988152D01*
X159261904Y-108988152D02*
X159357142Y-109035771D01*
X159357142Y-109035771D02*
X159404761Y-109083390D01*
X159404761Y-109083390D02*
X159452380Y-109178628D01*
X159452380Y-109178628D02*
X159452380Y-109464342D01*
X159452380Y-109464342D02*
X159404761Y-109559580D01*
X159404761Y-109559580D02*
X159357142Y-109607200D01*
X159357142Y-109607200D02*
X159261904Y-109654819D01*
X159261904Y-109654819D02*
X159119047Y-109654819D01*
X160023809Y-109654819D02*
X159928571Y-109607200D01*
X159928571Y-109607200D02*
X159880952Y-109511961D01*
X159880952Y-109511961D02*
X159880952Y-108654819D01*
X160785714Y-109607200D02*
X160690476Y-109654819D01*
X160690476Y-109654819D02*
X160500000Y-109654819D01*
X160500000Y-109654819D02*
X160404762Y-109607200D01*
X160404762Y-109607200D02*
X160357143Y-109511961D01*
X160357143Y-109511961D02*
X160357143Y-109131009D01*
X160357143Y-109131009D02*
X160404762Y-109035771D01*
X160404762Y-109035771D02*
X160500000Y-108988152D01*
X160500000Y-108988152D02*
X160690476Y-108988152D01*
X160690476Y-108988152D02*
X160785714Y-109035771D01*
X160785714Y-109035771D02*
X160833333Y-109131009D01*
X160833333Y-109131009D02*
X160833333Y-109226247D01*
X160833333Y-109226247D02*
X160357143Y-109321485D01*
X155238095Y-106454819D02*
X155238095Y-105454819D01*
X155238095Y-105931009D02*
X155809523Y-105931009D01*
X155809523Y-106454819D02*
X155809523Y-105454819D01*
X156190476Y-105454819D02*
X156809523Y-105454819D01*
X156809523Y-105454819D02*
X156476190Y-105835771D01*
X156476190Y-105835771D02*
X156619047Y-105835771D01*
X156619047Y-105835771D02*
X156714285Y-105883390D01*
X156714285Y-105883390D02*
X156761904Y-105931009D01*
X156761904Y-105931009D02*
X156809523Y-106026247D01*
X156809523Y-106026247D02*
X156809523Y-106264342D01*
X156809523Y-106264342D02*
X156761904Y-106359580D01*
X156761904Y-106359580D02*
X156714285Y-106407200D01*
X156714285Y-106407200D02*
X156619047Y-106454819D01*
X156619047Y-106454819D02*
X156333333Y-106454819D01*
X156333333Y-106454819D02*
X156238095Y-106407200D01*
X156238095Y-106407200D02*
X156190476Y-106359580D01*
X139214285Y-109654819D02*
X139214285Y-108654819D01*
X139214285Y-108654819D02*
X139547618Y-109369104D01*
X139547618Y-109369104D02*
X139880951Y-108654819D01*
X139880951Y-108654819D02*
X139880951Y-109654819D01*
X140499999Y-109654819D02*
X140404761Y-109607200D01*
X140404761Y-109607200D02*
X140357142Y-109559580D01*
X140357142Y-109559580D02*
X140309523Y-109464342D01*
X140309523Y-109464342D02*
X140309523Y-109178628D01*
X140309523Y-109178628D02*
X140357142Y-109083390D01*
X140357142Y-109083390D02*
X140404761Y-109035771D01*
X140404761Y-109035771D02*
X140499999Y-108988152D01*
X140499999Y-108988152D02*
X140642856Y-108988152D01*
X140642856Y-108988152D02*
X140738094Y-109035771D01*
X140738094Y-109035771D02*
X140785713Y-109083390D01*
X140785713Y-109083390D02*
X140833332Y-109178628D01*
X140833332Y-109178628D02*
X140833332Y-109464342D01*
X140833332Y-109464342D02*
X140785713Y-109559580D01*
X140785713Y-109559580D02*
X140738094Y-109607200D01*
X140738094Y-109607200D02*
X140642856Y-109654819D01*
X140642856Y-109654819D02*
X140499999Y-109654819D01*
X141690475Y-108988152D02*
X141690475Y-109654819D01*
X141261904Y-108988152D02*
X141261904Y-109511961D01*
X141261904Y-109511961D02*
X141309523Y-109607200D01*
X141309523Y-109607200D02*
X141404761Y-109654819D01*
X141404761Y-109654819D02*
X141547618Y-109654819D01*
X141547618Y-109654819D02*
X141642856Y-109607200D01*
X141642856Y-109607200D02*
X141690475Y-109559580D01*
X142166666Y-108988152D02*
X142166666Y-109654819D01*
X142166666Y-109083390D02*
X142214285Y-109035771D01*
X142214285Y-109035771D02*
X142309523Y-108988152D01*
X142309523Y-108988152D02*
X142452380Y-108988152D01*
X142452380Y-108988152D02*
X142547618Y-109035771D01*
X142547618Y-109035771D02*
X142595237Y-109131009D01*
X142595237Y-109131009D02*
X142595237Y-109654819D01*
X142928571Y-108988152D02*
X143309523Y-108988152D01*
X143071428Y-108654819D02*
X143071428Y-109511961D01*
X143071428Y-109511961D02*
X143119047Y-109607200D01*
X143119047Y-109607200D02*
X143214285Y-109654819D01*
X143214285Y-109654819D02*
X143309523Y-109654819D01*
X143642857Y-109654819D02*
X143642857Y-108988152D01*
X143642857Y-108654819D02*
X143595238Y-108702438D01*
X143595238Y-108702438D02*
X143642857Y-108750057D01*
X143642857Y-108750057D02*
X143690476Y-108702438D01*
X143690476Y-108702438D02*
X143642857Y-108654819D01*
X143642857Y-108654819D02*
X143642857Y-108750057D01*
X144119047Y-108988152D02*
X144119047Y-109654819D01*
X144119047Y-109083390D02*
X144166666Y-109035771D01*
X144166666Y-109035771D02*
X144261904Y-108988152D01*
X144261904Y-108988152D02*
X144404761Y-108988152D01*
X144404761Y-108988152D02*
X144499999Y-109035771D01*
X144499999Y-109035771D02*
X144547618Y-109131009D01*
X144547618Y-109131009D02*
X144547618Y-109654819D01*
X145452380Y-108988152D02*
X145452380Y-109797676D01*
X145452380Y-109797676D02*
X145404761Y-109892914D01*
X145404761Y-109892914D02*
X145357142Y-109940533D01*
X145357142Y-109940533D02*
X145261904Y-109988152D01*
X145261904Y-109988152D02*
X145119047Y-109988152D01*
X145119047Y-109988152D02*
X145023809Y-109940533D01*
X145452380Y-109607200D02*
X145357142Y-109654819D01*
X145357142Y-109654819D02*
X145166666Y-109654819D01*
X145166666Y-109654819D02*
X145071428Y-109607200D01*
X145071428Y-109607200D02*
X145023809Y-109559580D01*
X145023809Y-109559580D02*
X144976190Y-109464342D01*
X144976190Y-109464342D02*
X144976190Y-109178628D01*
X144976190Y-109178628D02*
X145023809Y-109083390D01*
X145023809Y-109083390D02*
X145071428Y-109035771D01*
X145071428Y-109035771D02*
X145166666Y-108988152D01*
X145166666Y-108988152D02*
X145357142Y-108988152D01*
X145357142Y-108988152D02*
X145452380Y-109035771D01*
X145928571Y-109654819D02*
X145928571Y-108654819D01*
X145928571Y-109131009D02*
X146499999Y-109131009D01*
X146499999Y-109654819D02*
X146499999Y-108654819D01*
X147119047Y-109654819D02*
X147023809Y-109607200D01*
X147023809Y-109607200D02*
X146976190Y-109559580D01*
X146976190Y-109559580D02*
X146928571Y-109464342D01*
X146928571Y-109464342D02*
X146928571Y-109178628D01*
X146928571Y-109178628D02*
X146976190Y-109083390D01*
X146976190Y-109083390D02*
X147023809Y-109035771D01*
X147023809Y-109035771D02*
X147119047Y-108988152D01*
X147119047Y-108988152D02*
X147261904Y-108988152D01*
X147261904Y-108988152D02*
X147357142Y-109035771D01*
X147357142Y-109035771D02*
X147404761Y-109083390D01*
X147404761Y-109083390D02*
X147452380Y-109178628D01*
X147452380Y-109178628D02*
X147452380Y-109464342D01*
X147452380Y-109464342D02*
X147404761Y-109559580D01*
X147404761Y-109559580D02*
X147357142Y-109607200D01*
X147357142Y-109607200D02*
X147261904Y-109654819D01*
X147261904Y-109654819D02*
X147119047Y-109654819D01*
X148023809Y-109654819D02*
X147928571Y-109607200D01*
X147928571Y-109607200D02*
X147880952Y-109511961D01*
X147880952Y-109511961D02*
X147880952Y-108654819D01*
X148785714Y-109607200D02*
X148690476Y-109654819D01*
X148690476Y-109654819D02*
X148500000Y-109654819D01*
X148500000Y-109654819D02*
X148404762Y-109607200D01*
X148404762Y-109607200D02*
X148357143Y-109511961D01*
X148357143Y-109511961D02*
X148357143Y-109131009D01*
X148357143Y-109131009D02*
X148404762Y-109035771D01*
X148404762Y-109035771D02*
X148500000Y-108988152D01*
X148500000Y-108988152D02*
X148690476Y-108988152D01*
X148690476Y-108988152D02*
X148785714Y-109035771D01*
X148785714Y-109035771D02*
X148833333Y-109131009D01*
X148833333Y-109131009D02*
X148833333Y-109226247D01*
X148833333Y-109226247D02*
X148357143Y-109321485D01*
X143238095Y-106454819D02*
X143238095Y-105454819D01*
X143238095Y-105931009D02*
X143809523Y-105931009D01*
X143809523Y-106454819D02*
X143809523Y-105454819D01*
X144714285Y-105788152D02*
X144714285Y-106454819D01*
X144476190Y-105407200D02*
X144238095Y-106121485D01*
X144238095Y-106121485D02*
X144857142Y-106121485D01*
X151214285Y-97654819D02*
X151214285Y-96654819D01*
X151214285Y-96654819D02*
X151547618Y-97369104D01*
X151547618Y-97369104D02*
X151880951Y-96654819D01*
X151880951Y-96654819D02*
X151880951Y-97654819D01*
X152499999Y-97654819D02*
X152404761Y-97607200D01*
X152404761Y-97607200D02*
X152357142Y-97559580D01*
X152357142Y-97559580D02*
X152309523Y-97464342D01*
X152309523Y-97464342D02*
X152309523Y-97178628D01*
X152309523Y-97178628D02*
X152357142Y-97083390D01*
X152357142Y-97083390D02*
X152404761Y-97035771D01*
X152404761Y-97035771D02*
X152499999Y-96988152D01*
X152499999Y-96988152D02*
X152642856Y-96988152D01*
X152642856Y-96988152D02*
X152738094Y-97035771D01*
X152738094Y-97035771D02*
X152785713Y-97083390D01*
X152785713Y-97083390D02*
X152833332Y-97178628D01*
X152833332Y-97178628D02*
X152833332Y-97464342D01*
X152833332Y-97464342D02*
X152785713Y-97559580D01*
X152785713Y-97559580D02*
X152738094Y-97607200D01*
X152738094Y-97607200D02*
X152642856Y-97654819D01*
X152642856Y-97654819D02*
X152499999Y-97654819D01*
X153690475Y-96988152D02*
X153690475Y-97654819D01*
X153261904Y-96988152D02*
X153261904Y-97511961D01*
X153261904Y-97511961D02*
X153309523Y-97607200D01*
X153309523Y-97607200D02*
X153404761Y-97654819D01*
X153404761Y-97654819D02*
X153547618Y-97654819D01*
X153547618Y-97654819D02*
X153642856Y-97607200D01*
X153642856Y-97607200D02*
X153690475Y-97559580D01*
X154166666Y-96988152D02*
X154166666Y-97654819D01*
X154166666Y-97083390D02*
X154214285Y-97035771D01*
X154214285Y-97035771D02*
X154309523Y-96988152D01*
X154309523Y-96988152D02*
X154452380Y-96988152D01*
X154452380Y-96988152D02*
X154547618Y-97035771D01*
X154547618Y-97035771D02*
X154595237Y-97131009D01*
X154595237Y-97131009D02*
X154595237Y-97654819D01*
X154928571Y-96988152D02*
X155309523Y-96988152D01*
X155071428Y-96654819D02*
X155071428Y-97511961D01*
X155071428Y-97511961D02*
X155119047Y-97607200D01*
X155119047Y-97607200D02*
X155214285Y-97654819D01*
X155214285Y-97654819D02*
X155309523Y-97654819D01*
X155642857Y-97654819D02*
X155642857Y-96988152D01*
X155642857Y-96654819D02*
X155595238Y-96702438D01*
X155595238Y-96702438D02*
X155642857Y-96750057D01*
X155642857Y-96750057D02*
X155690476Y-96702438D01*
X155690476Y-96702438D02*
X155642857Y-96654819D01*
X155642857Y-96654819D02*
X155642857Y-96750057D01*
X156119047Y-96988152D02*
X156119047Y-97654819D01*
X156119047Y-97083390D02*
X156166666Y-97035771D01*
X156166666Y-97035771D02*
X156261904Y-96988152D01*
X156261904Y-96988152D02*
X156404761Y-96988152D01*
X156404761Y-96988152D02*
X156499999Y-97035771D01*
X156499999Y-97035771D02*
X156547618Y-97131009D01*
X156547618Y-97131009D02*
X156547618Y-97654819D01*
X157452380Y-96988152D02*
X157452380Y-97797676D01*
X157452380Y-97797676D02*
X157404761Y-97892914D01*
X157404761Y-97892914D02*
X157357142Y-97940533D01*
X157357142Y-97940533D02*
X157261904Y-97988152D01*
X157261904Y-97988152D02*
X157119047Y-97988152D01*
X157119047Y-97988152D02*
X157023809Y-97940533D01*
X157452380Y-97607200D02*
X157357142Y-97654819D01*
X157357142Y-97654819D02*
X157166666Y-97654819D01*
X157166666Y-97654819D02*
X157071428Y-97607200D01*
X157071428Y-97607200D02*
X157023809Y-97559580D01*
X157023809Y-97559580D02*
X156976190Y-97464342D01*
X156976190Y-97464342D02*
X156976190Y-97178628D01*
X156976190Y-97178628D02*
X157023809Y-97083390D01*
X157023809Y-97083390D02*
X157071428Y-97035771D01*
X157071428Y-97035771D02*
X157166666Y-96988152D01*
X157166666Y-96988152D02*
X157357142Y-96988152D01*
X157357142Y-96988152D02*
X157452380Y-97035771D01*
X157928571Y-97654819D02*
X157928571Y-96654819D01*
X157928571Y-97131009D02*
X158499999Y-97131009D01*
X158499999Y-97654819D02*
X158499999Y-96654819D01*
X159119047Y-97654819D02*
X159023809Y-97607200D01*
X159023809Y-97607200D02*
X158976190Y-97559580D01*
X158976190Y-97559580D02*
X158928571Y-97464342D01*
X158928571Y-97464342D02*
X158928571Y-97178628D01*
X158928571Y-97178628D02*
X158976190Y-97083390D01*
X158976190Y-97083390D02*
X159023809Y-97035771D01*
X159023809Y-97035771D02*
X159119047Y-96988152D01*
X159119047Y-96988152D02*
X159261904Y-96988152D01*
X159261904Y-96988152D02*
X159357142Y-97035771D01*
X159357142Y-97035771D02*
X159404761Y-97083390D01*
X159404761Y-97083390D02*
X159452380Y-97178628D01*
X159452380Y-97178628D02*
X159452380Y-97464342D01*
X159452380Y-97464342D02*
X159404761Y-97559580D01*
X159404761Y-97559580D02*
X159357142Y-97607200D01*
X159357142Y-97607200D02*
X159261904Y-97654819D01*
X159261904Y-97654819D02*
X159119047Y-97654819D01*
X160023809Y-97654819D02*
X159928571Y-97607200D01*
X159928571Y-97607200D02*
X159880952Y-97511961D01*
X159880952Y-97511961D02*
X159880952Y-96654819D01*
X160785714Y-97607200D02*
X160690476Y-97654819D01*
X160690476Y-97654819D02*
X160500000Y-97654819D01*
X160500000Y-97654819D02*
X160404762Y-97607200D01*
X160404762Y-97607200D02*
X160357143Y-97511961D01*
X160357143Y-97511961D02*
X160357143Y-97131009D01*
X160357143Y-97131009D02*
X160404762Y-97035771D01*
X160404762Y-97035771D02*
X160500000Y-96988152D01*
X160500000Y-96988152D02*
X160690476Y-96988152D01*
X160690476Y-96988152D02*
X160785714Y-97035771D01*
X160785714Y-97035771D02*
X160833333Y-97131009D01*
X160833333Y-97131009D02*
X160833333Y-97226247D01*
X160833333Y-97226247D02*
X160357143Y-97321485D01*
X155238095Y-94454819D02*
X155238095Y-93454819D01*
X155238095Y-93931009D02*
X155809523Y-93931009D01*
X155809523Y-94454819D02*
X155809523Y-93454819D01*
X156238095Y-93550057D02*
X156285714Y-93502438D01*
X156285714Y-93502438D02*
X156380952Y-93454819D01*
X156380952Y-93454819D02*
X156619047Y-93454819D01*
X156619047Y-93454819D02*
X156714285Y-93502438D01*
X156714285Y-93502438D02*
X156761904Y-93550057D01*
X156761904Y-93550057D02*
X156809523Y-93645295D01*
X156809523Y-93645295D02*
X156809523Y-93740533D01*
X156809523Y-93740533D02*
X156761904Y-93883390D01*
X156761904Y-93883390D02*
X156190476Y-94454819D01*
X156190476Y-94454819D02*
X156809523Y-94454819D01*
X139214285Y-97654819D02*
X139214285Y-96654819D01*
X139214285Y-96654819D02*
X139547618Y-97369104D01*
X139547618Y-97369104D02*
X139880951Y-96654819D01*
X139880951Y-96654819D02*
X139880951Y-97654819D01*
X140499999Y-97654819D02*
X140404761Y-97607200D01*
X140404761Y-97607200D02*
X140357142Y-97559580D01*
X140357142Y-97559580D02*
X140309523Y-97464342D01*
X140309523Y-97464342D02*
X140309523Y-97178628D01*
X140309523Y-97178628D02*
X140357142Y-97083390D01*
X140357142Y-97083390D02*
X140404761Y-97035771D01*
X140404761Y-97035771D02*
X140499999Y-96988152D01*
X140499999Y-96988152D02*
X140642856Y-96988152D01*
X140642856Y-96988152D02*
X140738094Y-97035771D01*
X140738094Y-97035771D02*
X140785713Y-97083390D01*
X140785713Y-97083390D02*
X140833332Y-97178628D01*
X140833332Y-97178628D02*
X140833332Y-97464342D01*
X140833332Y-97464342D02*
X140785713Y-97559580D01*
X140785713Y-97559580D02*
X140738094Y-97607200D01*
X140738094Y-97607200D02*
X140642856Y-97654819D01*
X140642856Y-97654819D02*
X140499999Y-97654819D01*
X141690475Y-96988152D02*
X141690475Y-97654819D01*
X141261904Y-96988152D02*
X141261904Y-97511961D01*
X141261904Y-97511961D02*
X141309523Y-97607200D01*
X141309523Y-97607200D02*
X141404761Y-97654819D01*
X141404761Y-97654819D02*
X141547618Y-97654819D01*
X141547618Y-97654819D02*
X141642856Y-97607200D01*
X141642856Y-97607200D02*
X141690475Y-97559580D01*
X142166666Y-96988152D02*
X142166666Y-97654819D01*
X142166666Y-97083390D02*
X142214285Y-97035771D01*
X142214285Y-97035771D02*
X142309523Y-96988152D01*
X142309523Y-96988152D02*
X142452380Y-96988152D01*
X142452380Y-96988152D02*
X142547618Y-97035771D01*
X142547618Y-97035771D02*
X142595237Y-97131009D01*
X142595237Y-97131009D02*
X142595237Y-97654819D01*
X142928571Y-96988152D02*
X143309523Y-96988152D01*
X143071428Y-96654819D02*
X143071428Y-97511961D01*
X143071428Y-97511961D02*
X143119047Y-97607200D01*
X143119047Y-97607200D02*
X143214285Y-97654819D01*
X143214285Y-97654819D02*
X143309523Y-97654819D01*
X143642857Y-97654819D02*
X143642857Y-96988152D01*
X143642857Y-96654819D02*
X143595238Y-96702438D01*
X143595238Y-96702438D02*
X143642857Y-96750057D01*
X143642857Y-96750057D02*
X143690476Y-96702438D01*
X143690476Y-96702438D02*
X143642857Y-96654819D01*
X143642857Y-96654819D02*
X143642857Y-96750057D01*
X144119047Y-96988152D02*
X144119047Y-97654819D01*
X144119047Y-97083390D02*
X144166666Y-97035771D01*
X144166666Y-97035771D02*
X144261904Y-96988152D01*
X144261904Y-96988152D02*
X144404761Y-96988152D01*
X144404761Y-96988152D02*
X144499999Y-97035771D01*
X144499999Y-97035771D02*
X144547618Y-97131009D01*
X144547618Y-97131009D02*
X144547618Y-97654819D01*
X145452380Y-96988152D02*
X145452380Y-97797676D01*
X145452380Y-97797676D02*
X145404761Y-97892914D01*
X145404761Y-97892914D02*
X145357142Y-97940533D01*
X145357142Y-97940533D02*
X145261904Y-97988152D01*
X145261904Y-97988152D02*
X145119047Y-97988152D01*
X145119047Y-97988152D02*
X145023809Y-97940533D01*
X145452380Y-97607200D02*
X145357142Y-97654819D01*
X145357142Y-97654819D02*
X145166666Y-97654819D01*
X145166666Y-97654819D02*
X145071428Y-97607200D01*
X145071428Y-97607200D02*
X145023809Y-97559580D01*
X145023809Y-97559580D02*
X144976190Y-97464342D01*
X144976190Y-97464342D02*
X144976190Y-97178628D01*
X144976190Y-97178628D02*
X145023809Y-97083390D01*
X145023809Y-97083390D02*
X145071428Y-97035771D01*
X145071428Y-97035771D02*
X145166666Y-96988152D01*
X145166666Y-96988152D02*
X145357142Y-96988152D01*
X145357142Y-96988152D02*
X145452380Y-97035771D01*
X145928571Y-97654819D02*
X145928571Y-96654819D01*
X145928571Y-97131009D02*
X146499999Y-97131009D01*
X146499999Y-97654819D02*
X146499999Y-96654819D01*
X147119047Y-97654819D02*
X147023809Y-97607200D01*
X147023809Y-97607200D02*
X146976190Y-97559580D01*
X146976190Y-97559580D02*
X146928571Y-97464342D01*
X146928571Y-97464342D02*
X146928571Y-97178628D01*
X146928571Y-97178628D02*
X146976190Y-97083390D01*
X146976190Y-97083390D02*
X147023809Y-97035771D01*
X147023809Y-97035771D02*
X147119047Y-96988152D01*
X147119047Y-96988152D02*
X147261904Y-96988152D01*
X147261904Y-96988152D02*
X147357142Y-97035771D01*
X147357142Y-97035771D02*
X147404761Y-97083390D01*
X147404761Y-97083390D02*
X147452380Y-97178628D01*
X147452380Y-97178628D02*
X147452380Y-97464342D01*
X147452380Y-97464342D02*
X147404761Y-97559580D01*
X147404761Y-97559580D02*
X147357142Y-97607200D01*
X147357142Y-97607200D02*
X147261904Y-97654819D01*
X147261904Y-97654819D02*
X147119047Y-97654819D01*
X148023809Y-97654819D02*
X147928571Y-97607200D01*
X147928571Y-97607200D02*
X147880952Y-97511961D01*
X147880952Y-97511961D02*
X147880952Y-96654819D01*
X148785714Y-97607200D02*
X148690476Y-97654819D01*
X148690476Y-97654819D02*
X148500000Y-97654819D01*
X148500000Y-97654819D02*
X148404762Y-97607200D01*
X148404762Y-97607200D02*
X148357143Y-97511961D01*
X148357143Y-97511961D02*
X148357143Y-97131009D01*
X148357143Y-97131009D02*
X148404762Y-97035771D01*
X148404762Y-97035771D02*
X148500000Y-96988152D01*
X148500000Y-96988152D02*
X148690476Y-96988152D01*
X148690476Y-96988152D02*
X148785714Y-97035771D01*
X148785714Y-97035771D02*
X148833333Y-97131009D01*
X148833333Y-97131009D02*
X148833333Y-97226247D01*
X148833333Y-97226247D02*
X148357143Y-97321485D01*
X143238095Y-94454819D02*
X143238095Y-93454819D01*
X143238095Y-93931009D02*
X143809523Y-93931009D01*
X143809523Y-94454819D02*
X143809523Y-93454819D01*
X144809523Y-94454819D02*
X144238095Y-94454819D01*
X144523809Y-94454819D02*
X144523809Y-93454819D01*
X144523809Y-93454819D02*
X144428571Y-93597676D01*
X144428571Y-93597676D02*
X144333333Y-93692914D01*
X144333333Y-93692914D02*
X144238095Y-93740533D01*
X154454819Y-105785714D02*
X154454819Y-106261904D01*
X154454819Y-106261904D02*
X153454819Y-106261904D01*
X153454819Y-105547618D02*
X154454819Y-104880952D01*
X153454819Y-104880952D02*
X154454819Y-105547618D01*
X154359580Y-103928571D02*
X154407200Y-103976190D01*
X154407200Y-103976190D02*
X154454819Y-104119047D01*
X154454819Y-104119047D02*
X154454819Y-104214285D01*
X154454819Y-104214285D02*
X154407200Y-104357142D01*
X154407200Y-104357142D02*
X154311961Y-104452380D01*
X154311961Y-104452380D02*
X154216723Y-104499999D01*
X154216723Y-104499999D02*
X154026247Y-104547618D01*
X154026247Y-104547618D02*
X153883390Y-104547618D01*
X153883390Y-104547618D02*
X153692914Y-104499999D01*
X153692914Y-104499999D02*
X153597676Y-104452380D01*
X153597676Y-104452380D02*
X153502438Y-104357142D01*
X153502438Y-104357142D02*
X153454819Y-104214285D01*
X153454819Y-104214285D02*
X153454819Y-104119047D01*
X153454819Y-104119047D02*
X153502438Y-103976190D01*
X153502438Y-103976190D02*
X153550057Y-103928571D01*
X154454819Y-103023809D02*
X154454819Y-103499999D01*
X154454819Y-103499999D02*
X153454819Y-103499999D01*
X154550057Y-102928571D02*
X154550057Y-102166666D01*
X154454819Y-101928570D02*
X153454819Y-101928570D01*
X153454819Y-101928570D02*
X154169104Y-101595237D01*
X154169104Y-101595237D02*
X153454819Y-101261904D01*
X153454819Y-101261904D02*
X154454819Y-101261904D01*
X154454819Y-100785713D02*
X153454819Y-100785713D01*
X153454819Y-100785713D02*
X154454819Y-100214285D01*
X154454819Y-100214285D02*
X153454819Y-100214285D01*
X153454819Y-99547618D02*
X153454819Y-99452380D01*
X153454819Y-99452380D02*
X153502438Y-99357142D01*
X153502438Y-99357142D02*
X153550057Y-99309523D01*
X153550057Y-99309523D02*
X153645295Y-99261904D01*
X153645295Y-99261904D02*
X153835771Y-99214285D01*
X153835771Y-99214285D02*
X154073866Y-99214285D01*
X154073866Y-99214285D02*
X154264342Y-99261904D01*
X154264342Y-99261904D02*
X154359580Y-99309523D01*
X154359580Y-99309523D02*
X154407200Y-99357142D01*
X154407200Y-99357142D02*
X154454819Y-99452380D01*
X154454819Y-99452380D02*
X154454819Y-99547618D01*
X154454819Y-99547618D02*
X154407200Y-99642856D01*
X154407200Y-99642856D02*
X154359580Y-99690475D01*
X154359580Y-99690475D02*
X154264342Y-99738094D01*
X154264342Y-99738094D02*
X154073866Y-99785713D01*
X154073866Y-99785713D02*
X153835771Y-99785713D01*
X153835771Y-99785713D02*
X153645295Y-99738094D01*
X153645295Y-99738094D02*
X153550057Y-99690475D01*
X153550057Y-99690475D02*
X153502438Y-99642856D01*
X153502438Y-99642856D02*
X153454819Y-99547618D01*
X153883390Y-98642856D02*
X153835771Y-98738094D01*
X153835771Y-98738094D02*
X153788152Y-98785713D01*
X153788152Y-98785713D02*
X153692914Y-98833332D01*
X153692914Y-98833332D02*
X153645295Y-98833332D01*
X153645295Y-98833332D02*
X153550057Y-98785713D01*
X153550057Y-98785713D02*
X153502438Y-98738094D01*
X153502438Y-98738094D02*
X153454819Y-98642856D01*
X153454819Y-98642856D02*
X153454819Y-98452380D01*
X153454819Y-98452380D02*
X153502438Y-98357142D01*
X153502438Y-98357142D02*
X153550057Y-98309523D01*
X153550057Y-98309523D02*
X153645295Y-98261904D01*
X153645295Y-98261904D02*
X153692914Y-98261904D01*
X153692914Y-98261904D02*
X153788152Y-98309523D01*
X153788152Y-98309523D02*
X153835771Y-98357142D01*
X153835771Y-98357142D02*
X153883390Y-98452380D01*
X153883390Y-98452380D02*
X153883390Y-98642856D01*
X153883390Y-98642856D02*
X153931009Y-98738094D01*
X153931009Y-98738094D02*
X153978628Y-98785713D01*
X153978628Y-98785713D02*
X154073866Y-98833332D01*
X154073866Y-98833332D02*
X154264342Y-98833332D01*
X154264342Y-98833332D02*
X154359580Y-98785713D01*
X154359580Y-98785713D02*
X154407200Y-98738094D01*
X154407200Y-98738094D02*
X154454819Y-98642856D01*
X154454819Y-98642856D02*
X154454819Y-98452380D01*
X154454819Y-98452380D02*
X154407200Y-98357142D01*
X154407200Y-98357142D02*
X154359580Y-98309523D01*
X154359580Y-98309523D02*
X154264342Y-98261904D01*
X154264342Y-98261904D02*
X154073866Y-98261904D01*
X154073866Y-98261904D02*
X153978628Y-98309523D01*
X153978628Y-98309523D02*
X153931009Y-98357142D01*
X153931009Y-98357142D02*
X153883390Y-98452380D01*
X154550057Y-98071428D02*
X154550057Y-97309523D01*
X153788152Y-96642856D02*
X154454819Y-96642856D01*
X153407200Y-96880951D02*
X154121485Y-97119046D01*
X154121485Y-97119046D02*
X154121485Y-96499999D01*
X153454819Y-95928570D02*
X153454819Y-95833332D01*
X153454819Y-95833332D02*
X153502438Y-95738094D01*
X153502438Y-95738094D02*
X153550057Y-95690475D01*
X153550057Y-95690475D02*
X153645295Y-95642856D01*
X153645295Y-95642856D02*
X153835771Y-95595237D01*
X153835771Y-95595237D02*
X154073866Y-95595237D01*
X154073866Y-95595237D02*
X154264342Y-95642856D01*
X154264342Y-95642856D02*
X154359580Y-95690475D01*
X154359580Y-95690475D02*
X154407200Y-95738094D01*
X154407200Y-95738094D02*
X154454819Y-95833332D01*
X154454819Y-95833332D02*
X154454819Y-95928570D01*
X154454819Y-95928570D02*
X154407200Y-96023808D01*
X154407200Y-96023808D02*
X154359580Y-96071427D01*
X154359580Y-96071427D02*
X154264342Y-96119046D01*
X154264342Y-96119046D02*
X154073866Y-96166665D01*
X154073866Y-96166665D02*
X153835771Y-96166665D01*
X153835771Y-96166665D02*
X153645295Y-96119046D01*
X153645295Y-96119046D02*
X153550057Y-96071427D01*
X153550057Y-96071427D02*
X153502438Y-96023808D01*
X153502438Y-96023808D02*
X153454819Y-95928570D01*
X153454819Y-94976189D02*
X153454819Y-94880951D01*
X153454819Y-94880951D02*
X153502438Y-94785713D01*
X153502438Y-94785713D02*
X153550057Y-94738094D01*
X153550057Y-94738094D02*
X153645295Y-94690475D01*
X153645295Y-94690475D02*
X153835771Y-94642856D01*
X153835771Y-94642856D02*
X154073866Y-94642856D01*
X154073866Y-94642856D02*
X154264342Y-94690475D01*
X154264342Y-94690475D02*
X154359580Y-94738094D01*
X154359580Y-94738094D02*
X154407200Y-94785713D01*
X154407200Y-94785713D02*
X154454819Y-94880951D01*
X154454819Y-94880951D02*
X154454819Y-94976189D01*
X154454819Y-94976189D02*
X154407200Y-95071427D01*
X154407200Y-95071427D02*
X154359580Y-95119046D01*
X154359580Y-95119046D02*
X154264342Y-95166665D01*
X154264342Y-95166665D02*
X154073866Y-95214284D01*
X154073866Y-95214284D02*
X153835771Y-95214284D01*
X153835771Y-95214284D02*
X153645295Y-95166665D01*
X153645295Y-95166665D02*
X153550057Y-95119046D01*
X153550057Y-95119046D02*
X153502438Y-95071427D01*
X153502438Y-95071427D02*
X153454819Y-94976189D01*
X153454819Y-94023808D02*
X153454819Y-93928570D01*
X153454819Y-93928570D02*
X153502438Y-93833332D01*
X153502438Y-93833332D02*
X153550057Y-93785713D01*
X153550057Y-93785713D02*
X153645295Y-93738094D01*
X153645295Y-93738094D02*
X153835771Y-93690475D01*
X153835771Y-93690475D02*
X154073866Y-93690475D01*
X154073866Y-93690475D02*
X154264342Y-93738094D01*
X154264342Y-93738094D02*
X154359580Y-93785713D01*
X154359580Y-93785713D02*
X154407200Y-93833332D01*
X154407200Y-93833332D02*
X154454819Y-93928570D01*
X154454819Y-93928570D02*
X154454819Y-94023808D01*
X154454819Y-94023808D02*
X154407200Y-94119046D01*
X154407200Y-94119046D02*
X154359580Y-94166665D01*
X154359580Y-94166665D02*
X154264342Y-94214284D01*
X154264342Y-94214284D02*
X154073866Y-94261903D01*
X154073866Y-94261903D02*
X153835771Y-94261903D01*
X153835771Y-94261903D02*
X153645295Y-94214284D01*
X153645295Y-94214284D02*
X153550057Y-94166665D01*
X153550057Y-94166665D02*
X153502438Y-94119046D01*
X153502438Y-94119046D02*
X153454819Y-94023808D01*
%TO.C,U1*%
D11*
X152000000Y-102000000D02*
X148500000Y-102000000D01*
X148000000Y-101500000D02*
X148500000Y-102000000D01*
X148000000Y-101500000D02*
X148000000Y-98000000D01*
X148000000Y-98000000D02*
X152000000Y-98000000D01*
X152000000Y-98000000D02*
X152000000Y-102000000D01*
%TD*%
M02*
