%TF.GenerationSoftware,KiCad,Pcbnew,10.0.3-10.0.3~ubuntu24.04.1*%
%TF.CreationDate,2026-06-15T14:30:12+08:00*%
%TF.ProjectId,lumileds-no-resistor,6c756d69-6c65-4647-932d-6e6f2d726573,rev?*%
%TF.SameCoordinates,Original*%
%TF.FileFunction,Legend,Top*%
%TF.FilePolarity,Positive*%
%FSLAX46Y46*%
G04 Gerber Fmt 4.6, Leading zero omitted, Abs format (unit mm)*
G04 Created by KiCad (PCBNEW 10.0.3-10.0.3~ubuntu24.04.1) date 2026-06-15 14:30:12*
%MOMM*%
%LPD*%
G01*
G04 APERTURE LIST*
%ADD10C,0.150000*%
%ADD11C,0.100000*%
%ADD12C,0.120000*%
G04 APERTURE END LIST*
D10*
X155238095Y-103254819D02*
X155238095Y-102254819D01*
X155238095Y-102731009D02*
X155809523Y-102731009D01*
X155809523Y-103254819D02*
X155809523Y-102254819D01*
X156190476Y-102254819D02*
X156809523Y-102254819D01*
X156809523Y-102254819D02*
X156476190Y-102635771D01*
X156476190Y-102635771D02*
X156619047Y-102635771D01*
X156619047Y-102635771D02*
X156714285Y-102683390D01*
X156714285Y-102683390D02*
X156761904Y-102731009D01*
X156761904Y-102731009D02*
X156809523Y-102826247D01*
X156809523Y-102826247D02*
X156809523Y-103064342D01*
X156809523Y-103064342D02*
X156761904Y-103159580D01*
X156761904Y-103159580D02*
X156714285Y-103207200D01*
X156714285Y-103207200D02*
X156619047Y-103254819D01*
X156619047Y-103254819D02*
X156333333Y-103254819D01*
X156333333Y-103254819D02*
X156238095Y-103207200D01*
X156238095Y-103207200D02*
X156190476Y-103159580D01*
X143238095Y-103254819D02*
X143238095Y-102254819D01*
X143238095Y-102731009D02*
X143809523Y-102731009D01*
X143809523Y-103254819D02*
X143809523Y-102254819D01*
X144714285Y-102588152D02*
X144714285Y-103254819D01*
X144476190Y-102207200D02*
X144238095Y-102921485D01*
X144238095Y-102921485D02*
X144857142Y-102921485D01*
X155238095Y-91254819D02*
X155238095Y-90254819D01*
X155238095Y-90731009D02*
X155809523Y-90731009D01*
X155809523Y-91254819D02*
X155809523Y-90254819D01*
X156238095Y-90350057D02*
X156285714Y-90302438D01*
X156285714Y-90302438D02*
X156380952Y-90254819D01*
X156380952Y-90254819D02*
X156619047Y-90254819D01*
X156619047Y-90254819D02*
X156714285Y-90302438D01*
X156714285Y-90302438D02*
X156761904Y-90350057D01*
X156761904Y-90350057D02*
X156809523Y-90445295D01*
X156809523Y-90445295D02*
X156809523Y-90540533D01*
X156809523Y-90540533D02*
X156761904Y-90683390D01*
X156761904Y-90683390D02*
X156190476Y-91254819D01*
X156190476Y-91254819D02*
X156809523Y-91254819D01*
X143238095Y-91254819D02*
X143238095Y-90254819D01*
X143238095Y-90731009D02*
X143809523Y-90731009D01*
X143809523Y-91254819D02*
X143809523Y-90254819D01*
X144809523Y-91254819D02*
X144238095Y-91254819D01*
X144523809Y-91254819D02*
X144523809Y-90254819D01*
X144523809Y-90254819D02*
X144428571Y-90397676D01*
X144428571Y-90397676D02*
X144333333Y-90492914D01*
X144333333Y-90492914D02*
X144238095Y-90540533D01*
D11*
X145457419Y-100761904D02*
X146266942Y-100761904D01*
X146266942Y-100761904D02*
X146362180Y-100714285D01*
X146362180Y-100714285D02*
X146409800Y-100666666D01*
X146409800Y-100666666D02*
X146457419Y-100571428D01*
X146457419Y-100571428D02*
X146457419Y-100380952D01*
X146457419Y-100380952D02*
X146409800Y-100285714D01*
X146409800Y-100285714D02*
X146362180Y-100238095D01*
X146362180Y-100238095D02*
X146266942Y-100190476D01*
X146266942Y-100190476D02*
X145457419Y-100190476D01*
X146457419Y-99190476D02*
X146457419Y-99761904D01*
X146457419Y-99476190D02*
X145457419Y-99476190D01*
X145457419Y-99476190D02*
X145600276Y-99571428D01*
X145600276Y-99571428D02*
X145695514Y-99666666D01*
X145695514Y-99666666D02*
X145743133Y-99761904D01*
%TO.C,U1*%
D12*
X147550000Y-102450000D02*
X152450000Y-102450000D01*
X147550000Y-98000000D02*
X147550000Y-102450000D01*
X152450000Y-98000000D02*
X152450000Y-102450000D01*
%TD*%
M02*
