<svg xmlns="http://www.w3.org/2000/svg" width="896" height="486" viewBox="0 0 896 486">
<rect width="100%" height="100%" fill="white"/>
<rect x="54.00" y="54.00" width="378.00" height="378.00" rx="7.20" fill="#f7fafc" stroke="#1a202c" stroke-width="2"/>
<circle cx="243.00" cy="243.00" r="108.00" fill="none" stroke="#38a169" stroke-width="2" stroke-dasharray="7 5"/>
<line x1="54.00" y1="243.00" x2="432.00" y2="243.00" stroke="#cbd5e0" stroke-width="1"/>
<line x1="243.00" y1="54.00" x2="243.00" y2="432.00" stroke="#cbd5e0" stroke-width="1"/>
<circle cx="108.00" cy="378.00" r="28.80" fill="#ebf8ff" stroke="#3182ce" stroke-width="2"/>
<circle cx="108.00" cy="108.00" r="28.80" fill="#ebf8ff" stroke="#3182ce" stroke-width="2"/>
<circle cx="378.00" cy="378.00" r="28.80" fill="#ebf8ff" stroke="#3182ce" stroke-width="2"/>
<circle cx="378.00" cy="108.00" r="28.80" fill="#ebf8ff" stroke="#3182ce" stroke-width="2"/>
<circle cx="243.00" cy="243.00" r="45.00" fill="#fffaf0" stroke="#dd6b20" stroke-width="2"/><text x="249.0" y="237.0" font-family="Arial" font-size="11" fill="#1a202c">LED aperture</text>
<circle cx="189.00" cy="297.00" r="10.80" fill="#fefcbf" stroke="#b7791f" stroke-width="2"/><text x="195.0" y="291.0" font-family="Arial" font-size="11" fill="#1a202c">M2 1</text>
<circle cx="297.00" cy="297.00" r="10.80" fill="#fefcbf" stroke="#b7791f" stroke-width="2"/><text x="303.0" y="291.0" font-family="Arial" font-size="11" fill="#1a202c">M2 2</text>
<circle cx="189.00" cy="189.00" r="10.80" fill="#fefcbf" stroke="#b7791f" stroke-width="2"/><text x="195.0" y="183.0" font-family="Arial" font-size="11" fill="#1a202c">M2 3</text>
<circle cx="297.00" cy="189.00" r="10.80" fill="#fefcbf" stroke="#b7791f" stroke-width="2"/><text x="303.0" y="183.0" font-family="Arial" font-size="11" fill="#1a202c">M2 4</text>
<circle cx="333.00" cy="234.00" r="7.20" fill="#fed7d7" stroke="#c53030" stroke-width="2"/><text x="339.0" y="228.0" font-family="Arial" font-size="11" fill="#1a202c">J1-1</text>
<circle cx="333.00" cy="256.86" r="7.20" fill="#fed7d7" stroke="#c53030" stroke-width="2"/><text x="339.0" y="250.86" font-family="Arial" font-size="11" fill="#1a202c">J1-2</text>
<text x="466.00" y="54.00" font-family="Arial" font-size="17" font-weight="700" fill="#1a202c">Lumileds simple aligned holder</text>
<text x="466.00" y="79.00" font-family="Arial" font-size="13" font-weight="400" fill="#1a202c">One body: 42.0 x 42.0 x 8.0 mm</text>
<text x="466.00" y="104.00" font-family="Arial" font-size="13" font-weight="400" fill="#1a202c">PCB: dia 24.0 mm, centered at origin</text>
<text x="466.00" y="129.00" font-family="Arial" font-size="13" font-weight="400" fill="#1a202c">PCB M2 holes: copied from KiCad, +/-6 mm</text>
<text x="466.00" y="154.00" font-family="Arial" font-size="13" font-weight="400" fill="#1a202c">Cage rods: 30 mm pitch, dia 6.4 mm</text>
<text x="466.00" y="179.00" font-family="Arial" font-size="13" font-weight="400" fill="#1a202c">No counterbore, no recessed pocket, no bottom pilot</text>
<text x="466.00" y="204.00" font-family="Arial" font-size="13" font-weight="400" fill="#1a202c">PCB sits flat on rear face; holes do the alignment</text>
</svg>
